<?xml version="1.0" encoding="UTF-8" standalone="no"?>
<!DOCTYPE svg PUBLIC "-//W3C//DTD SVG 1.1//EN" "http://www.w3.org/Graphics/SVG/1.1/DTD/svg11.dtd">
<svg xmlns="http://www.w3.org/2000/svg" version="1.1" viewBox="0.00 0.00 400.00 400.00">
<g stroke-width="2.00" fill="none" stroke-linecap="butt">
<path stroke="#808080" vector-effect="non-scaling-stroke" d="
  M 249.70 271.12
  L 256.50 270.17
  A 1.07 1.07 0.0 0 0 257.41 268.95
  L 254.43 249.24
  Q 254.34 248.64 253.73 248.73
  L 246.75 249.76
  Q 246.22 249.84 246.15 249.31
  L 242.29 222.03
  Q 242.23 221.61 242.60 221.39
  C 267.67 207.48 284.75 184.20 289.37 155.99
  C 297.29 107.69 265.26 61.55 216.98 52.18
  C 161.82 41.47 111.17 83.03 109.08 138.52
  C 107.77 173.52 126.72 204.16 156.87 221.41
  Q 157.40 221.71 157.31 222.31
  L 153.47 249.33
  Q 153.40 249.82 152.92 249.74
  L 146.51 248.75
  A 0.88 0.87 -81.2 0 0 145.51 249.49
  L 142.51 269.44
  Q 142.43 269.95 142.94 270.03
  L 150.19 271.13
  A 0.23 0.22 -64.2 0 1 150.32 271.51
  C 135.47 287.49 134.21 307.08 147.39 324.89
  Q 147.66 325.25 148.02 324.97
  C 164.62 312.29 169.91 293.84 160.87 274.46
  A 1.09 1.08 -7.9 0 1 162.03 272.93
  L 168.48 273.96
  Q 169.03 274.05 169.12 273.50
  L 172.14 253.15
  Q 172.21 252.65 171.71 252.58
  L 164.70 251.53
  A 0.50 0.50 0.0 0 1 164.27 250.96
  L 167.67 226.94
  Q 167.76 226.27 168.40 226.50
  Q 180.67 231.00 193.72 231.91
  Q 194.25 231.95 194.25 232.49
  L 194.25 271.50
  Q 194.25 272.00 193.75 272.00
  L 187.25 272.00
  Q 186.50 272.00 186.50 272.75
  L 186.50 293.00
  Q 186.50 293.50 187.00 293.50
  L 193.75 293.50
  Q 194.25 293.50 194.25 294.00
  L 194.25 299.02
  Q 194.25 299.51 193.99 299.92
  C 182.70 318.11 184.28 336.46 199.47 351.85
  Q 199.76 352.14 200.05 351.85
  C 215.45 336.60 216.97 317.80 205.55 299.82
  Q 205.25 299.35 205.25 298.79
  L 205.25 294.00
  Q 205.25 293.50 205.75 293.50
  L 213.00 293.50
  Q 213.50 293.50 213.50 293.00
  L 213.50 272.75
  Q 213.50 272.00 212.75 272.00
  L 205.75 272.00
  Q 205.25 272.00 205.25 271.50
  L 205.25 232.49
  Q 205.25 231.97 205.77 231.93
  Q 218.92 230.96 231.31 226.46
  Q 231.86 226.26 231.94 226.83
  L 235.28 250.83
  A 0.70 0.69 82.5 0 1 234.69 251.61
  L 228.30 252.52
  Q 227.71 252.60 227.80 253.19
  L 230.88 273.49
  Q 230.96 274.03 231.50 273.95
  L 237.74 272.99
  A 0.84 0.83 5.7 0 1 238.65 274.10
  C 236.14 281.06 234.07 286.98 234.29 294.58
  C 234.64 306.65 242.27 317.90 251.72 325.05
  Q 252.06 325.31 252.31 324.95
  C 265.43 305.87 264.06 288.90 249.47 271.73
  Q 249.03 271.21 249.70 271.12"
/>
<path stroke="#808080" vector-effect="non-scaling-stroke" d="
  M 268.91 141.33
  A 69.10 69.10 0.0 0 0 199.81 72.23
  A 69.10 69.10 0.0 0 0 130.71 141.33
  A 69.10 69.10 0.0 0 0 199.81 210.43
  A 69.10 69.10 0.0 0 0 268.91 141.33"
/>
<path stroke="#808080" vector-effect="non-scaling-stroke" d="
  M 261.23 141.34
  A 61.42 61.42 0.0 0 0 199.81 79.92
  A 61.42 61.42 0.0 0 0 138.39 141.34
  A 61.42 61.42 0.0 0 0 199.81 202.76
  A 61.42 61.42 0.0 0 0 261.23 141.34"
/>
<path stroke="#808080" vector-effect="non-scaling-stroke" d="
  M 223.74 109.55
  Q 215.80 103.82 206.16 102.03
  Q 205.35 101.88 205.76 102.59
  Q 209.33 108.90 210.28 116.09
  Q 210.38 116.92 211.05 116.42
  Q 216.78 112.19 223.63 110.18
  A 0.36 0.36 0.0 0 0 223.74 109.55"
/>
<path stroke="#808080" vector-effect="non-scaling-stroke" d="
  M 176.06 110.23
  Q 182.90 112.30 188.67 116.50
  Q 189.12 116.83 189.20 116.28
  Q 190.19 109.60 193.32 103.60
  Q 194.25 101.79 192.27 102.23
  Q 183.35 104.18 175.94 109.51
  A 0.41 0.41 0.0 0 0 176.06 110.23"
/>
<path stroke="#808080" vector-effect="non-scaling-stroke" d="
  M 199.43 104.28
  C 196.59 109.19 192.81 118.83 195.68 124.10
  Q 197.79 127.97 199.49 132.11
  Q 199.74 132.73 200.01 132.12
  Q 201.83 128.01 204.00 124.03
  C 206.89 118.76 202.95 108.85 199.98 104.27
  A 0.32 0.32 0.0 0 0 199.43 104.28"
/>
<path stroke="#808080" vector-effect="non-scaling-stroke" d="
  M 189.84 127.18
  C 188.20 121.02 178.37 116.60 173.04 115.32
  Q 172.47 115.18 172.59 115.76
  C 173.80 121.72 178.20 131.08 184.66 132.81
  Q 188.48 133.83 192.19 135.42
  Q 192.87 135.71 192.58 135.03
  Q 190.89 131.14 189.84 127.18"
/>
<path stroke="#808080" vector-effect="non-scaling-stroke" d="
  M 212.10 123.10
  C 209.37 125.68 208.56 131.61 206.93 135.27
  A 0.24 0.24 0.0 0 0 207.26 135.58
  Q 211.74 133.39 216.65 132.43
  Q 217.16 132.33 217.55 131.99
  Q 224.95 125.46 227.15 115.75
  Q 227.26 115.26 226.77 115.37
  Q 218.32 117.21 212.10 123.10"
/>
<path stroke="#808080" vector-effect="non-scaling-stroke" d="
  M 226.09 132.11
  Q 232.73 133.03 238.70 136.10
  Q 239.33 136.42 239.21 135.73
  Q 237.75 126.76 232.80 119.13
  Q 232.34 118.43 232.11 119.23
  Q 230.13 125.98 225.87 131.58
  Q 225.52 132.03 226.09 132.11"
/>
<path stroke="#808080" vector-effect="non-scaling-stroke" d="
  M 166.69 119.43
  Q 161.80 126.87 160.45 135.69
  Q 160.35 136.38 160.97 136.05
  Q 166.81 132.96 173.37 132.17
  Q 174.18 132.07 173.67 131.43
  Q 169.48 126.12 167.65 119.58
  A 0.54 0.53 -35.9 0 0 166.69 119.43"
/>
<path stroke="#808080" vector-effect="non-scaling-stroke" d="
  M 189.61 142.46
  Q 185.28 140.84 181.71 138.70
  C 176.33 135.49 166.31 139.27 161.46 142.35
  Q 161.02 142.62 161.45 142.91
  Q 168.98 147.85 177.94 147.75
  C 181.30 147.71 186.30 144.09 189.62 142.82
  A 0.19 0.19 0.0 0 0 189.61 142.46"
/>
<path stroke="#808080" vector-effect="non-scaling-stroke" d="
  M 238.26 142.43
  Q 230.14 137.38 220.52 137.46
  Q 219.99 137.47 219.54 137.76
  Q 215.24 140.55 210.44 142.29
  Q 209.68 142.56 210.42 142.90
  C 213.75 144.39 218.91 147.93 222.45 147.81
  Q 231.15 147.52 238.27 142.84
  Q 238.59 142.63 238.26 142.43"
/>
<path stroke="#808080" vector-effect="non-scaling-stroke" d="
  M 173.35 153.05
  C 168.83 152.24 165.78 151.52 161.50 149.58
  Q 160.79 149.26 160.98 150.02
  Q 162.85 157.82 167.45 164.40
  A 0.32 0.32 0.0 0 0 168.01 164.33
  Q 170.13 158.67 173.63 153.74
  Q 174.04 153.17 173.35 153.05"
/>
<path stroke="#808080" vector-effect="non-scaling-stroke" d="
  M 232.28 164.29
  Q 236.78 157.68 238.69 149.92
  Q 238.87 149.17 238.19 149.51
  Q 232.51 152.36 226.22 153.16
  Q 225.59 153.24 225.96 153.75
  Q 229.45 158.60 231.55 164.20
  A 0.41 0.41 0.0 0 0 232.28 164.29"
/>
<path stroke="#808080" vector-effect="non-scaling-stroke" d="
  M 184.49 152.57
  C 178.14 154.22 173.77 163.82 172.46 169.61
  A 0.33 0.33 0.0 0 0 172.86 170.00
  C 178.55 168.68 187.74 164.51 189.71 158.44
  Q 191.03 154.39 192.39 150.29
  Q 192.60 149.67 192.01 149.94
  Q 188.32 151.58 184.49 152.57"
/>
<path stroke="#808080" vector-effect="non-scaling-stroke" d="
  M 219.91 155.71
  C 216.76 152.36 211.84 151.48 207.53 150.13
  Q 206.94 149.94 207.18 150.51
  Q 208.69 154.06 209.70 157.84
  C 211.42 164.25 220.74 168.68 226.65 169.97
  Q 227.18 170.08 227.07 169.55
  Q 225.33 161.47 219.91 155.71"
/>
<path stroke="#808080" vector-effect="non-scaling-stroke" d="
  M 199.61 153.00
  Q 197.89 157.21 195.81 160.95
  C 192.79 166.39 196.40 176.02 199.50 180.89
  Q 199.80 181.35 200.10 180.89
  C 203.25 176.05 206.96 166.14 203.73 160.70
  Q 201.47 156.90 200.06 153.01
  Q 199.84 152.43 199.61 153.00"
/>
<path stroke="#808080" vector-effect="non-scaling-stroke" d="
  M 178.44 174.84
  Q 184.73 178.85 192.05 180.37
  Q 192.71 180.50 192.42 179.89
  Q 190.01 174.73 189.24 169.07
  Q 189.16 168.42 188.64 168.82
  Q 184.00 172.34 178.51 174.30
  A 0.31 0.30 -38.2 0 0 178.44 174.84"
/>
<path stroke="#808080" vector-effect="non-scaling-stroke" d="
  M 221.14 174.31
  Q 215.62 172.29 210.92 168.74
  A 0.35 0.35 0.0 0 0 210.36 168.98
  Q 209.62 174.73 207.21 180.00
  Q 206.97 180.52 207.52 180.39
  Q 214.82 178.77 221.20 174.86
  Q 221.74 174.53 221.14 174.31"
/>
</g>
<path fill="#ffffff" d="
  M 0.00 0.00
  L 400.00 0.00
  L 400.00 400.00
  L 0.00 400.00
  L 0.00 0.00
  Z
  M 249.70 271.12
  L 256.50 270.17
  A 1.07 1.07 0.0 0 0 257.41 268.95
  L 254.43 249.24
  Q 254.34 248.64 253.73 248.73
  L 246.75 249.76
  Q 246.22 249.84 246.15 249.31
  L 242.29 222.03
  Q 242.23 221.61 242.60 221.39
  C 267.67 207.48 284.75 184.20 289.37 155.99
  C 297.29 107.69 265.26 61.55 216.98 52.18
  C 161.82 41.47 111.17 83.03 109.08 138.52
  C 107.77 173.52 126.72 204.16 156.87 221.41
  Q 157.40 221.71 157.31 222.31
  L 153.47 249.33
  Q 153.40 249.82 152.92 249.74
  L 146.51 248.75
  A 0.88 0.87 -81.2 0 0 145.51 249.49
  L 142.51 269.44
  Q 142.43 269.95 142.94 270.03
  L 150.19 271.13
  A 0.23 0.22 -64.2 0 1 150.32 271.51
  C 135.47 287.49 134.21 307.08 147.39 324.89
  Q 147.66 325.25 148.02 324.97
  C 164.62 312.29 169.91 293.84 160.87 274.46
  A 1.09 1.08 -7.9 0 1 162.03 272.93
  L 168.48 273.96
  Q 169.03 274.05 169.12 273.50
  L 172.14 253.15
  Q 172.21 252.65 171.71 252.58
  L 164.70 251.53
  A 0.50 0.50 0.0 0 1 164.27 250.96
  L 167.67 226.94
  Q 167.76 226.27 168.40 226.50
  Q 180.67 231.00 193.72 231.91
  Q 194.25 231.95 194.25 232.49
  L 194.25 271.50
  Q 194.25 272.00 193.75 272.00
  L 187.25 272.00
  Q 186.50 272.00 186.50 272.75
  L 186.50 293.00
  Q 186.50 293.50 187.00 293.50
  L 193.75 293.50
  Q 194.25 293.50 194.25 294.00
  L 194.25 299.02
  Q 194.25 299.51 193.99 299.92
  C 182.70 318.11 184.28 336.46 199.47 351.85
  Q 199.76 352.14 200.05 351.85
  C 215.45 336.60 216.97 317.80 205.55 299.82
  Q 205.25 299.35 205.25 298.79
  L 205.25 294.00
  Q 205.25 293.50 205.75 293.50
  L 213.00 293.50
  Q 213.50 293.50 213.50 293.00
  L 213.50 272.75
  Q 213.50 272.00 212.75 272.00
  L 205.75 272.00
  Q 205.25 272.00 205.25 271.50
  L 205.25 232.49
  Q 205.25 231.97 205.77 231.93
  Q 218.92 230.96 231.31 226.46
  Q 231.86 226.26 231.94 226.83
  L 235.28 250.83
  A 0.70 0.69 82.5 0 1 234.69 251.61
  L 228.30 252.52
  Q 227.71 252.60 227.80 253.19
  L 230.88 273.49
  Q 230.96 274.03 231.50 273.95
  L 237.74 272.99
  A 0.84 0.83 5.7 0 1 238.65 274.10
  C 236.14 281.06 234.07 286.98 234.29 294.58
  C 234.64 306.65 242.27 317.90 251.72 325.05
  Q 252.06 325.31 252.31 324.95
  C 265.43 305.87 264.06 288.90 249.47 271.73
  Q 249.03 271.21 249.70 271.12
  Z"
/>
<path fill="#000000" d="
  M 249.47 271.73
  C 264.06 288.90 265.43 305.87 252.31 324.95
  Q 252.06 325.31 251.72 325.05
  C 242.27 317.90 234.64 306.65 234.29 294.58
  C 234.07 286.98 236.14 281.06 238.65 274.10
  A 0.84 0.83 5.7 0 0 237.74 272.99
  L 231.50 273.95
  Q 230.96 274.03 230.88 273.49
  L 227.80 253.19
  Q 227.71 252.60 228.30 252.52
  L 234.69 251.61
  A 0.70 0.69 82.5 0 0 235.28 250.83
  L 231.94 226.83
  Q 231.86 226.26 231.31 226.46
  Q 218.92 230.96 205.77 231.93
  Q 205.25 231.97 205.25 232.49
  L 205.25 271.50
  Q 205.25 272.00 205.75 272.00
  L 212.75 272.00
  Q 213.50 272.00 213.50 272.75
  L 213.50 293.00
  Q 213.50 293.50 213.00 293.50
  L 205.75 293.50
  Q 205.25 293.50 205.25 294.00
  L 205.25 298.79
  Q 205.25 299.35 205.55 299.82
  C 216.97 317.80 215.45 336.60 200.05 351.85
  Q 199.76 352.14 199.47 351.85
  C 184.28 336.46 182.70 318.11 193.99 299.92
  Q 194.25 299.51 194.25 299.02
  L 194.25 294.00
  Q 194.25 293.50 193.75 293.50
  L 187.00 293.50
  Q 186.50 293.50 186.50 293.00
  L 186.50 272.75
  Q 186.50 272.00 187.25 272.00
  L 193.75 272.00
  Q 194.25 272.00 194.25 271.50
  L 194.25 232.49
  Q 194.25 231.95 193.72 231.91
  Q 180.67 231.00 168.40 226.50
  Q 167.76 226.27 167.67 226.94
  L 164.27 250.96
  A 0.50 0.50 0.0 0 0 164.70 251.53
  L 171.71 252.58
  Q 172.21 252.65 172.14 253.15
  L 169.12 273.50
  Q 169.03 274.05 168.48 273.96
  L 162.03 272.93
  A 1.09 1.08 -7.9 0 0 160.87 274.46
  C 169.91 293.84 164.62 312.29 148.02 324.97
  Q 147.66 325.25 147.39 324.89
  C 134.21 307.08 135.47 287.49 150.32 271.51
  A 0.23 0.22 -64.2 0 0 150.19 271.13
  L 142.94 270.03
  Q 142.43 269.95 142.51 269.44
  L 145.51 249.49
  A 0.88 0.87 -81.2 0 1 146.51 248.75
  L 152.92 249.74
  Q 153.40 249.82 153.47 249.33
  L 157.31 222.31
  Q 157.40 221.71 156.87 221.41
  C 126.72 204.16 107.77 173.52 109.08 138.52
  C 111.17 83.03 161.82 41.47 216.98 52.18
  C 265.26 61.55 297.29 107.69 289.37 155.99
  C 284.75 184.20 267.67 207.48 242.60 221.39
  Q 242.23 221.61 242.29 222.03
  L 246.15 249.31
  Q 246.22 249.84 246.75 249.76
  L 253.73 248.73
  Q 254.34 248.64 254.43 249.24
  L 257.41 268.95
  A 1.07 1.07 0.0 0 1 256.50 270.17
  L 249.70 271.12
  Q 249.03 271.21 249.47 271.73
  Z
  M 268.91 141.33
  A 69.10 69.10 0.0 0 0 199.81 72.23
  A 69.10 69.10 0.0 0 0 130.71 141.33
  A 69.10 69.10 0.0 0 0 199.81 210.43
  A 69.10 69.10 0.0 0 0 268.91 141.33
  Z"
/>
<path fill="#ffffff" d="
  M 268.91 141.33
  A 69.10 69.10 0.0 0 1 199.81 210.43
  A 69.10 69.10 0.0 0 1 130.71 141.33
  A 69.10 69.10 0.0 0 1 199.81 72.23
  A 69.10 69.10 0.0 0 1 268.91 141.33
  Z
  M 261.23 141.34
  A 61.42 61.42 0.0 0 0 199.81 79.92
  A 61.42 61.42 0.0 0 0 138.39 141.34
  A 61.42 61.42 0.0 0 0 199.81 202.76
  A 61.42 61.42 0.0 0 0 261.23 141.34
  Z"
/>
<path fill="#000000" d="
  M 261.23 141.34
  A 61.42 61.42 0.0 0 1 199.81 202.76
  A 61.42 61.42 0.0 0 1 138.39 141.34
  A 61.42 61.42 0.0 0 1 199.81 79.92
  A 61.42 61.42 0.0 0 1 261.23 141.34
  Z
  M 223.74 109.55
  Q 215.80 103.82 206.16 102.03
  Q 205.35 101.88 205.76 102.59
  Q 209.33 108.90 210.28 116.09
  Q 210.38 116.92 211.05 116.42
  Q 216.78 112.19 223.63 110.18
  A 0.36 0.36 0.0 0 0 223.74 109.55
  Z
  M 176.06 110.23
  Q 182.90 112.30 188.67 116.50
  Q 189.12 116.83 189.20 116.28
  Q 190.19 109.60 193.32 103.60
  Q 194.25 101.79 192.27 102.23
  Q 183.35 104.18 175.94 109.51
  A 0.41 0.41 0.0 0 0 176.06 110.23
  Z
  M 199.43 104.28
  C 196.59 109.19 192.81 118.83 195.68 124.10
  Q 197.79 127.97 199.49 132.11
  Q 199.74 132.73 200.01 132.12
  Q 201.83 128.01 204.00 124.03
  C 206.89 118.76 202.95 108.85 199.98 104.27
  A 0.32 0.32 0.0 0 0 199.43 104.28
  Z
  M 189.84 127.18
  C 188.20 121.02 178.37 116.60 173.04 115.32
  Q 172.47 115.18 172.59 115.76
  C 173.80 121.72 178.20 131.08 184.66 132.81
  Q 188.48 133.83 192.19 135.42
  Q 192.87 135.71 192.58 135.03
  Q 190.89 131.14 189.84 127.18
  Z
  M 212.10 123.10
  C 209.37 125.68 208.56 131.61 206.93 135.27
  A 0.24 0.24 0.0 0 0 207.26 135.58
  Q 211.74 133.39 216.65 132.43
  Q 217.16 132.33 217.55 131.99
  Q 224.95 125.46 227.15 115.75
  Q 227.26 115.26 226.77 115.37
  Q 218.32 117.21 212.10 123.10
  Z
  M 226.09 132.11
  Q 232.73 133.03 238.70 136.10
  Q 239.33 136.42 239.21 135.73
  Q 237.75 126.76 232.80 119.13
  Q 232.34 118.43 232.11 119.23
  Q 230.13 125.98 225.87 131.58
  Q 225.52 132.03 226.09 132.11
  Z
  M 166.69 119.43
  Q 161.80 126.87 160.45 135.69
  Q 160.35 136.38 160.97 136.05
  Q 166.81 132.96 173.37 132.17
  Q 174.18 132.07 173.67 131.43
  Q 169.48 126.12 167.65 119.58
  A 0.54 0.53 -35.9 0 0 166.69 119.43
  Z
  M 189.61 142.46
  Q 185.28 140.84 181.71 138.70
  C 176.33 135.49 166.31 139.27 161.46 142.35
  Q 161.02 142.62 161.45 142.91
  Q 168.98 147.85 177.94 147.75
  C 181.30 147.71 186.30 144.09 189.62 142.82
  A 0.19 0.19 0.0 0 0 189.61 142.46
  Z
  M 238.26 142.43
  Q 230.14 137.38 220.52 137.46
  Q 219.99 137.47 219.54 137.76
  Q 215.24 140.55 210.44 142.29
  Q 209.68 142.56 210.42 142.90
  C 213.75 144.39 218.91 147.93 222.45 147.81
  Q 231.15 147.52 238.27 142.84
  Q 238.59 142.63 238.26 142.43
  Z
  M 173.35 153.05
  C 168.83 152.24 165.78 151.52 161.50 149.58
  Q 160.79 149.26 160.98 150.02
  Q 162.85 157.82 167.45 164.40
  A 0.32 0.32 0.0 0 0 168.01 164.33
  Q 170.13 158.67 173.63 153.74
  Q 174.04 153.17 173.35 153.05
  Z
  M 232.28 164.29
  Q 236.78 157.68 238.69 149.92
  Q 238.87 149.17 238.19 149.51
  Q 232.51 152.36 226.22 153.16
  Q 225.59 153.24 225.96 153.75
  Q 229.45 158.60 231.55 164.20
  A 0.41 0.41 0.0 0 0 232.28 164.29
  Z
  M 184.49 152.57
  C 178.14 154.22 173.77 163.82 172.46 169.61
  A 0.33 0.33 0.0 0 0 172.86 170.00
  C 178.55 168.68 187.74 164.51 189.71 158.44
  Q 191.03 154.39 192.39 150.29
  Q 192.60 149.67 192.01 149.94
  Q 188.32 151.58 184.49 152.57
  Z
  M 219.91 155.71
  C 216.76 152.36 211.84 151.48 207.53 150.13
  Q 206.94 149.94 207.18 150.51
  Q 208.69 154.06 209.70 157.84
  C 211.42 164.25 220.74 168.68 226.65 169.97
  Q 227.18 170.08 227.07 169.55
  Q 225.33 161.47 219.91 155.71
  Z
  M 199.61 153.00
  Q 197.89 157.21 195.81 160.95
  C 192.79 166.39 196.40 176.02 199.50 180.89
  Q 199.80 181.35 200.10 180.89
  C 203.25 176.05 206.96 166.14 203.73 160.70
  Q 201.47 156.90 200.06 153.01
  Q 199.84 152.43 199.61 153.00
  Z
  M 178.44 174.84
  Q 184.73 178.85 192.05 180.37
  Q 192.71 180.50 192.42 179.89
  Q 190.01 174.73 189.24 169.07
  Q 189.16 168.42 188.64 168.82
  Q 184.00 172.34 178.51 174.30
  A 0.31 0.30 -38.2 0 0 178.44 174.84
  Z
  M 221.14 174.31
  Q 215.62 172.29 210.92 168.74
  A 0.35 0.35 0.0 0 0 210.36 168.98
  Q 209.62 174.73 207.21 180.00
  Q 206.97 180.52 207.52 180.39
  Q 214.82 178.77 221.20 174.86
  Q 221.74 174.53 221.14 174.31
  Z"
/>
<path fill="#ffffff" d="
  M 223.74 109.55
  A 0.36 0.36 0.0 0 1 223.63 110.18
  Q 216.78 112.19 211.05 116.42
  Q 210.38 116.92 210.28 116.09
  Q 209.33 108.90 205.76 102.59
  Q 205.35 101.88 206.16 102.03
  Q 215.80 103.82 223.74 109.55
  Z"
/>
<path fill="#ffffff" d="
  M 176.06 110.23
  A 0.41 0.41 0.0 0 1 175.94 109.51
  Q 183.35 104.18 192.27 102.23
  Q 194.25 101.79 193.32 103.60
  Q 190.19 109.60 189.20 116.28
  Q 189.12 116.83 188.67 116.50
  Q 182.90 112.30 176.06 110.23
  Z"
/>
<path fill="#ffffff" d="
  M 199.43 104.28
  A 0.32 0.32 0.0 0 1 199.98 104.27
  C 202.95 108.85 206.89 118.76 204.00 124.03
  Q 201.83 128.01 200.01 132.12
  Q 199.74 132.73 199.49 132.11
  Q 197.79 127.97 195.68 124.10
  C 192.81 118.83 196.59 109.19 199.43 104.28
  Z"
/>
<path fill="#ffffff" d="
  M 173.04 115.32
  C 178.37 116.60 188.20 121.02 189.84 127.18
  Q 190.89 131.14 192.58 135.03
  Q 192.87 135.71 192.19 135.42
  Q 188.48 133.83 184.66 132.81
  C 178.20 131.08 173.80 121.72 172.59 115.76
  Q 172.47 115.18 173.04 115.32
  Z"
/>
<path fill="#ffffff" d="
  M 212.10 123.10
  Q 218.32 117.21 226.77 115.37
  Q 227.26 115.26 227.15 115.75
  Q 224.95 125.46 217.55 131.99
  Q 217.16 132.33 216.65 132.43
  Q 211.74 133.39 207.26 135.58
  A 0.24 0.24 0.0 0 1 206.93 135.27
  C 208.56 131.61 209.37 125.68 212.10 123.10
  Z"
/>
<path fill="#ffffff" d="
  M 226.09 132.11
  Q 225.52 132.03 225.87 131.58
  Q 230.13 125.98 232.11 119.23
  Q 232.34 118.43 232.80 119.13
  Q 237.75 126.76 239.21 135.73
  Q 239.33 136.42 238.70 136.10
  Q 232.73 133.03 226.09 132.11
  Z"
/>
<path fill="#ffffff" d="
  M 166.69 119.43
  A 0.54 0.53 -35.9 0 1 167.65 119.58
  Q 169.48 126.12 173.67 131.43
  Q 174.18 132.07 173.37 132.17
  Q 166.81 132.96 160.97 136.05
  Q 160.35 136.38 160.45 135.69
  Q 161.80 126.87 166.69 119.43
  Z"
/>
<path fill="#ffffff" d="
  M 189.61 142.46
  A 0.19 0.19 0.0 0 1 189.62 142.82
  C 186.30 144.09 181.30 147.71 177.94 147.75
  Q 168.98 147.85 161.45 142.91
  Q 161.02 142.62 161.46 142.35
  C 166.31 139.27 176.33 135.49 181.71 138.70
  Q 185.28 140.84 189.61 142.46
  Z"
/>
<path fill="#ffffff" d="
  M 238.26 142.43
  Q 238.59 142.63 238.27 142.84
  Q 231.15 147.52 222.45 147.81
  C 218.91 147.93 213.75 144.39 210.42 142.90
  Q 209.68 142.56 210.44 142.29
  Q 215.24 140.55 219.54 137.76
  Q 219.99 137.47 220.52 137.46
  Q 230.14 137.38 238.26 142.43
  Z"
/>
<path fill="#ffffff" d="
  M 161.50 149.58
  C 165.78 151.52 168.83 152.24 173.35 153.05
  Q 174.04 153.17 173.63 153.74
  Q 170.13 158.67 168.01 164.33
  A 0.32 0.32 0.0 0 1 167.45 164.40
  Q 162.85 157.82 160.98 150.02
  Q 160.79 149.26 161.50 149.58
  Z"
/>
<path fill="#ffffff" d="
  M 232.28 164.29
  A 0.41 0.41 0.0 0 1 231.55 164.20
  Q 229.45 158.60 225.96 153.75
  Q 225.59 153.24 226.22 153.16
  Q 232.51 152.36 238.19 149.51
  Q 238.87 149.17 238.69 149.92
  Q 236.78 157.68 232.28 164.29
  Z"
/>
<path fill="#ffffff" d="
  M 172.46 169.61
  C 173.77 163.82 178.14 154.22 184.49 152.57
  Q 188.32 151.58 192.01 149.94
  Q 192.60 149.67 192.39 150.29
  Q 191.03 154.39 189.71 158.44
  C 187.74 164.51 178.55 168.68 172.86 170.00
  A 0.33 0.33 0.0 0 1 172.46 169.61
  Z"
/>
<path fill="#ffffff" d="
  M 219.91 155.71
  Q 225.33 161.47 227.07 169.55
  Q 227.18 170.08 226.65 169.97
  C 220.74 168.68 211.42 164.25 209.70 157.84
  Q 208.69 154.06 207.18 150.51
  Q 206.94 149.94 207.53 150.13
  C 211.84 151.48 216.76 152.36 219.91 155.71
  Z"
/>
<path fill="#ffffff" d="
  M 199.61 153.00
  Q 199.84 152.43 200.06 153.01
  Q 201.47 156.90 203.73 160.70
  C 206.96 166.14 203.25 176.05 200.10 180.89
  Q 199.80 181.35 199.50 180.89
  C 196.40 176.02 192.79 166.39 195.81 160.95
  Q 197.89 157.21 199.61 153.00
  Z"
/>
<path fill="#ffffff" d="
  M 178.44 174.84
  A 0.31 0.30 -38.2 0 1 178.51 174.30
  Q 184.00 172.34 188.64 168.82
  Q 189.16 168.42 189.24 169.07
  Q 190.01 174.73 192.42 179.89
  Q 192.71 180.50 192.05 180.37
  Q 184.73 178.85 178.44 174.84
  Z"
/>
<path fill="#ffffff" d="
  M 221.14 174.31
  Q 221.74 174.53 221.20 174.86
  Q 214.82 178.77 207.52 180.39
  Q 206.97 180.52 207.21 180.00
  Q 209.62 174.73 210.36 168.98
  A 0.35 0.35 0.0 0 1 210.92 168.74
  Q 215.62 172.29 221.14 174.31
  Z"
/>
</svg>
