<?xml version="1.0" encoding="UTF-8" standalone="no"?>
<!DOCTYPE svg PUBLIC "-//W3C//DTD SVG 1.1//EN" "http://www.w3.org/Graphics/SVG/1.1/DTD/svg11.dtd">
<svg xmlns="http://www.w3.org/2000/svg" version="1.1" viewBox="0.00 0.00 435.00 482.00">
<path fill="#010000" fill-opacity="0.996" d="
  M 257.66 77.10
  L 338.06 123.17
  Q 338.52 123.43 338.80 122.98
  C 347.86 108.13 363.89 99.54 380.84 100.04
  C 419.32 101.17 440.74 145.68 417.31 176.31
  Q 403.93 193.80 380.67 195.00
  Q 380.00 195.04 380.00 195.70
  L 380.00 287.50
  A 0.45 0.45 0.0 0 0 380.44 287.95
  C 401.65 288.70 419.31 302.29 425.32 322.93
  C 432.54 347.68 416.92 374.87 392.06 381.33
  C 371.61 386.66 349.93 378.49 339.07 360.33
  Q 338.59 359.53 337.77 359.99
  L 257.66 405.91
  A 0.85 0.85 0.0 0 0 257.33 407.04
  C 276.01 442.63 245.73 483.58 206.33 476.15
  C 175.36 470.31 158.54 435.23 173.63 407.01
  A 0.83 0.83 0.0 0 0 173.31 405.89
  L 93.20 359.99
  A 0.81 0.81 0.0 0 0 92.11 360.25
  Q 77.54 382.29 52.46 382.89
  C 11.13 383.89 -11.24 334.96 15.83 304.06
  Q 28.99 289.04 50.33 288.00
  Q 51.00 287.96 51.00 287.29
  L 51.00 195.76
  Q 51.00 195.07 50.31 195.03
  C 10.71 192.95 -11.02 147.64 15.27 116.89
  C 36.63 91.89 75.00 95.23 92.21 123.01
  A 0.53 0.52 -31.3 0 0 92.92 123.18
  L 173.41 77.06
  A 0.42 0.42 0.0 0 0 173.58 76.53
  Q 163.06 53.57 172.61 33.29
  C 182.05 13.23 204.66 1.84 226.54 7.26
  C 257.12 14.84 271.68 48.16 257.35 76.03
  Q 256.99 76.71 257.66 77.10
  Z
  M 215.73 53.04
  L 255.56 75.89
  A 0.68 0.68 0.0 0 0 256.51 75.60
  Q 266.21 55.92 258.92 37.00
  C 249.27 11.95 220.74 -0.08 196.08 11.28
  C 171.51 22.59 162.08 51.67 174.56 75.65
  Q 174.86 76.23 175.42 75.90
  L 215.27 53.04
  A 0.47 0.47 0.0 0 1 215.73 53.04
  Z
  M 212.99 55.52
  L 175.98 76.72
  A 0.65 0.64 -30.7 0 0 175.75 77.61
  Q 181.57 87.20 191.07 93.09
  A 0.73 0.72 30.8 0 0 192.07 92.84
  L 213.48 56.02
  Q 214.15 54.86 212.99 55.52
  Z
  M 254.82 76.63
  L 217.71 55.32
  A 0.29 0.29 0.0 0 0 217.32 55.71
  L 238.77 92.52
  Q 239.31 93.44 240.22 92.88
  Q 249.46 87.11 255.13 77.82
  A 0.86 0.85 -59.8 0 0 254.82 76.63
  Z
  M 201.57 97.90
  Q 207.86 99.83 214.46 100.03
  A 0.53 0.53 0.0 0 0 215.00 99.50
  C 215.00 95.60 215.40 57.46 214.39 57.53
  Q 213.83 57.57 213.76 58.12
  C 213.64 59.05 213.87 59.70 213.55 60.62
  Q 207.17 78.84 200.96 96.70
  A 0.93 0.93 0.0 0 0 201.57 97.90
  Z
  M 216.02 57.98
  L 215.99 99.44
  Q 215.99 100.05 216.60 100.03
  Q 223.07 99.81 229.28 97.95
  Q 230.37 97.62 229.99 96.55
  L 217.40 60.56
  Q 217.23 60.06 217.26 59.54
  Q 217.30 58.65 217.01 57.81
  A 0.51 0.51 0.0 0 0 216.02 57.98
  Z
  M 238.15 93.51
  L 218.67 59.86
  Q 218.63 59.79 218.55 59.82
  C 218.22 59.97 218.26 60.17 218.37 60.48
  Q 224.73 78.23 231.00 96.57
  Q 231.30 97.44 232.13 97.05
  L 237.89 94.35
  A 0.60 0.59 -27.9 0 0 238.15 93.51
  Z
  M 193.26 94.43
  L 199.01 97.05
  A 0.69 0.68 21.5 0 0 199.94 96.65
  L 211.36 63.85
  Q 211.53 63.37 211.86 62.99
  Q 212.53 62.21 211.95 61.36
  A 0.29 0.28 42.3 0 0 211.47 61.38
  L 192.91 93.32
  A 0.78 0.78 0.0 0 0 193.26 94.43
  Z
  M 190.52 93.92
  Q 180.93 87.93 174.99 78.31
  Q 174.53 77.56 173.77 78.00
  L 93.65 123.92
  A 0.85 0.84 -29.1 0 0 93.32 125.05
  Q 98.62 134.86 99.01 146.03
  Q 99.04 147.00 100.01 147.00
  L 159.92 147.00
  Q 160.53 147.00 160.84 146.47
  L 190.79 95.02
  Q 191.19 94.34 190.52 93.92
  Z
  M 332.00 146.26
  Q 332.36 134.99 337.64 125.07
  A 0.89 0.88 -61.3 0 0 337.30 123.89
  L 256.79 77.75
  A 0.36 0.36 0.0 0 0 256.30 77.88
  Q 250.25 87.81 240.40 93.96
  A 0.71 0.70 58.9 0 0 240.17 94.91
  L 270.17 146.54
  A 0.93 0.93 0.0 0 0 270.97 147.00
  L 331.24 147.00
  Q 331.98 147.00 332.00 146.26
  Z
  M 181.87 114.00
  Q 187.66 108.17 195.06 104.62
  C 197.85 103.28 198.67 101.54 199.13 98.71
  Q 199.22 98.20 198.74 97.99
  L 192.48 95.20
  A 0.70 0.70 0.0 0 0 191.59 95.50
  C 190.54 97.38 180.14 115.07 180.28 115.28
  Q 180.47 115.58 180.74 115.36
  C 181.28 114.95 181.49 114.39 181.87 114.00
  Z
  M 234.94 104.06
  Q 243.54 108.14 250.01 114.88
  A 0.29 0.29 0.0 0 0 250.47 114.53
  L 239.45 95.69
  A 1.02 1.01 62.2 0 0 238.15 95.28
  L 232.56 97.90
  Q 232.27 98.03 232.24 98.35
  Q 231.84 102.59 234.94 104.06
  Z
  M 206.80 100.21
  L 200.72 98.75
  Q 200.24 98.63 200.08 99.10
  L 199.00 102.27
  Q 198.62 103.38 199.67 102.86
  Q 202.88 101.28 206.46 101.07
  Q 206.70 101.06 206.81 100.85
  L 206.96 100.56
  Q 207.11 100.28 206.80 100.21
  Z
  M 223.61 100.91
  Q 227.78 101.10 231.50 102.98
  A 0.42 0.42 0.0 0 0 232.08 102.47
  L 230.95 99.24
  Q 230.76 98.69 230.19 98.80
  L 223.55 100.17
  A 0.37 0.37 0.0 0 0 223.61 100.91
  Z
  M 91.06 123.15
  C 83.02 109.31 67.05 101.00 51.68 101.03
  C 11.95 101.11 -9.64 147.31 16.20 177.70
  Q 28.81 192.54 50.06 194.13
  A 0.88 0.87 2.1 0 0 51.00 193.26
  L 51.00 147.72
  Q 51.00 147.19 51.46 146.92
  L 90.70 124.46
  A 0.96 0.95 -29.9 0 0 91.06 123.15
  Z
  M 198.22 104.59
  L 183.62 146.39
  Q 183.40 147.00 184.05 147.00
  L 214.50 147.00
  A 0.50 0.50 0.0 0 0 215.00 146.50
  L 215.00 101.60
  A 0.62 0.62 0.0 0 0 214.36 100.98
  Q 206.17 101.19 198.58 104.21
  Q 198.31 104.32 198.22 104.59
  Z
  M 231.98 103.99
  Q 224.50 101.24 216.54 100.97
  A 0.52 0.52 0.0 0 0 216.00 101.49
  L 216.00 146.38
  Q 216.00 147.00 216.63 147.00
  L 246.75 147.00
  A 0.61 0.61 0.0 0 0 247.32 146.19
  L 232.89 104.91
  Q 232.66 104.23 231.98 103.99
  Z
  M 390.80 102.36
  C 370.89 97.23 350.40 106.19 339.64 123.50
  A 0.49 0.48 -58.8 0 0 339.80 124.18
  L 379.54 146.94
  Q 380.00 147.21 380.00 147.74
  L 380.00 193.02
  Q 380.00 194.31 381.28 194.19
  Q 400.53 192.43 412.70 179.98
  C 437.89 154.21 425.42 111.26 390.80 102.36
  Z
  M 196.44 105.05
  C 180.01 112.39 169.96 128.26 168.93 146.11
  Q 168.88 147.00 169.77 147.00
  L 181.69 147.00
  A 0.93 0.92 -80.1 0 0 182.56 146.38
  L 196.86 105.44
  A 0.31 0.31 0.0 0 0 196.44 105.05
  Z
  M 262.06 146.40
  C 261.28 128.40 251.05 112.57 234.64 105.09
  A 0.35 0.35 0.0 0 0 234.17 105.52
  L 248.47 146.49
  Q 248.65 147.00 249.19 147.00
  L 261.48 147.00
  A 0.58 0.57 -1.4 0 0 262.06 146.40
  Z
  M 54.74 147.00
  L 97.43 147.00
  Q 98.01 147.00 98.00 146.42
  Q 97.74 135.35 92.53 125.62
  A 0.88 0.87 60.9 0 0 91.32 125.27
  L 54.55 146.31
  Q 53.34 147.00 54.74 147.00
  Z
  M 338.44 125.67
  Q 333.25 135.42 333.01 146.49
  A 0.50 0.49 -89.4 0 0 333.50 147.00
  L 376.25 147.00
  Q 376.47 147.00 376.58 146.82
  L 376.77 146.49
  Q 377.08 145.98 376.50 145.86
  C 375.98 145.76 375.50 145.80 375.04 145.53
  Q 357.38 135.43 339.79 125.28
  A 0.98 0.98 0.0 0 0 338.44 125.67
  Z
  M 261.05 134.48
  Q 262.81 140.27 263.08 146.39
  Q 263.11 147.00 263.73 147.00
  L 268.49 147.00
  Q 269.21 147.00 268.85 146.37
  L 261.54 133.41
  A 0.29 0.28 -52.5 0 0 261.02 133.48
  Q 260.89 133.98 261.05 134.48
  Z
  M 168.71 134.94
  L 162.04 146.37
  Q 161.68 146.99 162.40 146.99
  L 167.44 147.00
  Q 168.02 147.01 168.02 146.43
  Q 168.07 140.05 170.07 134.03
  Q 170.22 133.56 169.74 133.50
  C 169.13 133.43 169.07 133.83 168.97 134.26
  Q 168.90 134.62 168.71 134.94
  Z
  M 59.18 149.09
  C 60.57 149.27 61.54 148.91 62.90 149.17
  Q 79.75 152.36 96.66 155.63
  Q 97.40 155.78 97.47 155.03
  L 98.05 148.81
  A 0.78 0.77 -88.0 0 0 97.27 147.97
  Q 79.96 148.09 62.72 147.91
  C 60.68 147.89 59.19 148.61 57.29 148.86
  Q 55.31 149.13 57.05 150.13
  L 91.51 169.84
  A 0.72 0.71 28.5 0 0 92.50 169.55
  Q 95.48 163.77 97.01 157.47
  A 0.71 0.70 -77.8 0 0 96.46 156.61
  C 93.25 155.99 59.00 149.60 59.00 149.26
  Q 59.00 149.07 59.18 149.09
  Z
  M 120.69 148.02
  L 99.59 147.99
  Q 99.15 147.99 99.11 148.43
  L 98.46 155.42
  Q 98.41 155.90 98.89 156.01
  L 103.57 157.01
  Q 104.11 157.13 104.56 156.79
  C 109.21 153.29 115.91 149.25 121.83 148.99
  Q 122.10 148.98 121.91 148.78
  L 121.47 148.34
  Q 121.15 148.02 120.69 148.02
  Z
  M 155.81 153.55
  Q 130.31 141.08 106.73 156.36
  Q 105.31 157.28 106.97 157.60
  L 149.13 165.64
  Q 149.67 165.75 149.94 165.27
  L 156.13 154.58
  Q 156.52 153.89 155.81 153.55
  Z
  M 159.08 147.98
  L 145.54 148.07
  Q 144.32 148.08 145.24 148.87
  Q 145.93 149.46 146.69 149.03
  Q 147.15 148.77 147.64 148.98
  L 156.56 152.78
  Q 157.02 152.97 157.27 152.55
  L 159.54 148.79
  A 0.54 0.53 15.5 0 0 159.08 147.98
  Z
  M 158.24 153.94
  Q 165.28 158.19 170.31 164.67
  A 0.45 0.45 0.0 0 0 171.09 164.23
  Q 168.19 156.86 168.00 148.91
  A 0.94 0.93 -0.6 0 0 167.06 148.00
  L 161.67 148.00
  Q 161.17 148.00 160.91 148.43
  L 158.05 153.14
  A 0.58 0.57 32.1 0 0 158.24 153.94
  Z
  M 175.02 168.86
  A 0.77 0.74 -51.8 0 1 174.96 168.24
  L 181.75 148.73
  A 0.55 0.55 0.0 0 0 181.23 148.00
  L 169.55 148.00
  A 0.58 0.58 0.0 0 0 168.97 148.60
  Q 169.36 159.40 174.22 169.00
  A 1.30 1.29 -28.2 0 0 176.02 169.54
  L 212.63 148.61
  A 0.33 0.33 0.0 0 0 212.47 148.00
  L 183.54 148.00
  Q 183.10 148.00 182.96 148.41
  Q 179.26 158.70 175.72 168.76
  Q 175.43 169.59 175.02 168.86
  Z
  M 220.08 149.54
  Q 237.25 159.39 254.48 169.27
  A 0.46 0.46 0.0 0 0 255.14 168.72
  L 248.12 148.47
  Q 247.97 148.04 247.52 148.04
  Q 233.31 147.92 219.12 148.03
  C 218.69 148.04 218.20 148.28 218.24 148.76
  Q 218.28 149.25 218.77 149.25
  C 219.36 149.25 219.56 149.24 220.08 149.54
  Z
  M 257.22 168.00
  Q 261.82 158.84 261.98 148.49
  A 0.49 0.48 0.6 0 0 261.49 148.00
  L 249.74 148.00
  A 0.53 0.53 0.0 0 0 249.24 148.70
  Q 252.54 158.24 255.88 167.68
  C 256.06 168.18 255.97 168.52 256.00 169.01
  A 0.38 0.38 0.0 0 0 256.63 169.26
  C 257.06 168.86 257.02 168.40 257.22 168.00
  Z
  M 263.04 148.62
  C 262.48 154.19 262.06 158.84 260.09 163.71
  Q 258.79 166.93 260.97 164.23
  Q 265.89 158.13 272.60 154.06
  Q 273.17 153.72 272.84 153.15
  L 270.19 148.49
  Q 269.91 148.00 269.36 148.00
  L 263.73 148.00
  Q 263.10 148.00 263.04 148.62
  Z
  M 285.20 148.05
  L 271.82 147.98
  Q 270.94 147.97 271.39 148.73
  L 273.76 152.70
  Q 274.13 153.31 274.72 152.93
  Q 279.59 149.85 285.26 148.81
  A 0.38 0.38 0.0 0 0 285.20 148.05
  Z
  M 324.45 156.49
  Q 300.85 141.06 275.34 153.47
  A 0.91 0.90 -28.1 0 0 274.95 154.74
  L 281.17 165.39
  Q 281.37 165.73 281.75 165.66
  L 324.23 157.56
  A 0.59 0.59 0.0 0 0 324.45 156.49
  Z
  M 309.69 149.05
  C 314.97 149.05 322.38 153.72 326.50 156.83
  Q 326.86 157.11 327.31 157.01
  L 332.13 156.00
  Q 332.64 155.89 332.58 155.38
  L 331.84 148.42
  Q 331.79 147.98 331.35 147.98
  L 309.81 148.04
  A 0.50 0.49 -72.4 0 0 309.40 148.26
  Q 308.86 149.05 309.69 149.05
  Z
  M 372.25 149.00
  Q 372.01 149.54 371.43 149.64
  Q 352.90 153.00 334.70 156.59
  A 0.82 0.81 -12.6 0 0 334.06 157.58
  Q 335.54 163.90 338.59 169.66
  A 0.60 0.59 -28.2 0 0 339.41 169.90
  L 374.53 149.79
  Q 375.19 149.42 374.51 149.08
  Q 373.61 148.62 372.25 149.00
  Q 371.47 148.04 370.68 148.03
  Q 361.94 147.88 333.44 148.05
  Q 332.87 148.05 332.92 148.62
  L 333.55 155.04
  Q 333.62 155.79 334.36 155.64
  Q 351.18 152.36 367.92 149.22
  C 369.43 148.94 370.70 149.29 372.25 149.00
  Z
  M 375.02 150.66
  L 339.83 170.80
  Q 339.36 171.07 339.65 171.53
  Q 343.31 177.25 348.15 182.02
  A 0.44 0.44 0.0 0 0 348.79 182.00
  Q 362.41 166.22 376.10 150.61
  Q 376.43 150.24 375.90 149.76
  A 0.38 0.38 0.0 0 0 375.26 149.99
  L 375.21 150.38
  Q 375.18 150.57 375.02 150.66
  Z
  M 52.01 150.41
  L 52.00 193.44
  A 0.58 0.57 89.0 0 0 52.59 194.02
  Q 63.84 193.68 73.71 188.39
  A 0.83 0.82 60.9 0 0 74.03 187.25
  Q 63.89 169.82 53.61 152.13
  C 53.23 151.48 53.25 150.91 52.97 150.23
  A 0.50 0.50 0.0 0 0 52.01 150.41
  Z
  M 55.76 150.48
  Q 55.80 150.34 55.85 150.21
  Q 55.93 150.00 55.71 150.00
  L 55.20 150.00
  Q 54.30 150.00 54.89 150.68
  L 81.72 181.36
  Q 82.56 182.33 83.48 181.42
  Q 87.70 177.23 90.91 172.16
  A 1.25 1.25 0.0 0 0 90.47 170.41
  L 55.77 150.52
  Q 55.75 150.50 55.76 150.48
  Z
  M 176.48 170.57
  C 176.50 171.11 189.81 173.42 191.15 173.70
  A 1.20 1.20 0.0 0 0 192.29 173.32
  L 211.50 151.37
  Q 211.55 151.32 211.62 151.30
  Q 211.75 151.26 211.89 151.24
  Q 212.32 151.17 212.26 150.73
  L 212.20 150.32
  Q 212.15 149.96 211.83 150.14
  Q 194.97 159.90 177.98 169.43
  Q 177.48 169.71 176.95 169.89
  Q 176.46 170.05 176.48 170.57
  Z
  M 200.47 175.42
  L 214.47 178.16
  A 0.45 0.45 0.0 0 0 215.00 177.72
  L 215.00 150.77
  Q 215.00 150.59 214.86 150.48
  Q 214.76 150.39 214.65 150.28
  Q 214.16 149.77 213.98 150.45
  Q 213.63 151.79 213.22 152.48
  Q 206.71 163.59 200.19 174.80
  A 0.42 0.42 0.0 0 0 200.47 175.42
  Z
  M 216.00 177.77
  A 0.37 0.37 0.0 0 0 216.44 178.14
  L 230.62 175.48
  A 0.37 0.37 0.0 0 0 230.87 174.93
  L 216.69 150.48
  A 0.37 0.37 0.0 0 0 216.00 150.67
  L 216.00 177.77
  Z
  M 219.18 150.19
  A 0.30 0.30 0.0 0 0 218.81 150.65
  L 239.03 173.65
  A 0.30 0.30 0.0 0 0 239.31 173.75
  L 254.42 170.95
  A 0.30 0.30 0.0 0 0 254.51 170.39
  L 219.18 150.19
  Z
  M 378.06 150.34
  Q 377.83 150.73 377.76 151.16
  Q 377.68 151.69 377.41 152.15
  L 356.78 187.50
  A 0.48 0.48 0.0 0 0 356.96 188.16
  Q 366.96 193.69 378.42 194.01
  A 0.57 0.57 0.0 0 0 379.00 193.44
  L 379.00 150.83
  Q 379.00 150.44 378.63 150.29
  Q 378.40 150.20 378.14 150.28
  A 0.13 0.11 -76.7 0 0 378.06 150.34
  Z
  M 211.03 154.35
  A 0.33 0.33 0.0 0 0 210.50 153.96
  L 193.41 173.58
  A 0.33 0.33 0.0 0 0 193.59 174.12
  L 198.60 175.10
  A 0.33 0.33 0.0 0 0 198.95 174.95
  L 211.03 154.35
  Z
  M 375.04 154.30
  A 0.32 0.32 0.0 0 0 374.52 153.93
  L 349.49 182.71
  A 0.32 0.32 0.0 0 0 349.54 183.18
  L 355.33 187.36
  A 0.32 0.32 0.0 0 0 355.80 187.27
  L 375.04 154.30
  Z
  M 75.22 187.26
  A 0.32 0.32 0.0 0 0 75.69 187.36
  L 81.44 183.14
  A 0.32 0.32 0.0 0 0 81.49 182.67
  L 56.54 153.97
  A 0.32 0.32 0.0 0 0 56.02 154.34
  L 75.22 187.26
  Z
  M 237.42 174.12
  A 0.33 0.33 0.0 0 0 237.60 173.58
  L 220.48 153.90
  A 0.33 0.33 0.0 0 0 219.94 154.28
  L 232.10 174.99
  A 0.33 0.33 0.0 0 0 232.45 175.14
  L 237.42 174.12
  Z
  M 172.69 169.42
  C 168.99 163.65 163.73 158.24 157.71 154.85
  Q 157.30 154.62 157.06 155.03
  L 151.15 165.06
  A 0.72 0.72 0.0 0 0 151.63 166.13
  L 172.24 170.08
  A 0.44 0.43 -10.9 0 0 172.69 169.42
  Z
  M 273.34 154.86
  C 266.96 158.47 262.53 163.49 258.25 169.29
  A 0.49 0.48 12.6 0 0 258.74 170.05
  L 279.58 166.09
  A 0.54 0.53 69.4 0 0 279.94 165.29
  L 273.98 155.03
  Q 273.75 154.63 273.34 154.86
  Z
  M 102.11 157.67
  L 98.83 157.04
  Q 98.29 156.94 98.13 157.45
  L 95.88 164.55
  A 0.26 0.26 0.0 0 0 96.32 164.81
  L 102.37 158.48
  A 0.49 0.48 -63.1 0 0 102.11 157.67
  Z
  M 328.58 157.71
  A 0.32 0.32 0.0 0 0 328.41 158.25
  L 334.52 164.71
  A 0.32 0.32 0.0 0 0 335.06 164.40
  L 332.85 157.11
  A 0.32 0.32 0.0 0 0 332.47 156.89
  L 328.58 157.71
  Z
  M 148.46 166.53
  L 105.20 158.27
  A 1.81 1.80 -60.3 0 0 103.68 158.69
  Q 97.80 163.84 93.62 170.47
  A 0.50 0.50 0.0 0 0 93.79 171.17
  L 132.72 193.48
  A 0.70 0.70 0.0 0 0 133.68 193.22
  L 148.78 167.24
  A 0.48 0.48 0.0 0 0 148.46 166.53
  Z
  M 337.07 170.04
  C 335.15 166.99 328.67 157.72 324.88 158.45
  Q 303.78 162.50 282.59 166.48
  A 0.54 0.53 69.4 0 0 282.23 167.28
  L 297.21 193.00
  Q 297.69 193.83 298.52 193.35
  L 336.72 171.43
  Q 337.62 170.92 337.07 170.04
  Z
  M 136.80 192.02
  L 171.94 171.92
  Q 173.16 171.22 171.77 170.96
  L 150.74 166.97
  Q 150.18 166.87 149.89 167.36
  C 148.30 170.08 135.00 191.95 135.25 192.98
  A 0.41 0.40 70.6 0 0 135.81 193.25
  Q 136.18 193.09 136.25 192.75
  Q 136.36 192.26 136.80 192.02
  Z
  M 259.93 172.41
  Q 276.70 181.96 293.41 191.61
  Q 294.30 192.12 294.86 192.85
  Q 295.11 193.17 295.49 193.02
  Q 295.99 192.82 295.68 192.28
  Q 288.41 179.85 281.10 167.34
  Q 280.80 166.83 280.23 166.94
  L 258.84 171.09
  A 0.48 0.48 0.0 0 0 258.48 171.74
  Q 258.69 172.30 259.21 172.26
  Q 259.59 172.22 259.93 172.41
  Z
  M 190.67 174.56
  L 176.93 172.00
  A 0.62 0.62 0.0 0 0 176.34 173.00
  L 183.89 181.99
  A 0.55 0.55 0.0 0 0 184.72 182.00
  L 190.59 175.37
  Q 190.77 175.15 190.74 174.87
  Q 190.73 174.71 190.70 174.58
  Q 190.69 174.56 190.67 174.56
  Z
  M 240.75 174.44
  A 0.55 0.55 0.0 0 0 240.44 175.34
  L 246.30 182.06
  A 0.55 0.55 0.0 0 0 247.13 182.05
  L 254.76 172.88
  A 0.55 0.55 0.0 0 0 254.24 171.99
  L 240.75 174.44
  Z
  M 132.30 194.40
  L 93.73 172.29
  A 0.94 0.93 -60.8 0 0 92.44 172.66
  Q 88.85 179.44 87.54 186.98
  Q 87.38 187.85 87.97 188.52
  L 116.49 221.27
  A 0.59 0.58 -50.4 0 0 117.43 221.18
  L 132.52 195.23
  A 0.61 0.61 0.0 0 0 132.30 194.40
  Z
  M 314.60 221.14
  C 317.89 217.37 343.70 188.56 343.48 187.25
  Q 342.19 179.39 338.52 172.63
  A 0.89 0.89 0.0 0 0 337.29 172.28
  L 298.77 194.33
  A 0.70 0.70 0.0 0 0 298.51 195.29
  L 313.51 221.04
  A 0.68 0.67 -39.6 0 0 314.60 221.14
  Z
  M 140.95 192.68
  Q 141.21 192.43 141.57 192.37
  Q 154.33 190.11 167.42 187.46
  A 1.54 1.51 -85.7 0 0 168.55 186.47
  L 173.15 173.29
  Q 173.56 172.13 172.49 172.74
  L 137.80 192.58
  A 0.29 0.29 0.0 0 0 137.95 193.12
  C 140.08 193.08 141.79 194.00 143.74 194.00
  Q 154.53 194.01 165.37 194.00
  Q 165.98 194.00 166.17 193.42
  L 167.65 189.08
  Q 167.89 188.40 167.18 188.54
  C 158.43 190.24 149.94 192.04 141.11 193.01
  Q 140.55 193.07 140.95 192.68
  Z
  M 252.56 185.39
  L 260.47 186.91
  A 0.65 0.64 85.9 0 0 261.20 186.06
  L 256.72 173.01
  Q 256.53 172.46 256.27 172.98
  Q 253.42 178.48 252.00 184.54
  A 0.70 0.70 0.0 0 0 252.56 185.39
  Z
  M 174.57 172.75
  A 0.12 0.11 -49.5 0 0 174.36 172.77
  L 169.61 186.56
  Q 169.40 187.17 170.03 187.04
  L 178.23 185.44
  Q 179.15 185.26 178.94 184.34
  Q 177.53 178.26 174.57 172.75
  Z
  M 289.55 192.80
  Q 286.64 192.99 282.99 192.27
  Q 273.33 190.36 263.59 188.49
  A 0.30 0.29 -4.4 0 0 263.25 188.88
  L 264.86 193.43
  Q 265.06 194.00 265.67 194.00
  C 273.47 194.00 285.43 195.33 292.67 192.95
  Q 293.39 192.71 292.73 192.33
  L 258.94 172.99
  A 0.68 0.68 0.0 0 0 257.96 173.80
  L 262.45 186.58
  A 1.47 1.47 0.0 0 0 263.56 187.54
  L 289.58 192.41
  Q 291.15 192.70 289.55 192.80
  Z
  M 197.69 177.13
  A 0.89 0.89 0.0 0 0 197.08 175.81
  L 192.82 175.00
  A 0.89 0.89 0.0 0 0 191.99 175.29
  L 185.72 182.41
  A 0.89 0.89 0.0 0 0 186.56 183.87
  L 194.32 182.34
  A 0.89 0.89 0.0 0 0 194.91 181.91
  L 197.69 177.13
  Z
  M 236.07 181.90
  A 0.91 0.91 0.0 0 0 236.68 182.33
  L 244.31 183.81
  A 0.91 0.91 0.0 0 0 245.17 182.32
  L 239.10 175.27
  A 0.91 0.91 0.0 0 0 238.22 174.97
  L 233.91 175.88
  A 0.91 0.91 0.0 0 0 233.32 177.23
  L 236.07 181.90
  Z
  M 178.00 176.48
  Q 177.95 176.24 177.74 176.14
  A 0.24 0.24 0.0 0 0 177.42 176.43
  L 180.21 184.70
  Q 180.43 185.37 181.06 185.05
  L 183.31 183.92
  Q 184.15 183.49 183.51 182.79
  L 178.25 176.99
  Q 178.05 176.77 178.00 176.48
  Z
  M 211.30 178.37
  L 199.91 176.45
  Q 199.39 176.36 199.11 176.81
  L 196.31 181.36
  Q 195.85 182.10 196.71 181.94
  C 198.25 181.66 211.43 179.32 211.53 178.69
  Q 211.57 178.42 211.30 178.37
  Z
  M 231.77 176.54
  A 0.37 0.37 0.0 0 0 231.39 176.37
  L 219.69 178.38
  A 0.37 0.37 0.0 0 0 219.68 179.11
  L 234.38 181.99
  A 0.37 0.37 0.0 0 0 234.77 181.43
  L 231.77 176.54
  Z
  M 345.08 186.05
  L 347.46 183.65
  Q 347.91 183.19 347.47 182.72
  L 341.83 176.60
  Q 341.05 175.75 341.47 176.82
  Q 342.69 179.89 343.63 182.91
  C 343.79 183.44 343.94 185.73 344.10 185.96
  Q 344.54 186.60 345.08 186.05
  Z
  M 83.94 183.81
  Q 84.77 185.14 86.14 186.20
  Q 86.49 186.48 86.62 186.05
  L 88.98 177.73
  A 0.35 0.35 0.0 0 0 88.38 177.40
  L 83.53 182.74
  Q 83.23 183.06 83.47 183.43
  Q 83.65 183.73 83.94 183.81
  Z
  M 247.24 183.03
  A 0.37 0.37 0.0 0 0 247.32 183.59
  L 250.27 185.37
  A 0.37 0.37 0.0 0 0 250.82 185.16
  L 253.01 177.76
  A 0.37 0.37 0.0 0 0 252.39 177.40
  L 247.24 183.03
  Z
  M 193.31 188.36
  Q 203.16 193.67 214.40 194.04
  A 0.59 0.59 0.0 0 0 215.00 193.45
  L 215.00 180.09
  Q 215.00 179.43 214.35 179.55
  L 195.92 183.07
  Q 195.35 183.17 195.06 183.67
  L 192.99 187.24
  Q 192.57 187.96 193.31 188.36
  Z
  M 233.81 182.94
  Q 225.22 181.14 216.60 179.56
  A 0.51 0.51 0.0 0 0 216.00 180.06
  L 216.00 193.26
  A 0.76 0.75 88.9 0 0 216.78 194.02
  Q 227.99 193.63 237.81 188.32
  Q 238.60 187.89 238.06 187.18
  C 236.56 185.21 236.95 183.59 233.81 182.94
  Z
  M 188.52 185.43
  L 191.12 187.12
  Q 191.62 187.45 191.94 186.93
  L 193.77 183.98
  Q 194.56 182.71 193.19 183.31
  Q 191.14 184.22 188.87 184.23
  A 0.65 0.65 0.0 0 0 188.52 185.43
  Z
  M 242.59 185.38
  A 0.49 0.49 0.0 0 0 242.42 184.49
  L 237.87 183.55
  A 0.49 0.49 0.0 0 0 237.36 184.30
  L 239.17 187.01
  A 0.49 0.49 0.0 0 0 239.85 187.15
  L 242.59 185.38
  Z
  M 86.03 190.99
  C 86.19 187.48 85.52 186.97 82.80 184.20
  Q 82.41 183.79 81.94 184.12
  L 76.33 188.06
  Q 75.87 188.38 76.15 188.87
  L 87.46 208.45
  Q 88.61 210.44 88.07 208.20
  C 86.75 202.66 85.69 198.30 86.03 190.99
  Z
  M 348.11 184.19
  L 345.05 187.88
  Q 344.67 188.34 344.74 188.93
  Q 345.85 198.67 342.98 207.94
  A 0.37 0.37 0.0 0 0 343.65 208.23
  L 354.89 188.83
  Q 355.11 188.44 354.75 188.17
  L 349.12 184.07
  Q 348.55 183.66 348.11 184.19
  Z
  M 190.62 188.03
  L 186.42 185.13
  Q 186.00 184.84 185.50 184.92
  C 179.94 185.78 181.14 189.40 180.99 193.46
  Q 180.97 194.00 181.51 194.00
  L 187.23 194.00
  Q 187.86 194.00 188.19 193.46
  L 190.82 188.98
  Q 191.16 188.41 190.62 188.03
  Z
  M 249.95 193.36
  C 250.17 189.98 250.77 185.07 245.51 185.03
  C 243.94 185.02 241.75 187.16 240.26 188.06
  Q 239.75 188.37 240.06 188.87
  L 242.90 193.58
  Q 243.16 194.00 243.65 194.00
  L 249.27 194.00
  Q 249.91 194.00 249.95 193.36
  Z
  M 169.59 188.10
  A 1.00 1.00 0.0 0 0 168.83 188.75
  L 167.44 192.67
  A 1.00 1.00 0.0 0 0 168.38 194.00
  L 173.79 194.00
  A 1.00 1.00 0.0 0 0 174.55 193.66
  L 179.40 188.08
  A 1.00 1.00 0.0 0 0 178.46 186.44
  L 169.59 188.10
  Z
  M 261.41 188.10
  C 259.15 187.67 254.33 186.23 252.34 186.57
  A 1.03 1.03 0.0 0 0 251.73 188.26
  L 256.32 193.57
  Q 256.66 193.97 257.19 193.97
  L 263.35 194.02
  Q 264.04 194.02 263.81 193.37
  L 262.11 188.69
  Q 261.93 188.20 261.41 188.10
  Z
  M 52.90 287.98
  Q 64.22 288.41 74.17 293.78
  A 0.91 0.90 -60.9 0 0 75.38 293.43
  L 105.14 242.26
  A 1.48 1.48 0.0 0 0 105.14 240.76
  L 75.40 189.60
  A 1.00 1.00 0.0 0 0 74.06 189.23
  Q 64.13 194.68 52.74 194.99
  Q 52.00 195.01 52.00 195.75
  L 52.00 287.05
  Q 52.00 287.95 52.90 287.98
  Z
  M 203.33 193.12
  Q 197.81 192.22 193.01 189.30
  A 1.04 1.04 0.0 0 0 191.58 189.65
  L 189.33 193.36
  A 0.42 0.41 -74.3 0 0 189.68 193.99
  C 191.24 194.00 203.26 194.30 203.57 193.54
  Q 203.71 193.18 203.33 193.12
  Z
  M 227.14 193.52
  C 228.07 194.44 239.44 194.01 241.41 193.93
  A 0.38 0.38 0.0 0 0 241.71 193.34
  L 239.39 189.70
  A 1.16 1.16 0.0 0 0 237.79 189.34
  Q 232.94 192.38 227.28 193.09
  A 0.25 0.25 0.0 0 0 227.14 193.52
  Z
  M 355.68 189.46
  L 325.72 240.95
  Q 325.42 241.48 325.72 242.01
  L 355.68 293.53
  A 0.78 0.77 60.5 0 0 356.72 293.82
  Q 366.89 288.28 378.53 287.97
  A 0.48 0.48 0.0 0 0 379.00 287.49
  L 379.00 195.55
  A 0.54 0.54 0.0 0 0 378.47 195.01
  Q 366.86 194.67 356.68 189.18
  A 0.75 0.74 29.0 0 0 355.68 189.46
  Z
  M 180.01 190.00
  A 0.39 0.39 0.0 0 0 179.34 189.76
  L 176.08 193.34
  A 0.39 0.39 0.0 0 0 176.38 193.99
  L 179.79 193.82
  A 0.39 0.39 0.0 0 0 180.16 193.41
  L 180.01 190.00
  Z
  M 87.08 189.99
  C 85.96 207.56 93.76 225.04 109.20 234.15
  Q 109.70 234.44 109.99 233.94
  L 116.23 223.25
  Q 116.50 222.78 116.14 222.37
  L 87.71 189.78
  A 0.36 0.36 0.0 0 0 87.08 189.99
  Z
  M 254.17 194.00
  A 0.56 0.56 0.0 0 0 254.63 193.08
  L 251.98 190.03
  A 0.56 0.56 0.0 0 0 251.00 190.36
  L 250.81 193.20
  A 0.56 0.56 0.0 0 0 251.33 193.80
  L 254.17 194.00
  Z
  M 342.94 190.19
  Q 328.93 206.24 314.86 222.35
  Q 314.49 222.78 314.78 223.27
  L 321.03 233.92
  Q 321.31 234.40 321.79 234.12
  C 337.07 225.07 345.19 207.51 343.87 190.09
  A 0.43 0.43 0.0 0 0 343.27 189.73
  Q 342.94 189.87 342.94 190.19
  Z
  M 165.42 195.51
  A 0.38 0.38 0.0 0 0 165.07 195.00
  L 136.71 195.00
  A 0.38 0.38 0.0 0 0 136.53 195.71
  L 160.18 209.18
  A 0.38 0.38 0.0 0 0 160.73 208.98
  L 165.42 195.51
  Z
  M 166.93 195.01
  A 0.37 0.37 0.0 0 0 166.58 195.26
  L 162.68 206.31
  A 0.37 0.37 0.0 0 0 163.31 206.67
  L 172.84 195.62
  A 0.37 0.37 0.0 0 0 172.56 195.01
  L 166.93 195.01
  Z
  M 162.78 210.71
  L 173.59 216.89
  A 0.55 0.55 0.0 0 0 174.35 216.68
  Q 179.70 206.89 180.00 195.70
  Q 180.02 195.01 179.34 195.01
  L 175.35 194.99
  Q 174.74 194.99 174.34 195.45
  L 162.50 209.00
  Q 161.59 210.03 162.78 210.71
  Z
  M 179.69 208.81
  Q 179.81 209.68 180.71 209.45
  Q 181.72 209.20 180.87 208.60
  L 180.30 208.20
  Q 179.85 207.88 180.12 207.40
  L 186.75 195.95
  A 0.64 0.63 -75.2 0 0 186.20 195.00
  L 181.70 195.00
  Q 181.01 195.00 181.00 195.68
  Q 180.89 201.73 179.17 207.33
  C 178.98 207.94 179.11 208.53 179.69 208.81
  Z
  M 203.92 195.43
  C 200.99 194.24 192.52 194.94 188.98 195.06
  Q 188.41 195.07 188.13 195.56
  L 181.08 207.67
  A 0.41 0.41 0.0 0 0 181.73 208.16
  Q 190.14 199.56 201.66 196.03
  Q 202.11 195.89 202.58 195.99
  Q 203.23 196.13 203.92 195.89
  Q 204.52 195.67 203.92 195.43
  Z
  M 213.64 194.94
  C 197.98 196.01 183.79 203.80 175.88 217.30
  A 0.79 0.79 0.0 0 0 176.17 218.39
  L 214.46 240.31
  A 0.36 0.36 0.0 0 0 215.00 240.00
  L 215.00 196.21
  Q 215.00 194.84 213.64 194.94
  Z
  M 255.03 217.08
  C 246.61 203.63 232.38 195.35 216.47 195.05
  A 0.46 0.46 0.0 0 0 216.00 195.51
  L 216.00 239.77
  A 0.50 0.49 -14.8 0 0 216.74 240.20
  L 254.69 218.46
  Q 255.58 217.95 255.03 217.08
  Z
  M 250.00 208.50
  Q 250.01 208.85 250.20 209.12
  Q 250.54 209.59 250.95 209.18
  L 251.68 208.45
  Q 252.07 208.05 251.91 207.52
  Q 250.12 201.77 250.03 195.76
  A 0.78 0.78 0.0 0 0 249.25 194.99
  L 244.60 195.01
  A 0.49 0.49 0.0 0 0 244.18 195.75
  L 250.97 207.53
  A 0.62 0.62 0.0 0 1 250.80 208.34
  Q 250.45 208.60 250.00 208.50
  L 250.00 208.15
  Q 250.00 207.79 249.81 207.47
  L 242.78 195.45
  Q 242.52 195.00 241.99 195.00
  L 227.80 195.00
  A 0.39 0.38 51.2 0 0 227.72 195.76
  Q 240.03 198.60 249.11 208.14
  Q 249.45 208.50 250.00 208.50
  Z
  M 268.83 210.36
  A 0.56 0.56 0.0 0 0 268.97 209.51
  L 256.64 195.48
  Q 256.22 195.00 255.58 195.00
  L 251.69 195.00
  Q 251.00 195.00 251.01 195.69
  Q 251.27 206.85 256.65 216.57
  Q 256.97 217.16 257.56 216.82
  L 268.83 210.36
  Z
  M 258.24 195.74
  L 268.15 207.16
  Q 268.93 208.06 268.54 206.94
  L 264.55 195.61
  Q 264.33 194.99 263.67 195.00
  L 258.57 195.01
  Q 257.61 195.01 258.24 195.74
  Z
  M 294.70 196.25
  A 0.25 0.25 0.0 0 1 294.70 196.68
  L 271.23 210.12
  A 0.25 0.25 0.0 0 0 271.17 210.50
  L 280.80 221.63
  A 0.25 0.25 0.0 0 0 281.21 221.59
  L 295.68 196.65
  A 0.25 0.25 0.0 0 0 295.66 196.37
  L 294.63 195.09
  A 0.25 0.25 0.0 0 0 294.43 195.00
  L 265.75 195.00
  A 0.25 0.25 0.0 0 0 265.52 195.33
  L 270.32 209.19
  A 0.25 0.25 0.0 0 0 270.68 209.32
  L 293.97 195.97
  A 0.25 0.25 0.0 0 1 294.23 195.97
  L 294.70 196.25
  Z
  M 159.54 209.97
  L 136.11 196.61
  Q 136.00 196.55 136.00 196.50
  Q 136.00 196.36 136.01 196.22
  Q 136.01 196.04 135.84 196.07
  Q 134.99 196.25 135.28 196.73
  Q 142.59 208.86 149.60 221.25
  A 0.57 0.56 -39.8 0 0 150.53 221.33
  C 151.59 220.05 159.96 210.74 159.65 210.08
  A 0.25 0.19 7.0 0 0 159.54 209.97
  Z
  M 132.38 197.36
  L 117.96 222.23
  Q 117.72 222.65 118.04 223.01
  L 132.35 239.45
  A 0.37 0.37 0.0 0 0 133.00 239.21
  L 133.00 197.75
  Q 133.00 197.72 132.81 197.44
  Q 132.74 197.32 132.61 197.28
  A 0.19 0.19 0.0 0 0 132.38 197.36
  Z
  M 299.06 239.06
  Q 305.95 230.94 312.82 223.23
  A 0.99 0.98 50.8 0 0 312.93 222.08
  L 298.72 197.49
  A 0.39 0.38 30.1 0 0 298.00 197.68
  L 298.00 239.43
  A 0.39 0.39 0.0 0 0 298.62 239.74
  Q 299.00 239.46 299.06 239.06
  Z
  M 135.23 200.10
  Q 135.36 199.56 135.13 199.00
  A 0.58 0.58 0.0 0 0 134.02 199.23
  L 133.99 239.48
  A 0.29 0.28 -24.9 0 0 134.49 239.66
  L 144.29 228.37
  A 0.96 0.96 0.0 0 0 144.47 227.43
  L 135.28 201.18
  Q 135.10 200.65 135.23 200.10
  Z
  M 295.36 202.55
  Q 290.71 214.91 286.58 227.57
  Q 286.42 228.06 286.76 228.44
  L 296.35 239.46
  A 0.37 0.37 0.0 0 0 297.00 239.22
  C 297.00 235.40 297.37 198.70 296.44 198.55
  Q 295.85 198.45 295.78 199.05
  C 295.63 200.37 295.84 201.29 295.36 202.55
  Z
  M 145.71 226.76
  L 148.77 223.23
  A 1.03 1.02 -39.4 0 0 148.89 222.05
  L 137.71 202.53
  A 0.35 0.34 42.8 0 0 137.10 202.55
  C 136.68 203.45 144.38 224.09 145.28 226.68
  A 0.25 0.25 0.0 0 0 145.71 226.76
  Z
  M 293.38 202.50
  A 0.25 0.25 0.0 0 0 293.17 202.62
  L 281.69 222.45
  A 0.25 0.25 0.0 0 0 281.72 222.75
  L 285.35 226.67
  A 0.25 0.25 0.0 0 0 285.77 226.59
  L 294.11 202.83
  A 0.25 0.25 0.0 0 0 293.88 202.50
  L 293.38 202.50
  Z
  M 172.96 217.73
  L 161.72 211.22
  Q 161.13 210.88 160.91 211.51
  L 154.73 229.20
  Q 154.56 229.69 154.82 230.14
  L 157.04 233.93
  Q 157.35 234.46 157.87 234.14
  Q 167.40 228.26 173.20 218.67
  A 0.69 0.69 0.0 0 0 172.96 217.73
  Z
  M 274.05 233.79
  L 276.19 230.07
  Q 276.43 229.65 276.27 229.19
  L 270.16 211.71
  A 0.73 0.73 0.0 0 0 269.10 211.32
  L 258.43 217.48
  A 1.11 1.11 0.0 0 0 258.04 219.03
  Q 263.79 228.27 272.99 234.05
  Q 273.66 234.47 274.05 233.79
  Z
  M 276.83 227.85
  A 0.42 0.42 0.0 0 0 277.59 227.92
  L 280.28 223.05
  A 0.42 0.42 0.0 0 0 280.23 222.58
  L 272.75 213.68
  A 0.42 0.42 0.0 0 0 272.03 214.09
  L 276.83 227.85
  Z
  M 159.00 214.08
  A 0.37 0.37 0.0 0 0 158.37 213.72
  L 150.69 222.59
  A 0.37 0.37 0.0 0 0 150.65 223.02
  L 153.46 227.95
  A 0.37 0.37 0.0 0 0 154.13 227.89
  L 159.00 214.08
  Z
  M 213.73 241.05
  L 175.87 219.37
  A 1.15 1.14 -62.0 0 0 174.28 219.86
  Q 163.67 241.40 174.21 262.97
  Q 174.82 264.23 176.04 263.53
  L 213.73 241.94
  Q 214.51 241.50 213.73 241.05
  Z
  M 216.94 241.75
  L 255.26 263.69
  Q 256.19 264.23 256.67 263.26
  Q 267.38 241.58 256.74 219.87
  A 1.15 1.15 0.0 0 0 255.14 219.38
  L 216.93 241.21
  A 0.31 0.31 0.0 0 0 216.94 241.75
  Z
  M 131.31 239.69
  Q 124.41 231.95 117.87 224.31
  A 0.75 0.75 0.0 0 0 116.65 224.42
  L 110.81 234.54
  A 0.48 0.47 -60.8 0 0 110.99 235.19
  Q 120.58 240.48 131.53 240.98
  A 0.51 0.50 -10.7 0 0 132.02 240.27
  Q 131.79 239.75 131.31 239.69
  Z
  M 150.38 224.62
  A 0.90 0.90 0.0 0 0 148.91 224.51
  L 146.14 227.86
  A 0.90 0.90 0.0 0 0 145.99 228.73
  L 149.02 237.50
  A 0.90 0.90 0.0 0 0 150.72 237.51
  L 153.31 230.22
  A 0.90 0.90 0.0 0 0 153.24 229.46
  L 150.38 224.62
  Z
  M 282.02 224.48
  A 0.91 0.91 0.0 0 0 280.54 224.61
  L 277.76 229.35
  A 0.91 0.91 0.0 0 0 277.69 230.12
  L 280.30 237.48
  A 0.91 0.91 0.0 0 0 282.02 237.47
  L 285.04 228.74
  A 0.91 0.91 0.0 0 0 284.88 227.85
  L 282.02 224.48
  Z
  M 313.13 224.33
  C 310.79 227.01 300.66 239.70 298.76 240.18
  Q 298.67 240.20 298.73 240.28
  L 298.93 240.52
  Q 299.32 241.00 299.93 240.97
  Q 310.63 240.37 320.00 235.22
  A 0.50 0.50 0.0 0 0 320.19 234.53
  L 314.31 224.44
  A 0.73 0.73 0.0 0 0 313.13 224.33
  Z
  M 108.69 235.03
  Q 103.12 231.70 98.94 226.75
  Q 98.62 226.38 98.28 226.73
  C 98.06 226.95 104.95 238.46 105.66 239.74
  A 0.58 0.58 0.0 0 0 106.68 239.74
  L 108.89 235.78
  A 0.56 0.56 0.0 0 0 108.69 235.03
  Z
  M 168.30 227.79
  A 0.36 0.36 0.0 0 1 168.97 227.91
  C 169.17 228.96 162.74 239.27 161.85 240.80
  A 1.40 1.39 -44.8 0 0 161.84 242.20
  L 168.84 254.29
  Q 169.06 254.67 168.82 255.04
  L 168.09 256.18
  Q 167.32 257.40 168.51 256.58
  Q 169.23 256.09 169.71 255.40
  Q 170.03 254.95 169.87 254.42
  Q 166.07 241.61 169.79 228.80
  Q 169.92 228.34 169.67 227.93
  L 169.06 226.93
  Q 168.63 226.22 168.09 226.85
  Q 163.88 231.72 158.30 234.96
  Q 157.71 235.30 158.06 235.88
  L 160.34 239.70
  Q 160.81 240.49 161.27 239.70
  L 168.30 227.79
  Z
  M 272.70 235.06
  C 269.14 232.83 265.72 230.17 263.02 226.96
  Q 262.79 226.68 262.46 226.82
  Q 260.85 227.53 261.21 228.79
  Q 264.96 241.81 261.04 254.85
  A 1.13 1.13 0.0 0 0 262.95 255.94
  Q 267.25 251.28 272.65 248.03
  Q 273.22 247.69 272.89 247.11
  L 270.55 243.04
  A 0.41 0.41 0.0 0 0 269.84 243.04
  L 262.87 255.00
  Q 262.63 255.40 262.24 255.14
  C 261.55 254.68 268.44 243.48 269.14 242.24
  A 1.46 1.45 44.8 0 0 269.13 240.78
  C 268.02 238.86 261.76 228.97 262.04 227.55
  A 0.26 0.26 0.0 0 1 262.52 227.47
  L 269.71 239.73
  Q 270.20 240.55 270.68 239.72
  L 272.90 235.86
  Q 273.18 235.36 272.70 235.06
  Z
  M 332.55 226.40
  C 329.37 229.81 327.00 232.09 322.26 234.95
  Q 321.69 235.30 322.03 235.87
  L 324.34 239.73
  A 0.55 0.55 0.0 0 0 325.28 239.73
  L 332.94 226.69
  A 0.24 0.24 0.0 0 0 332.55 226.40
  Z
  M 144.19 229.94
  Q 139.78 235.22 135.10 240.22
  A 0.46 0.46 0.0 0 0 135.46 241.00
  Q 141.61 240.70 147.49 238.88
  A 0.86 0.86 0.0 0 0 148.04 237.77
  L 145.26 229.77
  A 0.52 0.51 -14.0 0 0 144.69 229.43
  Q 144.19 229.52 144.19 229.94
  Z
  M 286.64 229.81
  A 0.60 0.60 0.0 0 0 285.62 230.01
  L 282.76 238.31
  A 0.60 0.60 0.0 0 0 283.22 239.10
  L 295.19 241.17
  A 0.60 0.60 0.0 0 0 295.74 240.18
  L 286.64 229.81
  Z
  M 154.60 231.54
  A 0.40 0.40 0.0 0 0 153.87 231.58
  L 152.19 236.33
  A 0.40 0.40 0.0 0 0 152.74 236.83
  L 156.02 235.31
  A 0.40 0.40 0.0 0 0 156.21 234.77
  L 154.60 231.54
  Z
  M 276.41 231.55
  L 274.93 234.28
  Q 274.55 234.96 275.24 235.33
  L 278.30 236.94
  Q 279.23 237.43 278.86 236.45
  L 277.07 231.60
  A 0.36 0.36 0.0 0 0 276.41 231.55
  Z
  M 107.13 240.69
  Q 106.98 240.85 106.87 241.07
  Q 106.63 241.56 106.92 242.03
  L 109.75 246.58
  Q 110.13 247.19 110.76 246.84
  Q 117.42 243.06 124.99 241.86
  Q 126.88 241.56 125.00 241.21
  Q 117.41 239.82 110.60 236.18
  A 0.75 0.75 0.0 0 0 109.58 236.49
  Q 108.54 238.48 107.37 240.37
  Q 107.27 240.54 107.13 240.69
  Z
  M 150.96 239.96
  C 149.23 244.10 153.66 245.47 156.38 246.84
  Q 156.96 247.13 157.30 246.57
  L 159.99 242.01
  Q 160.28 241.51 159.99 241.02
  L 157.31 236.43
  Q 156.99 235.90 156.43 236.16
  C 154.42 237.10 151.82 237.88 150.96 239.96
  Z
  M 271.01 240.97
  A 1.19 1.17 44.5 0 0 271.03 242.19
  L 273.83 246.71
  Q 274.16 247.23 274.68 246.91
  C 276.62 245.75 279.14 245.13 280.07 243.06
  C 281.83 239.16 277.61 237.36 274.40 236.24
  Q 273.88 236.06 273.61 236.53
  L 271.01 240.97
  Z
  M 321.31 246.54
  L 323.99 242.01
  Q 324.28 241.51 323.99 241.02
  L 321.38 236.56
  A 0.96 0.95 59.9 0 0 320.08 236.21
  Q 313.23 240.14 305.41 241.16
  A 0.35 0.35 0.0 0 0 305.41 241.85
  Q 313.32 242.82 320.22 246.82
  A 0.80 0.79 30.3 0 0 321.31 246.54
  Z
  M 149.15 240.33
  A 0.67 0.67 0.0 0 0 148.26 239.68
  C 147.63 239.90 141.30 241.28 141.29 241.33
  Q 141.21 241.67 141.56 241.75
  L 148.52 243.20
  Q 149.09 243.32 149.10 242.74
  L 149.15 240.33
  Z
  M 282.20 239.64
  A 0.35 0.35 0.0 0 0 281.77 239.98
  L 281.77 242.98
  A 0.35 0.35 0.0 0 0 282.20 243.32
  L 288.86 241.82
  A 0.35 0.35 0.0 0 0 288.86 241.14
  L 282.20 239.64
  Z
  M 117.84 258.65
  L 131.74 242.80
  A 0.48 0.48 0.0 0 0 131.35 242.00
  Q 120.76 242.57 111.42 247.55
  A 1.00 0.99 61.1 0 0 111.03 248.92
  L 116.65 258.54
  Q 117.17 259.42 117.84 258.65
  Z
  M 147.23 243.79
  L 135.88 241.82
  A 0.64 0.64 0.0 0 0 135.29 242.87
  L 144.43 253.18
  A 0.56 0.56 0.0 0 0 145.37 252.99
  L 148.08 245.22
  A 1.09 1.09 0.0 0 0 147.23 243.79
  Z
  M 285.56 252.89
  A 0.65 0.65 0.0 0 0 286.66 253.11
  L 295.70 242.87
  A 0.65 0.65 0.0 0 0 295.10 241.80
  L 283.27 243.89
  A 0.65 0.65 0.0 0 0 282.77 244.74
  L 285.56 252.89
  Z
  M 314.18 258.93
  L 320.10 248.59
  Q 320.43 248.02 319.85 247.71
  Q 310.38 242.56 299.58 242.03
  A 0.44 0.44 0.0 0 0 299.23 242.76
  L 313.45 259.00
  Q 313.86 259.48 314.18 258.93
  Z
  M 176.04 266.00
  C 184.25 279.50 198.72 287.44 214.41 288.04
  A 0.57 0.56 1.0 0 0 215.00 287.48
  L 215.00 242.78
  A 0.24 0.23 75.4 0 0 214.65 242.57
  L 176.43 264.47
  Q 175.45 265.03 176.04 266.00
  Z
  M 254.63 264.50
  L 216.76 242.79
  A 0.51 0.51 0.0 0 0 216.00 243.23
  L 216.00 286.73
  Q 216.00 288.17 217.44 288.06
  Q 241.79 286.23 255.00 266.08
  A 1.12 1.11 -58.3 0 0 254.63 264.50
  Z
  M 105.78 243.19
  L 98.32 255.80
  Q 96.57 258.76 98.83 256.18
  Q 103.09 251.32 108.65 248.04
  Q 109.21 247.71 108.89 247.15
  L 106.64 243.20
  A 0.50 0.50 0.0 0 0 105.78 243.19
  Z
  M 158.22 247.84
  C 161.65 250.23 164.34 252.28 167.30 255.30
  A 0.44 0.44 0.0 0 0 168.00 254.77
  L 161.37 243.45
  A 0.65 0.65 0.0 0 0 160.25 243.44
  L 158.06 247.07
  Q 157.78 247.53 158.22 247.84
  Z
  M 298.23 243.69
  Q 297.81 264.55 298.06 284.19
  Q 298.09 286.50 299.25 284.50
  L 312.95 260.96
  A 0.94 0.94 0.0 0 0 312.85 259.87
  L 298.55 243.40
  Q 298.41 243.24 298.30 243.43
  Q 298.24 243.55 298.23 243.69
  Z
  M 322.30 247.88
  C 325.99 250.50 328.92 252.83 332.10 256.04
  A 0.29 0.28 7.8 0 0 332.55 255.70
  L 325.41 243.52
  Q 324.82 242.50 324.21 243.51
  L 322.11 247.00
  Q 321.79 247.53 322.30 247.88
  Z
  M 295.94 243.94
  Q 291.58 249.27 286.82 254.37
  A 1.28 1.28 0.0 0 0 286.55 255.67
  L 295.72 281.81
  Q 295.91 282.35 295.75 282.90
  Q 295.41 284.04 296.29 284.47
  Q 296.99 284.82 296.99 284.04
  L 297.00 243.57
  A 0.37 0.36 73.5 0 0 296.44 243.26
  Q 296.00 243.55 295.94 243.94
  Z
  M 133.00 243.70
  A 0.33 0.33 0.0 0 0 132.42 243.49
  L 117.88 260.20
  A 0.33 0.33 0.0 0 0 117.84 260.58
  L 132.38 285.63
  A 0.33 0.33 0.0 0 0 133.00 285.46
  L 133.00 243.70
  Z
  M 134.36 284.64
  C 135.27 284.97 135.53 281.27 135.87 280.28
  Q 140.19 267.94 144.45 255.46
  Q 144.62 254.98 144.28 254.60
  L 134.78 243.70
  A 0.45 0.45 0.0 0 0 133.99 244.00
  L 134.03 284.18
  A 0.49 0.48 -80.8 0 0 134.36 284.64
  Z
  M 150.65 245.22
  A 0.80 0.80 0.0 0 0 149.14 245.22
  L 145.97 254.32
  A 0.80 0.80 0.0 0 0 146.12 255.10
  L 149.12 258.64
  A 0.80 0.80 0.0 0 0 150.43 258.51
  L 153.23 253.48
  A 0.80 0.80 0.0 0 0 153.28 252.83
  L 150.65 245.22
  Z
  M 282.01 245.50
  A 0.90 0.90 0.0 0 0 280.31 245.49
  L 277.67 252.77
  A 0.90 0.90 0.0 0 0 277.74 253.52
  L 280.57 258.40
  A 0.90 0.90 0.0 0 0 282.03 258.53
  L 284.85 255.18
  A 0.90 0.90 0.0 0 0 285.02 254.31
  L 282.01 245.50
  Z
  M 152.80 246.19
  A 0.40 0.40 0.0 0 0 152.25 246.68
  L 153.84 251.40
  A 0.40 0.40 0.0 0 0 154.57 251.45
  L 156.23 248.27
  A 0.40 0.40 0.0 0 0 156.04 247.73
  L 152.80 246.19
  Z
  M 276.98 251.56
  L 278.80 246.75
  Q 279.21 245.65 278.16 246.17
  L 275.16 247.67
  Q 274.55 247.97 274.88 248.57
  L 276.51 251.59
  Q 276.78 252.09 276.98 251.56
  Z
  M 109.14 248.92
  C 93.85 257.65 86.36 275.10 86.91 292.60
  A 0.59 0.59 0.0 0 0 87.95 292.97
  L 116.08 260.69
  Q 116.48 260.23 116.17 259.71
  L 110.06 249.17
  Q 109.73 248.58 109.14 248.92
  Z
  M 172.87 263.88
  C 169.09 257.73 163.74 252.28 157.64 248.83
  Q 157.23 248.60 157.00 249.02
  L 154.83 253.00
  Q 154.59 253.44 154.76 253.92
  L 160.92 271.57
  A 0.49 0.49 0.0 0 0 161.63 271.83
  L 172.43 265.61
  Q 173.54 264.97 172.87 263.88
  Z
  M 273.18 248.81
  C 267.52 252.25 261.53 257.97 257.95 264.18
  A 0.93 0.92 -60.1 0 0 258.29 265.45
  L 269.38 271.84
  A 0.50 0.50 0.0 0 0 270.10 271.57
  L 276.27 253.86
  Q 276.44 253.36 276.18 252.90
  L 273.99 249.02
  Q 273.70 248.49 273.18 248.81
  Z
  M 321.05 249.02
  L 314.81 259.67
  A 0.89 0.88 40.0 0 0 314.91 260.71
  L 343.07 292.97
  A 0.56 0.55 -64.7 0 0 344.04 292.62
  Q 345.02 264.32 321.93 248.82
  A 0.62 0.61 -57.4 0 0 321.05 249.02
  Z
  M 153.20 255.47
  L 150.82 259.63
  Q 150.52 260.17 150.92 260.64
  L 158.41 269.37
  A 0.37 0.37 0.0 0 0 159.04 269.00
  C 158.36 267.15 154.60 255.28 153.47 255.31
  A 0.34 0.33 13.3 0 0 153.20 255.47
  Z
  M 276.70 255.65
  L 271.97 269.00
  Q 271.30 270.90 272.62 269.37
  L 279.97 260.80
  Q 280.38 260.32 280.09 259.76
  L 277.95 255.57
  A 0.68 0.68 0.0 0 0 276.70 255.65
  Z
  M 145.17 256.66
  L 136.41 281.49
  A 0.28 0.28 0.0 0 0 136.91 281.72
  L 149.01 260.80
  Q 149.30 260.30 148.92 259.88
  L 145.89 256.52
  Q 145.41 255.99 145.17 256.66
  Z
  M 284.23 257.64
  L 282.11 259.77
  Q 281.65 260.22 281.97 260.78
  L 293.42 280.65
  A 0.39 0.39 0.0 0 0 294.13 280.32
  L 285.84 256.59
  Q 285.68 256.13 285.26 256.38
  Q 284.85 256.63 284.66 257.04
  Q 284.50 257.38 284.23 257.64
  Z
  M 92.76 310.87
  A 0.35 0.35 0.0 0 0 93.24 311.00
  L 132.32 288.61
  A 0.58 0.58 0.0 0 0 132.53 287.81
  L 117.39 261.83
  A 0.55 0.55 0.0 0 0 116.50 261.75
  L 87.81 294.64
  Q 87.44 295.07 87.53 295.63
  Q 88.82 303.70 92.76 310.87
  Z
  M 135.69 285.94
  Q 135.26 285.97 135.21 286.81
  A 0.35 0.35 0.0 0 0 135.86 287.01
  L 136.14 286.55
  Q 136.28 286.30 136.53 286.16
  Q 148.04 279.58 159.57 273.01
  A 0.46 0.46 0.0 0 0 159.69 272.31
  L 150.39 261.57
  A 0.41 0.40 -49.9 0 0 149.74 261.63
  Q 142.58 273.68 135.69 285.94
  Z
  M 271.36 272.94
  L 295.30 286.67
  Q 296.09 287.13 295.63 286.34
  L 281.63 262.23
  Q 281.01 261.16 280.19 262.09
  L 271.26 272.32
  A 0.41 0.41 0.0 0 0 271.36 272.94
  Z
  M 298.94 288.76
  L 337.78 310.99
  A 0.40 0.39 -60.0 0 0 338.33 310.84
  Q 342.18 303.65 343.50 295.61
  Q 343.58 295.11 343.25 294.73
  L 314.27 261.47
  A 0.31 0.31 0.0 0 0 313.76 261.52
  L 298.62 287.57
  A 0.87 0.86 -60.2 0 0 298.94 288.76
  Z
  M 174.56 287.81
  Q 176.97 288.15 179.42 287.98
  Q 180.02 287.93 180.00 287.33
  Q 179.70 276.30 174.51 266.60
  A 0.88 0.87 60.9 0 0 173.30 266.25
  L 162.54 272.41
  A 0.91 0.91 0.0 0 0 162.31 273.79
  L 174.49 287.76
  A 0.14 0.10 72.0 0 0 174.56 287.81
  Z
  M 268.36 272.37
  L 257.73 266.29
  A 0.94 0.93 -61.3 0 0 256.44 266.67
  Q 251.34 276.34 251.00 287.29
  Q 250.99 287.71 251.39 287.82
  Q 255.27 288.90 257.41 286.47
  Q 263.08 280.06 268.62 273.98
  A 1.05 1.04 36.1 0 0 268.36 272.37
  Z
  M 179.19 275.44
  Q 180.86 283.49 181.20 287.51
  Q 181.24 288.01 181.74 288.01
  L 186.60 287.99
  A 0.42 0.41 75.2 0 0 186.96 287.37
  L 180.26 275.89
  Q 179.92 275.30 180.37 274.79
  L 180.83 274.29
  Q 181.39 273.66 180.56 273.83
  Q 178.93 274.17 179.19 275.44
  Z
  M 249.94 274.44
  Q 241.75 282.42 231.07 286.44
  C 229.98 286.86 228.65 286.54 227.69 287.02
  A 0.51 0.51 0.0 0 0 227.92 287.98
  L 241.94 288.01
  Q 242.57 288.01 242.88 287.47
  L 250.15 275.00
  Q 250.39 274.61 250.76 274.87
  C 251.52 275.38 244.77 286.07 243.98 287.37
  A 0.41 0.41 0.0 0 0 244.33 287.99
  L 249.44 288.00
  Q 250.03 288.01 250.02 287.42
  Q 250.00 281.28 251.94 275.49
  Q 252.57 273.61 250.59 273.71
  Q 249.81 273.75 249.94 274.44
  Z
  M 136.52 287.32
  A 0.38 0.38 0.0 0 0 136.71 288.03
  L 165.07 287.99
  A 0.38 0.38 0.0 0 0 165.43 287.48
  L 160.70 274.02
  A 0.38 0.38 0.0 0 0 160.15 273.82
  L 136.52 287.32
  Z
  M 293.51 286.80
  L 271.09 273.96
  A 0.63 0.62 -65.5 0 0 270.19 274.30
  L 265.63 287.33
  Q 265.41 287.94 266.06 287.95
  Q 279.98 288.12 293.90 287.96
  C 294.43 287.95 294.72 287.67 294.88 287.18
  Q 294.94 287.00 294.75 287.00
  Q 294.60 287.00 294.44 287.01
  Q 293.94 287.05 293.51 286.80
  Z
  M 349.30 298.80
  L 354.60 294.96
  Q 355.09 294.60 354.79 294.08
  L 343.60 274.59
  Q 342.89 273.36 343.08 274.76
  C 344.05 281.73 345.50 285.45 344.72 294.32
  Q 344.67 294.86 345.03 295.26
  L 348.09 298.67
  Q 348.63 299.28 349.30 298.80
  Z
  M 76.32 294.93
  L 82.10 299.02
  Q 82.52 299.32 82.84 298.92
  L 85.99 295.01
  Q 86.33 294.58 86.27 294.03
  Q 85.15 284.24 88.05 274.88
  A 0.34 0.34 0.0 0 0 87.43 274.61
  L 76.15 294.13
  A 0.61 0.60 -57.2 0 0 76.32 294.93
  Z
  M 188.91 288.01
  L 203.25 287.97
  A 0.37 0.36 51.5 0 0 203.33 287.25
  Q 190.63 284.21 181.71 274.71
  A 0.42 0.42 0.0 0 0 181.04 275.21
  L 188.17 287.59
  A 0.86 0.86 0.0 0 0 188.91 288.01
  Z
  M 162.63 276.40
  L 166.47 287.51
  Q 166.64 288.00 167.15 288.00
  L 172.45 288.00
  A 0.44 0.44 0.0 0 0 172.78 287.28
  L 163.09 276.13
  Q 162.17 275.08 162.63 276.40
  Z
  M 268.05 276.02
  L 258.15 287.33
  Q 257.57 288.00 258.45 288.00
  L 263.75 288.00
  Q 264.29 288.00 264.47 287.49
  L 268.51 276.30
  A 0.28 0.27 75.9 0 0 268.05 276.02
  Z
  M 141.29 290.10
  C 142.72 290.31 143.94 290.02 145.30 290.27
  Q 156.19 292.31 167.13 294.43
  Q 167.83 294.57 167.60 293.89
  L 166.12 289.48
  Q 165.94 288.96 165.40 288.97
  Q 156.11 289.09 146.80 288.92
  C 143.68 288.86 140.72 289.69 137.43 289.70
  A 0.23 0.23 0.0 0 0 137.32 290.13
  L 172.49 310.26
  A 0.47 0.46 -84.8 0 0 173.16 309.70
  L 168.43 296.10
  A 1.25 1.24 84.4 0 0 167.44 295.28
  Q 154.19 293.36 141.24 290.41
  Q 137.13 289.48 141.29 290.10
  Z
  M 9.33 355.12
  C 25.20 389.21 70.84 390.70 91.05 360.08
  Q 91.70 359.10 90.68 358.52
  L 51.46 336.06
  Q 51.00 335.80 51.00 335.27
  L 51.00 290.23
  Q 51.00 288.74 49.52 288.87
  C 16.80 291.70 -5.13 324.04 9.33 355.12
  Z
  M 73.68 294.61
  Q 63.78 289.33 52.52 289.00
  A 0.51 0.51 0.0 0 0 52.00 289.51
  C 52.00 293.52 51.77 332.34 52.19 332.64
  Q 52.48 332.85 52.67 332.54
  L 74.01 295.79
  Q 74.46 295.02 73.68 294.61
  Z
  M 168.83 294.27
  A 1.00 1.00 0.0 0 0 169.59 294.92
  L 178.48 296.58
  A 1.00 1.00 0.0 0 0 179.42 294.94
  L 174.56 289.34
  A 1.00 1.00 0.0 0 0 173.80 289.00
  L 168.38 289.00
  A 1.00 1.00 0.0 0 0 167.44 290.33
  L 168.83 294.27
  Z
  M 180.00 289.46
  A 0.47 0.47 0.0 0 0 179.53 288.99
  L 176.60 289.02
  A 0.47 0.47 0.0 0 0 176.26 289.80
  L 179.18 293.09
  A 0.47 0.47 0.0 0 0 180.00 292.77
  L 180.00 289.46
  Z
  M 182.94 297.06
  C 186.08 299.22 188.20 296.72 190.66 294.94
  Q 191.10 294.63 190.84 294.15
  L 188.22 289.56
  Q 187.90 289.00 187.26 289.00
  L 181.54 289.00
  Q 181.03 289.00 181.03 289.51
  C 180.98 292.77 179.86 294.95 182.94 297.06
  Z
  M 203.68 289.07
  L 189.95 288.97
  Q 188.92 288.96 189.46 289.84
  L 191.83 293.72
  Q 192.18 294.28 192.73 293.92
  Q 197.78 290.67 203.73 289.80
  A 0.37 0.37 0.0 0 0 203.68 289.07
  Z
  M 195.96 299.93
  L 214.47 303.48
  A 0.46 0.45 -84.8 0 0 215.00 303.03
  L 215.00 290.04
  Q 215.00 288.91 213.87 288.96
  Q 202.86 289.48 193.17 294.70
  Q 192.53 295.04 192.90 295.66
  L 195.08 299.31
  Q 195.38 299.82 195.96 299.93
  Z
  M 237.80 294.71
  Q 227.99 289.35 216.79 288.97
  Q 216.00 288.95 216.00 289.74
  L 216.00 303.00
  A 0.47 0.47 0.0 0 0 216.56 303.46
  L 234.97 299.94
  Q 235.67 299.80 236.03 299.18
  L 238.07 295.66
  Q 238.42 295.05 237.80 294.71
  Z
  M 227.69 289.94
  C 231.52 290.36 235.08 292.02 238.45 293.86
  Q 238.93 294.12 239.21 293.66
  L 241.53 289.80
  A 0.52 0.51 -74.1 0 0 241.10 289.02
  C 239.66 289.01 227.32 288.70 227.27 289.45
  Q 227.25 289.90 227.69 289.94
  Z
  M 240.94 295.31
  Q 242.68 296.61 244.56 297.83
  Q 245.00 298.11 245.52 298.04
  C 250.85 297.34 250.02 293.68 249.98 289.71
  Q 249.98 289.00 249.26 289.00
  L 243.77 289.00
  Q 243.14 289.00 242.82 289.54
  L 240.06 294.20
  Q 239.76 294.70 240.20 295.07
  Q 240.54 295.37 240.94 295.31
  Z
  M 251.01 291.34
  Q 250.75 292.13 251.10 292.90
  Q 251.42 293.61 251.93 293.02
  L 254.77 289.76
  Q 255.41 289.03 254.43 289.02
  L 251.69 288.99
  Q 250.86 288.98 250.97 289.81
  L 251.08 290.61
  Q 251.13 290.98 251.01 291.34
  Z
  M 256.99 289.00
  A 0.90 0.90 0.0 0 0 256.29 289.33
  L 251.59 295.10
  A 0.90 0.90 0.0 0 0 252.45 296.56
  L 261.42 294.90
  A 0.90 0.90 0.0 0 0 262.11 294.32
  L 263.59 290.21
  A 0.90 0.90 0.0 0 0 262.75 289.00
  L 256.99 289.00
  Z
  M 256.85 309.64
  L 261.16 297.16
  A 0.83 0.83 0.0 0 0 260.21 296.08
  L 252.60 297.59
  A 0.93 0.93 0.0 0 0 251.91 298.81
  L 256.01 310.08
  A 1.20 1.19 65.0 0 0 257.73 310.71
  L 293.00 290.53
  A 0.43 0.43 0.0 0 0 292.73 289.73
  C 290.55 290.00 288.90 289.02 286.99 289.01
  Q 276.34 288.98 265.61 289.01
  Q 265.02 289.01 264.83 289.56
  L 263.31 294.00
  Q 263.11 294.59 263.72 294.47
  C 267.14 293.81 287.58 289.18 289.36 290.14
  Q 290.03 290.51 289.28 290.65
  L 263.52 295.48
  A 1.28 1.28 0.0 0 0 262.54 296.31
  C 262.02 297.78 257.87 310.14 257.31 310.22
  Q 256.62 310.31 256.85 309.64
  Z
  M 377.70 288.99
  Q 366.93 289.50 357.44 294.53
  A 1.01 0.99 61.2 0 0 357.05 295.92
  L 378.43 332.65
  A 0.31 0.30 30.1 0 0 379.00 332.50
  L 379.00 290.23
  Q 379.00 288.93 377.70 288.99
  Z
  M 339.83 359.68
  C 348.24 373.77 363.85 382.14 379.75 381.98
  C 418.26 381.60 439.75 337.66 416.19 307.05
  Q 403.58 290.67 380.94 288.87
  A 0.87 0.87 0.0 0 0 380.00 289.74
  L 380.00 335.27
  Q 380.00 335.80 379.54 336.06
  L 340.10 358.66
  A 0.74 0.73 59.9 0 0 339.83 359.68
  Z
  M 93.71 312.57
  C 96.26 316.86 99.97 321.37 104.19 324.54
  Q 104.57 324.82 105.04 324.74
  L 148.35 316.51
  A 0.55 0.54 -20.2 0 0 148.73 315.70
  L 133.68 289.77
  Q 133.33 289.18 132.74 289.52
  L 93.93 311.74
  Q 93.40 312.04 93.71 312.57
  Z
  M 282.54 316.47
  L 326.03 324.77
  Q 326.52 324.86 326.91 324.54
  Q 333.17 319.44 337.39 312.52
  A 0.51 0.51 0.0 0 0 337.21 311.82
  L 298.21 289.48
  A 0.61 0.61 0.0 0 0 297.38 289.71
  L 282.21 315.76
  A 0.48 0.48 0.0 0 0 282.54 316.47
  Z
  M 171.77 310.78
  Q 159.68 304.14 137.44 291.30
  Q 136.57 290.79 136.15 290.21
  Q 135.91 289.88 135.55 290.07
  C 135.05 290.36 135.25 290.63 135.49 291.02
  Q 142.77 303.33 149.78 315.57
  A 0.95 0.94 -19.9 0 0 150.77 316.03
  L 172.87 311.82
  A 0.36 0.35 -40.2 0 0 172.93 311.14
  Q 172.67 311.05 172.50 311.01
  Q 171.89 310.84 171.77 310.78
  Z
  M 295.13 290.45
  L 258.44 311.43
  A 0.28 0.28 0.0 0 0 258.53 311.94
  L 280.30 316.02
  Q 280.88 316.13 281.18 315.62
  L 295.55 290.87
  A 0.31 0.31 0.0 0 0 295.13 290.45
  Z
  M 80.70 301.37
  Q 81.25 301.05 81.35 300.42
  Q 81.44 299.83 80.96 299.48
  L 75.96 295.84
  Q 75.41 295.44 75.06 296.03
  L 56.08 328.52
  Q 54.25 331.65 56.63 328.91
  L 80.20 301.79
  Q 80.42 301.54 80.70 301.37
  Z
  M 191.09 298.92
  L 193.11 299.51
  Q 194.26 299.85 193.64 298.82
  L 191.95 296.01
  Q 191.60 295.43 191.04 295.81
  L 188.08 297.84
  Q 186.84 298.70 188.35 298.73
  L 190.07 298.76
  Q 190.59 298.77 191.09 298.92
  Z
  M 242.42 298.58
  A 0.49 0.49 0.0 0 0 242.61 297.69
  L 239.79 295.83
  A 0.49 0.49 0.0 0 0 239.10 295.99
  L 237.49 298.64
  A 0.49 0.49 0.0 0 0 238.00 299.38
  L 242.42 298.58
  Z
  M 355.78 295.74
  A 0.31 0.31 0.0 0 0 355.33 295.65
  L 349.51 299.84
  A 0.31 0.31 0.0 0 0 349.45 300.30
  L 374.51 329.05
  A 0.31 0.31 0.0 0 0 375.01 328.69
  L 355.78 295.74
  Z
  M 178.52 297.58
  L 170.53 296.08
  A 0.67 0.66 85.8 0 0 169.78 296.95
  L 174.25 309.95
  A 0.29 0.29 0.0 0 0 174.79 309.99
  Q 177.62 304.40 178.98 298.28
  A 0.58 0.58 0.0 0 0 178.52 297.58
  Z
  M 83.75 299.17
  Q 83.56 299.32 83.46 299.59
  Q 83.31 300.01 83.61 300.34
  L 88.39 305.65
  A 0.43 0.43 0.0 0 0 89.10 305.19
  Q 87.30 301.25 86.92 296.96
  Q 86.86 296.28 86.30 296.66
  Q 85.17 297.43 84.45 298.50
  Q 84.32 298.70 83.75 299.17
  Z
  M 344.89 296.69
  A 0.32 0.32 0.0 0 0 344.35 296.83
  L 342.13 305.19
  A 0.32 0.32 0.0 0 0 342.68 305.49
  L 347.68 300.05
  A 0.32 0.32 0.0 0 0 347.67 299.61
  L 344.89 296.69
  Z
  M 250.77 297.77
  A 0.32 0.32 0.0 0 0 250.31 297.58
  L 247.20 299.34
  A 0.32 0.32 0.0 0 0 247.13 299.84
  L 252.36 305.46
  A 0.32 0.32 0.0 0 0 252.90 305.15
  L 250.77 297.77
  Z
  M 183.29 299.06
  L 181.17 297.97
  Q 180.40 297.57 180.15 298.40
  L 178.02 305.34
  Q 177.72 306.30 178.58 305.77
  Q 179.18 305.40 179.42 304.74
  Q 179.59 304.28 179.94 303.94
  L 183.49 300.38
  Q 184.29 299.58 183.29 299.06
  Z
  M 186.63 299.16
  A 0.90 0.90 0.0 0 0 185.78 300.64
  L 191.90 307.71
  A 0.90 0.90 0.0 0 0 192.74 308.01
  L 197.10 307.23
  A 0.90 0.90 0.0 0 0 197.71 305.88
  L 194.80 301.00
  A 0.90 0.90 0.0 0 0 194.19 300.58
  L 186.63 299.16
  Z
  M 233.37 305.68
  A 1.00 1.00 0.0 0 0 234.03 307.18
  L 238.21 308.02
  A 1.00 1.00 0.0 0 0 239.16 307.69
  L 245.06 300.87
  A 1.00 1.00 0.0 0 0 244.12 299.23
  L 236.80 300.63
  A 1.00 1.00 0.0 0 0 236.13 301.09
  L 233.37 305.68
  Z
  M 82.31 300.97
  L 55.68 331.41
  Q 55.47 331.65 55.15 331.71
  C 54.64 331.82 54.19 332.35 54.68 332.81
  Q 54.90 333.01 55.16 332.86
  L 90.82 312.37
  A 1.13 1.13 0.0 0 0 91.13 310.68
  L 83.15 300.98
  A 0.55 0.55 0.0 0 0 82.31 300.97
  Z
  M 184.77 301.04
  A 0.62 0.62 0.0 0 0 183.82 301.04
  L 176.30 310.00
  A 0.62 0.62 0.0 0 0 176.89 311.01
  L 190.08 308.54
  A 0.62 0.62 0.0 0 0 190.44 307.52
  L 184.77 301.04
  Z
  M 211.21 304.39
  C 210.54 303.33 198.58 301.43 196.53 301.04
  A 0.30 0.30 0.0 0 0 196.21 301.49
  L 199.09 306.34
  Q 199.29 306.66 199.65 306.60
  L 211.07 304.70
  A 0.20 0.20 0.0 0 0 211.21 304.39
  Z
  M 219.92 304.69
  L 231.05 306.56
  Q 231.62 306.65 231.93 306.16
  L 234.75 301.60
  A 0.39 0.39 0.0 0 0 234.34 301.02
  C 232.57 301.38 220.06 303.54 219.69 304.21
  Q 219.46 304.61 219.92 304.69
  Z
  M 240.43 307.63
  A 0.54 0.54 0.0 0 0 240.74 308.51
  L 254.31 311.03
  A 0.54 0.54 0.0 0 0 254.82 310.16
  L 247.12 301.02
  A 0.54 0.54 0.0 0 0 246.31 301.01
  L 240.43 307.63
  Z
  M 375.24 332.47
  Q 375.24 333.09 375.93 333.17
  Q 376.95 333.29 376.28 332.52
  L 348.84 301.16
  A 0.59 0.58 47.3 0 0 347.99 301.12
  Q 343.32 305.76 339.75 311.30
  A 0.68 0.68 0.0 0 0 339.98 312.26
  Q 356.57 321.82 373.16 331.27
  C 373.74 331.61 373.76 332.11 374.71 332.00
  Q 375.23 331.94 375.24 332.47
  Z
  M 214.49 304.87
  L 200.49 307.50
  A 0.45 0.45 0.0 0 0 200.18 308.16
  Q 206.26 318.75 212.49 329.16
  C 213.00 330.02 213.51 331.79 214.22 332.79
  Q 215.00 333.89 215.00 332.54
  L 215.00 305.29
  A 0.43 0.43 0.0 0 0 214.49 304.87
  Z
  M 230.99 307.87
  A 0.19 0.19 0.0 0 0 230.87 307.59
  L 216.22 304.85
  A 0.19 0.19 0.0 0 0 216.00 305.04
  L 216.00 332.36
  A 0.19 0.19 0.0 0 0 216.09 332.53
  L 216.35 332.68
  A 0.19 0.19 0.0 0 0 216.62 332.61
  L 230.99 307.87
  Z
  M 193.61 308.87
  A 0.33 0.33 0.0 0 0 193.42 309.41
  L 210.50 329.08
  A 0.33 0.33 0.0 0 0 211.03 328.70
  L 198.93 308.03
  A 0.33 0.33 0.0 0 0 198.58 307.88
  L 193.61 308.87
  Z
  M 237.63 309.35
  A 0.33 0.33 0.0 0 0 237.43 308.81
  L 232.36 307.94
  A 0.33 0.33 0.0 0 0 232.01 308.10
  L 219.99 328.66
  A 0.33 0.33 0.0 0 0 220.52 329.04
  L 237.63 309.35
  Z
  M 211.11 331.21
  L 192.22 309.62
  Q 191.86 309.20 191.33 309.31
  L 176.83 312.04
  A 0.39 0.39 0.0 0 0 176.71 312.77
  Q 194.07 322.58 211.54 332.68
  Q 212.07 332.99 212.38 332.42
  Q 212.63 331.96 212.13 331.79
  L 211.87 331.71
  Q 211.42 331.56 211.11 331.21
  Z
  M 222.94 327.94
  Q 221.44 329.74 218.59 332.09
  Q 218.48 332.18 218.50 332.33
  L 218.54 332.62
  Q 218.61 333.14 219.07 332.88
  L 254.14 312.80
  A 0.43 0.43 0.0 0 0 254.00 312.00
  L 239.67 309.30
  Q 239.17 309.21 238.82 309.59
  Q 230.67 318.64 222.94 327.94
  Z
  M 157.94 328.07
  C 164.29 324.13 168.38 319.52 172.76 313.74
  A 0.51 0.51 0.0 0 0 172.26 312.93
  L 151.41 316.91
  A 0.56 0.56 0.0 0 0 151.03 317.75
  L 156.98 327.83
  A 0.69 0.69 0.0 0 0 157.94 328.07
  Z
  M 258.31 313.57
  C 262.03 319.35 267.11 324.46 272.97 327.99
  Q 273.72 328.44 274.15 327.69
  L 279.82 317.91
  A 0.69 0.68 -69.4 0 0 279.36 316.89
  L 258.75 312.93
  A 0.42 0.42 0.0 0 0 258.31 313.57
  Z
  M 59.47 333.85
  A 0.20 0.20 0.0 0 1 59.43 333.45
  L 96.41 326.43
  A 0.73 0.72 78.2 0 0 96.98 325.55
  Q 95.52 319.23 92.47 313.48
  A 0.75 0.74 61.2 0 0 91.45 313.18
  L 56.41 333.22
  Q 55.73 333.61 56.45 333.92
  Q 58.97 335.00 61.76 335.00
  Q 79.62 335.05 97.55 334.98
  Q 98.15 334.97 98.09 334.38
  L 97.41 327.79
  A 0.56 0.56 0.0 0 0 96.75 327.30
  Q 82.02 330.19 67.28 333.14
  Q 63.37 333.92 59.47 333.85
  Z
  M 371.68 334.03
  C 359.09 332.33 346.70 329.75 334.23 327.33
  A 0.58 0.58 0.0 0 0 333.54 327.85
  L 332.93 334.46
  A 0.50 0.49 3.2 0 0 333.42 335.00
  Q 351.36 335.01 369.27 334.99
  C 371.17 334.98 372.88 334.08 374.86 333.99
  A 0.28 0.28 0.0 0 0 374.99 333.47
  L 339.72 313.29
  A 0.94 0.93 -61.3 0 0 338.43 313.67
  Q 335.46 319.34 334.01 325.55
  A 0.70 0.70 0.0 0 0 334.55 326.40
  C 337.78 327.03 372.02 333.39 372.00 333.76
  Q 371.98 334.07 371.68 334.03
  Z
  M 174.26 313.99
  Q 169.26 323.59 169.01 334.49
  A 0.49 0.49 0.0 0 0 169.50 335.00
  L 181.47 335.00
  A 0.38 0.38 0.0 0 0 181.83 334.50
  L 174.70 314.02
  Q 174.52 313.50 174.26 313.99
  Z
  M 218.51 334.98
  L 247.45 335.01
  Q 247.91 335.01 248.06 334.57
  C 250.33 328.30 253.87 320.53 255.05 314.09
  Q 255.18 313.38 254.55 313.74
  Q 237.51 323.38 220.55 333.22
  C 219.63 333.76 218.98 333.60 218.25 334.05
  A 0.50 0.50 0.0 0 0 218.51 334.98
  Z
  M 210.91 333.46
  Q 193.83 323.66 176.71 313.84
  A 0.57 0.57 0.0 0 0 175.89 314.52
  L 182.89 334.52
  Q 183.04 334.96 183.50 334.96
  Q 197.69 335.09 211.88 334.97
  C 212.31 334.96 212.80 334.72 212.76 334.24
  Q 212.72 333.75 212.23 333.75
  C 211.63 333.75 211.44 333.76 210.91 333.46
  Z
  M 256.57 313.76
  A 0.11 0.10 -50.0 0 0 256.38 313.78
  L 249.18 334.51
  A 0.37 0.37 0.0 0 0 249.53 335.00
  L 261.31 335.00
  Q 262.00 335.00 261.98 334.31
  Q 261.76 323.38 256.57 313.76
  Z
  M 145.60 334.05
  A 0.24 0.23 30.4 0 1 145.48 333.60
  L 155.79 329.58
  Q 156.60 329.27 156.17 328.52
  L 149.89 317.62
  Q 149.69 317.27 149.29 317.35
  L 106.07 325.54
  A 0.27 0.27 0.0 0 0 105.97 326.02
  Q 122.91 338.02 143.54 333.98
  Q 144.05 333.88 144.50 334.15
  C 147.43 335.84 155.77 335.01 159.37 334.99
  A 0.42 0.42 0.0 0 0 159.72 334.35
  L 157.35 330.63
  A 1.15 1.15 0.0 0 0 155.75 330.29
  Q 151.09 333.32 145.60 334.05
  Z
  M 272.82 329.11
  Q 265.17 324.39 259.77 317.23
  A 0.25 0.25 0.0 0 0 259.34 317.48
  Q 262.88 325.56 262.97 334.43
  Q 262.98 335.00 263.55 335.00
  L 269.24 335.00
  Q 269.87 335.00 270.19 334.45
  L 272.97 329.69
  A 0.43 0.43 0.0 0 0 272.82 329.11
  Z
  M 308.75 334.00
  C 310.13 335.74 328.19 335.00 331.40 334.96
  Q 331.84 334.96 331.88 334.52
  L 332.60 327.68
  Q 332.67 327.02 332.01 326.90
  L 327.31 326.09
  Q 326.70 325.99 326.20 326.35
  C 321.01 330.13 315.25 333.46 308.75 334.00
  Q 309.30 333.41 309.77 333.29
  Q 317.74 331.19 324.59 326.33
  A 0.48 0.47 32.7 0 0 324.40 325.48
  L 281.88 317.37
  Q 281.34 317.27 281.07 317.73
  L 274.79 328.54
  A 0.50 0.49 -60.9 0 0 274.98 329.22
  C 286.67 335.59 295.90 335.21 308.75 334.00
  Z
  M 170.56 318.18
  C 166.99 322.45 163.65 325.64 158.26 328.94
  Q 157.69 329.29 158.04 329.86
  L 160.81 334.39
  Q 161.18 335.00 161.88 335.00
  L 167.44 335.00
  Q 167.99 335.00 168.00 334.45
  Q 168.15 326.18 171.15 318.52
  A 0.35 0.34 -14.7 0 0 170.56 318.18
  Z
  M 328.57 325.31
  L 332.38 325.96
  Q 332.79 326.03 332.90 325.64
  L 334.99 318.77
  A 0.30 0.29 76.2 0 0 334.50 318.47
  L 328.38 324.71
  A 0.36 0.35 27.5 0 0 328.57 325.31
  Z
  M 102.57 324.40
  Q 99.19 321.81 96.74 318.36
  Q 95.24 316.25 96.00 318.72
  L 98.05 325.42
  Q 98.24 326.04 98.87 325.93
  L 102.34 325.35
  A 0.53 0.53 0.0 0 0 102.57 324.40
  Z
  M 120.58 333.87
  C 114.46 332.72 109.55 329.81 104.59 326.20
  Q 104.13 325.86 103.56 325.98
  L 98.83 326.99
  Q 98.29 327.10 98.35 327.65
  L 99.13 334.53
  Q 99.18 334.94 99.60 334.95
  C 102.28 334.99 120.45 335.53 121.49 334.60
  Q 121.93 334.21 121.37 334.06
  Q 120.94 333.94 120.58 333.87
  Z
  M 285.55 334.10
  Q 279.90 333.27 275.00 330.30
  A 1.02 1.02 0.0 0 0 273.59 330.65
  L 271.37 334.34
  A 0.43 0.43 0.0 0 0 271.74 335.00
  L 284.72 335.00
  Q 285.13 335.00 285.41 334.71
  L 285.67 334.46
  A 0.21 0.21 0.0 0 0 285.55 334.10
  Z
  M 56.00 337.49
  L 91.27 357.71
  Q 92.10 358.19 92.56 357.34
  Q 97.71 347.65 97.96 336.68
  Q 97.97 336.01 97.30 336.01
  L 54.74 335.98
  A 0.47 0.47 0.0 0 0 54.34 336.71
  Q 54.66 337.21 55.22 337.25
  Q 55.63 337.28 56.00 337.49
  Z
  M 93.69 359.11
  L 174.09 405.18
  A 0.53 0.53 0.0 0 0 174.82 404.99
  Q 180.80 395.08 190.64 389.03
  Q 191.19 388.70 190.87 388.14
  L 160.91 336.63
  A 1.28 1.28 0.0 0 0 159.81 336.00
  L 99.69 336.00
  Q 99.02 336.00 99.01 336.67
  Q 98.72 347.98 93.35 357.92
  Q 92.94 358.68 93.69 359.11
  Z
  M 170.05 348.90
  Q 168.10 342.98 168.00 336.74
  A 0.75 0.75 0.0 0 0 167.25 336.00
  L 162.81 336.00
  A 0.62 0.62 0.0 0 0 162.27 336.93
  L 169.32 349.23
  A 0.40 0.40 0.0 0 0 170.05 348.90
  Z
  M 168.88 336.92
  C 170.05 354.58 179.88 370.61 196.20 377.79
  A 0.41 0.41 0.0 0 0 196.75 377.27
  L 182.53 336.53
  Q 182.35 336.00 181.79 336.00
  L 169.75 336.00
  Q 168.82 336.00 168.88 336.92
  Z
  M 198.62 378.76
  C 204.34 380.32 208.41 381.99 214.56 381.95
  A 0.45 0.44 -90.0 0 0 215.00 381.50
  L 215.00 336.63
  Q 215.00 336.00 214.37 336.00
  L 184.36 336.00
  A 0.69 0.69 0.0 0 0 183.71 336.91
  L 198.17 378.35
  Q 198.29 378.67 198.62 378.76
  Z
  M 246.73 336.00
  L 216.31 336.00
  A 0.31 0.31 0.0 0 0 216.00 336.31
  L 216.00 381.44
  Q 216.00 382.03 216.59 382.01
  Q 224.70 381.80 232.24 378.85
  Q 232.72 378.67 232.89 378.18
  L 247.32 336.83
  A 0.62 0.62 0.0 0 0 246.73 336.00
  Z
  M 248.46 336.61
  L 234.19 377.43
  A 0.43 0.43 0.0 0 0 234.79 377.96
  Q 259.96 365.21 262.15 336.72
  A 0.67 0.66 2.4 0 0 261.48 336.00
  L 249.33 336.00
  Q 248.68 336.00 248.46 336.61
  Z
  M 263.01 336.56
  C 262.99 340.73 262.27 344.90 260.93 348.87
  A 0.40 0.40 0.0 0 0 261.66 349.20
  L 268.82 336.76
  Q 269.25 336.01 268.39 336.01
  L 263.58 336.00
  Q 263.01 335.99 263.01 336.56
  Z
  M 241.18 389.51
  Q 250.44 395.55 256.19 405.00
  A 0.54 0.54 0.0 0 0 256.92 405.19
  L 337.39 359.07
  Q 338.06 358.69 337.69 358.00
  Q 332.25 347.93 331.94 336.46
  A 0.47 0.47 0.0 0 0 331.47 336.00
  L 270.87 336.00
  A 0.70 0.69 -75.0 0 0 270.27 336.35
  L 239.96 388.42
  A 0.51 0.51 0.0 0 0 240.19 389.14
  Q 240.39 389.22 240.61 389.27
  Q 240.91 389.34 241.18 389.51
  Z
  M 339.41 357.89
  L 376.61 336.61
  A 0.33 0.33 0.0 0 0 376.45 336.00
  L 333.74 336.00
  Q 332.97 336.00 332.99 336.78
  Q 333.37 347.89 338.61 357.66
  Q 338.89 358.19 339.41 357.89
  Z
  M 194.74 378.32
  Q 186.73 374.31 180.81 367.84
  A 0.30 0.30 0.0 0 0 180.33 368.19
  L 191.72 387.55
  Q 192.03 388.07 192.57 387.82
  L 198.61 384.99
  Q 199.05 384.79 199.01 384.30
  C 198.72 381.00 197.78 379.84 194.74 378.32
  Z
  M 250.14 367.72
  C 246.27 372.42 241.13 375.85 235.69 378.50
  C 232.97 379.83 232.31 381.64 231.91 384.39
  Q 231.85 384.76 232.19 384.91
  L 238.57 387.88
  A 0.50 0.50 0.0 0 0 239.21 387.68
  L 250.86 367.85
  Q 250.98 367.64 250.77 367.52
  C 250.50 367.36 250.32 367.50 250.14 367.72
  Z
  M 223.76 382.77
  L 230.30 384.15
  Q 230.86 384.27 231.02 383.73
  L 232.01 380.54
  Q 232.28 379.64 231.45 380.06
  Q 227.85 381.84 223.83 381.97
  A 0.41 0.40 50.1 0 0 223.76 382.77
  Z
  M 206.61 382.92
  A 0.35 0.35 0.0 0 0 206.62 382.24
  L 199.44 380.36
  A 0.35 0.35 0.0 0 0 199.02 380.81
  L 200.12 384.01
  A 0.35 0.35 0.0 0 0 200.52 384.23
  L 206.61 382.92
  Z
  M 200.93 386.20
  L 213.57 422.45
  Q 213.75 422.97 213.75 423.52
  L 213.75 424.74
  Q 213.75 425.28 214.28 425.43
  Q 215.00 425.63 215.00 425.00
  Q 215.01 404.18 215.00 383.77
  A 1.03 1.02 -4.8 0 0 213.80 382.76
  L 201.78 384.76
  Q 200.50 384.98 200.93 386.20
  Z
  M 229.55 385.14
  Q 223.17 383.22 216.54 382.96
  A 0.54 0.54 0.0 0 0 215.98 383.50
  L 216.03 425.22
  Q 216.03 425.38 216.19 425.42
  Q 216.37 425.46 216.52 425.50
  Q 216.93 425.63 216.95 425.21
  Q 217.03 423.69 217.53 422.26
  Q 223.80 404.25 230.07 386.17
  A 0.80 0.80 0.0 0 0 229.55 385.14
  Z
  M 211.38 421.53
  A 0.40 0.40 0.0 0 0 212.10 421.20
  L 199.80 386.01
  A 0.40 0.40 0.0 0 0 199.25 385.78
  L 192.90 388.75
  A 0.40 0.40 0.0 0 0 192.72 389.31
  L 211.38 421.53
  Z
  M 237.66 388.53
  L 232.11 385.98
  A 0.77 0.77 0.0 0 0 231.06 386.43
  L 218.48 422.38
  A 0.27 0.27 0.0 0 0 218.97 422.61
  L 238.04 389.73
  Q 238.51 388.92 237.66 388.53
  Z
  M 175.84 406.20
  L 213.00 427.49
  A 0.34 0.34 0.0 0 0 213.46 427.03
  L 191.99 390.04
  Q 191.70 389.55 191.22 389.85
  Q 181.52 395.76 175.66 405.53
  A 0.49 0.48 30.5 0 0 175.84 406.20
  Z
  M 255.13 405.19
  C 251.24 398.84 246.01 393.74 239.82 389.86
  A 0.57 0.56 -58.6 0 0 239.03 390.06
  L 217.22 427.48
  A 0.21 0.21 0.0 0 0 217.51 427.77
  L 254.83 406.38
  A 0.85 0.85 0.0 0 0 255.13 405.19
  Z
  M 184.19 463.81
  C 209.02 486.13 247.74 476.53 259.24 445.17
  Q 266.06 426.60 256.59 407.69
  A 0.95 0.95 0.0 0 0 255.26 407.29
  L 215.88 429.86
  Q 215.48 430.08 215.09 429.86
  L 175.71 407.27
  A 0.91 0.91 0.0 0 0 174.45 407.64
  C 164.56 426.33 168.46 449.68 184.19 463.81
  Z"
/>
</svg>
