<?xml version="1.0" encoding="UTF-8" standalone="no"?>
<!DOCTYPE svg PUBLIC "-//W3C//DTD SVG 1.1//EN" "http://www.w3.org/Graphics/SVG/1.1/DTD/svg11.dtd">
<svg xmlns="http://www.w3.org/2000/svg" version="1.1" viewBox="0.00 0.00 1140.00 1140.00">
<g stroke-width="2.00" fill="none" stroke-linecap="butt">
<path stroke="#878787" vector-effect="non-scaling-stroke" d="
  M 532.14 1024.32
  C 531.36 1029.14 524.81 1034.77 522.22 1038.83
  C 510.47 1057.29 511.71 1081.97 523.71 1099.53
  C 539.79 1123.08 571.09 1130.62 595.93 1117.47
  C 606.31 1111.97 613.83 1103.28 619.49 1093.00
  C 629.63 1074.59 626.88 1050.39 613.80 1034.02
  C 611.87 1031.61 607.46 1027.48 607.58 1024.31
  Q 607.60 1023.78 608.11 1023.63
  Q 621.37 1019.86 631.93 1018.88
  C 647.02 1017.47 659.02 1014.75 672.64 1011.71
  C 710.11 1003.34 746.25 990.37 780.19 972.44
  C 808.40 957.53 833.82 941.32 857.13 921.11
  C 859.30 919.24 866.68 914.11 867.14 918.83
  C 868.87 936.50 872.67 953.20 887.29 964.86
  C 899.29 974.42 913.89 977.48 929.57 976.33
  C 934.13 976.00 939.19 976.33 943.34 974.27
  C 957.29 967.31 968.40 957.07 975.12 943.00
  Q 977.12 938.83 977.67 934.07
  C 980.83 906.70 971.84 881.38 944.69 870.58
  Q 934.68 866.60 924.02 866.76
  C 919.69 866.83 917.12 862.56 920.21 858.97
  C 937.37 839.08 951.78 817.45 965.01 794.57
  Q 1006.34 723.07 1019.31 641.24
  C 1020.47 633.91 1022.02 620.49 1024.04 610.21
  Q 1024.49 607.93 1025.46 606.55
  Q 1026.07 605.68 1026.96 606.27
  Q 1033.36 610.48 1038.47 614.34
  C 1048.06 621.60 1059.90 624.84 1071.07 624.10
  C 1100.25 622.15 1121.42 603.14 1125.23 573.85
  C 1129.19 543.38 1102.93 513.72 1072.41 512.70
  C 1053.42 512.06 1041.79 519.05 1027.66 530.48
  A 1.80 1.80 0.0 0 1 1024.91 529.89
  C 1024.47 529.00 1023.94 527.86 1023.78 526.86
  C 1020.87 509.39 1019.26 491.31 1015.41 474.23
  C 1012.33 460.60 1009.19 446.38 1005.05 433.45
  C 990.35 387.51 968.75 343.90 940.62 304.67
  Q 930.62 290.72 920.60 276.78
  C 919.91 275.82 919.24 274.06 919.12 273.05
  A 2.13 2.12 -6.3 0 1 921.01 270.70
  C 926.89 270.05 933.36 269.94 938.60 268.47
  Q 948.02 265.83 956.30 259.80
  C 975.37 245.87 979.99 227.22 977.68 204.35
  C 976.08 188.46 963.44 174.96 950.72 166.55
  C 939.63 159.23 926.53 159.32 913.47 160.97
  C 886.35 164.40 868.76 186.59 867.81 213.12
  C 867.56 220.05 864.87 220.83 859.84 216.88
  C 835.33 197.64 810.24 179.11 783.75 166.00
  Q 754.70 151.64 739.77 145.69
  Q 705.84 132.19 662.00 122.24
  Q 645.54 118.51 610.38 114.01
  C 605.70 113.42 608.85 108.85 610.44 106.93
  C 621.32 93.77 627.67 77.62 625.24 60.52
  C 622.63 42.17 608.23 25.06 591.60 17.76
  C 569.82 8.20 544.74 14.06 528.39 31.18
  C 522.52 37.33 518.90 46.05 516.32 54.08
  C 512.36 66.42 512.89 83.18 520.36 94.36
  C 524.00 99.81 529.35 105.83 532.09 111.62
  Q 532.31 112.08 531.94 112.42
  Q 530.49 113.82 529.01 114.07
  C 517.30 116.07 502.10 117.70 489.01 120.30
  C 478.53 122.38 467.67 124.37 457.76 126.96
  Q 398.02 142.59 344.03 172.39
  C 320.58 185.34 298.19 201.78 277.47 218.72
  C 273.90 221.65 271.19 217.69 271.48 214.24
  C 272.43 203.31 267.11 190.41 261.18 181.56
  C 256.77 174.98 246.75 166.56 239.13 164.12
  Q 221.37 158.43 202.86 161.16
  C 188.76 163.23 175.20 175.95 167.84 187.64
  C 158.31 202.78 159.13 227.64 168.09 242.81
  C 173.11 251.30 180.78 259.94 189.80 263.97
  C 194.49 266.07 203.61 269.10 209.53 269.79
  Q 212.50 270.14 216.48 269.77
  Q 219.08 269.53 220.54 272.43
  Q 220.75 272.84 220.59 273.28
  Q 219.56 276.06 219.04 276.76
  C 208.31 291.06 197.06 305.58 187.50 320.39
  C 157.60 366.76 137.19 415.68 124.98 469.30
  C 122.13 481.82 119.90 495.69 117.66 508.94
  C 116.40 516.36 116.86 523.83 113.61 530.85
  Q 113.39 531.31 112.91 531.16
  Q 110.36 530.37 108.76 528.78
  C 99.86 519.91 89.85 514.65 77.16 513.35
  C 47.34 510.30 22.60 527.69 15.39 556.72
  C 11.67 571.65 16.58 588.46 24.83 601.12
  C 29.37 608.10 34.36 611.47 41.77 616.21
  C 50.38 621.71 57.84 624.28 67.79 624.10
  C 75.14 623.96 82.72 623.50 89.46 620.85
  C 96.41 618.12 104.61 611.42 111.88 606.74
  A 2.29 2.09 54.4 0 1 114.78 607.36
  Q 115.32 608.06 115.64 609.77
  Q 117.63 620.59 118.95 631.51
  C 122.06 657.23 128.20 681.54 135.60 706.28
  C 140.76 723.55 146.76 736.97 152.93 752.22
  C 165.57 783.49 184.03 813.06 204.48 839.81
  Q 212.58 850.40 220.71 861.09
  Q 221.03 861.52 220.91 862.04
  C 220.13 865.42 217.68 866.56 214.18 866.67
  C 194.92 867.29 178.77 875.96 169.18 892.08
  C 161.76 904.54 160.35 920.63 162.27 935.00
  C 163.35 943.03 166.40 948.00 171.36 954.56
  C 182.67 969.52 199.03 977.49 217.57 977.16
  C 242.70 976.71 262.16 961.73 269.73 937.43
  Q 271.36 932.18 272.70 920.00
  Q 272.85 918.63 274.66 917.36
  Q 275.09 917.06 275.56 917.28
  C 283.44 921.03 292.89 929.76 297.52 933.22
  Q 353.87 975.35 420.03 998.79
  C 439.19 1005.58 462.76 1011.40 479.57 1014.90
  Q 492.38 1017.57 518.00 1020.51
  Q 523.05 1021.09 531.70 1023.63
  Q 532.23 1023.78 532.14 1024.32"
/>
<path stroke="#878787" vector-effect="non-scaling-stroke" d="
  M 514.13 404.93
  Q 515.22 394.18 519.85 384.41
  C 521.74 380.42 525.05 375.84 527.50 371.48
  C 529.28 368.29 523.29 359.63 521.00 356.31
  C 515.75 348.69 515.50 339.72 514.99 328.75
  C 514.33 314.60 519.99 305.36 527.05 293.35
  C 528.57 290.77 528.68 288.44 526.83 286.18
  Q 515.62 272.50 514.60 255.46
  C 514.17 248.20 516.09 238.38 516.25 229.91
  Q 516.28 228.40 514.78 228.61
  C 481.46 233.37 451.43 244.48 420.13 259.17
  C 408.81 264.47 396.86 271.45 385.34 277.83
  C 380.90 280.29 370.65 286.81 368.93 291.55
  Q 368.74 292.08 369.12 292.49
  Q 371.32 294.90 372.89 295.87
  Q 397.39 310.99 400.72 339.58
  C 401.25 344.10 409.56 345.16 414.49 346.27
  C 436.94 351.29 451.77 369.72 456.15 391.65
  C 456.87 395.24 457.82 398.94 461.82 399.91
  C 478.79 404.01 492.02 409.20 502.09 424.08
  C 504.11 427.06 510.45 441.97 515.90 437.65
  Q 519.95 434.44 518.39 429.21
  C 516.14 421.68 513.34 412.75 514.13 404.93"
/>
<path stroke="#878787" vector-effect="non-scaling-stroke" d="
  M 665.50 402.75
  C 670.73 400.86 679.91 402.88 682.54 395.31
  C 685.09 387.98 686.59 379.44 689.85 373.17
  C 700.29 353.10 715.71 348.51 736.34 343.76
  A 1.76 1.76 0.0 0 0 737.65 342.45
  C 740.36 330.79 743.04 318.63 750.99 309.12
  C 756.19 302.90 763.86 297.98 770.76 293.49
  A 1.71 1.71 0.0 0 0 771.42 291.42
  Q 770.17 288.27 766.62 285.87
  C 743.11 269.96 717.35 257.13 691.02 246.64
  C 679.98 242.24 667.80 238.74 656.04 235.16
  C 645.69 232.01 634.75 229.45 624.27 229.22
  Q 623.72 229.20 623.41 229.65
  Q 622.38 231.10 622.81 232.99
  Q 625.95 246.87 624.24 260.81
  C 623.03 270.68 618.09 279.43 612.21 287.25
  C 611.09 288.74 610.96 291.22 612.03 293.03
  Q 616.90 301.27 621.25 309.82
  C 625.62 318.41 625.34 330.67 624.12 339.97
  C 622.95 348.98 617.54 357.80 613.24 365.31
  C 611.31 368.69 611.17 372.04 613.50 374.98
  C 626.37 391.26 627.28 408.83 621.02 428.49
  Q 619.15 434.37 624.07 438.29
  C 625.46 439.39 627.31 439.77 628.46 438.20
  C 632.54 432.68 635.99 425.30 639.93 420.55
  Q 650.11 408.30 665.50 402.75"
/>
<path stroke="#878787" vector-effect="non-scaling-stroke" d="
  M 839.96 374.94
  C 835.27 383.16 821.70 393.97 812.51 396.24
  C 808.84 397.14 795.50 399.22 794.42 402.93
  Q 790.58 416.11 786.51 426.05
  C 781.22 439.01 768.69 448.65 755.25 451.90
  C 752.15 452.65 739.65 455.01 738.81 458.05
  C 736.02 468.14 734.75 477.95 728.27 486.58
  Q 718.66 499.40 702.54 507.54
  C 697.21 510.23 701.20 517.09 706.26 517.56
  C 710.86 517.99 717.50 513.81 722.60 513.28
  C 739.21 511.56 753.73 516.99 767.07 526.53
  A 2.64 2.62 49.9 0 0 769.74 526.77
  Q 775.49 524.07 781.35 520.36
  C 795.60 511.36 813.97 511.06 829.00 517.11
  C 833.65 518.98 838.36 522.40 842.97 525.14
  C 845.82 526.83 848.54 527.78 851.20 525.73
  C 863.41 516.30 877.35 511.71 892.57 513.96
  C 895.28 514.36 906.74 515.70 908.41 513.53
  Q 909.23 512.47 909.01 511.00
  C 901.83 463.11 880.05 413.76 853.83 373.69
  Q 851.23 369.72 846.19 367.09
  Q 845.69 366.83 845.33 367.26
  Q 842.25 370.93 839.96 374.94"
/>
<path stroke="#878787" vector-effect="non-scaling-stroke" d="
  M 402.07 513.66
  C 411.56 511.95 420.62 513.56 429.62 516.65
  C 434.42 518.29 438.37 517.44 439.41 512.02
  Q 439.81 509.94 438.69 509.04
  C 433.91 505.18 426.71 502.33 422.09 498.54
  Q 413.10 491.18 407.81 480.82
  Q 406.15 477.59 404.41 471.00
  Q 402.61 464.20 399.99 457.60
  Q 399.81 457.14 399.36 456.93
  Q 393.76 454.28 391.72 453.97
  C 369.70 450.54 353.41 435.00 348.25 413.46
  Q 346.66 406.84 343.90 400.96
  A 1.55 1.54 -7.5 0 0 342.77 400.10
  C 329.74 397.83 317.28 393.56 307.50 384.52
  C 302.84 380.21 298.78 373.35 294.23 367.87
  A 1.71 1.71 0.0 0 0 291.84 367.63
  C 288.78 370.11 286.21 373.23 283.85 376.88
  Q 259.51 414.54 244.68 456.94
  C 240.11 470.02 235.24 483.37 232.86 496.96
  Q 231.36 505.59 230.16 514.49
  A 0.65 0.65 0.0 0 0 230.85 515.22
  Q 239.89 514.57 248.98 513.47
  C 262.97 511.77 276.72 516.75 287.52 525.05
  C 291.87 528.39 296.60 525.37 300.79 522.55
  Q 320.23 509.49 343.51 514.16
  C 352.50 515.96 359.23 520.38 366.78 525.74
  C 370.54 528.41 374.38 525.37 377.55 523.31
  Q 388.71 516.06 402.07 513.66"
/>
<path stroke="#878787" vector-effect="non-scaling-stroke" d="
  M 520.06 516.31
  C 504.08 531.26 495.59 550.74 497.13 572.34
  C 499.67 608.15 529.77 639.52 566.24 640.63
  Q 580.14 641.06 584.75 639.81
  C 624.18 629.12 651.50 590.34 639.96 549.62
  C 636.12 536.07 625.49 520.57 614.47 511.80
  C 600.79 500.91 585.40 494.45 567.67 495.50
  C 550.86 496.49 532.16 505.00 520.06 516.31"
/>
<path stroke="#878787" vector-effect="non-scaling-stroke" d="
  M 346.02 731.24
  C 351.32 710.02 359.78 690.96 383.65 684.72
  C 388.37 683.49 393.00 681.90 397.75 680.84
  C 400.57 680.21 401.99 675.03 402.68 672.29
  C 406.20 658.25 411.07 646.04 423.55 637.61
  Q 429.92 633.31 436.23 628.96
  C 438.70 627.25 441.05 622.73 437.95 621.02
  C 432.17 617.84 423.79 622.75 417.56 623.41
  C 400.25 625.25 386.40 620.18 372.48 610.20
  Q 372.08 609.92 371.58 609.94
  Q 366.41 610.24 363.28 612.79
  C 356.75 618.12 352.07 621.15 343.45 622.40
  C 334.89 623.64 324.99 624.42 316.83 622.25
  C 307.87 619.87 299.00 613.16 292.28 609.30
  Q 291.81 609.02 291.36 609.34
  C 281.52 616.28 269.39 623.03 256.60 623.76
  C 249.56 624.16 239.64 622.16 231.24 621.60
  Q 230.62 621.56 230.57 622.17
  Q 230.37 624.54 230.88 627.57
  C 232.16 635.19 233.20 643.10 235.19 650.37
  Q 246.92 693.25 267.48 732.61
  C 272.94 743.06 279.49 752.57 286.46 763.05
  Q 289.17 767.10 292.54 770.08
  Q 292.94 770.43 293.35 770.08
  Q 296.07 767.76 296.55 766.76
  Q 300.90 757.68 308.33 751.23
  C 315.29 745.18 327.79 738.73 337.07 738.10
  C 342.32 737.75 344.75 736.34 346.02 731.24"
/>
<path stroke="#878787" vector-effect="non-scaling-stroke" d="
  M 758.67 685.47
  C 764.11 687.09 771.81 692.44 775.76 696.13
  C 785.33 705.08 791.82 717.65 793.54 731.00
  C 794.02 734.78 795.21 736.51 799.15 737.35
  Q 809.72 739.60 812.50 740.51
  C 829.52 746.09 836.33 757.43 846.34 770.26
  A 0.71 0.70 -41.8 0 0 847.40 770.31
  Q 852.67 764.91 856.62 758.65
  C 880.97 720.10 901.05 674.57 908.66 629.43
  Q 909.22 626.14 908.05 622.76
  Q 907.87 622.27 907.36 622.15
  Q 906.08 621.87 904.50 621.99
  C 892.17 622.88 879.71 625.72 869.25 621.11
  Q 858.95 616.57 849.87 609.74
  A 1.66 1.63 -35.4 0 0 848.37 609.50
  Q 844.98 610.62 841.73 612.16
  C 832.89 616.32 829.14 621.80 818.31 622.70
  Q 807.92 623.56 797.50 623.15
  C 790.08 622.85 778.22 614.89 772.84 611.15
  Q 770.77 609.72 768.67 609.44
  Q 768.14 609.36 767.73 609.68
  C 758.49 616.76 747.74 622.04 736.25 623.37
  C 726.61 624.48 717.25 622.16 707.44 619.54
  C 703.40 618.46 699.70 621.50 700.57 625.65
  C 701.13 628.30 703.14 629.30 705.33 630.68
  C 712.04 634.89 719.78 638.37 724.59 644.92
  C 729.92 652.15 734.27 659.53 736.41 668.52
  C 737.04 671.19 738.11 680.37 741.24 681.04
  Q 750.05 682.90 758.67 685.47"
/>
<path stroke="#878787" vector-effect="non-scaling-stroke" d="
  M 516.35 822.46
  C 514.04 813.25 513.80 795.27 517.14 788.91
  Q 522.55 778.62 528.28 768.35
  Q 528.77 767.46 528.18 766.63
  C 517.32 751.36 510.53 732.08 516.73 713.70
  Q 518.67 707.98 518.99 706.25
  C 519.95 701.15 513.29 695.42 509.63 700.66
  C 506.03 705.80 502.82 712.27 499.40 716.52
  Q 485.85 733.37 463.77 736.19
  C 460.86 736.57 457.59 737.68 456.97 740.49
  C 450.20 771.52 437.64 785.49 406.34 792.63
  C 403.10 793.37 402.09 794.44 401.31 797.52
  C 399.49 804.67 398.26 812.74 394.91 818.82
  C 389.49 828.67 380.75 835.45 371.30 842.05
  Q 370.29 842.75 368.52 845.02
  Q 368.21 845.41 368.51 845.81
  Q 371.23 849.47 372.77 850.51
  C 411.40 876.46 455.60 896.22 501.23 905.81
  Q 508.19 907.27 514.56 906.79
  Q 516.17 906.66 516.10 905.05
  C 515.82 897.73 514.25 889.42 514.47 883.29
  C 514.93 870.12 520.15 860.56 527.15 849.67
  Q 528.93 846.89 527.94 844.81
  C 525.37 839.41 518.31 830.24 516.35 822.46"
/>
<path stroke="#878787" vector-effect="non-scaling-stroke" d="
  M 718.39 788.67
  C 703.27 782.33 691.63 770.52 686.56 755.69
  C 684.72 750.33 684.08 736.49 674.08 735.62
  C 652.60 733.76 639.31 718.20 630.33 700.12
  Q 630.08 699.63 629.54 699.53
  Q 626.25 698.90 623.01 699.87
  Q 622.54 700.02 622.27 700.44
  Q 619.92 704.21 621.12 708.35
  Q 624.07 718.54 624.71 723.29
  C 626.73 738.20 621.39 752.11 613.07 763.80
  C 611.98 765.32 610.67 766.77 611.54 768.70
  C 614.09 774.34 619.08 780.10 621.30 786.25
  C 624.54 795.19 625.00 805.62 624.30 815.41
  C 623.64 824.74 619.16 832.53 613.72 840.01
  C 611.61 842.90 610.59 846.34 612.47 849.80
  C 617.63 859.28 624.81 867.88 624.75 879.00
  Q 624.67 892.14 623.52 903.00
  Q 623.31 904.98 623.99 906.83
  Q 624.18 907.36 624.74 907.42
  Q 627.04 907.69 629.31 907.33
  C 666.48 901.40 703.34 886.66 736.57 869.32
  C 745.50 864.67 767.87 852.90 770.63 845.47
  Q 770.81 844.98 770.53 844.55
  Q 769.90 843.59 768.76 842.73
  C 764.04 839.22 758.64 835.52 754.82 831.63
  Q 742.81 819.37 739.33 802.34
  C 738.16 796.59 738.20 793.31 732.44 792.12
  C 727.58 791.12 722.85 790.54 718.39 788.67"
/>
</g>
<path fill="#ffffff" d="
  M 0.00 0.00
  L 1140.00 0.00
  L 1140.00 1140.00
  L 0.00 1140.00
  L 0.00 0.00
  Z
  M 532.14 1024.32
  C 531.36 1029.14 524.81 1034.77 522.22 1038.83
  C 510.47 1057.29 511.71 1081.97 523.71 1099.53
  C 539.79 1123.08 571.09 1130.62 595.93 1117.47
  C 606.31 1111.97 613.83 1103.28 619.49 1093.00
  C 629.63 1074.59 626.88 1050.39 613.80 1034.02
  C 611.87 1031.61 607.46 1027.48 607.58 1024.31
  Q 607.60 1023.78 608.11 1023.63
  Q 621.37 1019.86 631.93 1018.88
  C 647.02 1017.47 659.02 1014.75 672.64 1011.71
  C 710.11 1003.34 746.25 990.37 780.19 972.44
  C 808.40 957.53 833.82 941.32 857.13 921.11
  C 859.30 919.24 866.68 914.11 867.14 918.83
  C 868.87 936.50 872.67 953.20 887.29 964.86
  C 899.29 974.42 913.89 977.48 929.57 976.33
  C 934.13 976.00 939.19 976.33 943.34 974.27
  C 957.29 967.31 968.40 957.07 975.12 943.00
  Q 977.12 938.83 977.67 934.07
  C 980.83 906.70 971.84 881.38 944.69 870.58
  Q 934.68 866.60 924.02 866.76
  C 919.69 866.83 917.12 862.56 920.21 858.97
  C 937.37 839.08 951.78 817.45 965.01 794.57
  Q 1006.34 723.07 1019.31 641.24
  C 1020.47 633.91 1022.02 620.49 1024.04 610.21
  Q 1024.49 607.93 1025.46 606.55
  Q 1026.07 605.68 1026.96 606.27
  Q 1033.36 610.48 1038.47 614.34
  C 1048.06 621.60 1059.90 624.84 1071.07 624.10
  C 1100.25 622.15 1121.42 603.14 1125.23 573.85
  C 1129.19 543.38 1102.93 513.72 1072.41 512.70
  C 1053.42 512.06 1041.79 519.05 1027.66 530.48
  A 1.80 1.80 0.0 0 1 1024.91 529.89
  C 1024.47 529.00 1023.94 527.86 1023.78 526.86
  C 1020.87 509.39 1019.26 491.31 1015.41 474.23
  C 1012.33 460.60 1009.19 446.38 1005.05 433.45
  C 990.35 387.51 968.75 343.90 940.62 304.67
  Q 930.62 290.72 920.60 276.78
  C 919.91 275.82 919.24 274.06 919.12 273.05
  A 2.13 2.12 -6.3 0 1 921.01 270.70
  C 926.89 270.05 933.36 269.94 938.60 268.47
  Q 948.02 265.83 956.30 259.80
  C 975.37 245.87 979.99 227.22 977.68 204.35
  C 976.08 188.46 963.44 174.96 950.72 166.55
  C 939.63 159.23 926.53 159.32 913.47 160.97
  C 886.35 164.40 868.76 186.59 867.81 213.12
  C 867.56 220.05 864.87 220.83 859.84 216.88
  C 835.33 197.64 810.24 179.11 783.75 166.00
  Q 754.70 151.64 739.77 145.69
  Q 705.84 132.19 662.00 122.24
  Q 645.54 118.51 610.38 114.01
  C 605.70 113.42 608.85 108.85 610.44 106.93
  C 621.32 93.77 627.67 77.62 625.24 60.52
  C 622.63 42.17 608.23 25.06 591.60 17.76
  C 569.82 8.20 544.74 14.06 528.39 31.18
  C 522.52 37.33 518.90 46.05 516.32 54.08
  C 512.36 66.42 512.89 83.18 520.36 94.36
  C 524.00 99.81 529.35 105.83 532.09 111.62
  Q 532.31 112.08 531.94 112.42
  Q 530.49 113.82 529.01 114.07
  C 517.30 116.07 502.10 117.70 489.01 120.30
  C 478.53 122.38 467.67 124.37 457.76 126.96
  Q 398.02 142.59 344.03 172.39
  C 320.58 185.34 298.19 201.78 277.47 218.72
  C 273.90 221.65 271.19 217.69 271.48 214.24
  C 272.43 203.31 267.11 190.41 261.18 181.56
  C 256.77 174.98 246.75 166.56 239.13 164.12
  Q 221.37 158.43 202.86 161.16
  C 188.76 163.23 175.20 175.95 167.84 187.64
  C 158.31 202.78 159.13 227.64 168.09 242.81
  C 173.11 251.30 180.78 259.94 189.80 263.97
  C 194.49 266.07 203.61 269.10 209.53 269.79
  Q 212.50 270.14 216.48 269.77
  Q 219.08 269.53 220.54 272.43
  Q 220.75 272.84 220.59 273.28
  Q 219.56 276.06 219.04 276.76
  C 208.31 291.06 197.06 305.58 187.50 320.39
  C 157.60 366.76 137.19 415.68 124.98 469.30
  C 122.13 481.82 119.90 495.69 117.66 508.94
  C 116.40 516.36 116.86 523.83 113.61 530.85
  Q 113.39 531.31 112.91 531.16
  Q 110.36 530.37 108.76 528.78
  C 99.86 519.91 89.85 514.65 77.16 513.35
  C 47.34 510.30 22.60 527.69 15.39 556.72
  C 11.67 571.65 16.58 588.46 24.83 601.12
  C 29.37 608.10 34.36 611.47 41.77 616.21
  C 50.38 621.71 57.84 624.28 67.79 624.10
  C 75.14 623.96 82.72 623.50 89.46 620.85
  C 96.41 618.12 104.61 611.42 111.88 606.74
  A 2.29 2.09 54.4 0 1 114.78 607.36
  Q 115.32 608.06 115.64 609.77
  Q 117.63 620.59 118.95 631.51
  C 122.06 657.23 128.20 681.54 135.60 706.28
  C 140.76 723.55 146.76 736.97 152.93 752.22
  C 165.57 783.49 184.03 813.06 204.48 839.81
  Q 212.58 850.40 220.71 861.09
  Q 221.03 861.52 220.91 862.04
  C 220.13 865.42 217.68 866.56 214.18 866.67
  C 194.92 867.29 178.77 875.96 169.18 892.08
  C 161.76 904.54 160.35 920.63 162.27 935.00
  C 163.35 943.03 166.40 948.00 171.36 954.56
  C 182.67 969.52 199.03 977.49 217.57 977.16
  C 242.70 976.71 262.16 961.73 269.73 937.43
  Q 271.36 932.18 272.70 920.00
  Q 272.85 918.63 274.66 917.36
  Q 275.09 917.06 275.56 917.28
  C 283.44 921.03 292.89 929.76 297.52 933.22
  Q 353.87 975.35 420.03 998.79
  C 439.19 1005.58 462.76 1011.40 479.57 1014.90
  Q 492.38 1017.57 518.00 1020.51
  Q 523.05 1021.09 531.70 1023.63
  Q 532.23 1023.78 532.14 1024.32
  Z"
/>
<path fill="#0e0e0e" d="
  M 531.70 1023.63
  Q 523.05 1021.09 518.00 1020.51
  Q 492.38 1017.57 479.57 1014.90
  C 462.76 1011.40 439.19 1005.58 420.03 998.79
  Q 353.87 975.35 297.52 933.22
  C 292.89 929.76 283.44 921.03 275.56 917.28
  Q 275.09 917.06 274.66 917.36
  Q 272.85 918.63 272.70 920.00
  Q 271.36 932.18 269.73 937.43
  C 262.16 961.73 242.70 976.71 217.57 977.16
  C 199.03 977.49 182.67 969.52 171.36 954.56
  C 166.40 948.00 163.35 943.03 162.27 935.00
  C 160.35 920.63 161.76 904.54 169.18 892.08
  C 178.77 875.96 194.92 867.29 214.18 866.67
  C 217.68 866.56 220.13 865.42 220.91 862.04
  Q 221.03 861.52 220.71 861.09
  Q 212.58 850.40 204.48 839.81
  C 184.03 813.06 165.57 783.49 152.93 752.22
  C 146.76 736.97 140.76 723.55 135.60 706.28
  C 128.20 681.54 122.06 657.23 118.95 631.51
  Q 117.63 620.59 115.64 609.77
  Q 115.32 608.06 114.78 607.36
  A 2.29 2.09 54.4 0 0 111.88 606.74
  C 104.61 611.42 96.41 618.12 89.46 620.85
  C 82.72 623.50 75.14 623.96 67.79 624.10
  C 57.84 624.28 50.38 621.71 41.77 616.21
  C 34.36 611.47 29.37 608.10 24.83 601.12
  C 16.58 588.46 11.67 571.65 15.39 556.72
  C 22.60 527.69 47.34 510.30 77.16 513.35
  C 89.85 514.65 99.86 519.91 108.76 528.78
  Q 110.36 530.37 112.91 531.16
  Q 113.39 531.31 113.61 530.85
  C 116.86 523.83 116.40 516.36 117.66 508.94
  C 119.90 495.69 122.13 481.82 124.98 469.30
  C 137.19 415.68 157.60 366.76 187.50 320.39
  C 197.06 305.58 208.31 291.06 219.04 276.76
  Q 219.56 276.06 220.59 273.28
  Q 220.75 272.84 220.54 272.43
  Q 219.08 269.53 216.48 269.77
  Q 212.50 270.14 209.53 269.79
  C 203.61 269.10 194.49 266.07 189.80 263.97
  C 180.78 259.94 173.11 251.30 168.09 242.81
  C 159.13 227.64 158.31 202.78 167.84 187.64
  C 175.20 175.95 188.76 163.23 202.86 161.16
  Q 221.37 158.43 239.13 164.12
  C 246.75 166.56 256.77 174.98 261.18 181.56
  C 267.11 190.41 272.43 203.31 271.48 214.24
  C 271.19 217.69 273.90 221.65 277.47 218.72
  C 298.19 201.78 320.58 185.34 344.03 172.39
  Q 398.02 142.59 457.76 126.96
  C 467.67 124.37 478.53 122.38 489.01 120.30
  C 502.10 117.70 517.30 116.07 529.01 114.07
  Q 530.49 113.82 531.94 112.42
  Q 532.31 112.08 532.09 111.62
  C 529.35 105.83 524.00 99.81 520.36 94.36
  C 512.89 83.18 512.36 66.42 516.32 54.08
  C 518.90 46.05 522.52 37.33 528.39 31.18
  C 544.74 14.06 569.82 8.20 591.60 17.76
  C 608.23 25.06 622.63 42.17 625.24 60.52
  C 627.67 77.62 621.32 93.77 610.44 106.93
  C 608.85 108.85 605.70 113.42 610.38 114.01
  Q 645.54 118.51 662.00 122.24
  Q 705.84 132.19 739.77 145.69
  Q 754.70 151.64 783.75 166.00
  C 810.24 179.11 835.33 197.64 859.84 216.88
  C 864.87 220.83 867.56 220.05 867.81 213.12
  C 868.76 186.59 886.35 164.40 913.47 160.97
  C 926.53 159.32 939.63 159.23 950.72 166.55
  C 963.44 174.96 976.08 188.46 977.68 204.35
  C 979.99 227.22 975.37 245.87 956.30 259.80
  Q 948.02 265.83 938.60 268.47
  C 933.36 269.94 926.89 270.05 921.01 270.70
  A 2.13 2.12 -6.3 0 0 919.12 273.05
  C 919.24 274.06 919.91 275.82 920.60 276.78
  Q 930.62 290.72 940.62 304.67
  C 968.75 343.90 990.35 387.51 1005.05 433.45
  C 1009.19 446.38 1012.33 460.60 1015.41 474.23
  C 1019.26 491.31 1020.87 509.39 1023.78 526.86
  C 1023.94 527.86 1024.47 529.00 1024.91 529.89
  A 1.80 1.80 0.0 0 0 1027.66 530.48
  C 1041.79 519.05 1053.42 512.06 1072.41 512.70
  C 1102.93 513.72 1129.19 543.38 1125.23 573.85
  C 1121.42 603.14 1100.25 622.15 1071.07 624.10
  C 1059.90 624.84 1048.06 621.60 1038.47 614.34
  Q 1033.36 610.48 1026.96 606.27
  Q 1026.07 605.68 1025.46 606.55
  Q 1024.49 607.93 1024.04 610.21
  C 1022.02 620.49 1020.47 633.91 1019.31 641.24
  Q 1006.34 723.07 965.01 794.57
  C 951.78 817.45 937.37 839.08 920.21 858.97
  C 917.12 862.56 919.69 866.83 924.02 866.76
  Q 934.68 866.60 944.69 870.58
  C 971.84 881.38 980.83 906.70 977.67 934.07
  Q 977.12 938.83 975.12 943.00
  C 968.40 957.07 957.29 967.31 943.34 974.27
  C 939.19 976.33 934.13 976.00 929.57 976.33
  C 913.89 977.48 899.29 974.42 887.29 964.86
  C 872.67 953.20 868.87 936.50 867.14 918.83
  C 866.68 914.11 859.30 919.24 857.13 921.11
  C 833.82 941.32 808.40 957.53 780.19 972.44
  C 746.25 990.37 710.11 1003.34 672.64 1011.71
  C 659.02 1014.75 647.02 1017.47 631.93 1018.88
  Q 621.37 1019.86 608.11 1023.63
  Q 607.60 1023.78 607.58 1024.31
  C 607.46 1027.48 611.87 1031.61 613.80 1034.02
  C 626.88 1050.39 629.63 1074.59 619.49 1093.00
  C 613.83 1103.28 606.31 1111.97 595.93 1117.47
  C 571.09 1130.62 539.79 1123.08 523.71 1099.53
  C 511.71 1081.97 510.47 1057.29 522.22 1038.83
  C 524.81 1034.77 531.36 1029.14 532.14 1024.32
  Q 532.23 1023.78 531.70 1023.63
  Z
  M 514.13 404.93
  Q 515.22 394.18 519.85 384.41
  C 521.74 380.42 525.05 375.84 527.50 371.48
  C 529.28 368.29 523.29 359.63 521.00 356.31
  C 515.75 348.69 515.50 339.72 514.99 328.75
  C 514.33 314.60 519.99 305.36 527.05 293.35
  C 528.57 290.77 528.68 288.44 526.83 286.18
  Q 515.62 272.50 514.60 255.46
  C 514.17 248.20 516.09 238.38 516.25 229.91
  Q 516.28 228.40 514.78 228.61
  C 481.46 233.37 451.43 244.48 420.13 259.17
  C 408.81 264.47 396.86 271.45 385.34 277.83
  C 380.90 280.29 370.65 286.81 368.93 291.55
  Q 368.74 292.08 369.12 292.49
  Q 371.32 294.90 372.89 295.87
  Q 397.39 310.99 400.72 339.58
  C 401.25 344.10 409.56 345.16 414.49 346.27
  C 436.94 351.29 451.77 369.72 456.15 391.65
  C 456.87 395.24 457.82 398.94 461.82 399.91
  C 478.79 404.01 492.02 409.20 502.09 424.08
  C 504.11 427.06 510.45 441.97 515.90 437.65
  Q 519.95 434.44 518.39 429.21
  C 516.14 421.68 513.34 412.75 514.13 404.93
  Z
  M 665.50 402.75
  C 670.73 400.86 679.91 402.88 682.54 395.31
  C 685.09 387.98 686.59 379.44 689.85 373.17
  C 700.29 353.10 715.71 348.51 736.34 343.76
  A 1.76 1.76 0.0 0 0 737.65 342.45
  C 740.36 330.79 743.04 318.63 750.99 309.12
  C 756.19 302.90 763.86 297.98 770.76 293.49
  A 1.71 1.71 0.0 0 0 771.42 291.42
  Q 770.17 288.27 766.62 285.87
  C 743.11 269.96 717.35 257.13 691.02 246.64
  C 679.98 242.24 667.80 238.74 656.04 235.16
  C 645.69 232.01 634.75 229.45 624.27 229.22
  Q 623.72 229.20 623.41 229.65
  Q 622.38 231.10 622.81 232.99
  Q 625.95 246.87 624.24 260.81
  C 623.03 270.68 618.09 279.43 612.21 287.25
  C 611.09 288.74 610.96 291.22 612.03 293.03
  Q 616.90 301.27 621.25 309.82
  C 625.62 318.41 625.34 330.67 624.12 339.97
  C 622.95 348.98 617.54 357.80 613.24 365.31
  C 611.31 368.69 611.17 372.04 613.50 374.98
  C 626.37 391.26 627.28 408.83 621.02 428.49
  Q 619.15 434.37 624.07 438.29
  C 625.46 439.39 627.31 439.77 628.46 438.20
  C 632.54 432.68 635.99 425.30 639.93 420.55
  Q 650.11 408.30 665.50 402.75
  Z
  M 839.96 374.94
  C 835.27 383.16 821.70 393.97 812.51 396.24
  C 808.84 397.14 795.50 399.22 794.42 402.93
  Q 790.58 416.11 786.51 426.05
  C 781.22 439.01 768.69 448.65 755.25 451.90
  C 752.15 452.65 739.65 455.01 738.81 458.05
  C 736.02 468.14 734.75 477.95 728.27 486.58
  Q 718.66 499.40 702.54 507.54
  C 697.21 510.23 701.20 517.09 706.26 517.56
  C 710.86 517.99 717.50 513.81 722.60 513.28
  C 739.21 511.56 753.73 516.99 767.07 526.53
  A 2.64 2.62 49.9 0 0 769.74 526.77
  Q 775.49 524.07 781.35 520.36
  C 795.60 511.36 813.97 511.06 829.00 517.11
  C 833.65 518.98 838.36 522.40 842.97 525.14
  C 845.82 526.83 848.54 527.78 851.20 525.73
  C 863.41 516.30 877.35 511.71 892.57 513.96
  C 895.28 514.36 906.74 515.70 908.41 513.53
  Q 909.23 512.47 909.01 511.00
  C 901.83 463.11 880.05 413.76 853.83 373.69
  Q 851.23 369.72 846.19 367.09
  Q 845.69 366.83 845.33 367.26
  Q 842.25 370.93 839.96 374.94
  Z
  M 402.07 513.66
  C 411.56 511.95 420.62 513.56 429.62 516.65
  C 434.42 518.29 438.37 517.44 439.41 512.02
  Q 439.81 509.94 438.69 509.04
  C 433.91 505.18 426.71 502.33 422.09 498.54
  Q 413.10 491.18 407.81 480.82
  Q 406.15 477.59 404.41 471.00
  Q 402.61 464.20 399.99 457.60
  Q 399.81 457.14 399.36 456.93
  Q 393.76 454.28 391.72 453.97
  C 369.70 450.54 353.41 435.00 348.25 413.46
  Q 346.66 406.84 343.90 400.96
  A 1.55 1.54 -7.5 0 0 342.77 400.10
  C 329.74 397.83 317.28 393.56 307.50 384.52
  C 302.84 380.21 298.78 373.35 294.23 367.87
  A 1.71 1.71 0.0 0 0 291.84 367.63
  C 288.78 370.11 286.21 373.23 283.85 376.88
  Q 259.51 414.54 244.68 456.94
  C 240.11 470.02 235.24 483.37 232.86 496.96
  Q 231.36 505.59 230.16 514.49
  A 0.65 0.65 0.0 0 0 230.85 515.22
  Q 239.89 514.57 248.98 513.47
  C 262.97 511.77 276.72 516.75 287.52 525.05
  C 291.87 528.39 296.60 525.37 300.79 522.55
  Q 320.23 509.49 343.51 514.16
  C 352.50 515.96 359.23 520.38 366.78 525.74
  C 370.54 528.41 374.38 525.37 377.55 523.31
  Q 388.71 516.06 402.07 513.66
  Z
  M 520.06 516.31
  C 504.08 531.26 495.59 550.74 497.13 572.34
  C 499.67 608.15 529.77 639.52 566.24 640.63
  Q 580.14 641.06 584.75 639.81
  C 624.18 629.12 651.50 590.34 639.96 549.62
  C 636.12 536.07 625.49 520.57 614.47 511.80
  C 600.79 500.91 585.40 494.45 567.67 495.50
  C 550.86 496.49 532.16 505.00 520.06 516.31
  Z
  M 346.02 731.24
  C 351.32 710.02 359.78 690.96 383.65 684.72
  C 388.37 683.49 393.00 681.90 397.75 680.84
  C 400.57 680.21 401.99 675.03 402.68 672.29
  C 406.20 658.25 411.07 646.04 423.55 637.61
  Q 429.92 633.31 436.23 628.96
  C 438.70 627.25 441.05 622.73 437.95 621.02
  C 432.17 617.84 423.79 622.75 417.56 623.41
  C 400.25 625.25 386.40 620.18 372.48 610.20
  Q 372.08 609.92 371.58 609.94
  Q 366.41 610.24 363.28 612.79
  C 356.75 618.12 352.07 621.15 343.45 622.40
  C 334.89 623.64 324.99 624.42 316.83 622.25
  C 307.87 619.87 299.00 613.16 292.28 609.30
  Q 291.81 609.02 291.36 609.34
  C 281.52 616.28 269.39 623.03 256.60 623.76
  C 249.56 624.16 239.64 622.16 231.24 621.60
  Q 230.62 621.56 230.57 622.17
  Q 230.37 624.54 230.88 627.57
  C 232.16 635.19 233.20 643.10 235.19 650.37
  Q 246.92 693.25 267.48 732.61
  C 272.94 743.06 279.49 752.57 286.46 763.05
  Q 289.17 767.10 292.54 770.08
  Q 292.94 770.43 293.35 770.08
  Q 296.07 767.76 296.55 766.76
  Q 300.90 757.68 308.33 751.23
  C 315.29 745.18 327.79 738.73 337.07 738.10
  C 342.32 737.75 344.75 736.34 346.02 731.24
  Z
  M 758.67 685.47
  C 764.11 687.09 771.81 692.44 775.76 696.13
  C 785.33 705.08 791.82 717.65 793.54 731.00
  C 794.02 734.78 795.21 736.51 799.15 737.35
  Q 809.72 739.60 812.50 740.51
  C 829.52 746.09 836.33 757.43 846.34 770.26
  A 0.71 0.70 -41.8 0 0 847.40 770.31
  Q 852.67 764.91 856.62 758.65
  C 880.97 720.10 901.05 674.57 908.66 629.43
  Q 909.22 626.14 908.05 622.76
  Q 907.87 622.27 907.36 622.15
  Q 906.08 621.87 904.50 621.99
  C 892.17 622.88 879.71 625.72 869.25 621.11
  Q 858.95 616.57 849.87 609.74
  A 1.66 1.63 -35.4 0 0 848.37 609.50
  Q 844.98 610.62 841.73 612.16
  C 832.89 616.32 829.14 621.80 818.31 622.70
  Q 807.92 623.56 797.50 623.15
  C 790.08 622.85 778.22 614.89 772.84 611.15
  Q 770.77 609.72 768.67 609.44
  Q 768.14 609.36 767.73 609.68
  C 758.49 616.76 747.74 622.04 736.25 623.37
  C 726.61 624.48 717.25 622.16 707.44 619.54
  C 703.40 618.46 699.70 621.50 700.57 625.65
  C 701.13 628.30 703.14 629.30 705.33 630.68
  C 712.04 634.89 719.78 638.37 724.59 644.92
  C 729.92 652.15 734.27 659.53 736.41 668.52
  C 737.04 671.19 738.11 680.37 741.24 681.04
  Q 750.05 682.90 758.67 685.47
  Z
  M 516.35 822.46
  C 514.04 813.25 513.80 795.27 517.14 788.91
  Q 522.55 778.62 528.28 768.35
  Q 528.77 767.46 528.18 766.63
  C 517.32 751.36 510.53 732.08 516.73 713.70
  Q 518.67 707.98 518.99 706.25
  C 519.95 701.15 513.29 695.42 509.63 700.66
  C 506.03 705.80 502.82 712.27 499.40 716.52
  Q 485.85 733.37 463.77 736.19
  C 460.86 736.57 457.59 737.68 456.97 740.49
  C 450.20 771.52 437.64 785.49 406.34 792.63
  C 403.10 793.37 402.09 794.44 401.31 797.52
  C 399.49 804.67 398.26 812.74 394.91 818.82
  C 389.49 828.67 380.75 835.45 371.30 842.05
  Q 370.29 842.75 368.52 845.02
  Q 368.21 845.41 368.51 845.81
  Q 371.23 849.47 372.77 850.51
  C 411.40 876.46 455.60 896.22 501.23 905.81
  Q 508.19 907.27 514.56 906.79
  Q 516.17 906.66 516.10 905.05
  C 515.82 897.73 514.25 889.42 514.47 883.29
  C 514.93 870.12 520.15 860.56 527.15 849.67
  Q 528.93 846.89 527.94 844.81
  C 525.37 839.41 518.31 830.24 516.35 822.46
  Z
  M 718.39 788.67
  C 703.27 782.33 691.63 770.52 686.56 755.69
  C 684.72 750.33 684.08 736.49 674.08 735.62
  C 652.60 733.76 639.31 718.20 630.33 700.12
  Q 630.08 699.63 629.54 699.53
  Q 626.25 698.90 623.01 699.87
  Q 622.54 700.02 622.27 700.44
  Q 619.92 704.21 621.12 708.35
  Q 624.07 718.54 624.71 723.29
  C 626.73 738.20 621.39 752.11 613.07 763.80
  C 611.98 765.32 610.67 766.77 611.54 768.70
  C 614.09 774.34 619.08 780.10 621.30 786.25
  C 624.54 795.19 625.00 805.62 624.30 815.41
  C 623.64 824.74 619.16 832.53 613.72 840.01
  C 611.61 842.90 610.59 846.34 612.47 849.80
  C 617.63 859.28 624.81 867.88 624.75 879.00
  Q 624.67 892.14 623.52 903.00
  Q 623.31 904.98 623.99 906.83
  Q 624.18 907.36 624.74 907.42
  Q 627.04 907.69 629.31 907.33
  C 666.48 901.40 703.34 886.66 736.57 869.32
  C 745.50 864.67 767.87 852.90 770.63 845.47
  Q 770.81 844.98 770.53 844.55
  Q 769.90 843.59 768.76 842.73
  C 764.04 839.22 758.64 835.52 754.82 831.63
  Q 742.81 819.37 739.33 802.34
  C 738.16 796.59 738.20 793.31 732.44 792.12
  C 727.58 791.12 722.85 790.54 718.39 788.67
  Z"
/>
<path fill="#ffffff" d="
  M 514.13 404.93
  C 513.34 412.75 516.14 421.68 518.39 429.21
  Q 519.95 434.44 515.90 437.65
  C 510.45 441.97 504.11 427.06 502.09 424.08
  C 492.02 409.20 478.79 404.01 461.82 399.91
  C 457.82 398.94 456.87 395.24 456.15 391.65
  C 451.77 369.72 436.94 351.29 414.49 346.27
  C 409.56 345.16 401.25 344.10 400.72 339.58
  Q 397.39 310.99 372.89 295.87
  Q 371.32 294.90 369.12 292.49
  Q 368.74 292.08 368.93 291.55
  C 370.65 286.81 380.90 280.29 385.34 277.83
  C 396.86 271.45 408.81 264.47 420.13 259.17
  C 451.43 244.48 481.46 233.37 514.78 228.61
  Q 516.28 228.40 516.25 229.91
  C 516.09 238.38 514.17 248.20 514.60 255.46
  Q 515.62 272.50 526.83 286.18
  C 528.68 288.44 528.57 290.77 527.05 293.35
  C 519.99 305.36 514.33 314.60 514.99 328.75
  C 515.50 339.72 515.75 348.69 521.00 356.31
  C 523.29 359.63 529.28 368.29 527.50 371.48
  C 525.05 375.84 521.74 380.42 519.85 384.41
  Q 515.22 394.18 514.13 404.93
  Z"
/>
<path fill="#ffffff" d="
  M 665.50 402.75
  Q 650.11 408.30 639.93 420.55
  C 635.99 425.30 632.54 432.68 628.46 438.20
  C 627.31 439.77 625.46 439.39 624.07 438.29
  Q 619.15 434.37 621.02 428.49
  C 627.28 408.83 626.37 391.26 613.50 374.98
  C 611.17 372.04 611.31 368.69 613.24 365.31
  C 617.54 357.80 622.95 348.98 624.12 339.97
  C 625.34 330.67 625.62 318.41 621.25 309.82
  Q 616.90 301.27 612.03 293.03
  C 610.96 291.22 611.09 288.74 612.21 287.25
  C 618.09 279.43 623.03 270.68 624.24 260.81
  Q 625.95 246.87 622.81 232.99
  Q 622.38 231.10 623.41 229.65
  Q 623.72 229.20 624.27 229.22
  C 634.75 229.45 645.69 232.01 656.04 235.16
  C 667.80 238.74 679.98 242.24 691.02 246.64
  C 717.35 257.13 743.11 269.96 766.62 285.87
  Q 770.17 288.27 771.42 291.42
  A 1.71 1.71 0.0 0 1 770.76 293.49
  C 763.86 297.98 756.19 302.90 750.99 309.12
  C 743.04 318.63 740.36 330.79 737.65 342.45
  A 1.76 1.76 0.0 0 1 736.34 343.76
  C 715.71 348.51 700.29 353.10 689.85 373.17
  C 686.59 379.44 685.09 387.98 682.54 395.31
  C 679.91 402.88 670.73 400.86 665.50 402.75
  Z"
/>
<path fill="#ffffff" d="
  M 812.51 396.24
  C 821.70 393.97 835.27 383.16 839.96 374.94
  Q 842.25 370.93 845.33 367.26
  Q 845.69 366.83 846.19 367.09
  Q 851.23 369.72 853.83 373.69
  C 880.05 413.76 901.83 463.11 909.01 511.00
  Q 909.23 512.47 908.41 513.53
  C 906.74 515.70 895.28 514.36 892.57 513.96
  C 877.35 511.71 863.41 516.30 851.20 525.73
  C 848.54 527.78 845.82 526.83 842.97 525.14
  C 838.36 522.40 833.65 518.98 829.00 517.11
  C 813.97 511.06 795.60 511.36 781.35 520.36
  Q 775.49 524.07 769.74 526.77
  A 2.64 2.62 49.9 0 1 767.07 526.53
  C 753.73 516.99 739.21 511.56 722.60 513.28
  C 717.50 513.81 710.86 517.99 706.26 517.56
  C 701.20 517.09 697.21 510.23 702.54 507.54
  Q 718.66 499.40 728.27 486.58
  C 734.75 477.95 736.02 468.14 738.81 458.05
  C 739.65 455.01 752.15 452.65 755.25 451.90
  C 768.69 448.65 781.22 439.01 786.51 426.05
  Q 790.58 416.11 794.42 402.93
  C 795.50 399.22 808.84 397.14 812.51 396.24
  Z"
/>
<path fill="#ffffff" d="
  M 402.07 513.66
  Q 388.71 516.06 377.55 523.31
  C 374.38 525.37 370.54 528.41 366.78 525.74
  C 359.23 520.38 352.50 515.96 343.51 514.16
  Q 320.23 509.49 300.79 522.55
  C 296.60 525.37 291.87 528.39 287.52 525.05
  C 276.72 516.75 262.97 511.77 248.98 513.47
  Q 239.89 514.57 230.85 515.22
  A 0.65 0.65 0.0 0 1 230.16 514.49
  Q 231.36 505.59 232.86 496.96
  C 235.24 483.37 240.11 470.02 244.68 456.94
  Q 259.51 414.54 283.85 376.88
  C 286.21 373.23 288.78 370.11 291.84 367.63
  A 1.71 1.71 0.0 0 1 294.23 367.87
  C 298.78 373.35 302.84 380.21 307.50 384.52
  C 317.28 393.56 329.74 397.83 342.77 400.10
  A 1.55 1.54 -7.5 0 1 343.90 400.96
  Q 346.66 406.84 348.25 413.46
  C 353.41 435.00 369.70 450.54 391.72 453.97
  Q 393.76 454.28 399.36 456.93
  Q 399.81 457.14 399.99 457.60
  Q 402.61 464.20 404.41 471.00
  Q 406.15 477.59 407.81 480.82
  Q 413.10 491.18 422.09 498.54
  C 426.71 502.33 433.91 505.18 438.69 509.04
  Q 439.81 509.94 439.41 512.02
  C 438.37 517.44 434.42 518.29 429.62 516.65
  C 420.62 513.56 411.56 511.95 402.07 513.66
  Z"
/>
<path fill="#ffffff" d="
  M 520.06 516.31
  C 532.16 505.00 550.86 496.49 567.67 495.50
  C 585.40 494.45 600.79 500.91 614.47 511.80
  C 625.49 520.57 636.12 536.07 639.96 549.62
  C 651.50 590.34 624.18 629.12 584.75 639.81
  Q 580.14 641.06 566.24 640.63
  C 529.77 639.52 499.67 608.15 497.13 572.34
  C 495.59 550.74 504.08 531.26 520.06 516.31
  Z"
/>
<path fill="#ffffff" d="
  M 383.65 684.72
  C 359.78 690.96 351.32 710.02 346.02 731.24
  C 344.75 736.34 342.32 737.75 337.07 738.10
  C 327.79 738.73 315.29 745.18 308.33 751.23
  Q 300.90 757.68 296.55 766.76
  Q 296.07 767.76 293.35 770.08
  Q 292.94 770.43 292.54 770.08
  Q 289.17 767.10 286.46 763.05
  C 279.49 752.57 272.94 743.06 267.48 732.61
  Q 246.92 693.25 235.19 650.37
  C 233.20 643.10 232.16 635.19 230.88 627.57
  Q 230.37 624.54 230.57 622.17
  Q 230.62 621.56 231.24 621.60
  C 239.64 622.16 249.56 624.16 256.60 623.76
  C 269.39 623.03 281.52 616.28 291.36 609.34
  Q 291.81 609.02 292.28 609.30
  C 299.00 613.16 307.87 619.87 316.83 622.25
  C 324.99 624.42 334.89 623.64 343.45 622.40
  C 352.07 621.15 356.75 618.12 363.28 612.79
  Q 366.41 610.24 371.58 609.94
  Q 372.08 609.92 372.48 610.20
  C 386.40 620.18 400.25 625.25 417.56 623.41
  C 423.79 622.75 432.17 617.84 437.95 621.02
  C 441.05 622.73 438.70 627.25 436.23 628.96
  Q 429.92 633.31 423.55 637.61
  C 411.07 646.04 406.20 658.25 402.68 672.29
  C 401.99 675.03 400.57 680.21 397.75 680.84
  C 393.00 681.90 388.37 683.49 383.65 684.72
  Z"
/>
<path fill="#ffffff" d="
  M 758.67 685.47
  Q 750.05 682.90 741.24 681.04
  C 738.11 680.37 737.04 671.19 736.41 668.52
  C 734.27 659.53 729.92 652.15 724.59 644.92
  C 719.78 638.37 712.04 634.89 705.33 630.68
  C 703.14 629.30 701.13 628.30 700.57 625.65
  C 699.70 621.50 703.40 618.46 707.44 619.54
  C 717.25 622.16 726.61 624.48 736.25 623.37
  C 747.74 622.04 758.49 616.76 767.73 609.68
  Q 768.14 609.36 768.67 609.44
  Q 770.77 609.72 772.84 611.15
  C 778.22 614.89 790.08 622.85 797.50 623.15
  Q 807.92 623.56 818.31 622.70
  C 829.14 621.80 832.89 616.32 841.73 612.16
  Q 844.98 610.62 848.37 609.50
  A 1.66 1.63 -35.4 0 1 849.87 609.74
  Q 858.95 616.57 869.25 621.11
  C 879.71 625.72 892.17 622.88 904.50 621.99
  Q 906.08 621.87 907.36 622.15
  Q 907.87 622.27 908.05 622.76
  Q 909.22 626.14 908.66 629.43
  C 901.05 674.57 880.97 720.10 856.62 758.65
  Q 852.67 764.91 847.40 770.31
  A 0.71 0.70 -41.8 0 1 846.34 770.26
  C 836.33 757.43 829.52 746.09 812.50 740.51
  Q 809.72 739.60 799.15 737.35
  C 795.21 736.51 794.02 734.78 793.54 731.00
  C 791.82 717.65 785.33 705.08 775.76 696.13
  C 771.81 692.44 764.11 687.09 758.67 685.47
  Z"
/>
<path fill="#ffffff" d="
  M 517.14 788.91
  C 513.80 795.27 514.04 813.25 516.35 822.46
  C 518.31 830.24 525.37 839.41 527.94 844.81
  Q 528.93 846.89 527.15 849.67
  C 520.15 860.56 514.93 870.12 514.47 883.29
  C 514.25 889.42 515.82 897.73 516.10 905.05
  Q 516.17 906.66 514.56 906.79
  Q 508.19 907.27 501.23 905.81
  C 455.60 896.22 411.40 876.46 372.77 850.51
  Q 371.23 849.47 368.51 845.81
  Q 368.21 845.41 368.52 845.02
  Q 370.29 842.75 371.30 842.05
  C 380.75 835.45 389.49 828.67 394.91 818.82
  C 398.26 812.74 399.49 804.67 401.31 797.52
  C 402.09 794.44 403.10 793.37 406.34 792.63
  C 437.64 785.49 450.20 771.52 456.97 740.49
  C 457.59 737.68 460.86 736.57 463.77 736.19
  Q 485.85 733.37 499.40 716.52
  C 502.82 712.27 506.03 705.80 509.63 700.66
  C 513.29 695.42 519.95 701.15 518.99 706.25
  Q 518.67 707.98 516.73 713.70
  C 510.53 732.08 517.32 751.36 528.18 766.63
  Q 528.77 767.46 528.28 768.35
  Q 522.55 778.62 517.14 788.91
  Z"
/>
<path fill="#ffffff" d="
  M 686.56 755.69
  C 691.63 770.52 703.27 782.33 718.39 788.67
  C 722.85 790.54 727.58 791.12 732.44 792.12
  C 738.20 793.31 738.16 796.59 739.33 802.34
  Q 742.81 819.37 754.82 831.63
  C 758.64 835.52 764.04 839.22 768.76 842.73
  Q 769.90 843.59 770.53 844.55
  Q 770.81 844.98 770.63 845.47
  C 767.87 852.90 745.50 864.67 736.57 869.32
  C 703.34 886.66 666.48 901.40 629.31 907.33
  Q 627.04 907.69 624.74 907.42
  Q 624.18 907.36 623.99 906.83
  Q 623.31 904.98 623.52 903.00
  Q 624.67 892.14 624.75 879.00
  C 624.81 867.88 617.63 859.28 612.47 849.80
  C 610.59 846.34 611.61 842.90 613.72 840.01
  C 619.16 832.53 623.64 824.74 624.30 815.41
  C 625.00 805.62 624.54 795.19 621.30 786.25
  C 619.08 780.10 614.09 774.34 611.54 768.70
  C 610.67 766.77 611.98 765.32 613.07 763.80
  C 621.39 752.11 626.73 738.20 624.71 723.29
  Q 624.07 718.54 621.12 708.35
  Q 619.92 704.21 622.27 700.44
  Q 622.54 700.02 623.01 699.87
  Q 626.25 698.90 629.54 699.53
  Q 630.08 699.63 630.33 700.12
  C 639.31 718.20 652.60 733.76 674.08 735.62
  C 684.08 736.49 684.72 750.33 686.56 755.69
  Z"
/>
</svg>
