<?xml version="1.0" encoding="UTF-8" standalone="no"?>
<!DOCTYPE svg PUBLIC "-//W3C//DTD SVG 1.1//EN" "http://www.w3.org/Graphics/SVG/1.1/DTD/svg11.dtd">
<svg xmlns="http://www.w3.org/2000/svg" version="1.1" viewBox="0.00 0.00 750.00 563.00">
<g stroke-width="2.00" fill="none" stroke-linecap="butt">
<path stroke="#808080" vector-effect="non-scaling-stroke" d="
  M 468.76 123.39
  Q 461.84 115.75 458.56 112.70
  C 433.22 89.14 401.60 81.87 367.69 85.90
  C 302.43 93.64 272.78 147.49 268.62 207.42
  Q 268.59 207.94 268.07 207.93
  L 249.59 207.68
  Q 248.84 207.67 248.83 208.42
  L 248.47 235.13
  Q 248.46 235.80 249.13 235.79
  L 267.65 235.65
  Q 268.17 235.64 268.24 236.16
  Q 268.49 238.24 268.43 241.94
  Q 267.85 274.79 270.79 313.99
  C 275.76 380.14 302.56 458.91 376.25 475.23
  C 400.55 480.61 430.82 480.94 452.95 467.82
  C 472.69 456.13 483.98 435.71 485.42 412.73
  C 487.73 376.07 463.22 350.21 432.74 334.90
  A 0.74 0.74 0.0 0 1 432.70 333.60
  C 456.28 319.92 475.10 302.81 487.54 278.35
  C 493.77 266.10 499.66 250.92 504.20 236.77
  Q 504.51 235.80 505.53 235.79
  L 521.44 235.63
  Q 522.00 235.62 522.00 235.06
  L 522.00 208.25
  Q 522.00 207.75 521.50 207.75
  L 297.02 207.75
  Q 296.56 207.75 296.63 207.30
  C 300.47 181.88 305.18 155.44 322.77 135.98
  C 340.32 116.56 365.16 110.50 390.82 111.39
  C 425.44 112.58 453.85 137.25 463.81 169.56
  C 465.98 176.58 466.14 186.39 470.05 191.94
  C 475.86 200.20 489.33 198.19 492.06 188.05
  C 495.33 175.90 488.62 164.78 489.27 152.47
  C 490.93 120.63 528.45 93.07 557.74 89.47
  C 605.47 83.60 639.75 111.31 663.72 149.21
  C 667.41 155.05 670.42 161.73 673.52 168.16
  C 675.09 171.40 677.77 175.61 680.42 177.08
  C 686.55 180.50 692.02 178.10 693.72 171.52
  C 695.60 164.24 692.61 154.62 689.80 147.87
  C 669.01 97.92 626.19 65.08 571.57 62.27
  C 529.98 60.13 488.70 87.71 469.34 123.32
  Q 469.10 123.77 468.76 123.39"
/>
<path stroke="#808080" vector-effect="non-scaling-stroke" d="
  M 195.59 316.77
  C 193.13 337.14 190.41 357.96 189.98 378.48
  Q 189.71 391.46 190.10 395.43
  C 193.50 430.13 201.35 475.54 232.16 497.34
  Q 238.64 501.93 246.78 502.06
  C 251.08 502.13 251.19 499.42 249.51 496.30
  Q 242.48 483.21 235.42 470.13
  Q 232.58 464.85 231.99 463.21
  C 221.87 435.04 218.66 406.84 221.18 377.08
  Q 225.94 320.85 226.46 302.44
  C 227.35 270.71 232.65 228.73 202.95 206.78
  C 192.00 198.69 177.88 194.54 164.00 192.76
  C 143.12 190.09 120.37 190.22 100.75 197.22
  C 67.92 208.92 56.74 239.33 58.64 271.81
  C 59.66 289.03 66.71 303.87 79.12 315.75
  C 107.90 343.31 153.07 341.30 185.81 322.01
  Q 190.42 319.29 195.01 316.41
  Q 195.68 315.99 195.59 316.77"
/>
<path stroke="#808080" vector-effect="non-scaling-stroke" d="
  M 432.64 303.92
  C 444.56 295.55 452.38 286.00 459.30 273.29
  Q 469.97 253.67 476.56 236.22
  Q 476.74 235.75 476.24 235.75
  L 296.69 235.75
  A 0.67 0.67 0.0 0 0 296.02 236.42
  Q 295.74 280.17 299.10 323.80
  A 0.46 0.45 -1.4 0 0 299.55 324.22
  Q 327.25 324.46 354.44 323.79
  Q 381.74 323.11 389.01 321.84
  Q 413.09 317.65 432.64 303.92"
/>
<path stroke="#808080" vector-effect="non-scaling-stroke" d="
  M 304.12 352.02
  C 315.74 400.78 348.00 451.97 404.54 450.68
  C 429.91 450.10 456.29 440.37 457.92 410.75
  C 458.64 397.81 453.50 386.28 444.81 376.68
  C 433.32 363.98 417.50 350.82 400.18 349.01
  C 395.58 348.53 390.38 349.35 385.50 349.78
  Q 380.10 350.26 374.47 350.45
  Q 339.54 351.60 304.54 351.50
  Q 304.00 351.49 304.12 352.02"
/>
<path stroke="#808080" vector-effect="non-scaling-stroke" d="
  M 141.41 218.83
  C 116.51 219.15 90.41 225.45 86.57 254.52
  C 82.21 287.44 102.46 309.54 135.75 309.01
  C 160.41 308.61 196.52 295.47 197.99 265.50
  C 199.76 229.28 171.80 218.44 141.41 218.83"
/>
</g>
<path fill="#ffffff" d="
  M 0.00 0.00
  L 750.00 0.00
  L 750.00 563.00
  L 0.00 563.00
  L 0.00 0.00
  Z
  M 468.76 123.39
  Q 461.84 115.75 458.56 112.70
  C 433.22 89.14 401.60 81.87 367.69 85.90
  C 302.43 93.64 272.78 147.49 268.62 207.42
  Q 268.59 207.94 268.07 207.93
  L 249.59 207.68
  Q 248.84 207.67 248.83 208.42
  L 248.47 235.13
  Q 248.46 235.80 249.13 235.79
  L 267.65 235.65
  Q 268.17 235.64 268.24 236.16
  Q 268.49 238.24 268.43 241.94
  Q 267.85 274.79 270.79 313.99
  C 275.76 380.14 302.56 458.91 376.25 475.23
  C 400.55 480.61 430.82 480.94 452.95 467.82
  C 472.69 456.13 483.98 435.71 485.42 412.73
  C 487.73 376.07 463.22 350.21 432.74 334.90
  A 0.74 0.74 0.0 0 1 432.70 333.60
  C 456.28 319.92 475.10 302.81 487.54 278.35
  C 493.77 266.10 499.66 250.92 504.20 236.77
  Q 504.51 235.80 505.53 235.79
  L 521.44 235.63
  Q 522.00 235.62 522.00 235.06
  L 522.00 208.25
  Q 522.00 207.75 521.50 207.75
  L 297.02 207.75
  Q 296.56 207.75 296.63 207.30
  C 300.47 181.88 305.18 155.44 322.77 135.98
  C 340.32 116.56 365.16 110.50 390.82 111.39
  C 425.44 112.58 453.85 137.25 463.81 169.56
  C 465.98 176.58 466.14 186.39 470.05 191.94
  C 475.86 200.20 489.33 198.19 492.06 188.05
  C 495.33 175.90 488.62 164.78 489.27 152.47
  C 490.93 120.63 528.45 93.07 557.74 89.47
  C 605.47 83.60 639.75 111.31 663.72 149.21
  C 667.41 155.05 670.42 161.73 673.52 168.16
  C 675.09 171.40 677.77 175.61 680.42 177.08
  C 686.55 180.50 692.02 178.10 693.72 171.52
  C 695.60 164.24 692.61 154.62 689.80 147.87
  C 669.01 97.92 626.19 65.08 571.57 62.27
  C 529.98 60.13 488.70 87.71 469.34 123.32
  Q 469.10 123.77 468.76 123.39
  Z
  M 195.59 316.77
  C 193.13 337.14 190.41 357.96 189.98 378.48
  Q 189.71 391.46 190.10 395.43
  C 193.50 430.13 201.35 475.54 232.16 497.34
  Q 238.64 501.93 246.78 502.06
  C 251.08 502.13 251.19 499.42 249.51 496.30
  Q 242.48 483.21 235.42 470.13
  Q 232.58 464.85 231.99 463.21
  C 221.87 435.04 218.66 406.84 221.18 377.08
  Q 225.94 320.85 226.46 302.44
  C 227.35 270.71 232.65 228.73 202.95 206.78
  C 192.00 198.69 177.88 194.54 164.00 192.76
  C 143.12 190.09 120.37 190.22 100.75 197.22
  C 67.92 208.92 56.74 239.33 58.64 271.81
  C 59.66 289.03 66.71 303.87 79.12 315.75
  C 107.90 343.31 153.07 341.30 185.81 322.01
  Q 190.42 319.29 195.01 316.41
  Q 195.68 315.99 195.59 316.77
  Z"
/>
<path fill="#000000" d="
  M 469.34 123.32
  C 488.70 87.71 529.98 60.13 571.57 62.27
  C 626.19 65.08 669.01 97.92 689.80 147.87
  C 692.61 154.62 695.60 164.24 693.72 171.52
  C 692.02 178.10 686.55 180.50 680.42 177.08
  C 677.77 175.61 675.09 171.40 673.52 168.16
  C 670.42 161.73 667.41 155.05 663.72 149.21
  C 639.75 111.31 605.47 83.60 557.74 89.47
  C 528.45 93.07 490.93 120.63 489.27 152.47
  C 488.62 164.78 495.33 175.90 492.06 188.05
  C 489.33 198.19 475.86 200.20 470.05 191.94
  C 466.14 186.39 465.98 176.58 463.81 169.56
  C 453.85 137.25 425.44 112.58 390.82 111.39
  C 365.16 110.50 340.32 116.56 322.77 135.98
  C 305.18 155.44 300.47 181.88 296.63 207.30
  Q 296.56 207.75 297.02 207.75
  L 521.50 207.75
  Q 522.00 207.75 522.00 208.25
  L 522.00 235.06
  Q 522.00 235.62 521.44 235.63
  L 505.53 235.79
  Q 504.51 235.80 504.20 236.77
  C 499.66 250.92 493.77 266.10 487.54 278.35
  C 475.10 302.81 456.28 319.92 432.70 333.60
  A 0.74 0.74 0.0 0 0 432.74 334.90
  C 463.22 350.21 487.73 376.07 485.42 412.73
  C 483.98 435.71 472.69 456.13 452.95 467.82
  C 430.82 480.94 400.55 480.61 376.25 475.23
  C 302.56 458.91 275.76 380.14 270.79 313.99
  Q 267.85 274.79 268.43 241.94
  Q 268.49 238.24 268.24 236.16
  Q 268.17 235.64 267.65 235.65
  L 249.13 235.79
  Q 248.46 235.80 248.47 235.13
  L 248.83 208.42
  Q 248.84 207.67 249.59 207.68
  L 268.07 207.93
  Q 268.59 207.94 268.62 207.42
  C 272.78 147.49 302.43 93.64 367.69 85.90
  C 401.60 81.87 433.22 89.14 458.56 112.70
  Q 461.84 115.75 468.76 123.39
  Q 469.10 123.77 469.34 123.32
  Z
  M 432.64 303.92
  C 444.56 295.55 452.38 286.00 459.30 273.29
  Q 469.97 253.67 476.56 236.22
  Q 476.74 235.75 476.24 235.75
  L 296.69 235.75
  A 0.67 0.67 0.0 0 0 296.02 236.42
  Q 295.74 280.17 299.10 323.80
  A 0.46 0.45 -1.4 0 0 299.55 324.22
  Q 327.25 324.46 354.44 323.79
  Q 381.74 323.11 389.01 321.84
  Q 413.09 317.65 432.64 303.92
  Z
  M 304.12 352.02
  C 315.74 400.78 348.00 451.97 404.54 450.68
  C 429.91 450.10 456.29 440.37 457.92 410.75
  C 458.64 397.81 453.50 386.28 444.81 376.68
  C 433.32 363.98 417.50 350.82 400.18 349.01
  C 395.58 348.53 390.38 349.35 385.50 349.78
  Q 380.10 350.26 374.47 350.45
  Q 339.54 351.60 304.54 351.50
  Q 304.00 351.49 304.12 352.02
  Z"
/>
<path fill="#000000" d="
  M 195.01 316.41
  Q 190.42 319.29 185.81 322.01
  C 153.07 341.30 107.90 343.31 79.12 315.75
  C 66.71 303.87 59.66 289.03 58.64 271.81
  C 56.74 239.33 67.92 208.92 100.75 197.22
  C 120.37 190.22 143.12 190.09 164.00 192.76
  C 177.88 194.54 192.00 198.69 202.95 206.78
  C 232.65 228.73 227.35 270.71 226.46 302.44
  Q 225.94 320.85 221.18 377.08
  C 218.66 406.84 221.87 435.04 231.99 463.21
  Q 232.58 464.85 235.42 470.13
  Q 242.48 483.21 249.51 496.30
  C 251.19 499.42 251.08 502.13 246.78 502.06
  Q 238.64 501.93 232.16 497.34
  C 201.35 475.54 193.50 430.13 190.10 395.43
  Q 189.71 391.46 189.98 378.48
  C 190.41 357.96 193.13 337.14 195.59 316.77
  Q 195.68 315.99 195.01 316.41
  Z
  M 141.41 218.83
  C 116.51 219.15 90.41 225.45 86.57 254.52
  C 82.21 287.44 102.46 309.54 135.75 309.01
  C 160.41 308.61 196.52 295.47 197.99 265.50
  C 199.76 229.28 171.80 218.44 141.41 218.83
  Z"
/>
<path fill="#ffffff" d="
  M 141.41 218.83
  C 171.80 218.44 199.76 229.28 197.99 265.50
  C 196.52 295.47 160.41 308.61 135.75 309.01
  C 102.46 309.54 82.21 287.44 86.57 254.52
  C 90.41 225.45 116.51 219.15 141.41 218.83
  Z"
/>
<path fill="#ffffff" d="
  M 432.64 303.92
  Q 413.09 317.65 389.01 321.84
  Q 381.74 323.11 354.44 323.79
  Q 327.25 324.46 299.55 324.22
  A 0.46 0.45 -1.4 0 1 299.10 323.80
  Q 295.74 280.17 296.02 236.42
  A 0.67 0.67 0.0 0 1 296.69 235.75
  L 476.24 235.75
  Q 476.74 235.75 476.56 236.22
  Q 469.97 253.67 459.30 273.29
  C 452.38 286.00 444.56 295.55 432.64 303.92
  Z"
/>
<path fill="#ffffff" d="
  M 404.54 450.68
  C 348.00 451.97 315.74 400.78 304.12 352.02
  Q 304.00 351.49 304.54 351.50
  Q 339.54 351.60 374.47 350.45
  Q 380.10 350.26 385.50 349.78
  C 390.38 349.35 395.58 348.53 400.18 349.01
  C 417.50 350.82 433.32 363.98 444.81 376.68
  C 453.50 386.28 458.64 397.81 457.92 410.75
  C 456.29 440.37 429.91 450.10 404.54 450.68
  Z"
/>
</svg>
