<?xml version="1.0" encoding="UTF-8" standalone="no"?>
<!DOCTYPE svg PUBLIC "-//W3C//DTD SVG 1.1//EN" "http://www.w3.org/Graphics/SVG/1.1/DTD/svg11.dtd">
<svg xmlns="http://www.w3.org/2000/svg" version="1.1" viewBox="0.00 0.00 600.00 600.00">
<path fill="#000000" d="
  M 593.48 300.00
  A 293.48 293.48 0.0 0 1 300.00 593.48
  A 293.48 293.48 0.0 0 1 6.52 300.00
  A 293.48 293.48 0.0 0 1 300.00 6.52
  A 293.48 293.48 0.0 0 1 593.48 300.00
  Z
  M 218.14 55.03
  C 249.84 55.25 281.63 36.23 297.72 9.20
  A 0.30 0.30 0.0 0 0 297.46 8.74
  C 264.49 9.09 235.39 26.91 217.78 54.36
  A 0.43 0.43 0.0 0 0 218.14 55.03
  Z
  M 302.49 9.58
  C 319.54 37.18 349.39 54.33 381.76 55.13
  A 0.53 0.52 74.2 0 0 382.21 54.32
  C 364.86 27.11 335.73 9.25 302.99 8.70
  A 0.58 0.58 0.0 0 0 302.49 9.58
  Z
  M 215.53 54.30
  C 229.18 32.03 248.23 18.24 272.89 10.37
  Q 275.21 9.63 272.78 9.85
  C 188.89 17.36 109.38 63.07 61.44 132.44
  Q 60.40 133.94 61.70 132.67
  Q 90.05 105.07 129.99 103.96
  Q 130.48 103.94 130.74 103.52
  C 148.80 74.23 177.67 57.03 212.38 55.25
  C 213.65 55.19 214.70 55.67 215.53 54.30
  Z
  M 537.92 131.65
  C 488.95 61.80 412.95 19.25 328.13 9.75
  Q 325.42 9.45 327.82 10.76
  C 328.49 11.13 330.77 11.37 331.79 11.73
  Q 360.68 21.88 378.95 46.50
  Q 381.92 50.51 384.73 54.54
  Q 385.06 55.00 385.63 55.03
  Q 440.43 57.82 469.33 103.53
  Q 469.58 103.93 470.05 103.94
  Q 509.37 105.06 537.56 131.96
  A 0.24 0.24 0.0 0 0 537.92 131.65
  Z
  M 299.40 10.83
  C 283.57 39.18 284.70 73.64 299.38 101.79
  A 0.79 0.79 0.0 0 0 300.78 101.78
  Q 323.41 56.32 300.85 10.86
  A 0.82 0.82 0.0 0 0 299.40 10.83
  Z
  M 307.78 21.41
  C 316.15 44.70 316.18 69.06 307.30 92.07
  A 0.14 0.14 0.0 0 0 307.54 92.21
  C 322.29 74.04 345.23 59.29 368.97 56.63
  A 0.26 0.26 0.0 0 0 368.99 56.11
  C 345.66 52.05 323.01 39.98 308.31 21.12
  Q 307.13 19.59 307.78 21.41
  Z
  M 292.07 91.02
  Q 291.37 88.02 290.60 85.62
  C 283.77 64.20 284.65 42.35 292.37 21.00
  A 0.17 0.17 0.0 0 0 292.08 20.84
  Q 268.28 49.43 231.50 55.99
  A 0.37 0.37 0.0 0 0 231.53 56.72
  C 254.28 59.03 277.33 74.05 291.67 91.22
  Q 292.29 91.97 292.07 91.02
  Z
  M 212.93 57.28
  C 180.22 58.67 150.38 75.11 133.26 103.36
  A 0.46 0.45 14.6 0 0 133.67 104.05
  C 166.41 102.67 196.07 86.17 213.33 57.97
  A 0.45 0.45 0.0 0 0 212.93 57.28
  Z
  M 297.88 103.44
  C 280.69 75.67 251.22 58.34 218.46 57.31
  A 0.58 0.58 0.0 0 0 217.96 58.21
  Q 246.00 100.87 297.54 104.01
  A 0.38 0.37 76.1 0 0 297.88 103.44
  Z
  M 381.37 57.34
  C 349.58 58.75 318.29 75.30 302.19 103.55
  A 0.32 0.32 0.0 0 0 302.48 104.03
  C 335.29 102.95 364.46 86.08 382.00 58.42
  A 0.71 0.70 14.8 0 0 381.37 57.34
  Z
  M 466.80 103.54
  C 449.89 75.23 419.48 58.43 386.76 57.29
  A 0.29 0.28 -14.5 0 0 386.50 57.72
  C 403.77 86.08 433.52 102.67 466.47 104.08
  A 0.36 0.36 0.0 0 0 466.80 103.54
  Z
  M 214.87 59.65
  Q 192.14 105.39 215.18 150.80
  A 0.49 0.48 -44.3 0 0 216.04 150.81
  C 231.30 122.18 231.63 87.52 215.80 58.98
  Q 215.27 58.01 215.05 59.10
  Q 214.99 59.40 214.87 59.65
  Z
  M 383.91 59.32
  C 368.31 88.46 368.85 122.17 384.00 151.02
  A 0.45 0.45 0.0 0 0 384.80 151.03
  C 400.35 122.40 400.31 87.86 384.95 59.32
  Q 384.43 58.34 383.91 59.32
  Z
  M 146.73 105.48
  C 169.53 107.36 193.19 123.04 207.41 140.21
  A 0.22 0.21 15.2 0 0 207.78 140.00
  Q 194.79 104.98 207.82 69.95
  Q 208.24 68.81 207.43 69.71
  C 205.96 71.32 204.25 73.59 203.22 74.67
  C 189.09 89.55 167.64 102.53 146.75 104.50
  Q 146.27 104.54 146.27 104.98
  Q 146.28 105.44 146.73 105.48
  Z
  M 315.73 105.50
  C 338.53 108.15 362.16 122.27 376.38 140.50
  A 0.29 0.28 -74.4 0 0 376.87 140.22
  Q 363.91 105.10 376.85 69.95
  Q 377.25 68.85 376.43 69.69
  C 374.35 71.81 372.08 74.78 370.53 76.34
  C 356.40 90.55 335.72 102.50 315.40 104.55
  Q 315.25 104.56 315.25 104.72
  Q 315.25 104.84 315.25 104.97
  Q 315.26 105.44 315.73 105.50
  Z
  M 392.14 69.91
  C 399.92 92.81 401.04 116.18 392.10 139.79
  A 0.22 0.21 -14.9 0 0 392.47 140.00
  Q 416.15 111.83 452.49 105.16
  A 0.27 0.27 0.0 0 0 452.49 104.62
  Q 416.05 98.02 392.49 69.71
  Q 391.79 68.88 392.14 69.91
  Z
  M 224.00 70.25
  Q 224.00 69.91 223.56 70.03
  A 0.30 0.30 0.0 0 0 223.36 70.43
  Q 236.03 105.54 223.02 140.54
  A 0.26 0.26 0.0 0 0 223.48 140.78
  Q 226.82 136.10 230.91 132.16
  Q 252.49 111.41 283.40 105.29
  A 0.26 0.25 -45.2 0 0 283.40 104.79
  Q 247.67 98.21 224.16 70.69
  Q 224.00 70.50 224.00 70.25
  Z
  M 128.31 107.31
  Q 128.78 107.19 128.97 106.55
  A 0.39 0.39 0.0 0 0 128.58 106.05
  C 95.99 107.00 65.94 124.14 49.00 152.08
  A 0.36 0.36 0.0 0 0 49.31 152.62
  C 81.64 152.06 111.36 134.67 128.31 107.31
  Z
  M 213.10 151.80
  C 196.36 123.79 165.94 107.27 133.64 106.01
  A 0.37 0.37 0.0 0 0 133.31 106.58
  C 150.22 134.80 180.05 151.11 212.50 152.79
  A 0.66 0.65 -13.9 0 0 213.10 151.80
  Z
  M 217.98 152.55
  C 250.67 151.21 280.88 134.78 297.78 106.39
  A 0.36 0.35 -76.0 0 0 297.46 105.85
  Q 245.61 109.02 217.66 151.99
  A 0.36 0.36 0.0 0 0 217.98 152.55
  Z
  M 382.05 151.74
  C 364.72 123.84 335.43 107.29 302.67 105.98
  A 0.44 0.43 74.8 0 0 302.29 106.65
  C 319.67 133.96 348.84 151.98 381.67 152.41
  A 0.44 0.44 0.0 0 0 382.05 151.74
  Z
  M 465.60 106.33
  C 433.37 107.52 403.83 124.25 386.74 152.15
  A 0.33 0.33 0.0 0 0 387.03 152.66
  C 419.43 151.89 448.97 134.78 466.22 107.42
  Q 466.94 106.28 465.60 106.33
  Z
  M 551.00 152.27
  C 534.58 123.91 503.62 107.20 471.31 106.02
  A 0.44 0.43 74.6 0 0 470.93 106.69
  Q 495.59 144.90 540.44 151.96
  C 543.63 152.47 547.32 152.45 550.74 152.70
  A 0.29 0.28 76.8 0 0 551.00 152.27
  Z
  M 130.60 108.25
  C 114.75 136.73 115.78 170.75 130.40 199.24
  A 0.75 0.75 0.0 0 0 131.73 199.26
  C 147.33 170.67 146.59 136.56 131.80 108.26
  A 0.68 0.68 0.0 0 0 130.60 108.25
  Z
  M 299.59 108.04
  C 283.81 136.56 284.44 170.76 299.34 199.28
  A 0.80 0.80 0.0 0 0 300.77 199.27
  Q 322.70 155.47 302.18 111.06
  C 301.77 110.17 300.77 109.01 300.27 108.05
  A 0.38 0.38 0.0 0 0 299.59 108.04
  Z
  M 468.26 108.28
  Q 445.59 153.72 468.23 199.18
  A 0.77 0.77 0.0 0 0 469.60 199.19
  C 484.35 170.79 485.12 136.70 469.34 108.37
  Q 469.05 107.84 468.75 108.00
  A 0.59 0.02 -27.4 0 0 468.26 108.28
  Z
  M 200.47 153.55
  Q 165.04 147.72 141.41 121.06
  Q 139.65 119.08 138.85 117.60
  Q 138.79 117.49 138.75 117.50
  Q 138.59 117.55 138.48 117.60
  Q 138.34 117.66 138.39 117.80
  Q 152.02 153.78 138.39 189.63
  A 0.14 0.14 0.0 0 0 138.63 189.77
  Q 162.66 160.41 200.18 153.85
  Q 200.47 153.80 200.54 153.71
  Q 200.64 153.58 200.47 153.55
  Z
  M 62.27 153.86
  C 87.77 158.57 107.19 170.24 123.46 189.71
  Q 124.23 190.63 123.80 189.51
  C 115.19 167.07 114.39 140.62 123.87 118.14
  A 0.22 0.22 0.0 0 0 123.49 117.91
  Q 99.67 147.05 62.27 153.48
  A 0.19 0.19 0.0 0 0 62.27 153.86
  Z
  M 307.37 118.23
  C 316.25 141.23 316.30 166.57 307.26 189.53
  A 0.25 0.25 0.0 0 0 307.69 189.77
  C 321.76 170.71 345.11 158.19 368.08 154.12
  Q 368.54 154.03 368.42 153.58
  C 368.37 153.35 362.96 152.56 362.74 152.51
  C 342.83 147.81 319.54 135.33 307.74 118.03
  A 0.21 0.21 0.0 0 0 307.37 118.23
  Z
  M 476.63 189.41
  Q 500.63 160.35 537.94 153.94
  A 0.33 0.33 0.0 0 0 537.91 153.29
  C 516.40 151.56 492.85 136.96 479.11 120.89
  Q 477.97 119.56 476.70 118.30
  Q 476.09 117.70 476.38 118.50
  Q 489.56 153.90 476.32 189.23
  A 0.18 0.18 0.0 0 0 476.63 189.41
  Z
  M 231.76 154.06
  Q 268.45 160.68 292.11 189.23
  A 0.19 0.19 0.0 0 0 292.44 189.04
  Q 279.66 154.47 291.99 119.74
  Q 292.62 117.98 291.41 119.40
  Q 267.79 147.16 231.76 153.58
  A 0.24 0.24 0.0 0 0 231.76 154.06
  Z
  M 460.00 119.43
  Q 436.38 147.19 400.31 153.44
  A 0.29 0.29 0.0 0 0 400.30 154.01
  Q 436.81 160.46 460.53 188.74
  A 0.25 0.25 0.0 0 0 460.95 188.50
  Q 448.53 154.22 460.66 119.81
  Q 461.37 117.82 460.00 119.43
  Z
  M 381.71 156.13
  Q 382.23 155.87 381.83 155.21
  A 0.69 0.68 -15.9 0 0 381.25 154.89
  C 348.93 155.51 320.39 173.07 302.76 199.60
  Q 301.66 201.27 303.65 201.28
  C 333.05 201.53 361.22 184.34 378.26 161.49
  Q 379.99 159.17 381.28 156.56
  Q 381.43 156.27 381.71 156.13
  Z
  M 466.25 200.27
  C 449.82 172.63 419.17 156.10 387.63 154.79
  Q 386.87 154.76 387.09 155.48
  Q 387.45 156.72 388.39 158.07
  Q 414.44 195.51 459.77 201.02
  Q 462.19 201.31 465.89 200.97
  Q 466.62 200.90 466.25 200.27
  Z
  M 550.52 154.74
  C 518.13 156.28 488.14 172.49 471.26 200.60
  A 0.45 0.44 14.8 0 0 471.65 201.27
  C 504.38 201.22 533.64 182.65 551.07 155.70
  A 0.62 0.62 0.0 0 0 550.52 154.74
  Z
  M 49.11 155.72
  C 63.92 180.89 91.20 197.13 119.51 200.78
  Q 124.48 201.42 128.29 201.22
  Q 128.97 201.19 128.64 200.59
  C 113.74 174.26 84.62 158.22 55.19 155.09
  Q 52.37 154.79 49.43 155.08
  Q 48.77 155.15 49.11 155.72
  Z
  M 206.93 155.16
  C 177.19 158.15 149.18 174.27 133.71 200.31
  A 0.58 0.57 14.6 0 0 134.22 201.17
  C 166.83 200.70 195.69 182.64 213.02 155.89
  A 0.55 0.55 0.0 0 0 212.60 155.04
  Q 209.94 154.86 206.93 155.16
  Z
  M 297.48 200.31
  C 280.38 172.98 250.80 155.63 218.41 154.87
  A 0.50 0.50 0.0 0 0 217.98 155.64
  C 235.28 182.66 264.31 200.60 296.99 201.18
  A 0.57 0.57 0.0 0 0 297.48 200.31
  Z
  M 215.06 156.82
  C 199.81 185.49 199.45 219.96 215.35 248.73
  A 0.26 0.26 0.0 0 0 215.81 248.73
  C 231.04 220.68 231.38 188.31 217.40 159.40
  Q 216.64 157.83 215.78 156.75
  Q 215.37 156.24 215.06 156.82
  Z
  M 552.99 156.72
  C 536.17 184.57 538.57 220.85 552.98 248.84
  A 0.34 0.34 0.0 0 0 553.58 248.84
  C 568.88 220.27 569.57 185.41 553.69 156.73
  Q 553.35 156.12 552.99 156.72
  Z
  M 46.33 156.73
  C 30.31 185.46 31.20 220.17 46.37 248.65
  Q 46.66 249.19 46.96 248.65
  C 62.48 220.02 62.71 185.51 47.17 156.74
  A 0.48 0.48 0.0 0 0 46.33 156.73
  Z
  M 384.06 156.70
  C 368.87 185.75 368.63 219.74 384.30 248.63
  A 0.27 0.27 0.0 0 0 384.78 248.63
  C 400.21 219.87 400.48 185.40 384.85 156.69
  A 0.45 0.45 0.0 0 0 384.06 156.70
  Z
  M 115.50 202.26
  Q 78.16 195.75 54.24 166.60
  A 0.14 0.13 -75.7 0 0 54.01 166.74
  Q 67.47 202.34 54.13 237.97
  A 0.18 0.17 -15.1 0 0 54.43 238.14
  Q 78.30 209.26 115.50 202.72
  Q 116.83 202.49 115.50 202.26
  Z
  M 375.26 168.28
  Q 351.26 196.40 314.61 202.46
  A 0.06 0.06 0.0 0 0 314.61 202.58
  Q 352.33 208.74 376.51 238.02
  A 0.26 0.26 0.0 0 0 376.94 237.73
  Q 375.78 235.64 375.06 233.35
  Q 364.63 200.29 376.50 167.80
  Q 376.95 167.82 377.04 167.05
  A 0.25 0.25 0.0 0 0 376.62 166.84
  Q 375.94 167.48 375.26 168.28
  Z
  M 545.08 167.47
  Q 520.89 196.28 483.62 202.37
  A 0.11 0.11 0.0 0 0 483.62 202.58
  Q 521.41 208.86 545.64 238.26
  A 0.18 0.18 0.0 0 0 545.94 238.08
  C 538.51 218.68 537.26 198.49 542.39 178.40
  Q 543.73 173.16 545.52 167.71
  Q 545.93 166.46 545.08 167.47
  Z
  M 226.68 234.12
  Q 249.94 208.88 283.76 202.83
  A 0.39 0.38 -47.5 0 0 283.73 202.07
  Q 279.27 201.70 274.99 200.51
  Q 243.98 191.94 223.46 167.31
  Q 222.83 166.56 223.17 167.48
  Q 236.06 202.52 223.17 237.58
  Q 222.71 238.85 223.66 237.88
  C 224.75 236.78 226.00 234.85 226.68 234.12
  Z
  M 392.66 237.80
  C 407.16 218.99 429.71 206.86 452.78 202.82
  A 0.10 0.10 0.0 0 0 452.78 202.63
  Q 415.30 194.83 392.33 167.40
  A 0.15 0.15 0.0 0 0 392.07 167.55
  Q 404.94 202.50 392.09 237.49
  A 0.33 0.33 0.0 0 0 392.66 237.80
  Z
  M 207.55 167.76
  Q 204.52 170.67 202.01 173.28
  Q 179.49 196.70 147.63 202.30
  A 0.29 0.29 0.0 0 0 147.63 202.87
  Q 184.13 209.54 207.63 237.98
  A 0.22 0.22 0.0 0 0 208.01 237.76
  Q 195.09 202.90 207.78 167.91
  A 0.14 0.14 0.0 0 0 207.55 167.76
  Z
  M 564.00 177.26
  C 570.60 202.09 567.26 228.22 554.83 250.62
  A 1.25 1.25 0.0 0 0 554.83 251.82
  C 571.37 282.11 571.59 317.74 554.83 348.18
  A 1.24 1.22 45.4 0 0 554.83 349.37
  Q 572.45 381.78 565.23 418.09
  C 565.01 419.20 564.05 421.02 564.09 422.47
  Q 564.12 423.51 564.55 422.56
  C 600.56 342.63 600.21 256.43 564.46 177.13
  Q 564.35 176.89 564.12 177.02
  Q 563.96 177.11 564.00 177.26
  Z
  M 35.47 177.64
  C -0.71 255.49 -0.18 344.70 35.51 422.65
  Q 35.56 422.75 35.62 422.76
  Q 35.67 422.76 35.71 422.76
  Q 35.89 422.74 35.84 422.51
  Q 26.38 383.95 45.14 349.41
  A 1.33 1.33 0.0 0 0 45.14 348.15
  C 28.56 317.97 28.49 281.97 45.21 251.73
  A 0.97 0.97 0.0 0 0 45.21 250.79
  Q 27.77 218.85 34.59 182.82
  Q 34.84 181.52 36.07 178.05
  Q 36.18 177.72 35.88 177.54
  Q 35.60 177.37 35.47 177.64
  Z
  M 302.59 204.68
  C 319.25 232.55 349.58 248.84 381.55 250.20
  A 0.60 0.59 75.2 0 0 382.08 249.29
  C 364.99 222.12 335.55 204.30 303.19 203.65
  Q 301.96 203.62 302.59 204.68
  Z
  M 127.83 203.74
  C 96.67 203.74 65.05 222.69 49.08 249.23
  Q 48.75 249.79 49.39 249.88
  Q 51.96 250.25 54.59 249.96
  Q 102.08 244.66 128.46 204.92
  A 0.76 0.76 0.0 0 0 127.83 203.74
  Z
  M 213.21 249.48
  C 197.41 222.77 165.65 203.60 134.37 203.82
  A 0.73 0.72 -16.2 0 0 133.76 204.93
  C 151.01 232.35 180.37 249.07 212.77 250.22
  A 0.49 0.49 0.0 0 0 213.21 249.48
  Z
  M 223.93 249.92
  C 253.91 246.82 281.72 230.90 297.36 204.79
  A 0.77 0.76 -75.4 0 0 296.68 203.63
  C 263.92 204.74 235.25 221.88 217.92 249.26
  Q 217.56 249.84 218.23 249.92
  Q 220.91 250.23 223.93 249.92
  Z
  M 461.49 203.81
  C 431.86 206.37 401.98 222.76 386.83 249.43
  Q 386.45 250.08 387.21 250.07
  C 419.52 249.51 449.13 232.06 466.27 204.83
  A 0.71 0.71 0.0 0 0 465.48 203.77
  C 464.15 204.12 462.81 203.69 461.49 203.81
  Z
  M 551.00 249.63
  C 535.31 222.59 502.94 203.53 471.56 203.75
  A 0.42 0.42 0.0 0 0 471.21 204.39
  C 488.34 232.17 518.06 249.15 550.66 250.20
  A 0.38 0.38 0.0 0 0 551.00 249.63
  Z
  M 299.35 205.80
  C 283.93 234.63 284.42 268.13 299.27 296.61
  A 0.84 0.84 0.0 0 0 300.76 296.60
  C 315.57 268.12 316.02 234.38 300.64 205.80
  A 0.73 0.73 0.0 0 0 299.35 205.80
  Z
  M 468.32 205.74
  C 453.32 234.56 453.16 267.97 468.32 296.62
  A 0.74 0.74 0.0 0 0 469.63 296.62
  C 484.39 268.18 484.92 234.74 469.73 206.20
  C 469.55 205.87 469.08 205.57 468.76 205.52
  A 0.42 0.42 0.0 0 0 468.32 205.74
  Z
  M 132.22 295.40
  C 147.15 267.18 146.23 233.68 131.63 205.74
  A 0.61 0.61 0.0 0 0 130.55 205.73
  C 115.16 234.18 115.37 268.31 130.52 296.76
  A 0.48 0.48 0.0 0 0 130.99 297.02
  Q 131.88 296.93 131.99 296.09
  Q 132.04 295.72 132.22 295.40
  Z
  M 292.06 286.07
  Q 291.35 283.02 290.59 280.64
  C 283.69 258.99 284.64 236.70 292.64 215.50
  Q 292.92 214.77 292.42 215.37
  Q 268.33 244.73 230.71 251.10
  A 0.30 0.30 0.0 0 0 230.74 251.69
  Q 233.56 251.87 236.48 252.53
  Q 269.88 260.08 291.69 286.25
  Q 292.26 286.94 292.06 286.07
  Z
  M 476.32 215.83
  C 485.13 239.24 485.14 263.86 476.23 286.83
  A 0.18 0.18 0.0 0 0 476.53 287.01
  Q 498.96 259.78 533.48 252.24
  C 534.58 252.00 536.47 252.24 537.64 251.60
  Q 538.39 251.19 537.55 251.04
  Q 500.54 244.42 476.61 215.65
  Q 475.96 214.86 476.32 215.83
  Z
  M 138.90 215.59
  A 0.10 0.10 0.0 0 0 138.73 215.69
  C 147.28 238.35 147.63 263.19 138.94 286.04
  A 0.27 0.26 75.6 0 0 139.39 286.31
  Q 162.12 259.14 196.97 251.98
  Q 197.48 251.88 197.98 251.97
  Q 198.94 252.14 199.90 251.82
  Q 201.39 251.33 199.85 251.05
  Q 162.72 244.45 138.90 215.59
  Z
  M 368.67 251.04
  Q 331.58 244.44 307.71 215.56
  A 0.18 0.17 15.4 0 0 307.41 215.73
  Q 320.81 251.53 307.24 287.26
  A 0.10 0.10 0.0 0 0 307.41 287.36
  Q 329.86 259.73 364.80 252.21
  C 366.04 251.94 367.42 252.14 368.69 251.85
  A 0.41 0.41 0.0 0 0 368.67 251.04
  Z
  M 399.80 251.56
  C 423.68 255.01 445.25 267.85 460.57 286.24
  A 0.22 0.22 0.0 0 0 460.94 286.03
  Q 448.34 251.04 461.06 216.16
  A 0.17 0.17 0.0 0 0 460.77 215.99
  Q 436.85 244.71 399.79 251.07
  A 0.25 0.25 0.0 0 0 399.80 251.56
  Z
  M 122.11 217.42
  C 106.80 235.70 85.47 247.13 61.86 251.45
  A 0.18 0.18 0.0 0 0 61.88 251.81
  C 83.44 253.48 105.51 267.16 119.77 282.73
  C 120.53 283.57 123.53 287.34 123.74 287.27
  Q 124.15 287.14 123.94 286.77
  Q 122.74 284.61 121.99 282.24
  Q 111.78 250.20 122.83 217.83
  Q 123.57 215.67 122.11 217.42
  Z
  M 129.00 298.40
  C 111.88 271.07 82.45 252.95 49.68 252.39
  A 0.53 0.53 0.0 0 0 49.22 253.20
  C 66.08 280.20 94.90 297.29 126.77 298.72
  Q 127.30 298.75 127.78 298.99
  Q 128.26 299.24 128.70 299.13
  Q 129.36 298.97 129.00 298.40
  Z
  M 297.82 298.31
  C 280.57 270.88 250.94 252.76 218.03 252.36
  A 0.34 0.34 0.0 0 0 217.74 252.88
  C 234.92 281.00 264.62 297.73 297.41 299.04
  A 0.48 0.47 74.6 0 0 297.82 298.31
  Z
  M 386.72 252.92
  C 403.37 280.99 433.64 297.55 465.97 299.01
  Q 466.95 299.05 466.45 298.21
  C 449.95 270.10 419.25 253.54 387.12 252.26
  A 0.44 0.44 0.0 0 0 386.72 252.92
  Z
  M 471.37 297.81
  Q 470.96 298.00 471.00 298.49
  Q 471.03 298.98 471.52 298.97
  C 504.38 297.99 533.59 280.87 551.04 253.13
  A 0.64 0.63 14.3 0 0 550.46 252.16
  Q 501.26 255.10 473.13 294.90
  Q 472.69 295.52 471.88 297.29
  Q 471.72 297.64 471.37 297.81
  Z
  M 207.18 252.65
  C 177.51 255.52 148.36 272.01 133.46 298.44
  A 0.37 0.37 0.0 0 0 133.81 298.99
  Q 185.04 295.80 213.01 253.49
  A 0.61 0.61 0.0 0 0 212.54 252.54
  Q 210.06 252.37 207.18 252.65
  Z
  M 302.73 298.98
  C 335.31 297.88 364.52 281.18 382.02 253.23
  Q 382.46 252.53 381.64 252.52
  C 349.24 251.94 319.20 271.77 302.23 298.10
  A 0.57 0.57 0.0 0 0 302.73 298.98
  Z
  M 46.03 254.17
  C 31.05 284.01 30.66 316.88 46.34 346.13
  A 0.36 0.36 0.0 0 0 46.98 346.13
  C 62.34 317.66 62.91 282.57 47.01 254.15
  A 0.55 0.55 0.0 0 0 46.03 254.17
  Z
  M 552.43 254.64
  C 537.88 283.63 537.01 317.73 553.13 346.07
  A 0.41 0.41 0.0 0 0 553.85 346.05
  Q 576.79 300.47 554.21 254.64
  Q 553.33 252.85 552.43 254.64
  Z
  M 214.76 254.89
  C 199.35 284.01 200.06 317.39 215.20 346.15
  A 0.34 0.34 0.0 0 0 215.79 346.16
  C 231.80 317.49 231.08 283.07 216.37 254.89
  Q 215.57 253.36 214.76 254.89
  Z
  M 383.83 254.48
  C 368.36 283.71 368.83 316.96 383.93 345.92
  A 0.52 0.52 0.0 0 0 384.85 345.93
  C 400.15 317.55 400.44 282.91 385.04 254.47
  A 0.69 0.68 -45.4 0 0 383.83 254.48
  Z
  M 452.94 299.71
  Q 415.22 292.92 391.70 263.67
  Q 391.59 263.53 391.56 263.56
  Q 391.47 263.66 391.37 263.75
  Q 391.32 263.81 391.35 263.87
  Q 392.36 265.71 393.03 267.70
  Q 404.42 301.53 392.08 334.95
  A 0.32 0.32 0.0 0 0 392.65 335.24
  Q 394.47 332.40 396.75 330.01
  C 412.21 313.85 431.03 304.31 452.94 300.03
  A 0.16 0.16 0.0 0 0 452.94 299.71
  Z
  M 315.70 300.48
  C 336.75 302.03 364.38 318.54 376.48 335.80
  A 0.28 0.28 0.0 0 0 376.97 335.55
  Q 363.77 299.88 377.04 264.30
  A 0.12 0.11 76.3 0 0 376.85 264.18
  Q 352.97 293.33 315.46 299.77
  Q 315.16 299.82 315.28 300.16
  Q 315.38 300.46 315.70 300.48
  Z
  M 544.69 334.31
  Q 544.71 334.69 545.04 334.77
  Q 545.63 334.92 545.42 334.34
  Q 532.83 299.31 545.88 264.57
  A 0.20 0.20 0.0 0 0 545.53 264.37
  Q 521.74 293.24 484.75 299.70
  A 0.20 0.20 0.0 0 0 484.75 300.10
  Q 520.86 306.41 544.69 334.31
  Z
  M 283.59 299.30
  Q 246.95 293.11 223.64 264.68
  A 0.26 0.26 0.0 0 0 223.20 264.94
  C 232.01 288.96 231.18 311.02 223.22 334.96
  Q 222.79 336.27 223.67 335.21
  Q 247.49 306.65 284.28 300.27
  A 0.37 0.37 0.0 0 0 284.42 299.59
  Q 284.08 299.38 283.59 299.30
  Z
  M 115.05 299.89
  Q 78.61 293.35 54.83 265.12
  A 0.24 0.24 0.0 0 0 54.42 265.35
  Q 67.21 300.35 54.22 335.26
  A 0.24 0.23 75.5 0 0 54.62 335.50
  Q 78.27 306.82 115.05 300.35
  A 0.23 0.23 0.0 0 0 115.05 299.89
  Z
  M 204.57 268.63
  Q 181.40 293.48 147.28 299.96
  Q 146.20 300.17 147.29 300.36
  Q 183.96 306.88 207.61 335.43
  A 0.23 0.23 0.0 0 0 208.01 335.20
  Q 195.03 300.26 207.86 265.22
  Q 208.22 264.24 207.46 264.95
  C 206.36 265.96 205.25 267.90 204.57 268.63
  Z
  M 128.31 302.31
  Q 128.85 302.23 129.04 301.55
  A 0.48 0.47 6.6 0 0 128.56 300.95
  C 95.74 302.32 66.28 318.82 48.92 347.01
  A 0.45 0.45 0.0 0 0 49.32 347.69
  C 81.39 346.63 111.71 329.99 128.31 302.31
  Z
  M 133.46 301.64
  C 150.09 329.78 180.40 346.44 212.79 347.68
  A 0.58 0.58 0.0 0 0 213.30 346.78
  C 195.21 318.69 167.30 302.59 133.85 301.00
  A 0.43 0.43 0.0 0 0 133.46 301.64
  Z
  M 297.41 300.99
  C 264.82 302.42 234.53 318.87 217.66 347.29
  A 0.27 0.27 0.0 0 0 217.90 347.70
  C 250.84 346.91 280.43 329.55 297.83 301.70
  A 0.47 0.47 0.0 0 0 297.41 300.99
  Z
  M 302.25 301.66
  C 319.08 329.56 349.05 346.49 381.38 347.65
  A 0.67 0.66 -15.0 0 0 381.97 346.64
  C 364.74 318.79 335.20 302.27 302.65 300.98
  A 0.45 0.45 0.0 0 0 302.25 301.66
  Z
  M 466.25 301.21
  C 433.46 302.55 404.01 318.99 386.72 347.16
  A 0.37 0.37 0.0 0 0 387.05 347.72
  C 419.53 346.50 449.63 329.88 466.56 301.73
  A 0.34 0.34 0.0 0 0 466.25 301.21
  Z
  M 471.14 301.75
  C 487.30 328.97 518.98 347.35 550.46 347.52
  A 0.48 0.48 0.0 0 0 550.87 346.78
  C 533.04 319.19 504.85 302.33 471.50 301.14
  Q 470.76 301.12 471.14 301.75
  Z
  M 299.78 302.76
  A 0.15 0.15 0.0 0 0 299.57 302.82
  C 284.37 331.40 283.89 365.49 299.41 394.29
  A 0.77 0.77 0.0 0 0 300.78 394.27
  Q 323.29 349.12 301.09 303.84
  Q 300.83 303.32 300.32 303.04
  L 299.78 302.76
  Z
  M 130.60 303.25
  C 114.78 331.66 115.76 365.76 130.37 394.13
  A 0.74 0.74 0.0 0 0 131.68 394.13
  C 146.66 365.61 146.86 332.00 131.63 303.26
  A 0.59 0.58 -44.3 0 0 130.60 303.25
  Z
  M 468.19 303.69
  Q 445.55 348.93 468.31 394.27
  A 0.64 0.64 0.0 0 0 469.45 394.29
  C 484.86 365.71 484.60 331.75 469.48 303.19
  A 0.67 0.66 56.5 0 0 468.48 302.98
  Q 468.15 303.24 468.19 303.69
  Z
  M 231.36 348.94
  C 255.95 353.74 275.96 364.79 292.01 384.06
  A 0.22 0.22 0.0 0 0 292.38 383.85
  Q 279.33 348.34 292.69 312.95
  Q 292.90 312.41 292.47 312.81
  C 291.47 313.75 290.49 315.26 289.87 315.95
  Q 266.22 342.56 231.37 348.41
  A 0.27 0.27 0.0 0 0 231.36 348.94
  Z
  M 308.01 313.07
  Q 308.00 312.74 307.66 312.59
  Q 307.02 312.31 307.18 312.99
  C 307.52 314.33 308.37 315.66 308.73 316.76
  Q 320.04 350.81 307.39 384.35
  A 0.17 0.16 75.6 0 0 307.67 384.52
  C 323.75 364.84 344.13 353.63 368.95 348.96
  Q 370.19 348.73 368.95 348.51
  Q 332.13 342.19 308.27 313.74
  Q 308.03 313.45 308.01 313.07
  Z
  M 62.75 348.96
  C 87.60 353.64 107.61 365.43 123.46 384.67
  Q 124.09 385.44 123.74 384.51
  Q 110.91 350.36 122.79 315.77
  Q 123.25 314.44 123.97 313.23
  Q 124.10 313.01 123.93 312.83
  Q 123.78 312.68 123.63 312.86
  Q 99.52 342.23 62.76 348.30
  Q 60.90 348.61 62.75 348.96
  Z
  M 476.89 383.92
  C 493.36 364.86 512.69 353.17 537.73 348.75
  Q 538.46 348.62 537.73 348.49
  Q 500.34 342.00 476.86 313.25
  Q 475.82 311.97 476.39 313.51
  Q 489.48 348.56 476.51 383.69
  Q 476.07 384.87 476.89 383.92
  Z
  M 399.72 348.84
  C 424.54 354.01 444.15 364.04 460.56 383.80
  A 0.23 0.23 0.0 0 0 460.95 383.58
  Q 448.39 348.80 460.96 314.00
  A 0.25 0.25 0.0 0 0 460.54 313.76
  Q 436.64 342.30 399.72 348.56
  Q 398.99 348.69 399.72 348.84
  Z
  M 200.49 348.60
  Q 163.46 342.36 139.45 313.79
  A 0.23 0.23 0.0 0 0 139.06 314.01
  Q 151.57 348.73 139.07 383.52
  A 0.23 0.23 0.0 0 0 139.47 383.75
  Q 163.48 355.12 200.49 348.87
  A 0.14 0.14 0.0 0 0 200.49 348.60
  Z
  M 49.11 350.72
  C 65.03 377.53 94.25 393.98 124.77 396.25
  Q 126.49 396.38 128.32 396.19
  Q 128.94 396.13 128.63 395.58
  C 113.78 369.08 84.03 353.03 54.51 349.97
  Q 52.48 349.76 49.41 350.11
  Q 48.79 350.19 49.11 350.72
  Z
  M 212.74 350.00
  C 182.12 349.28 149.26 369.08 133.84 395.18
  A 0.80 0.79 14.2 0 0 134.56 396.38
  C 166.79 395.09 196.14 378.33 213.16 350.77
  A 0.51 0.50 16.7 0 0 212.74 350.00
  Z
  M 218.16 351.03
  C 235.36 378.36 264.75 395.56 297.09 396.37
  A 0.52 0.51 -14.7 0 0 297.55 395.59
  C 281.20 368.20 250.57 350.57 218.74 349.99
  Q 217.49 349.97 218.16 351.03
  Z
  M 381.51 349.98
  C 350.01 349.81 318.73 368.75 302.51 395.38
  A 0.63 0.62 -74.8 0 0 303.05 396.33
  C 335.61 395.80 364.76 377.87 382.01 350.89
  A 0.59 0.59 0.0 0 0 381.51 349.98
  Z
  M 386.83 350.55
  C 403.26 378.34 433.05 394.59 465.17 396.50
  A 0.96 0.96 0.0 0 0 466.07 395.08
  C 451.40 368.58 417.28 349.86 387.18 349.95
  A 0.40 0.40 0.0 0 0 386.83 350.55
  Z
  M 550.62 351.19
  Q 551.07 351.00 551.00 350.42
  Q 550.93 349.93 550.43 349.94
  C 517.55 350.99 489.37 367.99 471.51 395.13
  A 0.76 0.76 0.0 0 0 472.16 396.31
  C 503.33 396.06 531.70 378.74 549.04 353.78
  Q 549.53 353.07 550.12 351.69
  Q 550.27 351.34 550.62 351.19
  Z
  M 45.81 352.12
  C 31.08 380.72 30.64 414.98 46.43 443.50
  A 0.32 0.32 0.0 0 0 46.99 443.51
  C 63.09 414.62 62.15 380.08 47.07 351.43
  Q 46.97 351.24 46.76 351.25
  Q 46.62 351.25 46.49 351.25
  Q 46.36 351.25 46.29 351.35
  Q 46.01 351.74 45.81 352.12
  Z
  M 215.08 351.56
  C 200.28 380.09 199.00 414.87 215.22 443.29
  A 0.41 0.40 -46.5 0 0 215.93 443.27
  C 231.07 414.59 231.35 380.15 215.78 351.56
  A 0.40 0.39 44.6 0 0 215.08 351.56
  Z
  M 384.08 351.55
  C 369.06 378.99 368.69 411.79 382.19 439.80
  Q 383.00 441.49 384.18 443.21
  Q 384.52 443.71 384.82 443.19
  C 401.03 414.75 399.71 379.71 384.84 351.55
  Q 384.47 350.84 384.08 351.55
  Z
  M 553.06 443.40
  A 0.46 0.46 0.0 0 0 553.87 443.37
  Q 576.99 397.36 553.81 351.41
  A 0.46 0.45 -44.1 0 0 553.00 351.40
  C 537.98 379.56 536.69 415.25 553.06 443.40
  Z
  M 483.79 397.61
  Q 521.54 403.94 545.65 433.28
  A 0.18 0.18 0.0 0 0 545.95 433.10
  Q 534.04 401.98 543.16 369.71
  Q 544.26 365.84 546.12 362.02
  A 0.28 0.28 0.0 0 0 545.66 361.72
  Q 521.53 391.07 483.79 397.37
  A 0.12 0.12 0.0 0 0 483.79 397.61
  Z
  M 115.72 397.31
  Q 78.55 390.91 54.59 362.02
  A 0.23 0.23 0.0 0 0 54.20 362.25
  Q 67.36 397.59 54.13 432.97
  Q 54.12 432.99 54.14 433.01
  Q 54.22 433.09 54.32 433.20
  Q 54.60 433.50 54.79 433.13
  Q 55.46 431.80 56.44 430.69
  Q 80.24 403.70 115.71 397.73
  A 0.22 0.21 -44.3 0 0 115.72 397.31
  Z
  M 147.79 397.83
  Q 184.12 404.34 207.61 432.72
  A 0.20 0.20 0.0 0 0 207.95 432.52
  Q 195.12 397.80 207.76 362.96
  Q 208.43 361.12 207.17 362.62
  Q 183.64 390.62 147.52 397.12
  A 0.33 0.33 0.0 0 0 147.25 397.51
  C 147.31 397.78 147.57 397.79 147.79 397.83
  Z
  M 315.88 397.52
  Q 353.04 404.40 376.62 432.76
  A 0.09 0.09 0.0 0 0 376.77 432.67
  Q 364.21 398.39 376.78 361.98
  A 0.10 0.10 0.0 0 0 376.60 361.88
  Q 352.87 390.72 315.88 397.21
  A 0.16 0.16 0.0 0 0 315.88 397.52
  Z
  M 223.69 431.94
  Q 223.02 432.09 223.30 432.86
  A 0.32 0.32 0.0 0 0 223.90 432.85
  Q 224.25 431.80 225.08 430.85
  Q 248.97 403.66 284.94 397.68
  A 0.17 0.17 0.0 0 0 284.94 397.35
  Q 247.53 391.06 223.52 362.00
  A 0.15 0.14 15.4 0 0 223.27 362.14
  Q 236.08 397.01 223.69 431.94
  Z
  M 452.96 397.25
  Q 416.30 390.72 392.55 362.26
  Q 391.82 361.39 392.15 362.48
  Q 393.04 365.44 393.91 368.22
  C 400.58 389.49 399.87 411.26 392.18 432.30
  A 0.23 0.23 0.0 0 0 392.58 432.53
  Q 416.26 404.04 452.96 397.66
  A 0.21 0.21 0.0 0 0 452.96 397.25
  Z
  M 297.48 398.55
  C 265.67 399.85 233.93 416.29 217.94 444.57
  A 0.34 0.34 0.0 0 0 218.24 445.08
  C 251.14 444.85 280.61 426.37 297.88 399.24
  A 0.45 0.45 0.0 0 0 297.48 398.55
  Z
  M 128.35 398.77
  C 97.22 397.88 64.70 418.20 49.02 444.49
  A 0.39 0.39 0.0 0 0 49.36 445.08
  C 81.98 444.75 111.58 426.62 128.76 399.54
  A 0.50 0.50 0.0 0 0 128.35 398.77
  Z
  M 133.71 399.67
  C 150.12 426.95 180.41 444.00 211.64 444.98
  Q 213.84 445.05 212.60 443.23
  Q 186.86 405.42 142.19 399.21
  C 139.81 398.88 136.97 399.14 134.33 398.75
  A 0.62 0.61 -11.2 0 0 133.71 399.67
  Z
  M 302.41 399.44
  C 319.31 427.50 349.33 443.83 381.70 445.22
  A 0.46 0.46 0.0 0 0 382.11 444.51
  C 364.68 417.29 335.79 399.37 302.77 398.82
  A 0.41 0.41 0.0 0 0 302.41 399.44
  Z
  M 452.99 399.92
  C 425.97 404.68 401.28 420.62 387.01 444.32
  A 0.53 0.52 -75.2 0 0 387.47 445.12
  C 419.74 444.24 449.05 427.14 466.26 399.91
  A 0.63 0.62 -73.2 0 0 465.75 398.95
  Q 459.48 398.77 452.99 399.92
  Z
  M 551.03 444.71
  C 535.37 417.55 505.62 400.82 474.76 398.71
  Q 473.00 398.59 471.65 398.84
  Q 470.94 398.98 471.33 399.60
  C 488.62 427.13 518.10 444.37 550.75 445.17
  A 0.31 0.31 0.0 0 0 551.03 444.71
  Z
  M 468.40 400.69
  Q 466.60 403.64 465.15 407.10
  Q 446.97 450.56 468.29 491.94
  A 0.58 0.58 0.0 0 0 469.31 491.95
  C 485.17 463.36 484.33 429.23 469.53 400.72
  A 0.65 0.65 0.0 0 0 468.40 400.69
  Z
  M 130.26 400.90
  C 115.60 430.17 114.98 462.65 130.58 491.79
  A 0.65 0.65 0.0 0 0 131.73 491.77
  Q 154.37 446.35 131.83 400.91
  A 0.88 0.87 45.3 0 0 130.26 400.90
  Z
  M 299.25 400.88
  C 284.68 429.09 283.66 463.45 299.43 491.66
  A 0.68 0.68 0.0 0 0 300.62 491.65
  C 316.09 463.08 315.60 429.34 300.59 400.86
  Q 300.27 400.25 299.52 400.61
  A 0.57 0.52 -87.1 0 0 299.25 400.88
  Z
  M 123.75 482.14
  A 0.07 0.07 0.0 0 0 123.87 482.07
  Q 111.13 449.12 122.12 415.05
  C 122.48 413.94 124.06 410.95 124.03 410.51
  Q 124.00 409.85 123.58 410.36
  Q 99.63 439.47 62.43 446.02
  A 0.34 0.33 -46.3 0 0 62.44 446.68
  C 86.19 449.52 108.32 463.85 123.75 482.14
  Z
  M 399.84 446.45
  Q 436.95 452.80 460.97 481.73
  Q 461.59 482.47 461.30 481.55
  Q 460.34 478.51 459.41 475.61
  C 452.62 454.45 453.50 432.14 461.21 411.35
  Q 461.36 410.95 461.75 410.77
  Q 462.24 410.55 461.89 410.00
  A 0.18 0.18 0.0 0 0 461.59 409.99
  Q 437.59 439.50 399.84 446.09
  A 0.18 0.18 0.0 0 0 399.84 446.45
  Z
  M 537.68 446.05
  Q 500.59 439.52 476.70 410.66
  Q 475.74 409.50 476.24 410.92
  C 484.79 435.02 485.37 457.74 476.26 481.83
  A 0.17 0.17 0.0 0 0 476.55 481.99
  Q 500.47 453.01 537.68 446.47
  A 0.21 0.21 0.0 0 0 537.68 446.05
  Z
  M 138.95 410.66
  A 0.10 0.10 0.0 0 0 138.78 410.76
  C 147.12 433.09 147.78 458.28 139.00 480.83
  A 0.32 0.32 0.0 0 0 139.55 481.15
  Q 161.83 454.39 196.41 447.10
  Q 197.53 446.87 199.74 447.05
  Q 200.00 447.07 200.00 446.81
  Q 200.00 446.67 200.00 446.54
  Q 199.99 446.10 199.56 446.02
  Q 162.68 439.33 138.95 410.66
  Z
  M 291.94 481.31
  Q 292.02 481.84 292.57 482.04
  A 0.30 0.29 -3.5 0 0 292.94 481.63
  C 292.71 481.19 292.13 480.63 291.96 480.18
  Q 279.58 445.27 292.59 410.73
  A 0.15 0.15 0.0 0 0 292.34 410.58
  Q 268.51 439.21 232.02 445.90
  C 231.73 445.95 231.66 445.96 231.58 446.28
  Q 231.50 446.58 231.81 446.62
  C 255.22 449.61 277.13 463.49 291.94 481.31
  Z
  M 367.71 445.85
  Q 331.20 439.03 307.72 410.57
  A 0.18 0.18 0.0 0 0 307.41 410.74
  Q 320.69 446.08 307.51 481.55
  Q 307.24 482.29 307.79 481.72
  C 308.96 480.51 310.09 478.75 310.98 477.79
  Q 331.09 455.85 360.32 448.08
  Q 364.45 446.98 367.79 446.70
  Q 368.04 446.68 368.00 446.44
  L 367.96 446.11
  A 0.31 0.31 0.0 0 0 367.71 445.85
  Z
  M 49.00 447.74
  C 65.34 476.13 96.50 492.78 128.77 494.01
  A 0.31 0.31 0.0 0 0 129.05 493.54
  C 111.93 465.46 82.14 448.38 49.27 447.29
  A 0.30 0.30 0.0 0 0 49.00 447.74
  Z
  M 386.90 448.09
  C 403.20 476.16 434.13 492.57 466.19 494.04
  A 0.47 0.47 0.0 0 0 466.62 493.33
  C 449.79 465.13 419.84 448.91 387.45 447.18
  A 0.61 0.60 76.4 0 0 386.90 448.09
  Z
  M 471.25 492.90
  Q 471.06 493.08 470.98 493.47
  A 0.42 0.42 0.0 0 0 471.40 493.97
  C 503.99 492.98 534.11 475.88 551.01 447.88
  A 0.49 0.49 0.0 0 0 550.57 447.14
  Q 502.86 449.90 474.72 487.74
  Q 473.13 489.87 471.91 492.24
  Q 471.88 492.30 471.25 492.90
  Z
  M 207.34 447.67
  C 177.62 450.50 148.50 466.85 133.53 493.31
  A 0.45 0.45 0.0 0 0 133.95 493.98
  Q 185.12 490.74 213.03 448.45
  A 0.60 0.60 0.0 0 0 212.55 447.52
  Q 210.08 447.41 207.34 447.67
  Z
  M 217.96 448.29
  C 235.27 475.93 264.77 492.99 297.37 493.99
  A 0.42 0.42 0.0 0 0 297.74 493.35
  Q 273.70 456.03 230.18 448.46
  C 226.46 447.81 222.30 447.82 218.41 447.54
  A 0.49 0.49 0.0 0 0 217.96 448.29
  Z
  M 381.46 447.51
  C 349.81 448.85 318.60 465.38 302.39 493.39
  Q 302.06 493.94 302.71 493.93
  C 335.42 493.06 364.44 475.92 382.00 448.45
  A 0.61 0.61 0.0 0 0 381.46 447.51
  Z
  M 214.86 449.65
  C 199.63 478.28 199.75 512.58 215.25 541.13
  A 0.32 0.31 -44.7 0 0 215.80 541.13
  C 231.86 512.33 231.08 477.82 216.07 449.18
  Q 215.41 447.92 215.01 449.28
  Q 214.95 449.48 214.86 449.65
  Z
  M 383.87 449.25
  C 368.81 478.15 368.28 512.38 384.19 541.09
  A 0.35 0.34 43.8 0 0 384.80 541.08
  Q 407.81 495.20 384.98 449.26
  A 0.62 0.62 0.0 0 0 383.87 449.25
  Z
  M 283.10 494.20
  Q 246.82 487.85 223.65 459.72
  A 0.26 0.26 0.0 0 0 223.20 459.98
  Q 236.11 495.28 223.03 530.52
  A 0.21 0.21 0.0 0 0 223.39 530.73
  C 238.37 511.68 260.29 499.36 284.28 495.30
  A 0.37 0.37 0.0 0 0 284.40 494.61
  Q 283.93 494.35 283.10 494.20
  Z
  M 316.20 495.15
  Q 352.83 501.71 376.54 530.21
  A 0.17 0.16 -75.6 0 0 376.82 530.04
  Q 363.95 495.02 376.82 459.93
  Q 377.25 458.77 376.41 459.68
  C 374.39 461.87 372.15 464.71 370.55 466.32
  Q 347.92 489.06 316.20 494.65
  A 0.25 0.25 0.0 0 0 316.20 495.15
  Z
  M 453.47 494.76
  Q 416.33 488.44 392.44 459.61
  A 0.16 0.16 0.0 0 0 392.16 459.77
  Q 405.18 494.87 392.24 530.01
  A 0.20 0.20 0.0 0 0 392.59 530.21
  Q 414.58 503.69 448.44 496.14
  C 449.73 495.85 451.94 495.78 453.51 495.17
  A 0.22 0.21 -51.1 0 0 453.47 494.76
  Z
  M 204.57 463.63
  C 188.56 480.81 170.10 490.16 147.23 494.87
  Q 146.00 495.12 147.24 495.34
  Q 183.97 501.84 207.61 530.43
  A 0.23 0.23 0.0 0 0 208.01 530.20
  Q 195.02 495.25 207.88 460.21
  Q 208.24 459.23 207.47 459.93
  C 206.36 460.95 205.25 462.90 204.57 463.63
  Z
  M 62.47 468.95
  C 111.67 538.42 187.84 581.31 272.06 590.24
  C 272.53 590.29 273.51 590.67 273.81 590.61
  A 0.39 0.39 0.0 0 0 273.84 589.86
  C 249.06 583.15 228.40 567.03 215.21 545.18
  Q 214.95 544.75 214.45 544.74
  C 179.61 543.98 148.77 526.28 130.85 496.51
  Q 130.59 496.08 130.10 496.07
  Q 91.08 495.00 62.94 468.54
  A 0.31 0.31 0.0 0 0 62.47 468.95
  Z
  M 537.42 469.33
  A 0.40 0.40 0.0 0 0 536.82 468.80
  Q 508.69 495.03 469.90 496.07
  Q 469.39 496.08 469.12 496.52
  C 450.79 526.63 420.80 543.61 385.66 544.84
  Q 385.15 544.86 384.86 545.28
  Q 381.65 549.99 378.21 554.50
  Q 360.30 577.98 332.60 587.96
  C 331.03 588.52 328.16 588.96 326.15 589.98
  Q 325.02 590.56 326.29 590.43
  C 411.95 581.91 486.81 538.82 537.42 469.33
  Z
  M 133.30 496.59
  C 150.25 524.67 180.25 541.50 212.80 542.69
  A 0.57 0.57 0.0 0 0 213.30 541.81
  C 195.73 514.08 166.68 497.09 133.66 495.97
  A 0.41 0.41 0.0 0 0 133.30 496.59
  Z
  M 297.27 496.05
  C 264.88 497.41 234.38 513.94 217.67 542.30
  A 0.26 0.26 0.0 0 0 217.90 542.69
  C 251.11 541.97 280.16 524.45 297.76 496.90
  A 0.55 0.55 0.0 0 0 297.27 496.05
  Z
  M 302.29 496.71
  C 319.14 524.66 349.12 541.47 381.54 542.67
  A 0.57 0.57 0.0 0 0 382.04 541.78
  Q 354.10 499.23 302.71 496.01
  A 0.46 0.46 0.0 0 0 302.29 496.71
  Z
  M 466.46 496.06
  C 434.16 497.22 403.34 513.82 386.70 542.10
  A 0.42 0.42 0.0 0 0 387.07 542.73
  C 419.85 541.67 449.47 524.52 466.79 496.64
  A 0.38 0.37 -75.0 0 0 466.46 496.06
  Z
  M 299.64 497.77
  A 0.19 0.18 -68.1 0 0 299.42 497.87
  Q 276.45 543.50 299.19 589.24
  A 0.89 0.89 0.0 0 0 300.79 589.24
  Q 323.33 544.02 301.00 498.67
  Q 300.73 498.14 300.17 497.95
  L 299.64 497.77
  Z
  M 232.97 543.16
  C 232.45 543.26 231.47 542.91 231.03 543.33
  A 0.38 0.37 27.9 0 0 231.23 543.97
  Q 264.61 549.83 287.67 574.08
  Q 289.96 576.49 291.87 579.28
  A 0.32 0.32 0.0 0 0 292.43 578.99
  Q 279.30 543.44 292.69 507.95
  Q 292.85 507.53 292.53 507.84
  Q 291.08 509.21 289.74 510.74
  Q 266.99 536.74 232.97 543.16
  Z
  M 314.30 515.45
  C 312.26 513.42 309.92 510.50 307.72 508.03
  Q 307.03 507.25 307.39 508.23
  Q 320.76 543.80 307.39 579.28
  A 0.19 0.18 -15.2 0 0 307.71 579.46
  Q 331.75 550.29 369.22 543.91
  Q 370.13 543.75 369.22 543.60
  Q 337.10 538.11 314.30 515.45
  Z
  M 217.85 545.61
  C 234.90 573.03 264.50 590.58 296.97 591.30
  A 0.62 0.62 0.0 0 0 297.51 590.35
  C 280.12 562.37 251.06 546.30 218.38 544.71
  A 0.59 0.59 0.0 0 0 217.85 545.61
  Z
  M 381.95 544.77
  C 349.20 546.13 320.25 562.16 302.69 590.02
  Q 301.92 591.25 303.37 591.25
  C 335.79 591.15 365.37 572.12 382.35 545.46
  A 0.45 0.45 0.0 0 0 381.95 544.77
  Z"
/>
</svg>
