<?xml version="1.0" encoding="UTF-8" standalone="no"?>
<!DOCTYPE svg PUBLIC "-//W3C//DTD SVG 1.1//EN" "http://www.w3.org/Graphics/SVG/1.1/DTD/svg11.dtd">
<svg xmlns="http://www.w3.org/2000/svg" version="1.1" viewBox="0.00 0.00 570.00 570.00">
<g stroke-width="2.00" fill="none" stroke-linecap="butt">
<path stroke="#808080" vector-effect="non-scaling-stroke" d="
  M 284.87 171.65
  Q 285.39 170.97 285.89 171.67
  Q 314.62 212.39 321.52 261.73
  Q 331.02 329.74 292.85 385.78
  Q 292.36 386.50 292.97 385.88
  C 341.74 336.43 355.97 268.69 331.43 203.32
  Q 316.14 162.61 286.04 130.69
  Q 285.72 130.34 285.38 130.67
  C 258.08 157.08 237.59 191.48 229.67 228.71
  C 225.33 249.07 225.42 268.34 228.11 289.30
  C 232.70 325.18 250.02 358.26 275.47 383.90
  Q 275.56 383.99 275.64 383.96
  Q 275.70 383.94 275.73 383.89
  Q 275.79 383.78 275.67 383.61
  C 230.97 320.18 238.29 231.32 284.87 171.65"
/>
<path stroke="#808080" vector-effect="non-scaling-stroke" d="
  M 379.49 173.95
  Q 385.68 191.88 386.19 210.85
  C 386.32 215.75 385.66 221.19 385.19 226.39
  Q 385.12 227.08 385.74 226.76
  Q 394.90 222.00 404.88 219.34
  Q 405.43 219.19 405.40 218.62
  Q 403.40 187.49 384.28 163.10
  Q 383.95 162.67 383.40 162.72
  Q 351.98 165.77 329.98 188.15
  Q 329.60 188.54 329.85 189.02
  Q 335.21 199.15 337.55 210.38
  Q 337.72 211.15 338.21 210.54
  Q 355.58 188.89 378.79 173.71
  A 0.47 0.47 0.0 0 1 379.49 173.95"
/>
<path stroke="#808080" vector-effect="non-scaling-stroke" d="
  M 188.88 174.94
  Q 213.45 186.67 230.11 208.19
  A 0.16 0.16 0.0 0 0 230.39 208.13
  Q 233.38 198.12 238.65 189.10
  A 0.87 0.87 0.0 0 0 238.47 188.01
  Q 215.38 167.66 184.69 163.72
  Q 184.13 163.65 183.75 164.07
  C 169.67 179.79 164.04 199.48 163.53 219.82
  Q 163.51 220.29 163.97 220.44
  Q 174.98 223.91 184.75 230.05
  A 0.35 0.34 13.3 0 0 185.28 229.73
  C 183.64 211.89 183.92 192.76 188.19 175.27
  Q 188.33 174.68 188.88 174.94"
/>
<path stroke="#808080" vector-effect="non-scaling-stroke" d="
  M 450.69 238.90
  C 437.16 316.04 383.10 381.33 303.87 395.72
  A 0.12 0.12 0.0 0 0 303.89 395.96
  C 408.05 394.93 477.73 310.12 479.58 210.24
  Q 479.59 209.76 479.11 209.77
  Q 471.64 210.03 464.19 210.40
  C 421.16 212.52 379.55 228.10 347.80 258.06
  Q 347.51 258.33 347.49 258.73
  L 346.06 286.82
  Q 346.04 287.22 346.34 286.96
  C 351.20 282.66 356.40 277.96 361.15 274.37
  Q 400.70 244.46 450.49 238.69
  A 0.19 0.18 2.3 0 1 450.69 238.90"
/>
<path stroke="#808080" vector-effect="non-scaling-stroke" d="
  M 120.78 241.33
  Q 120.61 239.99 121.94 240.22
  Q 180.07 250.62 224.00 289.76
  A 0.26 0.25 -73.5 0 0 224.42 289.53
  Q 222.54 276.68 222.15 263.77
  C 222.08 261.64 222.12 259.99 220.44 258.56
  C 186.43 229.48 141.92 213.49 97.40 211.21
  C 96.12 211.15 94.17 210.84 92.52 211.05
  Q 92.00 211.11 92.00 211.63
  C 91.51 310.23 161.23 398.16 264.51 397.54
  Q 266.07 397.53 264.54 397.26
  C 187.96 383.87 130.40 316.99 120.78 241.33"
/>
<path stroke="#808080" vector-effect="non-scaling-stroke" d="
  M 55.20 308.70
  C 72.62 302.32 89.13 300.67 107.67 302.15
  Q 108.20 302.19 107.95 301.72
  Q 103.01 292.64 100.07 282.72
  A 1.03 1.02 79.0 0 0 98.99 281.99
  Q 69.55 284.62 46.27 302.51
  Q 45.01 303.48 44.19 304.45
  Q 43.86 304.85 43.92 305.37
  Q 47.61 336.57 70.35 357.98
  Q 70.73 358.33 71.18 358.09
  Q 81.16 352.67 92.20 349.96
  A 0.47 0.47 0.0 0 0 92.37 349.13
  Q 70.44 332.32 54.96 309.44
  A 0.49 0.49 0.0 0 1 55.20 308.70"
/>
<path stroke="#808080" vector-effect="non-scaling-stroke" d="
  M 514.32 307.89
  A 0.39 0.39 0.0 0 1 514.59 308.44
  Q 502.88 333.02 481.39 349.73
  Q 480.87 350.13 481.50 350.32
  Q 491.46 353.32 500.47 358.54
  Q 500.98 358.83 501.36 358.39
  Q 521.81 335.17 525.64 304.31
  Q 525.70 303.79 525.30 303.46
  Q 501.25 283.26 469.45 283.58
  Q 468.94 283.58 468.79 284.06
  Q 465.36 294.91 459.30 304.54
  A 0.46 0.45 -76.9 0 0 459.73 305.24
  Q 487.26 302.20 514.32 307.89"
/>
<path stroke="#808080" vector-effect="non-scaling-stroke" d="
  M 494.36 387.95
  C 436.84 432.03 360.41 436.78 297.25 401.66
  Q 295.76 400.83 297.11 401.86
  C 376.88 462.69 486.78 445.34 552.99 372.82
  A 0.29 0.29 0.0 0 0 552.79 372.34
  C 536.97 371.51 517.18 369.92 503.31 363.69
  C 490.19 357.80 476.25 351.01 463.20 347.11
  Q 449.08 342.89 434.37 340.91
  Q 433.87 340.85 433.54 341.21
  L 427.20 348.04
  Q 426.72 348.56 427.39 348.79
  C 452.28 356.97 474.30 370.83 494.36 387.49
  A 0.30 0.29 46.0 0 1 494.36 387.95"
/>
<path stroke="#808080" vector-effect="non-scaling-stroke" d="
  M 75.89 388.54
  Q 105.40 362.99 142.15 349.88
  Q 142.45 349.77 142.23 349.53
  L 135.58 342.67
  Q 135.23 342.31 134.73 342.37
  C 109.81 345.37 91.85 353.64 70.42 363.14
  C 53.65 370.58 35.54 372.45 17.46 373.36
  A 0.47 0.47 0.0 0 0 17.14 374.15
  C 45.21 404.24 79.32 425.39 119.56 434.95
  C 171.69 447.33 229.97 436.43 272.86 402.93
  Q 274.28 401.82 272.70 402.70
  C 209.95 437.88 133.00 433.16 75.91 389.14
  Q 75.53 388.85 75.89 388.54"
/>
</g>
<path fill="#ffffff" d="
  M 0.00 0.00
  L 570.00 0.00
  L 570.00 570.00
  L 0.00 570.00
  L 0.00 0.00
  Z
  M 284.87 171.65
  Q 285.39 170.97 285.89 171.67
  Q 314.62 212.39 321.52 261.73
  Q 331.02 329.74 292.85 385.78
  Q 292.36 386.50 292.97 385.88
  C 341.74 336.43 355.97 268.69 331.43 203.32
  Q 316.14 162.61 286.04 130.69
  Q 285.72 130.34 285.38 130.67
  C 258.08 157.08 237.59 191.48 229.67 228.71
  C 225.33 249.07 225.42 268.34 228.11 289.30
  C 232.70 325.18 250.02 358.26 275.47 383.90
  Q 275.56 383.99 275.64 383.96
  Q 275.70 383.94 275.73 383.89
  Q 275.79 383.78 275.67 383.61
  C 230.97 320.18 238.29 231.32 284.87 171.65
  Z
  M 379.49 173.95
  Q 385.68 191.88 386.19 210.85
  C 386.32 215.75 385.66 221.19 385.19 226.39
  Q 385.12 227.08 385.74 226.76
  Q 394.90 222.00 404.88 219.34
  Q 405.43 219.19 405.40 218.62
  Q 403.40 187.49 384.28 163.10
  Q 383.95 162.67 383.40 162.72
  Q 351.98 165.77 329.98 188.15
  Q 329.60 188.54 329.85 189.02
  Q 335.21 199.15 337.55 210.38
  Q 337.72 211.15 338.21 210.54
  Q 355.58 188.89 378.79 173.71
  A 0.47 0.47 0.0 0 1 379.49 173.95
  Z
  M 188.88 174.94
  Q 213.45 186.67 230.11 208.19
  A 0.16 0.16 0.0 0 0 230.39 208.13
  Q 233.38 198.12 238.65 189.10
  A 0.87 0.87 0.0 0 0 238.47 188.01
  Q 215.38 167.66 184.69 163.72
  Q 184.13 163.65 183.75 164.07
  C 169.67 179.79 164.04 199.48 163.53 219.82
  Q 163.51 220.29 163.97 220.44
  Q 174.98 223.91 184.75 230.05
  A 0.35 0.34 13.3 0 0 185.28 229.73
  C 183.64 211.89 183.92 192.76 188.19 175.27
  Q 188.33 174.68 188.88 174.94
  Z
  M 450.69 238.90
  C 437.16 316.04 383.10 381.33 303.87 395.72
  A 0.12 0.12 0.0 0 0 303.89 395.96
  C 408.05 394.93 477.73 310.12 479.58 210.24
  Q 479.59 209.76 479.11 209.77
  Q 471.64 210.03 464.19 210.40
  C 421.16 212.52 379.55 228.10 347.80 258.06
  Q 347.51 258.33 347.49 258.73
  L 346.06 286.82
  Q 346.04 287.22 346.34 286.96
  C 351.20 282.66 356.40 277.96 361.15 274.37
  Q 400.70 244.46 450.49 238.69
  A 0.19 0.18 2.3 0 1 450.69 238.90
  Z
  M 120.78 241.33
  Q 120.61 239.99 121.94 240.22
  Q 180.07 250.62 224.00 289.76
  A 0.26 0.25 -73.5 0 0 224.42 289.53
  Q 222.54 276.68 222.15 263.77
  C 222.08 261.64 222.12 259.99 220.44 258.56
  C 186.43 229.48 141.92 213.49 97.40 211.21
  C 96.12 211.15 94.17 210.84 92.52 211.05
  Q 92.00 211.11 92.00 211.63
  C 91.51 310.23 161.23 398.16 264.51 397.54
  Q 266.07 397.53 264.54 397.26
  C 187.96 383.87 130.40 316.99 120.78 241.33
  Z
  M 55.20 308.70
  C 72.62 302.32 89.13 300.67 107.67 302.15
  Q 108.20 302.19 107.95 301.72
  Q 103.01 292.64 100.07 282.72
  A 1.03 1.02 79.0 0 0 98.99 281.99
  Q 69.55 284.62 46.27 302.51
  Q 45.01 303.48 44.19 304.45
  Q 43.86 304.85 43.92 305.37
  Q 47.61 336.57 70.35 357.98
  Q 70.73 358.33 71.18 358.09
  Q 81.16 352.67 92.20 349.96
  A 0.47 0.47 0.0 0 0 92.37 349.13
  Q 70.44 332.32 54.96 309.44
  A 0.49 0.49 0.0 0 1 55.20 308.70
  Z
  M 514.32 307.89
  A 0.39 0.39 0.0 0 1 514.59 308.44
  Q 502.88 333.02 481.39 349.73
  Q 480.87 350.13 481.50 350.32
  Q 491.46 353.32 500.47 358.54
  Q 500.98 358.83 501.36 358.39
  Q 521.81 335.17 525.64 304.31
  Q 525.70 303.79 525.30 303.46
  Q 501.25 283.26 469.45 283.58
  Q 468.94 283.58 468.79 284.06
  Q 465.36 294.91 459.30 304.54
  A 0.46 0.45 -76.9 0 0 459.73 305.24
  Q 487.26 302.20 514.32 307.89
  Z
  M 494.36 387.95
  C 436.84 432.03 360.41 436.78 297.25 401.66
  Q 295.76 400.83 297.11 401.86
  C 376.88 462.69 486.78 445.34 552.99 372.82
  A 0.29 0.29 0.0 0 0 552.79 372.34
  C 536.97 371.51 517.18 369.92 503.31 363.69
  C 490.19 357.80 476.25 351.01 463.20 347.11
  Q 449.08 342.89 434.37 340.91
  Q 433.87 340.85 433.54 341.21
  L 427.20 348.04
  Q 426.72 348.56 427.39 348.79
  C 452.28 356.97 474.30 370.83 494.36 387.49
  A 0.30 0.29 46.0 0 1 494.36 387.95
  Z
  M 75.89 388.54
  Q 105.40 362.99 142.15 349.88
  Q 142.45 349.77 142.23 349.53
  L 135.58 342.67
  Q 135.23 342.31 134.73 342.37
  C 109.81 345.37 91.85 353.64 70.42 363.14
  C 53.65 370.58 35.54 372.45 17.46 373.36
  A 0.47 0.47 0.0 0 0 17.14 374.15
  C 45.21 404.24 79.32 425.39 119.56 434.95
  C 171.69 447.33 229.97 436.43 272.86 402.93
  Q 274.28 401.82 272.70 402.70
  C 209.95 437.88 133.00 433.16 75.91 389.14
  Q 75.53 388.85 75.89 388.54
  Z"
/>
<path fill="#000000" d="
  M 284.87 171.65
  C 238.29 231.32 230.97 320.18 275.67 383.61
  Q 275.79 383.78 275.73 383.89
  Q 275.70 383.94 275.64 383.96
  Q 275.56 383.99 275.47 383.90
  C 250.02 358.26 232.70 325.18 228.11 289.30
  C 225.42 268.34 225.33 249.07 229.67 228.71
  C 237.59 191.48 258.08 157.08 285.38 130.67
  Q 285.72 130.34 286.04 130.69
  Q 316.14 162.61 331.43 203.32
  C 355.97 268.69 341.74 336.43 292.97 385.88
  Q 292.36 386.50 292.85 385.78
  Q 331.02 329.74 321.52 261.73
  Q 314.62 212.39 285.89 171.67
  Q 285.39 170.97 284.87 171.65
  Z"
/>
<path fill="#000000" d="
  M 379.49 173.95
  A 0.47 0.47 0.0 0 0 378.79 173.71
  Q 355.58 188.89 338.21 210.54
  Q 337.72 211.15 337.55 210.38
  Q 335.21 199.15 329.85 189.02
  Q 329.60 188.54 329.98 188.15
  Q 351.98 165.77 383.40 162.72
  Q 383.95 162.67 384.28 163.10
  Q 403.40 187.49 405.40 218.62
  Q 405.43 219.19 404.88 219.34
  Q 394.90 222.00 385.74 226.76
  Q 385.12 227.08 385.19 226.39
  C 385.66 221.19 386.32 215.75 386.19 210.85
  Q 385.68 191.88 379.49 173.95
  Z"
/>
<path fill="#000000" d="
  M 188.19 175.27
  C 183.92 192.76 183.64 211.89 185.28 229.73
  A 0.35 0.34 13.3 0 1 184.75 230.05
  Q 174.98 223.91 163.97 220.44
  Q 163.51 220.29 163.53 219.82
  C 164.04 199.48 169.67 179.79 183.75 164.07
  Q 184.13 163.65 184.69 163.72
  Q 215.38 167.66 238.47 188.01
  A 0.87 0.87 0.0 0 1 238.65 189.10
  Q 233.38 198.12 230.39 208.13
  A 0.16 0.16 0.0 0 1 230.11 208.19
  Q 213.45 186.67 188.88 174.94
  Q 188.33 174.68 188.19 175.27
  Z"
/>
<path fill="#000000" d="
  M 450.69 238.90
  A 0.19 0.18 2.3 0 0 450.49 238.69
  Q 400.70 244.46 361.15 274.37
  C 356.40 277.96 351.20 282.66 346.34 286.96
  Q 346.04 287.22 346.06 286.82
  L 347.49 258.73
  Q 347.51 258.33 347.80 258.06
  C 379.55 228.10 421.16 212.52 464.19 210.40
  Q 471.64 210.03 479.11 209.77
  Q 479.59 209.76 479.58 210.24
  C 477.73 310.12 408.05 394.93 303.89 395.96
  A 0.12 0.12 0.0 0 1 303.87 395.72
  C 383.10 381.33 437.16 316.04 450.69 238.90
  Z"
/>
<path fill="#000000" d="
  M 120.78 241.33
  C 130.40 316.99 187.96 383.87 264.54 397.26
  Q 266.07 397.53 264.51 397.54
  C 161.23 398.16 91.51 310.23 92.00 211.63
  Q 92.00 211.11 92.52 211.05
  C 94.17 210.84 96.12 211.15 97.40 211.21
  C 141.92 213.49 186.43 229.48 220.44 258.56
  C 222.12 259.99 222.08 261.64 222.15 263.77
  Q 222.54 276.68 224.42 289.53
  A 0.26 0.25 -73.5 0 1 224.00 289.76
  Q 180.07 250.62 121.94 240.22
  Q 120.61 239.99 120.78 241.33
  Z"
/>
<path fill="#000000" d="
  M 107.67 302.15
  C 89.13 300.67 72.62 302.32 55.20 308.70
  A 0.49 0.49 0.0 0 0 54.96 309.44
  Q 70.44 332.32 92.37 349.13
  A 0.47 0.47 0.0 0 1 92.20 349.96
  Q 81.16 352.67 71.18 358.09
  Q 70.73 358.33 70.35 357.98
  Q 47.61 336.57 43.92 305.37
  Q 43.86 304.85 44.19 304.45
  Q 45.01 303.48 46.27 302.51
  Q 69.55 284.62 98.99 281.99
  A 1.03 1.02 79.0 0 1 100.07 282.72
  Q 103.01 292.64 107.95 301.72
  Q 108.20 302.19 107.67 302.15
  Z"
/>
<path fill="#000000" d="
  M 514.32 307.89
  Q 487.26 302.20 459.73 305.24
  A 0.46 0.45 -76.9 0 1 459.30 304.54
  Q 465.36 294.91 468.79 284.06
  Q 468.94 283.58 469.45 283.58
  Q 501.25 283.26 525.30 303.46
  Q 525.70 303.79 525.64 304.31
  Q 521.81 335.17 501.36 358.39
  Q 500.98 358.83 500.47 358.54
  Q 491.46 353.32 481.50 350.32
  Q 480.87 350.13 481.39 349.73
  Q 502.88 333.02 514.59 308.44
  A 0.39 0.39 0.0 0 0 514.32 307.89
  Z"
/>
<path fill="#000000" d="
  M 494.36 387.95
  A 0.30 0.29 46.0 0 0 494.36 387.49
  C 474.30 370.83 452.28 356.97 427.39 348.79
  Q 426.72 348.56 427.20 348.04
  L 433.54 341.21
  Q 433.87 340.85 434.37 340.91
  Q 449.08 342.89 463.20 347.11
  C 476.25 351.01 490.19 357.80 503.31 363.69
  C 517.18 369.92 536.97 371.51 552.79 372.34
  A 0.29 0.29 0.0 0 1 552.99 372.82
  C 486.78 445.34 376.88 462.69 297.11 401.86
  Q 295.76 400.83 297.25 401.66
  C 360.41 436.78 436.84 432.03 494.36 387.95
  Z"
/>
<path fill="#000000" d="
  M 75.91 389.14
  C 133.00 433.16 209.95 437.88 272.70 402.70
  Q 274.28 401.82 272.86 402.93
  C 229.97 436.43 171.69 447.33 119.56 434.95
  C 79.32 425.39 45.21 404.24 17.14 374.15
  A 0.47 0.47 0.0 0 1 17.46 373.36
  C 35.54 372.45 53.65 370.58 70.42 363.14
  C 91.85 353.64 109.81 345.37 134.73 342.37
  Q 135.23 342.31 135.58 342.67
  L 142.23 349.53
  Q 142.45 349.77 142.15 349.88
  Q 105.40 362.99 75.89 388.54
  Q 75.53 388.85 75.91 389.14
  Z"
/>
</svg>
