<?xml version="1.0" encoding="UTF-8" standalone="no"?>
<!DOCTYPE svg PUBLIC "-//W3C//DTD SVG 1.1//EN" "http://www.w3.org/Graphics/SVG/1.1/DTD/svg11.dtd">
<svg xmlns="http://www.w3.org/2000/svg" version="1.1" viewBox="0.00 0.00 1665.00 1199.00">
<path stroke="#939393" stroke-width="2.00" fill="none" stroke-linecap="butt" vector-effect="non-scaling-stroke" d="
  M 849.23 487.04
  L 930.24 568.01
  A 0.38 0.28 -45.5 0 0 930.70 567.94
  Q 996.53 502.04 1062.39 436.28
  Q 1072.32 426.36 1076.75 422.37
  C 1153.32 353.40 1268.41 345.99 1352.45 406.20
  C 1413.22 449.73 1447.86 519.87 1445.01 594.70
  C 1441.39 689.61 1375.77 773.54 1283.86 798.55
  C 1207.01 819.47 1125.15 798.51 1068.82 742.18
  Q 873.10 546.48 677.39 350.77
  C 618.66 292.05 543.09 255.95 459.54 250.68
  C 275.88 239.09 117.30 375.74 102.39 559.28
  C 87.77 739.19 219.54 899.31 398.68 919.78
  C 496.33 930.93 591.69 899.64 663.99 834.12
  Q 669.41 829.21 678.40 820.23
  Q 745.61 753.06 812.79 685.82
  Q 813.13 685.47 812.79 685.12
  L 731.90 604.18
  Q 731.54 603.82 731.17 604.18
  Q 663.13 672.32 594.96 740.30
  C 546.01 789.11 479.63 813.74 410.06 804.97
  C 288.83 789.69 203.64 679.09 218.61 558.61
  Q 224.90 508.03 252.10 466.33
  C 325.32 354.07 479.04 331.68 580.92 418.48
  Q 586.53 423.26 595.46 432.18
  Q 790.04 626.59 984.49 821.12
  C 1054.11 890.76 1145.94 926.94 1244.53 921.46
  C 1324.96 916.98 1399.49 883.43 1457.30 828.43
  C 1565.68 725.32 1592.03 558.86 1520.94 427.31
  C 1417.00 234.99 1160.46 189.93 997.99 337.88
  Q 992.75 342.66 983.62 351.78
  Q 916.43 418.91 849.23 486.16
  Q 848.79 486.60 849.23 487.04"
/>
<path fill="#ffffff" d="
  M 0.00 0.00
  L 1665.00 0.00
  L 1665.00 1199.00
  L 0.00 1199.00
  L 0.00 0.00
  Z
  M 849.23 487.04
  L 930.24 568.01
  A 0.38 0.28 -45.5 0 0 930.70 567.94
  Q 996.53 502.04 1062.39 436.28
  Q 1072.32 426.36 1076.75 422.37
  C 1153.32 353.40 1268.41 345.99 1352.45 406.20
  C 1413.22 449.73 1447.86 519.87 1445.01 594.70
  C 1441.39 689.61 1375.77 773.54 1283.86 798.55
  C 1207.01 819.47 1125.15 798.51 1068.82 742.18
  Q 873.10 546.48 677.39 350.77
  C 618.66 292.05 543.09 255.95 459.54 250.68
  C 275.88 239.09 117.30 375.74 102.39 559.28
  C 87.77 739.19 219.54 899.31 398.68 919.78
  C 496.33 930.93 591.69 899.64 663.99 834.12
  Q 669.41 829.21 678.40 820.23
  Q 745.61 753.06 812.79 685.82
  Q 813.13 685.47 812.79 685.12
  L 731.90 604.18
  Q 731.54 603.82 731.17 604.18
  Q 663.13 672.32 594.96 740.30
  C 546.01 789.11 479.63 813.74 410.06 804.97
  C 288.83 789.69 203.64 679.09 218.61 558.61
  Q 224.90 508.03 252.10 466.33
  C 325.32 354.07 479.04 331.68 580.92 418.48
  Q 586.53 423.26 595.46 432.18
  Q 790.04 626.59 984.49 821.12
  C 1054.11 890.76 1145.94 926.94 1244.53 921.46
  C 1324.96 916.98 1399.49 883.43 1457.30 828.43
  C 1565.68 725.32 1592.03 558.86 1520.94 427.31
  C 1417.00 234.99 1160.46 189.93 997.99 337.88
  Q 992.75 342.66 983.62 351.78
  Q 916.43 418.91 849.23 486.16
  Q 848.79 486.60 849.23 487.04
  Z"
/>
<path fill="#262626" d="
  M 930.24 568.01
  L 849.23 487.04
  Q 848.79 486.60 849.23 486.16
  Q 916.43 418.91 983.62 351.78
  Q 992.75 342.66 997.99 337.88
  C 1160.46 189.93 1417.00 234.99 1520.94 427.31
  C 1592.03 558.86 1565.68 725.32 1457.30 828.43
  C 1399.49 883.43 1324.96 916.98 1244.53 921.46
  C 1145.94 926.94 1054.11 890.76 984.49 821.12
  Q 790.04 626.59 595.46 432.18
  Q 586.53 423.26 580.92 418.48
  C 479.04 331.68 325.32 354.07 252.10 466.33
  Q 224.90 508.03 218.61 558.61
  C 203.64 679.09 288.83 789.69 410.06 804.97
  C 479.63 813.74 546.01 789.11 594.96 740.30
  Q 663.13 672.32 731.17 604.18
  Q 731.54 603.82 731.90 604.18
  L 812.79 685.12
  Q 813.13 685.47 812.79 685.82
  Q 745.61 753.06 678.40 820.23
  Q 669.41 829.21 663.99 834.12
  C 591.69 899.64 496.33 930.93 398.68 919.78
  C 219.54 899.31 87.77 739.19 102.39 559.28
  C 117.30 375.74 275.88 239.09 459.54 250.68
  C 543.09 255.95 618.66 292.05 677.39 350.77
  Q 873.10 546.48 1068.82 742.18
  C 1125.15 798.51 1207.01 819.47 1283.86 798.55
  C 1375.77 773.54 1441.39 689.61 1445.01 594.70
  C 1447.86 519.87 1413.22 449.73 1352.45 406.20
  C 1268.41 345.99 1153.32 353.40 1076.75 422.37
  Q 1072.32 426.36 1062.39 436.28
  Q 996.53 502.04 930.70 567.94
  A 0.38 0.28 -45.5 0 1 930.24 568.01
  Z"
/>
</svg>
