<?xml version="1.0" encoding="UTF-8" standalone="no"?>
<!DOCTYPE svg PUBLIC "-//W3C//DTD SVG 1.1//EN" "http://www.w3.org/Graphics/SVG/1.1/DTD/svg11.dtd">
<svg xmlns="http://www.w3.org/2000/svg" version="1.1" viewBox="0.00 0.00 926.00 1024.00">
<g stroke-width="2.00" fill="none" stroke-linecap="butt">
<path stroke="#808080" vector-effect="non-scaling-stroke" d="
  M 549.55 860.03
  C 693.35 817.41 796.08 690.05 805.76 539.43
  C 806.96 520.75 807.04 500.28 805.32 481.73
  Q 796.07 381.53 737.34 300.40
  C 724.19 282.23 707.98 265.34 691.92 249.72
  C 673.03 231.35 650.03 215.09 627.96 202.27
  C 576.32 172.31 517.63 155.78 457.49 154.50
  Q 426.44 153.83 400.50 156.76
  C 335.87 164.05 272.21 191.07 221.07 231.82
  Q 197.92 250.26 183.93 265.18
  C 113.63 340.15 80.43 435.98 86.31 538.46
  Q 90.88 618.11 129.54 688.84
  C 144.88 716.92 165.02 743.28 186.94 766.56
  C 189.19 768.95 192.23 770.32 194.63 772.91
  Q 209.70 789.12 229.85 803.91
  Q 289.27 847.52 359.48 864.58
  C 396.67 873.62 433.09 875.28 471.33 873.89
  C 476.67 873.70 482.34 872.64 487.92 872.15
  C 495.82 871.45 502.70 870.30 510.14 869.41
  C 512.90 869.09 514.65 867.77 517.68 867.81
  C 521.21 867.86 523.21 866.33 526.40 865.86
  C 530.93 865.21 534.97 863.70 539.37 862.65
  Q 546.01 861.08 549.55 860.03"
/>
<path stroke="#808080" vector-effect="non-scaling-stroke" d="
  M 559.81 243.05
  C 558.93 242.84 557.72 241.52 556.85 241.13
  C 548.01 237.17 537.99 234.51 529.82 232.11
  Q 523.23 230.17 516.51 228.70
  C 486.87 222.23 454.30 216.41 423.30 221.72
  C 410.91 223.84 397.61 225.79 386.13 228.85
  C 349.07 238.74 312.54 256.19 282.71 280.54
  Q 263.17 296.48 245.35 314.34
  C 222.60 337.13 205.29 369.14 194.21 398.88
  C 190.29 409.40 187.27 421.50 184.18 432.93
  C 177.87 456.32 176.76 481.20 176.82 505.29
  C 176.88 526.27 181.31 547.39 188.31 568.23
  Q 198.81 599.51 214.55 623.98
  C 229.17 646.71 249.78 667.18 271.27 683.20
  C 297.01 702.40 324.13 713.54 356.63 720.29
  C 367.36 722.52 379.84 723.82 390.73 723.24
  C 407.01 722.39 419.75 721.19 433.92 716.05
  Q 443.85 712.45 449.74 710.43
  C 480.64 699.85 510.49 677.96 531.59 652.33
  C 549.91 630.08 559.76 604.66 565.08 576.43
  C 571.02 544.97 560.75 514.45 544.60 488.79
  C 528.49 463.18 496.05 444.14 465.62 442.54
  C 463.96 442.45 462.25 441.45 460.36 442.04
  C 455.92 443.41 451.71 443.62 447.10 443.53
  Q 446.59 443.52 446.14 443.75
  Q 445.09 444.26 443.95 444.55
  C 428.10 448.57 410.63 456.53 398.87 467.72
  C 384.83 481.09 375.66 501.22 377.01 520.88
  C 378.60 544.02 395.15 561.64 417.48 567.28
  C 422.00 568.42 425.47 567.29 429.38 565.25
  Q 429.89 564.98 429.53 564.54
  C 419.52 552.29 421.22 534.98 431.80 524.04
  C 438.17 517.44 445.55 516.61 454.46 516.63
  C 468.94 516.67 482.53 524.61 484.62 540.08
  C 486.33 552.71 486.35 563.42 479.89 574.90
  C 464.43 602.37 429.36 613.34 399.48 609.28
  C 361.60 604.12 333.97 580.35 325.32 542.98
  C 319.30 516.99 323.10 491.48 332.79 467.05
  C 348.16 428.27 382.66 402.13 423.17 394.07
  C 435.42 391.63 450.88 392.97 462.50 393.15
  Q 473.38 393.31 480.74 394.84
  C 503.19 399.50 526.16 409.06 544.33 421.41
  C 582.75 447.52 603.36 500.15 603.89 545.49
  Q 604.26 576.41 598.05 606.56
  C 580.79 690.31 496.95 742.45 419.00 757.48
  C 411.57 758.91 402.44 759.42 395.75 759.31
  Q 375.09 758.99 354.43 758.96
  C 350.82 758.95 346.68 758.63 343.20 757.96
  C 313.55 752.24 290.92 745.72 263.65 733.50
  Q 263.18 733.29 262.79 733.63
  C 259.29 736.62 259.64 739.72 261.79 743.65
  Q 273.43 764.83 292.25 776.76
  Q 308.75 787.21 331.74 797.38
  C 362.56 811.00 396.77 818.29 430.49 817.79
  C 454.03 817.44 476.79 812.97 499.12 807.31
  C 521.61 801.60 544.06 791.17 564.29 779.96
  C 577.65 772.56 590.45 763.10 602.75 753.75
  C 616.46 743.32 627.61 731.18 639.11 718.48
  C 649.45 707.05 661.08 691.49 668.20 681.44
  C 683.01 660.53 692.73 640.23 704.69 615.50
  Q 706.60 611.56 708.14 607.46
  C 719.67 576.95 727.98 542.55 728.03 509.84
  C 728.05 496.98 728.21 484.08 726.61 471.56
  Q 723.37 446.30 717.34 421.54
  C 715.80 415.22 713.47 408.73 711.39 402.38
  C 698.47 362.92 673.86 328.84 645.26 299.13
  Q 638.45 292.05 630.58 285.58
  C 611.19 269.63 591.59 255.57 568.28 245.95
  C 567.39 245.58 566.79 245.92 565.86 245.40
  Q 563.00 243.79 559.81 243.05"
/>
</g>
<path fill="#ffffff" d="
  M 0.00 0.00
  L 926.00 0.00
  L 926.00 1024.00
  L 0.00 1024.00
  L 0.00 0.00
  Z
  M 549.55 860.03
  C 693.35 817.41 796.08 690.05 805.76 539.43
  C 806.96 520.75 807.04 500.28 805.32 481.73
  Q 796.07 381.53 737.34 300.40
  C 724.19 282.23 707.98 265.34 691.92 249.72
  C 673.03 231.35 650.03 215.09 627.96 202.27
  C 576.32 172.31 517.63 155.78 457.49 154.50
  Q 426.44 153.83 400.50 156.76
  C 335.87 164.05 272.21 191.07 221.07 231.82
  Q 197.92 250.26 183.93 265.18
  C 113.63 340.15 80.43 435.98 86.31 538.46
  Q 90.88 618.11 129.54 688.84
  C 144.88 716.92 165.02 743.28 186.94 766.56
  C 189.19 768.95 192.23 770.32 194.63 772.91
  Q 209.70 789.12 229.85 803.91
  Q 289.27 847.52 359.48 864.58
  C 396.67 873.62 433.09 875.28 471.33 873.89
  C 476.67 873.70 482.34 872.64 487.92 872.15
  C 495.82 871.45 502.70 870.30 510.14 869.41
  C 512.90 869.09 514.65 867.77 517.68 867.81
  C 521.21 867.86 523.21 866.33 526.40 865.86
  C 530.93 865.21 534.97 863.70 539.37 862.65
  Q 546.01 861.08 549.55 860.03
  Z"
/>
<path fill="#000000" d="
  M 805.76 539.43
  C 796.08 690.05 693.35 817.41 549.55 860.03
  Q 546.01 861.08 539.37 862.65
  C 534.97 863.70 530.93 865.21 526.40 865.86
  C 523.21 866.33 521.21 867.86 517.68 867.81
  C 514.65 867.77 512.90 869.09 510.14 869.41
  C 502.70 870.30 495.82 871.45 487.92 872.15
  C 482.34 872.64 476.67 873.70 471.33 873.89
  C 433.09 875.28 396.67 873.62 359.48 864.58
  Q 289.27 847.52 229.85 803.91
  Q 209.70 789.12 194.63 772.91
  C 192.23 770.32 189.19 768.95 186.94 766.56
  C 165.02 743.28 144.88 716.92 129.54 688.84
  Q 90.88 618.11 86.31 538.46
  C 80.43 435.98 113.63 340.15 183.93 265.18
  Q 197.92 250.26 221.07 231.82
  C 272.21 191.07 335.87 164.05 400.50 156.76
  Q 426.44 153.83 457.49 154.50
  C 517.63 155.78 576.32 172.31 627.96 202.27
  C 650.03 215.09 673.03 231.35 691.92 249.72
  C 707.98 265.34 724.19 282.23 737.34 300.40
  Q 796.07 381.53 805.32 481.73
  C 807.04 500.28 806.96 520.75 805.76 539.43
  Z
  M 559.81 243.05
  C 558.93 242.84 557.72 241.52 556.85 241.13
  C 548.01 237.17 537.99 234.51 529.82 232.11
  Q 523.23 230.17 516.51 228.70
  C 486.87 222.23 454.30 216.41 423.30 221.72
  C 410.91 223.84 397.61 225.79 386.13 228.85
  C 349.07 238.74 312.54 256.19 282.71 280.54
  Q 263.17 296.48 245.35 314.34
  C 222.60 337.13 205.29 369.14 194.21 398.88
  C 190.29 409.40 187.27 421.50 184.18 432.93
  C 177.87 456.32 176.76 481.20 176.82 505.29
  C 176.88 526.27 181.31 547.39 188.31 568.23
  Q 198.81 599.51 214.55 623.98
  C 229.17 646.71 249.78 667.18 271.27 683.20
  C 297.01 702.40 324.13 713.54 356.63 720.29
  C 367.36 722.52 379.84 723.82 390.73 723.24
  C 407.01 722.39 419.75 721.19 433.92 716.05
  Q 443.85 712.45 449.74 710.43
  C 480.64 699.85 510.49 677.96 531.59 652.33
  C 549.91 630.08 559.76 604.66 565.08 576.43
  C 571.02 544.97 560.75 514.45 544.60 488.79
  C 528.49 463.18 496.05 444.14 465.62 442.54
  C 463.96 442.45 462.25 441.45 460.36 442.04
  C 455.92 443.41 451.71 443.62 447.10 443.53
  Q 446.59 443.52 446.14 443.75
  Q 445.09 444.26 443.95 444.55
  C 428.10 448.57 410.63 456.53 398.87 467.72
  C 384.83 481.09 375.66 501.22 377.01 520.88
  C 378.60 544.02 395.15 561.64 417.48 567.28
  C 422.00 568.42 425.47 567.29 429.38 565.25
  Q 429.89 564.98 429.53 564.54
  C 419.52 552.29 421.22 534.98 431.80 524.04
  C 438.17 517.44 445.55 516.61 454.46 516.63
  C 468.94 516.67 482.53 524.61 484.62 540.08
  C 486.33 552.71 486.35 563.42 479.89 574.90
  C 464.43 602.37 429.36 613.34 399.48 609.28
  C 361.60 604.12 333.97 580.35 325.32 542.98
  C 319.30 516.99 323.10 491.48 332.79 467.05
  C 348.16 428.27 382.66 402.13 423.17 394.07
  C 435.42 391.63 450.88 392.97 462.50 393.15
  Q 473.38 393.31 480.74 394.84
  C 503.19 399.50 526.16 409.06 544.33 421.41
  C 582.75 447.52 603.36 500.15 603.89 545.49
  Q 604.26 576.41 598.05 606.56
  C 580.79 690.31 496.95 742.45 419.00 757.48
  C 411.57 758.91 402.44 759.42 395.75 759.31
  Q 375.09 758.99 354.43 758.96
  C 350.82 758.95 346.68 758.63 343.20 757.96
  C 313.55 752.24 290.92 745.72 263.65 733.50
  Q 263.18 733.29 262.79 733.63
  C 259.29 736.62 259.64 739.72 261.79 743.65
  Q 273.43 764.83 292.25 776.76
  Q 308.75 787.21 331.74 797.38
  C 362.56 811.00 396.77 818.29 430.49 817.79
  C 454.03 817.44 476.79 812.97 499.12 807.31
  C 521.61 801.60 544.06 791.17 564.29 779.96
  C 577.65 772.56 590.45 763.10 602.75 753.75
  C 616.46 743.32 627.61 731.18 639.11 718.48
  C 649.45 707.05 661.08 691.49 668.20 681.44
  C 683.01 660.53 692.73 640.23 704.69 615.50
  Q 706.60 611.56 708.14 607.46
  C 719.67 576.95 727.98 542.55 728.03 509.84
  C 728.05 496.98 728.21 484.08 726.61 471.56
  Q 723.37 446.30 717.34 421.54
  C 715.80 415.22 713.47 408.73 711.39 402.38
  C 698.47 362.92 673.86 328.84 645.26 299.13
  Q 638.45 292.05 630.58 285.58
  C 611.19 269.63 591.59 255.57 568.28 245.95
  C 567.39 245.58 566.79 245.92 565.86 245.40
  Q 563.00 243.79 559.81 243.05
  Z"
/>
<path fill="#ffffff" d="
  M 559.81 243.05
  Q 563.00 243.79 565.86 245.40
  C 566.79 245.92 567.39 245.58 568.28 245.95
  C 591.59 255.57 611.19 269.63 630.58 285.58
  Q 638.45 292.05 645.26 299.13
  C 673.86 328.84 698.47 362.92 711.39 402.38
  C 713.47 408.73 715.80 415.22 717.34 421.54
  Q 723.37 446.30 726.61 471.56
  C 728.21 484.08 728.05 496.98 728.03 509.84
  C 727.98 542.55 719.67 576.95 708.14 607.46
  Q 706.60 611.56 704.69 615.50
  C 692.73 640.23 683.01 660.53 668.20 681.44
  C 661.08 691.49 649.45 707.05 639.11 718.48
  C 627.61 731.18 616.46 743.32 602.75 753.75
  C 590.45 763.10 577.65 772.56 564.29 779.96
  C 544.06 791.17 521.61 801.60 499.12 807.31
  C 476.79 812.97 454.03 817.44 430.49 817.79
  C 396.77 818.29 362.56 811.00 331.74 797.38
  Q 308.75 787.21 292.25 776.76
  Q 273.43 764.83 261.79 743.65
  C 259.64 739.72 259.29 736.62 262.79 733.63
  Q 263.18 733.29 263.65 733.50
  C 290.92 745.72 313.55 752.24 343.20 757.96
  C 346.68 758.63 350.82 758.95 354.43 758.96
  Q 375.09 758.99 395.75 759.31
  C 402.44 759.42 411.57 758.91 419.00 757.48
  C 496.95 742.45 580.79 690.31 598.05 606.56
  Q 604.26 576.41 603.89 545.49
  C 603.36 500.15 582.75 447.52 544.33 421.41
  C 526.16 409.06 503.19 399.50 480.74 394.84
  Q 473.38 393.31 462.50 393.15
  C 450.88 392.97 435.42 391.63 423.17 394.07
  C 382.66 402.13 348.16 428.27 332.79 467.05
  C 323.10 491.48 319.30 516.99 325.32 542.98
  C 333.97 580.35 361.60 604.12 399.48 609.28
  C 429.36 613.34 464.43 602.37 479.89 574.90
  C 486.35 563.42 486.33 552.71 484.62 540.08
  C 482.53 524.61 468.94 516.67 454.46 516.63
  C 445.55 516.61 438.17 517.44 431.80 524.04
  C 421.22 534.98 419.52 552.29 429.53 564.54
  Q 429.89 564.98 429.38 565.25
  C 425.47 567.29 422.00 568.42 417.48 567.28
  C 395.15 561.64 378.60 544.02 377.01 520.88
  C 375.66 501.22 384.83 481.09 398.87 467.72
  C 410.63 456.53 428.10 448.57 443.95 444.55
  Q 445.09 444.26 446.14 443.75
  Q 446.59 443.52 447.10 443.53
  C 451.71 443.62 455.92 443.41 460.36 442.04
  C 462.25 441.45 463.96 442.45 465.62 442.54
  C 496.05 444.14 528.49 463.18 544.60 488.79
  C 560.75 514.45 571.02 544.97 565.08 576.43
  C 559.76 604.66 549.91 630.08 531.59 652.33
  C 510.49 677.96 480.64 699.85 449.74 710.43
  Q 443.85 712.45 433.92 716.05
  C 419.75 721.19 407.01 722.39 390.73 723.24
  C 379.84 723.82 367.36 722.52 356.63 720.29
  C 324.13 713.54 297.01 702.40 271.27 683.20
  C 249.78 667.18 229.17 646.71 214.55 623.98
  Q 198.81 599.51 188.31 568.23
  C 181.31 547.39 176.88 526.27 176.82 505.29
  C 176.76 481.20 177.87 456.32 184.18 432.93
  C 187.27 421.50 190.29 409.40 194.21 398.88
  C 205.29 369.14 222.60 337.13 245.35 314.34
  Q 263.17 296.48 282.71 280.54
  C 312.54 256.19 349.07 238.74 386.13 228.85
  C 397.61 225.79 410.91 223.84 423.30 221.72
  C 454.30 216.41 486.87 222.23 516.51 228.70
  Q 523.23 230.17 529.82 232.11
  C 537.99 234.51 548.01 237.17 556.85 241.13
  C 557.72 241.52 558.93 242.84 559.81 243.05
  Z"
/>
</svg>
