<?xml version="1.0" encoding="UTF-8" standalone="no"?>
<!DOCTYPE svg PUBLIC "-//W3C//DTD SVG 1.1//EN" "http://www.w3.org/Graphics/SVG/1.1/DTD/svg11.dtd">
<svg xmlns="http://www.w3.org/2000/svg" version="1.1" viewBox="0.00 0.00 529.00 700.00">
<g stroke-width="2.00" fill="none" stroke-linecap="butt">
<path stroke="#808080" vector-effect="non-scaling-stroke" d="
  M 236.53 20.45
  Q 237.69 20.95 237.77 19.70
  A 0.57 0.56 -11.2 0 0 236.96 19.16
  L 236.51 19.38
  A 0.59 0.59 0.0 0 0 236.53 20.45"
/>
<path stroke="#808080" vector-effect="non-scaling-stroke" d="
  M 189.62 220.24
  Q 188.79 218.55 186.91 218.24
  A 1.62 1.62 0.0 0 1 185.88 215.68
  Q 186.81 214.41 188.11 213.61
  Q 188.59 213.32 188.71 213.86
  Q 188.99 215.04 187.92 215.01
  Q 187.09 214.99 187.26 215.80
  L 187.46 216.76
  Q 187.58 217.37 188.21 217.37
  L 190.22 217.38
  Q 190.96 217.38 190.34 216.97
  Q 189.89 216.68 189.35 216.56
  Q 188.58 216.39 189.06 215.76
  L 189.97 214.57
  Q 190.24 214.22 190.01 213.84
  L 189.06 212.28
  Q 188.75 211.77 189.21 211.39
  Q 189.87 210.84 189.52 210.27
  Q 189.26 209.85 188.76 209.94
  C 187.87 210.12 185.20 210.30 185.52 208.64
  Q 185.65 207.93 186.31 208.21
  L 188.08 208.96
  Q 188.59 209.17 188.77 208.65
  C 189.11 207.64 188.05 206.87 187.43 206.23
  Q 187.03 205.81 187.21 205.26
  Q 187.67 203.91 187.06 202.63
  Q 186.83 202.15 187.02 201.64
  Q 188.88 196.54 188.80 194.74
  Q 188.37 185.41 185.15 156.41
  Q 184.53 150.72 182.89 147.25
  C 180.62 142.43 175.84 135.35 170.24 134.77
  C 156.26 133.32 151.13 142.69 149.32 155.19
  C 146.99 171.28 148.60 189.68 151.74 204.82
  C 152.53 208.61 154.82 211.06 156.84 214.28
  Q 157.09 214.67 156.79 215.02
  L 154.79 217.40
  Q 154.45 217.81 154.43 218.34
  Q 153.20 248.31 161.21 277.17
  Q 161.34 277.66 161.75 277.97
  Q 165.55 280.90 165.71 285.77
  C 166.20 301.61 167.69 316.42 171.75 331.95
  C 175.48 346.18 177.12 356.08 177.30 371.00
  C 177.37 376.67 165.31 384.66 160.84 380.57
  C 152.17 372.64 149.45 359.63 145.30 349.19
  C 144.69 347.67 136.55 331.82 135.71 332.25
  Q 135.35 332.44 135.52 332.81
  L 137.04 335.97
  Q 137.34 336.61 136.76 336.21
  C 134.87 334.92 132.33 331.52 130.42 331.27
  Q 129.76 331.19 130.07 330.60
  L 130.48 329.81
  Q 130.84 329.11 130.24 328.59
  L 129.66 328.08
  Q 129.19 327.67 128.77 328.14
  Q 126.42 330.76 128.68 333.07
  Q 129.78 334.20 128.27 333.74
  Q 127.19 333.40 126.21 332.83
  Q 125.76 332.57 125.26 332.72
  Q 123.64 333.19 121.98 332.69
  A 0.93 0.92 -53.3 0 1 121.74 331.03
  L 125.30 328.69
  Q 125.74 328.40 125.90 327.90
  Q 126.89 324.75 128.20 321.72
  C 130.66 316.03 125.53 309.95 123.58 304.81
  Q 120.01 295.43 115.20 286.63
  C 113.65 283.79 113.63 279.22 114.19 275.95
  C 114.55 273.82 115.15 263.35 112.92 261.78
  Q 112.41 261.41 112.53 262.03
  L 112.79 263.41
  Q 113.02 264.60 112.05 263.88
  Q 110.67 262.88 110.71 261.15
  Q 110.72 260.59 110.33 260.20
  L 109.43 259.30
  Q 108.93 258.80 109.58 258.54
  Q 110.74 258.06 111.82 258.96
  Q 112.21 259.28 112.50 258.88
  L 112.68 258.63
  Q 113.08 258.10 112.58 257.66
  Q 110.07 255.42 110.84 252.33
  Q 110.97 251.79 110.49 251.51
  L 109.00 250.66
  Q 108.59 250.42 109.06 250.31
  L 110.26 250.04
  Q 110.81 249.91 110.78 249.35
  Q 110.52 243.54 107.08 239.22
  C 104.59 236.11 101.31 232.64 97.47 231.78
  C 75.31 226.88 72.94 247.59 75.45 263.26
  Q 77.62 276.73 82.48 290.70
  C 83.12 292.53 84.57 293.76 86.30 294.32
  A 1.16 1.16 0.0 0 1 87.02 295.83
  C 84.59 302.21 88.26 311.92 90.92 321.45
  C 93.84 331.93 99.81 340.76 103.47 350.30
  Q 114.31 378.59 124.15 411.53
  C 126.47 419.31 124.35 424.44 124.01 431.65
  Q 122.24 469.05 126.15 506.32
  Q 128.93 532.89 138.90 557.66
  Q 146.42 576.34 161.82 590.69
  C 190.62 617.51 224.63 633.43 264.27 632.86
  C 282.52 632.60 302.46 631.90 319.77 627.81
  Q 351.54 620.30 377.91 599.00
  C 398.83 582.10 413.33 554.95 423.51 530.64
  C 425.50 525.89 427.14 519.49 429.26 513.50
  C 429.43 513.01 429.11 511.55 429.36 510.82
  Q 433.04 499.96 436.55 489.04
  C 438.24 483.78 438.67 478.06 439.78 472.50
  Q 445.43 444.05 452.74 415.97
  C 457.17 398.97 464.37 382.22 470.23 365.49
  C 472.00 360.45 475.98 354.95 476.89 350.19
  C 477.66 346.16 476.60 334.48 470.43 333.85
  C 459.46 332.75 447.01 340.13 439.42 347.42
  C 424.21 362.02 412.74 378.33 409.25 399.51
  Q 408.97 401.20 410.18 403.48
  Q 410.45 403.99 409.94 404.28
  C 405.06 407.02 402.15 416.90 401.50 422.24
  Q 400.50 430.49 400.22 451.18
  C 400.20 452.65 400.72 454.00 401.24 455.34
  Q 401.44 455.84 401.14 456.28
  Q 398.43 460.34 398.24 462.00
  Q 396.91 473.73 394.98 485.39
  C 392.34 501.38 383.36 517.86 374.24 531.09
  Q 372.95 532.96 369.41 536.63
  C 365.89 540.29 363.94 544.85 360.74 548.39
  C 354.58 555.20 349.07 563.89 340.04 567.09
  Q 336.75 568.25 335.28 569.28
  Q 334.88 569.56 334.41 569.65
  C 332.56 570.00 328.43 573.98 327.15 575.17
  Q 326.79 575.51 326.30 575.61
  C 324.21 576.07 320.34 578.27 318.72 578.26
  Q 318.20 578.25 317.77 578.53
  Q 308.67 584.38 298.03 586.25
  Q 297.58 586.33 297.16 586.15
  L 293.92 584.81
  Q 293.32 584.56 293.00 585.12
  Q 291.26 588.16 287.96 589.55
  Q 287.53 589.73 287.08 589.64
  L 284.43 589.10
  Q 283.93 589.00 283.69 589.44
  L 282.68 591.26
  Q 282.30 591.95 281.68 591.47
  L 280.69 590.71
  Q 280.36 590.46 279.99 590.65
  L 278.74 591.27
  Q 278.16 591.57 277.80 591.02
  Q 276.79 589.47 275.03 589.24
  Q 274.51 589.18 274.18 589.59
  L 272.88 591.27
  Q 272.48 591.78 272.03 591.32
  L 271.71 591.00
  Q 271.46 590.75 271.26 591.05
  C 270.34 592.43 269.30 590.97 268.50 590.48
  Q 267.96 590.15 267.65 590.71
  L 267.17 591.61
  Q 266.93 592.06 266.42 592.01
  L 265.31 591.90
  Q 264.38 591.81 264.85 591.01
  Q 265.28 590.27 265.02 589.53
  Q 264.66 588.51 264.16 589.46
  Q 263.34 591.02 261.60 591.22
  Q 261.00 591.29 261.01 591.89
  Q 261.03 592.98 260.51 594.01
  Q 259.93 595.16 259.61 593.91
  Q 259.01 591.59 256.87 592.56
  Q 256.32 592.81 256.10 592.25
  Q 255.43 590.54 253.79 589.71
  Q 253.21 589.41 252.91 590.00
  L 251.91 591.95
  Q 251.57 592.61 250.86 592.40
  Q 247.57 591.44 244.45 592.61
  Q 243.86 592.83 243.35 592.47
  L 236.01 587.33
  Q 235.57 587.03 235.09 587.26
  L 233.92 587.84
  Q 232.85 588.36 233.98 588.71
  L 235.02 589.04
  Q 235.58 589.21 235.53 589.79
  L 235.42 591.27
  Q 235.35 592.15 234.53 591.83
  L 229.77 590.02
  Q 228.60 589.57 229.81 589.25
  Q 230.84 588.97 231.37 588.08
  Q 231.66 587.58 231.14 587.34
  L 223.39 583.68
  Q 222.69 583.35 222.75 584.13
  L 222.79 584.62
  Q 222.83 585.16 223.37 585.21
  Q 224.86 585.35 225.36 586.76
  Q 225.57 587.37 226.21 587.25
  L 227.68 586.99
  Q 228.31 586.87 228.46 587.49
  L 228.71 588.57
  Q 228.98 589.70 228.02 589.03
  Q 225.30 587.13 222.04 586.48
  A 0.65 0.64 -80.2 0 1 221.53 585.75
  Q 221.74 584.17 220.92 582.93
  Q 220.61 582.45 220.09 582.70
  Q 218.54 583.46 217.60 581.12
  Q 217.09 579.86 215.78 580.23
  Q 213.66 580.82 211.50 580.30
  Q 211.07 580.20 210.65 580.33
  L 208.56 581.01
  A 0.65 0.65 0.0 0 1 207.75 580.16
  Q 208.53 578.11 206.97 577.27
  A 0.46 0.46 0.0 0 0 206.39 577.97
  C 207.10 578.84 207.41 582.23 205.73 581.64
  Q 205.32 581.50 205.54 581.12
  Q 206.44 579.55 205.48 577.98
  Q 205.19 577.51 205.47 577.03
  C 208.07 572.66 197.17 569.75 195.04 568.12
  C 193.16 566.67 188.22 563.15 189.52 560.40
  Q 189.77 559.88 189.45 559.41
  Q 188.65 558.24 187.22 558.53
  Q 186.92 558.59 186.82 558.89
  L 186.64 559.46
  Q 186.36 560.36 185.87 559.55
  L 183.28 555.21
  Q 183.02 554.77 182.59 554.49
  Q 180.83 553.32 182.31 551.76
  Q 182.63 551.42 182.19 551.26
  Q 181.67 551.07 181.39 551.55
  Q 181.16 551.94 180.80 551.67
  L 176.55 548.53
  Q 175.99 548.12 176.28 547.49
  Q 176.85 546.28 178.01 546.51
  Q 178.66 546.63 178.74 547.29
  Q 178.84 548.22 179.39 549.01
  Q 179.82 549.63 179.86 548.88
  C 180.16 543.15 176.09 538.91 174.05 533.89
  Q 171.82 528.38 169.71 522.82
  C 168.46 519.51 168.34 515.71 166.82 512.13
  Q 166.62 511.65 166.72 511.14
  Q 167.07 509.45 166.19 508.09
  Q 165.95 507.73 166.14 507.34
  L 166.94 505.72
  Q 167.20 505.20 166.86 504.74
  L 164.72 501.74
  Q 164.40 501.28 164.53 500.74
  L 166.00 494.70
  Q 166.12 494.23 165.95 493.77
  C 164.60 490.12 163.48 487.77 164.54 484.62
  Q 164.66 484.28 164.91 484.53
  L 165.18 484.80
  Q 165.58 485.20 166.11 485.01
  C 168.09 484.32 166.44 481.08 165.63 479.51
  Q 165.38 479.02 165.51 478.49
  L 167.78 469.44
  Q 167.90 468.96 168.30 468.68
  C 171.11 466.71 175.54 464.71 174.18 460.34
  Q 172.01 453.43 177.52 449.51
  Q 177.98 449.18 177.72 448.67
  L 177.34 447.94
  Q 177.08 447.45 177.45 447.04
  Q 180.24 443.91 184.06 442.31
  Q 184.61 442.08 184.71 441.49
  L 185.07 439.33
  Q 185.16 438.82 185.48 438.40
  C 188.37 434.68 192.43 431.85 194.41 428.84
  Q 194.70 428.39 195.23 428.27
  Q 197.10 427.85 197.28 425.97
  Q 197.33 425.39 197.92 425.31
  C 200.39 424.99 202.01 422.05 203.22 420.07
  Q 203.50 419.61 204.01 419.47
  Q 210.57 417.64 215.35 412.81
  Q 215.73 412.43 216.28 412.46
  C 218.08 412.56 221.03 413.11 222.13 411.29
  Q 222.44 410.78 222.91 411.16
  L 224.04 412.10
  Q 224.48 412.46 224.93 412.13
  C 227.21 410.46 230.03 410.46 231.95 409.90
  C 233.09 409.56 244.84 405.65 246.28 407.64
  Q 246.54 408.00 246.98 407.90
  Q 251.34 406.83 255.90 407.69
  Q 256.45 407.80 256.91 407.49
  L 262.46 403.84
  Q 262.83 403.60 263.17 403.87
  Q 264.78 405.17 266.48 403.70
  Q 266.85 403.37 267.27 403.63
  Q 272.07 406.62 274.59 407.14
  C 294.66 411.31 310.49 423.92 320.79 441.46
  Q 322.57 444.50 323.11 449.42
  Q 323.16 449.93 323.48 450.32
  Q 325.71 453.12 326.45 457.74
  C 328.90 472.82 326.46 485.30 318.21 498.23
  C 310.55 510.23 299.94 520.88 286.24 525.50
  C 267.82 531.71 246.90 525.29 232.39 512.88
  C 219.70 502.03 221.42 479.33 227.76 466.00
  C 232.63 455.77 248.24 448.67 259.25 449.70
  Q 272.10 450.90 278.86 462.08
  C 283.99 470.56 276.90 482.79 266.48 478.75
  C 263.54 477.61 260.02 474.98 256.59 474.25
  C 249.11 472.66 240.04 477.08 240.55 485.72
  C 241.62 503.93 260.56 508.67 275.47 505.10
  Q 275.96 504.99 276.45 505.13
  Q 279.08 505.92 280.19 505.42
  C 293.00 499.64 307.29 485.66 305.93 470.43
  C 304.52 454.71 301.70 448.80 290.29 438.13
  C 281.97 430.35 267.66 427.82 256.65 428.57
  Q 256.17 428.61 255.74 428.38
  L 255.19 428.09
  Q 254.74 427.84 254.23 427.91
  Q 247.00 428.80 239.82 430.08
  C 237.88 430.42 236.36 431.92 234.49 432.59
  C 221.67 437.21 213.55 445.08 204.75 454.91
  C 200.57 459.58 198.21 465.33 195.30 470.84
  C 189.55 481.73 191.76 500.99 194.85 512.69
  Q 195.49 515.14 197.79 514.38
  Q 198.50 514.15 198.28 513.44
  L 197.41 510.51
  Q 197.37 510.38 197.50 510.34
  Q 197.71 510.26 197.92 510.20
  Q 198.24 510.12 198.32 510.43
  L 199.51 514.83
  Q 199.64 515.28 199.17 515.31
  L 196.33 515.46
  Q 195.77 515.49 195.89 516.04
  Q 197.05 521.40 198.98 526.52
  C 200.50 530.56 203.83 533.47 206.62 536.74
  Q 206.92 537.09 207.34 537.28
  Q 207.92 537.54 208.65 538.12
  Q 215.31 543.45 226.25 551.18
  Q 226.74 551.53 227.07 551.03
  L 227.57 550.30
  Q 227.84 549.89 228.28 550.10
  L 237.57 554.39
  Q 238.02 554.60 238.28 555.02
  Q 239.12 556.38 240.88 555.37
  Q 241.42 555.06 241.69 555.61
  L 242.16 556.57
  Q 242.51 557.28 243.07 556.72
  Q 244.87 554.95 247.24 556.10
  Q 247.71 556.33 247.70 556.85
  Q 247.67 557.82 248.36 558.42
  Q 248.89 558.88 249.31 558.33
  L 251.17 555.94
  Q 251.50 555.52 252.00 555.70
  L 256.61 557.37
  Q 257.28 557.61 257.22 558.32
  Q 257.13 559.34 257.77 560.18
  Q 258.13 560.66 258.69 560.46
  Q 259.95 560.00 261.26 560.44
  Q 261.75 560.60 262.23 560.42
  Q 264.43 559.58 266.68 560.61
  Q 267.22 560.86 267.79 560.65
  Q 271.15 559.40 274.47 560.75
  Q 274.94 560.94 275.27 560.56
  Q 276.80 558.83 279.07 558.45
  Q 279.67 558.35 279.84 558.93
  Q 279.99 559.42 280.40 559.73
  Q 280.88 560.08 280.71 559.52
  L 280.20 557.85
  Q 279.92 556.94 280.84 557.18
  Q 282.97 557.74 284.31 557.33
  Q 291.55 555.11 298.87 553.09
  Q 299.39 552.95 299.78 552.57
  Q 301.46 550.92 303.36 552.50
  Q 303.77 552.84 304.29 552.72
  Q 305.80 552.35 306.58 551.03
  Q 306.83 550.61 307.30 550.72
  Q 309.39 551.22 309.44 549.11
  Q 309.46 548.44 310.08 548.71
  L 311.29 549.25
  Q 311.72 549.44 312.05 549.10
  C 314.40 546.70 316.84 546.68 319.48 545.72
  C 326.39 543.20 331.42 540.27 337.08 534.85
  Q 341.79 530.33 347.29 526.81
  C 348.49 526.05 349.67 524.81 350.31 523.78
  Q 357.34 512.38 364.42 500.98
  C 366.23 498.06 365.53 495.08 364.60 492.05
  Q 364.43 491.50 364.94 491.23
  C 367.90 489.65 364.37 488.67 365.66 487.21
  Q 365.99 486.84 366.40 487.14
  L 367.93 488.29
  Q 368.32 488.59 368.46 488.12
  Q 368.50 487.95 368.57 487.79
  Q 368.76 487.34 368.30 487.22
  L 366.92 486.85
  Q 366.23 486.67 366.28 485.95
  Q 366.69 480.64 369.14 470.43
  Q 370.27 465.69 371.72 451.25
  C 372.11 447.41 374.27 405.62 370.39 401.54
  Q 370.05 401.18 370.10 400.70
  C 371.48 387.26 367.34 372.56 364.26 359.20
  C 361.09 345.47 363.15 327.45 365.04 313.52
  C 365.54 309.79 364.43 304.83 364.61 300.84
  Q 365.08 290.67 365.05 280.50
  C 365.03 276.86 360.94 272.92 358.89 269.93
  Q 358.52 269.39 357.94 269.68
  L 355.82 270.73
  Q 355.27 271.00 355.02 270.44
  L 354.04 268.31
  Q 353.69 267.54 354.52 267.69
  C 367.60 270.00 366.30 251.44 365.30 243.83
  Q 365.21 243.12 365.82 243.49
  L 366.48 243.88
  Q 366.86 244.10 367.24 243.87
  C 368.80 242.91 367.03 241.61 366.19 241.18
  Q 365.39 240.79 366.20 240.40
  L 366.63 240.20
  Q 367.14 239.96 367.07 239.40
  Q 366.81 237.35 365.22 236.15
  Q 364.79 235.82 364.87 235.29
  C 365.43 231.54 366.67 228.07 366.13 224.24
  C 365.97 223.10 365.58 216.82 365.19 216.36
  Q 364.91 216.05 364.90 215.63
  Q 364.75 209.77 366.49 204.25
  C 367.55 200.86 367.17 197.50 368.71 194.07
  Q 368.91 193.62 368.87 193.13
  C 368.56 189.52 369.66 185.63 369.82 182.69
  C 370.14 176.86 372.15 169.08 370.91 163.53
  C 368.44 152.56 363.33 138.63 350.02 139.17
  C 339.43 139.59 333.38 155.52 331.55 163.96
  Q 328.86 176.42 328.32 189.18
  Q 328.30 189.68 327.94 190.03
  Q 327.46 190.50 327.81 191.00
  Q 328.03 191.32 328.07 191.70
  Q 329.73 206.60 326.80 221.16
  C 323.77 236.27 323.60 251.19 325.20 266.50
  C 325.42 268.58 325.16 270.73 328.13 270.62
  A 1.20 1.20 0.0 0 1 329.06 272.64
  C 326.84 275.03 325.49 277.15 324.84 280.51
  C 322.21 294.03 322.13 309.14 320.96 321.44
  C 320.31 328.22 317.32 331.70 311.23 334.27
  C 300.25 338.91 291.04 330.22 287.69 320.75
  C 285.52 314.59 286.60 305.73 286.76 298.74
  C 286.81 296.61 285.70 294.45 286.27 292.00
  Q 286.38 291.53 286.23 291.07
  C 284.97 287.30 285.20 282.84 284.02 278.59
  C 283.10 275.26 283.66 271.85 283.35 268.42
  C 283.00 264.45 280.65 260.87 280.18 256.47
  Q 280.13 256.00 280.39 255.60
  Q 281.71 253.54 280.14 251.67
  Q 279.75 251.22 279.75 251.81
  L 279.75 253.76
  Q 279.75 254.31 279.39 254.73
  Q 278.37 255.92 278.21 257.45
  A 1.83 1.83 0.0 0 1 276.05 259.06
  Q 273.59 258.60 271.41 259.64
  Q 270.93 259.87 271.00 259.34
  Q 271.01 259.20 270.95 259.09
  Q 270.87 258.94 270.92 258.77
  Q 271.30 257.67 272.09 257.03
  Q 272.61 256.60 272.07 256.20
  L 271.81 256.01
  Q 271.51 255.79 271.31 256.12
  L 269.72 258.75
  Q 269.28 259.47 268.72 258.83
  Q 266.66 256.43 263.73 255.59
  Q 263.30 255.47 263.04 255.11
  Q 261.86 253.47 262.87 251.92
  Q 263.36 251.17 263.69 252.00
  L 264.32 253.52
  Q 264.54 254.08 264.97 253.66
  L 265.51 253.12
  Q 265.94 252.69 266.39 253.09
  Q 267.88 254.41 269.83 253.92
  Q 270.42 253.77 270.46 253.17
  Q 270.53 252.21 270.07 251.49
  Q 269.79 251.05 269.79 250.52
  Q 269.79 249.63 269.33 248.90
  Q 269.10 248.54 268.72 248.33
  L 266.18 246.87
  Q 265.64 246.56 266.02 246.06
  L 266.91 244.90
  Q 267.26 244.44 267.53 244.95
  Q 268.85 247.43 271.74 247.94
  Q 272.26 248.03 272.34 247.50
  L 272.81 244.22
  Q 272.89 243.69 273.41 243.65
  C 274.12 243.58 276.88 252.26 279.17 247.47
  Q 279.29 247.21 279.57 247.25
  L 280.19 247.33
  Q 280.87 247.42 280.85 246.74
  L 280.84 245.69
  Q 280.82 245.06 280.21 244.94
  L 278.89 244.70
  Q 278.20 244.57 278.46 243.92
  C 280.82 237.98 277.66 232.68 280.46 226.18
  Q 280.67 225.69 280.36 225.26
  C 279.67 224.31 279.28 223.79 279.28 222.54
  Q 279.29 203.75 274.44 185.59
  Q 274.28 185.01 273.68 185.00
  Q 272.40 184.99 271.75 185.99
  Q 271.54 186.30 271.32 185.99
  L 270.40 184.71
  Q 269.97 184.10 269.28 184.39
  L 266.61 185.51
  A 0.99 0.99 0.0 0 1 265.24 184.50
  Q 265.65 180.23 268.55 177.18
  Q 269.08 176.62 268.93 177.38
  Q 268.19 180.93 270.12 183.93
  A 1.09 1.09 0.0 0 0 271.49 184.33
  Q 272.49 183.87 272.45 182.49
  Q 272.27 176.84 274.14 171.63
  Q 275.13 168.89 275.17 166.73
  Q 275.46 152.12 273.48 141.25
  Q 272.05 133.35 271.70 127.34
  C 271.43 122.82 270.01 119.47 268.92 115.25
  C 267.71 110.54 262.60 102.34 258.25 100.00
  C 252.79 97.07 243.82 96.50 239.44 101.95
  Q 233.72 109.07 231.45 117.73
  Q 230.21 122.49 230.43 130.83
  C 230.71 141.63 230.69 152.61 232.07 163.27
  Q 232.91 169.77 233.89 176.26
  C 234.74 181.87 238.37 183.67 236.20 190.13
  Q 235.05 193.57 235.02 197.49
  Q 234.79 224.18 238.25 249.69
  Q 239.09 255.87 238.82 260.37
  C 238.40 267.71 236.85 274.65 237.35 281.94
  C 238.42 297.70 239.02 313.49 240.53 329.10
  C 241.22 336.12 237.86 342.05 231.82 345.51
  C 223.75 350.12 216.75 339.21 214.80 333.02
  C 209.98 317.78 205.56 304.71 203.49 290.76
  Q 202.99 287.41 198.68 278.80
  Q 198.42 278.29 197.86 278.43
  L 195.92 278.95
  Q 195.30 279.12 195.23 278.47
  Q 194.95 275.86 192.71 274.49
  Q 192.24 274.20 191.70 274.33
  L 186.59 275.56
  Q 186.15 275.67 185.71 275.54
  Q 184.42 275.18 183.38 276.00
  Q 182.88 276.39 183.51 276.31
  L 184.10 276.23
  Q 184.97 276.11 184.57 276.89
  L 184.13 277.78
  Q 183.83 278.38 183.28 277.99
  Q 182.76 277.62 182.76 277.06
  Q 182.75 276.31 182.05 276.61
  Q 179.91 277.54 179.65 275.12
  Q 179.55 274.17 178.86 274.82
  Q 178.03 275.57 178.43 276.79
  Q 178.60 277.30 178.20 277.67
  L 174.90 280.75
  Q 174.44 281.18 174.05 280.69
  Q 172.09 278.24 174.30 276.08
  C 175.24 275.17 176.40 275.16 177.64 274.75
  Q 178.11 274.59 178.21 274.11
  Q 178.51 272.74 177.61 271.78
  Q 177.16 271.31 177.78 271.11
  L 178.12 271.00
  Q 178.55 270.87 178.86 271.20
  Q 180.43 272.83 182.50 273.19
  Q 184.21 273.49 186.22 272.28
  C 189.90 270.07 192.40 268.82 192.16 263.87
  Q 192.11 262.97 192.79 263.56
  Q 194.00 264.63 193.73 266.23
  Q 193.55 267.27 193.98 266.23
  Q 194.51 264.94 194.80 263.56
  A 0.55 0.55 0.0 0 0 194.30 262.89
  Q 192.75 262.79 192.42 261.19
  Q 192.35 260.85 192.66 261.01
  L 196.24 262.95
  Q 196.70 263.19 196.94 263.65
  Q 197.47 264.64 198.65 264.52
  A 0.32 0.32 0.0 0 0 198.85 263.98
  L 194.81 259.86
  Q 194.33 259.36 194.89 258.95
  Q 195.90 258.20 195.72 257.14
  Q 195.65 256.72 195.29 256.51
  L 192.26 254.76
  Q 191.63 254.39 192.05 253.80
  Q 193.86 251.26 192.44 248.48
  Q 192.39 248.37 192.50 248.33
  Q 192.64 248.28 192.79 248.24
  Q 193.05 248.17 193.19 248.41
  Q 193.91 249.71 195.35 249.99
  Q 195.91 250.10 195.96 250.66
  Q 195.98 250.86 196.02 251.04
  Q 196.27 252.02 196.30 251.14
  Q 196.43 248.16 193.83 247.47
  Q 193.51 247.38 193.51 247.05
  Q 193.50 246.90 193.49 246.69
  Q 193.47 246.50 193.65 246.42
  Q 194.80 245.97 194.99 246.75
  Q 195.26 247.83 195.44 246.74
  L 195.74 244.89
  Q 195.84 244.23 195.19 244.37
  L 193.78 244.65
  Q 193.07 244.79 193.20 244.09
  L 193.47 242.65
  Q 193.63 241.77 194.41 242.20
  L 194.98 242.50
  Q 195.79 242.93 195.76 242.02
  L 195.73 240.71
  Q 195.70 239.86 194.95 240.26
  L 194.40 240.55
  Q 193.94 240.80 193.59 240.41
  Q 191.36 237.91 193.27 235.48
  Q 193.62 235.02 193.21 234.62
  Q 191.63 233.12 192.01 230.90
  Q 192.10 230.42 191.78 230.04
  L 190.34 228.37
  Q 189.61 227.51 190.71 227.73
  Q 192.25 228.04 192.30 226.33
  A 0.86 0.86 0.0 0 0 191.18 225.49
  L 190.31 225.76
  Q 189.71 225.95 189.72 225.32
  C 189.72 223.34 191.27 223.35 191.50 221.93
  Q 191.58 221.49 191.28 221.16
  Q 190.85 220.68 190.40 220.70
  Q 189.86 220.73 189.62 220.24"
/>
<path stroke="#808080" vector-effect="non-scaling-stroke" d="
  M 64.0812 143.3229
  A 0.26 0.26 0.0 0 0 63.9817 142.9690
  L 63.7027 142.8124
  A 0.26 0.26 0.0 0 0 63.3487 142.9119
  L 50.4388 165.9171
  A 0.26 0.26 0.0 0 0 50.5383 166.2710
  L 50.8173 166.4276
  A 0.26 0.26 0.0 0 0 51.1713 166.3281
  L 64.0812 143.3229"
/>
<path stroke="#808080" vector-effect="non-scaling-stroke" d="
  M 193.78 267.83
  Q 193.73 267.70 193.69 267.57
  Q 193.64 267.39 193.58 267.56
  Q 193.14 268.92 194.03 269.58
  Q 194.66 270.05 195.24 269.53
  L 197.72 267.31
  Q 197.84 267.21 197.73 267.10
  L 197.47 266.85
  Q 197.30 266.67 197.17 266.88
  Q 196.02 268.74 194.00 268.05
  Q 193.84 267.99 193.78 267.83"
/>
<path stroke="#808080" vector-effect="non-scaling-stroke" d="
  M 194.08 272.01
  L 193.52 272.66
  Q 193.00 273.26 193.79 273.25
  Q 194.10 273.25 194.45 273.25
  Q 194.90 273.25 194.77 272.82
  L 194.54 272.11
  A 0.27 0.27 0.0 0 0 194.08 272.01"
/>
<path stroke="#808080" vector-effect="non-scaling-stroke" d="
  M 175.7096 278.8900
  A 1.49 0.75 90.4 0 0 176.4700 277.4052
  A 1.49 0.75 90.4 0 0 175.7304 275.9100
  A 1.49 0.75 90.4 0 0 174.9700 277.3948
  A 1.49 0.75 90.4 0 0 175.7096 278.8900"
/>
<path stroke="#808080" vector-effect="non-scaling-stroke" d="
  M 210.9364 542.9150
  A 3.04 0.63 52.6 0 0 209.5905 540.1174
  A 3.04 0.63 52.6 0 0 207.2436 538.0850
  A 3.04 0.63 52.6 0 0 208.5895 540.8826
  A 3.04 0.63 52.6 0 0 210.9364 542.9150"
/>
<path stroke="#808080" vector-effect="non-scaling-stroke" d="
  M 252.5513 559.1217
  A 0.74 0.44 63.4 0 0 252.6134 558.2630
  A 0.74 0.44 63.4 0 0 251.8887 557.7983
  A 0.74 0.44 63.4 0 0 251.8266 558.6570
  A 0.74 0.44 63.4 0 0 252.5513 559.1217"
/>
<path stroke="#808080" vector-effect="non-scaling-stroke" d="
  M 191.06 561.96
  L 191.98 563.65
  Q 192.15 563.98 192.48 563.79
  L 193.21 563.36
  Q 193.55 563.16 193.46 562.78
  Q 193.11 561.26 191.52 561.21
  A 0.51 0.51 0.0 0 0 191.06 561.96"
/>
<path stroke="#808080" vector-effect="non-scaling-stroke" d="
  M 355.7764 193.2979
  A 0.64 0.51 -15.6 0 0 355.0229 192.9788
  A 0.64 0.51 -15.6 0 0 354.5436 193.6421
  A 0.64 0.51 -15.6 0 0 355.2971 193.9612
  A 0.64 0.51 -15.6 0 0 355.7764 193.2979"
/>
<path stroke="#808080" vector-effect="non-scaling-stroke" d="
  M 353.00 207.74
  Q 352.86 207.32 352.36 207.56
  A 0.28 0.27 68.9 0 0 352.22 207.89
  Q 353.21 210.85 356.22 209.86
  Q 356.63 209.72 356.76 210.13
  L 357.19 211.43
  Q 358.01 213.89 357.74 211.31
  Q 357.35 207.52 356.71 203.75
  Q 356.52 202.61 356.21 203.73
  Q 355.70 205.57 353.73 205.24
  Q 353.10 205.13 353.22 205.76
  Q 353.41 206.76 353.32 207.76
  Q 353.24 208.53 353.00 207.74"
/>
<path stroke="#808080" vector-effect="non-scaling-stroke" d="
  M 349.25 205.88
  Q 348.08 208.11 346.19 206.62
  Q 345.92 206.41 345.60 206.30
  Q 344.93 206.07 344.81 206.78
  Q 344.73 207.22 345.10 207.48
  C 346.06 208.16 349.41 207.31 350.69 207.20
  Q 351.57 207.13 350.92 206.53
  L 350.06 205.74
  A 0.52 0.52 0.0 0 0 349.25 205.88"
/>
<path stroke="#808080" vector-effect="non-scaling-stroke" d="
  M 342.80 209.30
  C 343.63 209.21 343.86 207.69 343.78 207.03
  Q 343.72 206.52 343.21 206.42
  L 342.01 206.19
  Q 340.77 205.95 341.76 206.87
  Q 342.51 207.56 342.24 208.66
  Q 342.06 209.38 342.80 209.30"
/>
<path stroke="#808080" vector-effect="non-scaling-stroke" d="
  M 160.29 209.63
  Q 159.87 211.21 160.04 212.86
  Q 160.10 213.50 160.74 213.50
  L 161.32 213.50
  Q 162.11 213.50 161.90 212.75
  L 161.02 209.63
  Q 160.65 208.31 160.29 209.63"
/>
<path stroke="#808080" vector-effect="non-scaling-stroke" d="
  M 185.8092 213.2881
  A 1.28 1.03 86.9 0 0 186.7685 211.9543
  A 1.28 1.03 86.9 0 0 185.6708 210.7319
  A 1.28 1.03 86.9 0 0 184.7115 212.0657
  A 1.28 1.03 86.9 0 0 185.8092 213.2881"
/>
<path stroke="#808080" vector-effect="non-scaling-stroke" d="
  M 164.95 211.52
  Q 164.12 211.50 164.70 212.08
  L 166.30 213.68
  A 0.45 0.45 0.0 0 0 167.06 213.28
  Q 166.74 211.56 164.95 211.52"
/>
<path stroke="#808080" vector-effect="non-scaling-stroke" d="
  M 172.6799 212.4962
  A 1.58 0.48 -0.5 0 0 171.0958 212.0300
  A 1.58 0.48 -0.5 0 0 169.5201 212.5238
  A 1.58 0.48 -0.5 0 0 171.1042 212.9900
  A 1.58 0.48 -0.5 0 0 172.6799 212.4962"
/>
<path stroke="#808080" vector-effect="non-scaling-stroke" d="
  M 251.18 249.80
  L 250.68 249.30
  Q 250.20 248.83 250.12 249.49
  C 249.98 250.53 252.51 250.82 253.22 251.04
  Q 254.00 251.27 254.00 250.46
  L 254.00 249.49
  Q 254.00 248.79 253.39 249.12
  L 251.91 249.91
  Q 251.50 250.13 251.18 249.80"
/>
<path stroke="#808080" vector-effect="non-scaling-stroke" d="
  M 259.46 251.53
  L 259.92 253.54
  Q 260.04 254.07 260.58 253.99
  L 261.19 253.91
  Q 263.24 253.63 261.87 252.08
  L 259.81 249.74
  Q 259.41 249.29 259.11 249.80
  L 258.65 250.57
  Q 258.59 250.66 258.65 250.76
  Q 258.76 250.95 259.00 251.02
  Q 259.37 251.14 259.46 251.53"
/>
<path stroke="#808080" vector-effect="non-scaling-stroke" d="
  M 257.31 252.53
  L 256.95 253.80
  Q 256.75 254.52 257.47 254.70
  Q 258.52 254.97 258.97 254.09
  Q 259.22 253.59 258.83 253.20
  L 257.98 252.35
  Q 257.49 251.87 257.31 252.53"
/>
<path stroke="#808080" vector-effect="non-scaling-stroke" d="
  M 176.3832 255.7441
  A 0.78 0.50 101.6 0 0 177.0298 255.0805
  A 0.78 0.50 101.6 0 0 176.6968 254.2159
  A 0.78 0.50 101.6 0 0 176.0502 254.8795
  A 0.78 0.50 101.6 0 0 176.3832 255.7441"
/>
<path stroke="#808080" vector-effect="non-scaling-stroke" d="
  M 347.99 258.71
  Q 349.21 259.14 350.43 258.74
  Q 350.74 258.64 350.75 258.31
  Q 350.75 258.11 350.75 257.89
  Q 350.73 257.37 350.22 257.50
  L 348.03 258.05
  Q 346.91 258.33 347.99 258.71"
/>
<path stroke="#808080" vector-effect="non-scaling-stroke" d="
  M 105.5924 262.5051
  A 1.29 0.53 85.0 0 0 106.0080 261.1738
  A 1.29 0.53 85.0 0 0 105.3676 259.9349
  A 1.29 0.53 85.0 0 0 104.9520 261.2662
  A 1.29 0.53 85.0 0 0 105.5924 262.5051"
/>
<path stroke="#808080" vector-effect="non-scaling-stroke" d="
  M 350.05 262.17
  Q 349.98 262.07 349.91 261.97
  Q 349.75 261.75 349.53 261.89
  Q 347.40 263.28 350.05 262.20
  Q 350.06 262.19 350.05 262.17"
/>
<path stroke="#808080" vector-effect="non-scaling-stroke" d="
  M 340.54 269.93
  Q 341.09 271.14 342.30 271.53
  Q 343.00 271.76 343.00 271.02
  L 343.00 269.79
  Q 343.00 269.07 342.29 269.21
  L 340.92 269.49
  Q 339.96 269.68 340.45 268.83
  Q 341.89 266.33 339.85 264.51
  Q 339.45 264.16 339.23 264.64
  Q 338.06 267.25 339.95 269.09
  Q 340.32 269.46 340.54 269.93"
/>
<path stroke="#808080" vector-effect="non-scaling-stroke" d="
  M 349.18 268.67
  Q 349.47 269.39 350.09 269.85
  Q 350.71 270.30 351.14 269.67
  Q 351.81 268.72 351.46 267.46
  Q 351.20 266.50 350.20 266.51
  Q 348.52 266.55 347.62 265.18
  Q 346.70 263.80 347.02 265.43
  Q 347.33 267.02 348.65 267.98
  Q 349.02 268.25 349.18 268.67"
/>
<path stroke="#808080" vector-effect="non-scaling-stroke" d="
  M 343.83 267.98
  L 343.76 266.00
  Q 343.71 264.91 342.94 265.68
  L 342.70 265.93
  Q 342.53 266.10 342.50 266.34
  Q 342.34 267.54 343.14 268.29
  A 0.41 0.41 0.0 0 0 343.83 267.98"
/>
<path stroke="#808080" vector-effect="non-scaling-stroke" d="
  M 110.40 267.23
  L 112.03 275.98
  A 0.30 0.30 0.0 0 0 112.63 275.89
  C 112.42 273.98 112.51 267.66 111.52 266.64
  A 0.66 0.66 0.0 0 0 110.40 267.23"
/>
<path stroke="#808080" vector-effect="non-scaling-stroke" d="
  M 179.69 270.81
  Q 180.58 271.85 181.73 271.95
  Q 182.15 271.99 182.35 271.61
  L 183.67 269.05
  A 0.66 0.65 -67.8 0 0 183.29 268.13
  C 180.92 267.35 181.35 269.75 179.48 270.42
  Q 179.20 270.52 179.42 270.73
  Q 179.52 270.84 179.69 270.81"
/>
<path stroke="#808080" vector-effect="non-scaling-stroke" d="
  M 170.80 283.01
  Q 171.90 281.60 172.10 279.74
  Q 172.25 278.36 171.19 279.25
  Q 169.60 280.59 169.96 282.80
  A 0.47 0.47 0.0 0 0 170.80 283.01"
/>
<path stroke="#808080" vector-effect="non-scaling-stroke" d="
  M 167.38 283.26
  Q 167.98 284.04 168.73 283.65
  Q 169.17 283.43 168.91 283.01
  Q 168.22 281.90 168.72 280.75
  Q 169.69 278.54 168.20 280.21
  Q 167.40 281.11 167.15 282.26
  Q 167.03 282.81 167.38 283.26"
/>
<path stroke="#808080" vector-effect="non-scaling-stroke" d="
  M 110.68 285.05
  Q 110.91 285.86 111.61 286.00
  Q 112.19 286.12 112.04 285.55
  L 111.17 282.13
  Q 110.98 281.36 110.36 281.85
  Q 108.59 283.24 107.40 285.16
  Q 106.74 286.22 107.86 285.68
  L 109.92 284.70
  Q 110.51 284.41 110.68 285.05"
/>
<path stroke="#808080" vector-effect="non-scaling-stroke" d="
  M 101.6106 288.1044
  A 2.46 0.62 5.0 0 0 99.2140 287.2724
  A 2.46 0.62 5.0 0 0 96.7094 287.6756
  A 2.46 0.62 5.0 0 0 99.1060 288.5076
  A 2.46 0.62 5.0 0 0 101.6106 288.1044"
/>
<path stroke="#808080" vector-effect="non-scaling-stroke" d="
  M 118.86 333.56
  Q 122.26 333.64 118.84 332.35
  Q 117.99 332.02 118.26 332.89
  L 118.35 333.17
  Q 118.46 333.55 118.86 333.56"
/>
<path stroke="#808080" vector-effect="non-scaling-stroke" d="
  M 238.99 387.83
  L 238.81 387.45
  A 0.46 0.45 22.3 0 0 237.97 387.80
  L 238.31 388.71
  Q 238.39 388.90 238.53 388.76
  L 238.89 388.41
  Q 239.14 388.15 238.99 387.83"
/>
<path stroke="#808080" vector-effect="non-scaling-stroke" d="
  M 235.1046 394.7068
  A 1.00 0.60 104.8 0 0 235.9401 393.8933
  A 1.00 0.60 104.8 0 0 235.6154 392.7732
  A 1.00 0.60 104.8 0 0 234.7799 393.5867
  A 1.00 0.60 104.8 0 0 235.1046 394.7068"
/>
<path stroke="#808080" vector-effect="non-scaling-stroke" d="
  M 242.8529 395.9489
  A 1.07 0.64 47.5 0 0 242.6019 394.7276
  A 1.07 0.64 47.5 0 0 241.4071 394.3711
  A 1.07 0.64 47.5 0 0 241.6581 395.5924
  A 1.07 0.64 47.5 0 0 242.8529 395.9489"
/>
<path stroke="#808080" vector-effect="non-scaling-stroke" d="
  M 260.55 396.97
  L 256.54 397.93
  A 0.15 0.15 0.0 0 0 256.43 398.11
  L 256.44 398.16
  A 2.08 1.30 -13.5 0 0 258.77 398.94
  L 259.02 398.88
  A 2.08 1.30 -13.5 0 0 260.74 397.13
  L 260.73 397.08
  A 0.15 0.15 0.0 0 0 260.55 396.97"
/>
<path stroke="#808080" vector-effect="non-scaling-stroke" d="
  M 222.45 402.24
  Q 221.38 403.05 222.20 403.57
  Q 222.75 403.92 222.75 403.27
  L 222.75 402.39
  Q 222.75 402.02 222.45 402.24"
/>
<path stroke="#808080" vector-effect="non-scaling-stroke" d="
  M 159.52 462.24
  Q 158.68 461.65 158.56 462.61
  Q 158.45 463.57 159.20 462.97
  L 159.54 462.70
  Q 159.84 462.46 159.52 462.24"
/>
<path stroke="#808080" vector-effect="non-scaling-stroke" d="
  M 195.75 498.04
  Q 195.81 497.47 195.70 496.92
  Q 195.22 494.31 195.24 497.00
  L 195.27 500.15
  A 0.27 0.27 0.0 0 0 195.74 500.34
  Q 196.23 499.82 195.91 499.05
  Q 195.71 498.56 195.75 498.04"
/>
<path stroke="#808080" vector-effect="non-scaling-stroke" d="
  M 195.69 503.94
  Q 195.63 504.00 195.56 504.06
  Q 193.03 506.27 195.92 504.43
  Q 196.58 504.01 196.77 503.29
  Q 196.84 503.00 196.54 503.00
  Q 196.37 503.00 196.20 503.00
  Q 196.00 503.00 196.00 503.20
  Q 196.00 503.35 196.00 503.50
  Q 196.00 503.60 195.69 503.94"
/>
<path stroke="#808080" vector-effect="non-scaling-stroke" d="
  M 167.52 529.71
  Q 166.55 527.50 164.64 526.37
  Q 164.27 526.15 164.50 526.51
  L 166.43 529.57
  Q 169.82 534.94 167.52 529.71"
/>
<path stroke="#808080" vector-effect="non-scaling-stroke" d="
  M 174.30 540.02
  C 173.64 537.23 172.75 537.40 171.10 536.00
  Q 170.74 535.70 170.29 535.81
  Q 167.82 536.39 167.98 539.00
  Q 168.01 539.53 168.37 539.92
  L 171.20 542.91
  Q 171.75 543.50 171.75 542.69
  L 171.75 541.40
  Q 171.75 540.80 172.34 540.70
  L 174.03 540.43
  Q 174.38 540.37 174.30 540.02"
/>
<path stroke="#808080" vector-effect="non-scaling-stroke" d="
  M 262.4188 559.4219
  A 1.16 0.71 18.7 0 0 261.5476 558.3775
  A 1.16 0.71 18.7 0 0 260.2212 558.6781
  A 1.16 0.71 18.7 0 0 261.0924 559.7225
  A 1.16 0.71 18.7 0 0 262.4188 559.4219"
/>
<path stroke="#808080" vector-effect="non-scaling-stroke" d="
  M 329.77 575.72
  L 328.53 575.12
  A 0.44 0.44 0.0 0 0 327.94 575.33
  L 327.89 575.43
  A 4.08 1.05 -64.2 0 0 327.06 579.56
  L 327.20 579.63
  A 4.08 1.05 -64.2 0 0 329.92 576.42
  L 329.98 576.31
  A 0.44 0.44 0.0 0 0 329.77 575.72"
/>
<path stroke="#808080" vector-effect="non-scaling-stroke" d="
  M 296.19 591.78
  L 296.44 592.90
  Q 296.64 593.80 297.06 592.97
  Q 297.61 591.88 296.71 591.38
  Q 296.01 591.00 296.19 591.78"
/>
<path stroke="#808080" vector-effect="non-scaling-stroke" d="
  M 294.77 594.00
  L 294.29 593.04
  A 0.33 0.33 0.0 0 0 293.67 593.25
  L 293.99 594.94
  Q 294.04 595.25 294.26 595.03
  L 294.67 594.62
  Q 294.95 594.35 294.77 594.00"
/>
<path stroke="#808080" vector-effect="non-scaling-stroke" d="
  M 281.63 599.28
  C 283.30 598.71 283.04 597.49 281.78 596.76
  Q 281.25 596.46 281.25 597.07
  L 281.25 599.01
  A 0.29 0.29 0.0 0 0 281.63 599.28"
/>
</g>
<path fill="#ffffff" d="
  M 0.00 0.00
  L 529.00 0.00
  L 529.00 700.00
  L 0.00 700.00
  L 0.00 0.00
  Z
  M 236.53 20.45
  Q 237.69 20.95 237.77 19.70
  A 0.57 0.56 -11.2 0 0 236.96 19.16
  L 236.51 19.38
  A 0.59 0.59 0.0 0 0 236.53 20.45
  Z
  M 189.62 220.24
  Q 188.79 218.55 186.91 218.24
  A 1.62 1.62 0.0 0 1 185.88 215.68
  Q 186.81 214.41 188.11 213.61
  Q 188.59 213.32 188.71 213.86
  Q 188.99 215.04 187.92 215.01
  Q 187.09 214.99 187.26 215.80
  L 187.46 216.76
  Q 187.58 217.37 188.21 217.37
  L 190.22 217.38
  Q 190.96 217.38 190.34 216.97
  Q 189.89 216.68 189.35 216.56
  Q 188.58 216.39 189.06 215.76
  L 189.97 214.57
  Q 190.24 214.22 190.01 213.84
  L 189.06 212.28
  Q 188.75 211.77 189.21 211.39
  Q 189.87 210.84 189.52 210.27
  Q 189.26 209.85 188.76 209.94
  C 187.87 210.12 185.20 210.30 185.52 208.64
  Q 185.65 207.93 186.31 208.21
  L 188.08 208.96
  Q 188.59 209.17 188.77 208.65
  C 189.11 207.64 188.05 206.87 187.43 206.23
  Q 187.03 205.81 187.21 205.26
  Q 187.67 203.91 187.06 202.63
  Q 186.83 202.15 187.02 201.64
  Q 188.88 196.54 188.80 194.74
  Q 188.37 185.41 185.15 156.41
  Q 184.53 150.72 182.89 147.25
  C 180.62 142.43 175.84 135.35 170.24 134.77
  C 156.26 133.32 151.13 142.69 149.32 155.19
  C 146.99 171.28 148.60 189.68 151.74 204.82
  C 152.53 208.61 154.82 211.06 156.84 214.28
  Q 157.09 214.67 156.79 215.02
  L 154.79 217.40
  Q 154.45 217.81 154.43 218.34
  Q 153.20 248.31 161.21 277.17
  Q 161.34 277.66 161.75 277.97
  Q 165.55 280.90 165.71 285.77
  C 166.20 301.61 167.69 316.42 171.75 331.95
  C 175.48 346.18 177.12 356.08 177.30 371.00
  C 177.37 376.67 165.31 384.66 160.84 380.57
  C 152.17 372.64 149.45 359.63 145.30 349.19
  C 144.69 347.67 136.55 331.82 135.71 332.25
  Q 135.35 332.44 135.52 332.81
  L 137.04 335.97
  Q 137.34 336.61 136.76 336.21
  C 134.87 334.92 132.33 331.52 130.42 331.27
  Q 129.76 331.19 130.07 330.60
  L 130.48 329.81
  Q 130.84 329.11 130.24 328.59
  L 129.66 328.08
  Q 129.19 327.67 128.77 328.14
  Q 126.42 330.76 128.68 333.07
  Q 129.78 334.20 128.27 333.74
  Q 127.19 333.40 126.21 332.83
  Q 125.76 332.57 125.26 332.72
  Q 123.64 333.19 121.98 332.69
  A 0.93 0.92 -53.3 0 1 121.74 331.03
  L 125.30 328.69
  Q 125.74 328.40 125.90 327.90
  Q 126.89 324.75 128.20 321.72
  C 130.66 316.03 125.53 309.95 123.58 304.81
  Q 120.01 295.43 115.20 286.63
  C 113.65 283.79 113.63 279.22 114.19 275.95
  C 114.55 273.82 115.15 263.35 112.92 261.78
  Q 112.41 261.41 112.53 262.03
  L 112.79 263.41
  Q 113.02 264.60 112.05 263.88
  Q 110.67 262.88 110.71 261.15
  Q 110.72 260.59 110.33 260.20
  L 109.43 259.30
  Q 108.93 258.80 109.58 258.54
  Q 110.74 258.06 111.82 258.96
  Q 112.21 259.28 112.50 258.88
  L 112.68 258.63
  Q 113.08 258.10 112.58 257.66
  Q 110.07 255.42 110.84 252.33
  Q 110.97 251.79 110.49 251.51
  L 109.00 250.66
  Q 108.59 250.42 109.06 250.31
  L 110.26 250.04
  Q 110.81 249.91 110.78 249.35
  Q 110.52 243.54 107.08 239.22
  C 104.59 236.11 101.31 232.64 97.47 231.78
  C 75.31 226.88 72.94 247.59 75.45 263.26
  Q 77.62 276.73 82.48 290.70
  C 83.12 292.53 84.57 293.76 86.30 294.32
  A 1.16 1.16 0.0 0 1 87.02 295.83
  C 84.59 302.21 88.26 311.92 90.92 321.45
  C 93.84 331.93 99.81 340.76 103.47 350.30
  Q 114.31 378.59 124.15 411.53
  C 126.47 419.31 124.35 424.44 124.01 431.65
  Q 122.24 469.05 126.15 506.32
  Q 128.93 532.89 138.90 557.66
  Q 146.42 576.34 161.82 590.69
  C 190.62 617.51 224.63 633.43 264.27 632.86
  C 282.52 632.60 302.46 631.90 319.77 627.81
  Q 351.54 620.30 377.91 599.00
  C 398.83 582.10 413.33 554.95 423.51 530.64
  C 425.50 525.89 427.14 519.49 429.26 513.50
  C 429.43 513.01 429.11 511.55 429.36 510.82
  Q 433.04 499.96 436.55 489.04
  C 438.24 483.78 438.67 478.06 439.78 472.50
  Q 445.43 444.05 452.74 415.97
  C 457.17 398.97 464.37 382.22 470.23 365.49
  C 472.00 360.45 475.98 354.95 476.89 350.19
  C 477.66 346.16 476.60 334.48 470.43 333.85
  C 459.46 332.75 447.01 340.13 439.42 347.42
  C 424.21 362.02 412.74 378.33 409.25 399.51
  Q 408.97 401.20 410.18 403.48
  Q 410.45 403.99 409.94 404.28
  C 405.06 407.02 402.15 416.90 401.50 422.24
  Q 400.50 430.49 400.22 451.18
  C 400.20 452.65 400.72 454.00 401.24 455.34
  Q 401.44 455.84 401.14 456.28
  Q 398.43 460.34 398.24 462.00
  Q 396.91 473.73 394.98 485.39
  C 392.34 501.38 383.36 517.86 374.24 531.09
  Q 372.95 532.96 369.41 536.63
  C 365.89 540.29 363.94 544.85 360.74 548.39
  C 354.58 555.20 349.07 563.89 340.04 567.09
  Q 336.75 568.25 335.28 569.28
  Q 334.88 569.56 334.41 569.65
  C 332.56 570.00 328.43 573.98 327.15 575.17
  Q 326.79 575.51 326.30 575.61
  C 324.21 576.07 320.34 578.27 318.72 578.26
  Q 318.20 578.25 317.77 578.53
  Q 308.67 584.38 298.03 586.25
  Q 297.58 586.33 297.16 586.15
  L 293.92 584.81
  Q 293.32 584.56 293.00 585.12
  Q 291.26 588.16 287.96 589.55
  Q 287.53 589.73 287.08 589.64
  L 284.43 589.10
  Q 283.93 589.00 283.69 589.44
  L 282.68 591.26
  Q 282.30 591.95 281.68 591.47
  L 280.69 590.71
  Q 280.36 590.46 279.99 590.65
  L 278.74 591.27
  Q 278.16 591.57 277.80 591.02
  Q 276.79 589.47 275.03 589.24
  Q 274.51 589.18 274.18 589.59
  L 272.88 591.27
  Q 272.48 591.78 272.03 591.32
  L 271.71 591.00
  Q 271.46 590.75 271.26 591.05
  C 270.34 592.43 269.30 590.97 268.50 590.48
  Q 267.96 590.15 267.65 590.71
  L 267.17 591.61
  Q 266.93 592.06 266.42 592.01
  L 265.31 591.90
  Q 264.38 591.81 264.85 591.01
  Q 265.28 590.27 265.02 589.53
  Q 264.66 588.51 264.16 589.46
  Q 263.34 591.02 261.60 591.22
  Q 261.00 591.29 261.01 591.89
  Q 261.03 592.98 260.51 594.01
  Q 259.93 595.16 259.61 593.91
  Q 259.01 591.59 256.87 592.56
  Q 256.32 592.81 256.10 592.25
  Q 255.43 590.54 253.79 589.71
  Q 253.21 589.41 252.91 590.00
  L 251.91 591.95
  Q 251.57 592.61 250.86 592.40
  Q 247.57 591.44 244.45 592.61
  Q 243.86 592.83 243.35 592.47
  L 236.01 587.33
  Q 235.57 587.03 235.09 587.26
  L 233.92 587.84
  Q 232.85 588.36 233.98 588.71
  L 235.02 589.04
  Q 235.58 589.21 235.53 589.79
  L 235.42 591.27
  Q 235.35 592.15 234.53 591.83
  L 229.77 590.02
  Q 228.60 589.57 229.81 589.25
  Q 230.84 588.97 231.37 588.08
  Q 231.66 587.58 231.14 587.34
  L 223.39 583.68
  Q 222.69 583.35 222.75 584.13
  L 222.79 584.62
  Q 222.83 585.16 223.37 585.21
  Q 224.86 585.35 225.36 586.76
  Q 225.57 587.37 226.21 587.25
  L 227.68 586.99
  Q 228.31 586.87 228.46 587.49
  L 228.71 588.57
  Q 228.98 589.70 228.02 589.03
  Q 225.30 587.13 222.04 586.48
  A 0.65 0.64 -80.2 0 1 221.53 585.75
  Q 221.74 584.17 220.92 582.93
  Q 220.61 582.45 220.09 582.70
  Q 218.54 583.46 217.60 581.12
  Q 217.09 579.86 215.78 580.23
  Q 213.66 580.82 211.50 580.30
  Q 211.07 580.20 210.65 580.33
  L 208.56 581.01
  A 0.65 0.65 0.0 0 1 207.75 580.16
  Q 208.53 578.11 206.97 577.27
  A 0.46 0.46 0.0 0 0 206.39 577.97
  C 207.10 578.84 207.41 582.23 205.73 581.64
  Q 205.32 581.50 205.54 581.12
  Q 206.44 579.55 205.48 577.98
  Q 205.19 577.51 205.47 577.03
  C 208.07 572.66 197.17 569.75 195.04 568.12
  C 193.16 566.67 188.22 563.15 189.52 560.40
  Q 189.77 559.88 189.45 559.41
  Q 188.65 558.24 187.22 558.53
  Q 186.92 558.59 186.82 558.89
  L 186.64 559.46
  Q 186.36 560.36 185.87 559.55
  L 183.28 555.21
  Q 183.02 554.77 182.59 554.49
  Q 180.83 553.32 182.31 551.76
  Q 182.63 551.42 182.19 551.26
  Q 181.67 551.07 181.39 551.55
  Q 181.16 551.94 180.80 551.67
  L 176.55 548.53
  Q 175.99 548.12 176.28 547.49
  Q 176.85 546.28 178.01 546.51
  Q 178.66 546.63 178.74 547.29
  Q 178.84 548.22 179.39 549.01
  Q 179.82 549.63 179.86 548.88
  C 180.16 543.15 176.09 538.91 174.05 533.89
  Q 171.82 528.38 169.71 522.82
  C 168.46 519.51 168.34 515.71 166.82 512.13
  Q 166.62 511.65 166.72 511.14
  Q 167.07 509.45 166.19 508.09
  Q 165.95 507.73 166.14 507.34
  L 166.94 505.72
  Q 167.20 505.20 166.86 504.74
  L 164.72 501.74
  Q 164.40 501.28 164.53 500.74
  L 166.00 494.70
  Q 166.12 494.23 165.95 493.77
  C 164.60 490.12 163.48 487.77 164.54 484.62
  Q 164.66 484.28 164.91 484.53
  L 165.18 484.80
  Q 165.58 485.20 166.11 485.01
  C 168.09 484.32 166.44 481.08 165.63 479.51
  Q 165.38 479.02 165.51 478.49
  L 167.78 469.44
  Q 167.90 468.96 168.30 468.68
  C 171.11 466.71 175.54 464.71 174.18 460.34
  Q 172.01 453.43 177.52 449.51
  Q 177.98 449.18 177.72 448.67
  L 177.34 447.94
  Q 177.08 447.45 177.45 447.04
  Q 180.24 443.91 184.06 442.31
  Q 184.61 442.08 184.71 441.49
  L 185.07 439.33
  Q 185.16 438.82 185.48 438.40
  C 188.37 434.68 192.43 431.85 194.41 428.84
  Q 194.70 428.39 195.23 428.27
  Q 197.10 427.85 197.28 425.97
  Q 197.33 425.39 197.92 425.31
  C 200.39 424.99 202.01 422.05 203.22 420.07
  Q 203.50 419.61 204.01 419.47
  Q 210.57 417.64 215.35 412.81
  Q 215.73 412.43 216.28 412.46
  C 218.08 412.56 221.03 413.11 222.13 411.29
  Q 222.44 410.78 222.91 411.16
  L 224.04 412.10
  Q 224.48 412.46 224.93 412.13
  C 227.21 410.46 230.03 410.46 231.95 409.90
  C 233.09 409.56 244.84 405.65 246.28 407.64
  Q 246.54 408.00 246.98 407.90
  Q 251.34 406.83 255.90 407.69
  Q 256.45 407.80 256.91 407.49
  L 262.46 403.84
  Q 262.83 403.60 263.17 403.87
  Q 264.78 405.17 266.48 403.70
  Q 266.85 403.37 267.27 403.63
  Q 272.07 406.62 274.59 407.14
  C 294.66 411.31 310.49 423.92 320.79 441.46
  Q 322.57 444.50 323.11 449.42
  Q 323.16 449.93 323.48 450.32
  Q 325.71 453.12 326.45 457.74
  C 328.90 472.82 326.46 485.30 318.21 498.23
  C 310.55 510.23 299.94 520.88 286.24 525.50
  C 267.82 531.71 246.90 525.29 232.39 512.88
  C 219.70 502.03 221.42 479.33 227.76 466.00
  C 232.63 455.77 248.24 448.67 259.25 449.70
  Q 272.10 450.90 278.86 462.08
  C 283.99 470.56 276.90 482.79 266.48 478.75
  C 263.54 477.61 260.02 474.98 256.59 474.25
  C 249.11 472.66 240.04 477.08 240.55 485.72
  C 241.62 503.93 260.56 508.67 275.47 505.10
  Q 275.96 504.99 276.45 505.13
  Q 279.08 505.92 280.19 505.42
  C 293.00 499.64 307.29 485.66 305.93 470.43
  C 304.52 454.71 301.70 448.80 290.29 438.13
  C 281.97 430.35 267.66 427.82 256.65 428.57
  Q 256.17 428.61 255.74 428.38
  L 255.19 428.09
  Q 254.74 427.84 254.23 427.91
  Q 247.00 428.80 239.82 430.08
  C 237.88 430.42 236.36 431.92 234.49 432.59
  C 221.67 437.21 213.55 445.08 204.75 454.91
  C 200.57 459.58 198.21 465.33 195.30 470.84
  C 189.55 481.73 191.76 500.99 194.85 512.69
  Q 195.49 515.14 197.79 514.38
  Q 198.50 514.15 198.28 513.44
  L 197.41 510.51
  Q 197.37 510.38 197.50 510.34
  Q 197.71 510.26 197.92 510.20
  Q 198.24 510.12 198.32 510.43
  L 199.51 514.83
  Q 199.64 515.28 199.17 515.31
  L 196.33 515.46
  Q 195.77 515.49 195.89 516.04
  Q 197.05 521.40 198.98 526.52
  C 200.50 530.56 203.83 533.47 206.62 536.74
  Q 206.92 537.09 207.34 537.28
  Q 207.92 537.54 208.65 538.12
  Q 215.31 543.45 226.25 551.18
  Q 226.74 551.53 227.07 551.03
  L 227.57 550.30
  Q 227.84 549.89 228.28 550.10
  L 237.57 554.39
  Q 238.02 554.60 238.28 555.02
  Q 239.12 556.38 240.88 555.37
  Q 241.42 555.06 241.69 555.61
  L 242.16 556.57
  Q 242.51 557.28 243.07 556.72
  Q 244.87 554.95 247.24 556.10
  Q 247.71 556.33 247.70 556.85
  Q 247.67 557.82 248.36 558.42
  Q 248.89 558.88 249.31 558.33
  L 251.17 555.94
  Q 251.50 555.52 252.00 555.70
  L 256.61 557.37
  Q 257.28 557.61 257.22 558.32
  Q 257.13 559.34 257.77 560.18
  Q 258.13 560.66 258.69 560.46
  Q 259.95 560.00 261.26 560.44
  Q 261.75 560.60 262.23 560.42
  Q 264.43 559.58 266.68 560.61
  Q 267.22 560.86 267.79 560.65
  Q 271.15 559.40 274.47 560.75
  Q 274.94 560.94 275.27 560.56
  Q 276.80 558.83 279.07 558.45
  Q 279.67 558.35 279.84 558.93
  Q 279.99 559.42 280.40 559.73
  Q 280.88 560.08 280.71 559.52
  L 280.20 557.85
  Q 279.92 556.94 280.84 557.18
  Q 282.97 557.74 284.31 557.33
  Q 291.55 555.11 298.87 553.09
  Q 299.39 552.95 299.78 552.57
  Q 301.46 550.92 303.36 552.50
  Q 303.77 552.84 304.29 552.72
  Q 305.80 552.35 306.58 551.03
  Q 306.83 550.61 307.30 550.72
  Q 309.39 551.22 309.44 549.11
  Q 309.46 548.44 310.08 548.71
  L 311.29 549.25
  Q 311.72 549.44 312.05 549.10
  C 314.40 546.70 316.84 546.68 319.48 545.72
  C 326.39 543.20 331.42 540.27 337.08 534.85
  Q 341.79 530.33 347.29 526.81
  C 348.49 526.05 349.67 524.81 350.31 523.78
  Q 357.34 512.38 364.42 500.98
  C 366.23 498.06 365.53 495.08 364.60 492.05
  Q 364.43 491.50 364.94 491.23
  C 367.90 489.65 364.37 488.67 365.66 487.21
  Q 365.99 486.84 366.40 487.14
  L 367.93 488.29
  Q 368.32 488.59 368.46 488.12
  Q 368.50 487.95 368.57 487.79
  Q 368.76 487.34 368.30 487.22
  L 366.92 486.85
  Q 366.23 486.67 366.28 485.95
  Q 366.69 480.64 369.14 470.43
  Q 370.27 465.69 371.72 451.25
  C 372.11 447.41 374.27 405.62 370.39 401.54
  Q 370.05 401.18 370.10 400.70
  C 371.48 387.26 367.34 372.56 364.26 359.20
  C 361.09 345.47 363.15 327.45 365.04 313.52
  C 365.54 309.79 364.43 304.83 364.61 300.84
  Q 365.08 290.67 365.05 280.50
  C 365.03 276.86 360.94 272.92 358.89 269.93
  Q 358.52 269.39 357.94 269.68
  L 355.82 270.73
  Q 355.27 271.00 355.02 270.44
  L 354.04 268.31
  Q 353.69 267.54 354.52 267.69
  C 367.60 270.00 366.30 251.44 365.30 243.83
  Q 365.21 243.12 365.82 243.49
  L 366.48 243.88
  Q 366.86 244.10 367.24 243.87
  C 368.80 242.91 367.03 241.61 366.19 241.18
  Q 365.39 240.79 366.20 240.40
  L 366.63 240.20
  Q 367.14 239.96 367.07 239.40
  Q 366.81 237.35 365.22 236.15
  Q 364.79 235.82 364.87 235.29
  C 365.43 231.54 366.67 228.07 366.13 224.24
  C 365.97 223.10 365.58 216.82 365.19 216.36
  Q 364.91 216.05 364.90 215.63
  Q 364.75 209.77 366.49 204.25
  C 367.55 200.86 367.17 197.50 368.71 194.07
  Q 368.91 193.62 368.87 193.13
  C 368.56 189.52 369.66 185.63 369.82 182.69
  C 370.14 176.86 372.15 169.08 370.91 163.53
  C 368.44 152.56 363.33 138.63 350.02 139.17
  C 339.43 139.59 333.38 155.52 331.55 163.96
  Q 328.86 176.42 328.32 189.18
  Q 328.30 189.68 327.94 190.03
  Q 327.46 190.50 327.81 191.00
  Q 328.03 191.32 328.07 191.70
  Q 329.73 206.60 326.80 221.16
  C 323.77 236.27 323.60 251.19 325.20 266.50
  C 325.42 268.58 325.16 270.73 328.13 270.62
  A 1.20 1.20 0.0 0 1 329.06 272.64
  C 326.84 275.03 325.49 277.15 324.84 280.51
  C 322.21 294.03 322.13 309.14 320.96 321.44
  C 320.31 328.22 317.32 331.70 311.23 334.27
  C 300.25 338.91 291.04 330.22 287.69 320.75
  C 285.52 314.59 286.60 305.73 286.76 298.74
  C 286.81 296.61 285.70 294.45 286.27 292.00
  Q 286.38 291.53 286.23 291.07
  C 284.97 287.30 285.20 282.84 284.02 278.59
  C 283.10 275.26 283.66 271.85 283.35 268.42
  C 283.00 264.45 280.65 260.87 280.18 256.47
  Q 280.13 256.00 280.39 255.60
  Q 281.71 253.54 280.14 251.67
  Q 279.75 251.22 279.75 251.81
  L 279.75 253.76
  Q 279.75 254.31 279.39 254.73
  Q 278.37 255.92 278.21 257.45
  A 1.83 1.83 0.0 0 1 276.05 259.06
  Q 273.59 258.60 271.41 259.64
  Q 270.93 259.87 271.00 259.34
  Q 271.01 259.20 270.95 259.09
  Q 270.87 258.94 270.92 258.77
  Q 271.30 257.67 272.09 257.03
  Q 272.61 256.60 272.07 256.20
  L 271.81 256.01
  Q 271.51 255.79 271.31 256.12
  L 269.72 258.75
  Q 269.28 259.47 268.72 258.83
  Q 266.66 256.43 263.73 255.59
  Q 263.30 255.47 263.04 255.11
  Q 261.86 253.47 262.87 251.92
  Q 263.36 251.17 263.69 252.00
  L 264.32 253.52
  Q 264.54 254.08 264.97 253.66
  L 265.51 253.12
  Q 265.94 252.69 266.39 253.09
  Q 267.88 254.41 269.83 253.92
  Q 270.42 253.77 270.46 253.17
  Q 270.53 252.21 270.07 251.49
  Q 269.79 251.05 269.79 250.52
  Q 269.79 249.63 269.33 248.90
  Q 269.10 248.54 268.72 248.33
  L 266.18 246.87
  Q 265.64 246.56 266.02 246.06
  L 266.91 244.90
  Q 267.26 244.44 267.53 244.95
  Q 268.85 247.43 271.74 247.94
  Q 272.26 248.03 272.34 247.50
  L 272.81 244.22
  Q 272.89 243.69 273.41 243.65
  C 274.12 243.58 276.88 252.26 279.17 247.47
  Q 279.29 247.21 279.57 247.25
  L 280.19 247.33
  Q 280.87 247.42 280.85 246.74
  L 280.84 245.69
  Q 280.82 245.06 280.21 244.94
  L 278.89 244.70
  Q 278.20 244.57 278.46 243.92
  C 280.82 237.98 277.66 232.68 280.46 226.18
  Q 280.67 225.69 280.36 225.26
  C 279.67 224.31 279.28 223.79 279.28 222.54
  Q 279.29 203.75 274.44 185.59
  Q 274.28 185.01 273.68 185.00
  Q 272.40 184.99 271.75 185.99
  Q 271.54 186.30 271.32 185.99
  L 270.40 184.71
  Q 269.97 184.10 269.28 184.39
  L 266.61 185.51
  A 0.99 0.99 0.0 0 1 265.24 184.50
  Q 265.65 180.23 268.55 177.18
  Q 269.08 176.62 268.93 177.38
  Q 268.19 180.93 270.12 183.93
  A 1.09 1.09 0.0 0 0 271.49 184.33
  Q 272.49 183.87 272.45 182.49
  Q 272.27 176.84 274.14 171.63
  Q 275.13 168.89 275.17 166.73
  Q 275.46 152.12 273.48 141.25
  Q 272.05 133.35 271.70 127.34
  C 271.43 122.82 270.01 119.47 268.92 115.25
  C 267.71 110.54 262.60 102.34 258.25 100.00
  C 252.79 97.07 243.82 96.50 239.44 101.95
  Q 233.72 109.07 231.45 117.73
  Q 230.21 122.49 230.43 130.83
  C 230.71 141.63 230.69 152.61 232.07 163.27
  Q 232.91 169.77 233.89 176.26
  C 234.74 181.87 238.37 183.67 236.20 190.13
  Q 235.05 193.57 235.02 197.49
  Q 234.79 224.18 238.25 249.69
  Q 239.09 255.87 238.82 260.37
  C 238.40 267.71 236.85 274.65 237.35 281.94
  C 238.42 297.70 239.02 313.49 240.53 329.10
  C 241.22 336.12 237.86 342.05 231.82 345.51
  C 223.75 350.12 216.75 339.21 214.80 333.02
  C 209.98 317.78 205.56 304.71 203.49 290.76
  Q 202.99 287.41 198.68 278.80
  Q 198.42 278.29 197.86 278.43
  L 195.92 278.95
  Q 195.30 279.12 195.23 278.47
  Q 194.95 275.86 192.71 274.49
  Q 192.24 274.20 191.70 274.33
  L 186.59 275.56
  Q 186.15 275.67 185.71 275.54
  Q 184.42 275.18 183.38 276.00
  Q 182.88 276.39 183.51 276.31
  L 184.10 276.23
  Q 184.97 276.11 184.57 276.89
  L 184.13 277.78
  Q 183.83 278.38 183.28 277.99
  Q 182.76 277.62 182.76 277.06
  Q 182.75 276.31 182.05 276.61
  Q 179.91 277.54 179.65 275.12
  Q 179.55 274.17 178.86 274.82
  Q 178.03 275.57 178.43 276.79
  Q 178.60 277.30 178.20 277.67
  L 174.90 280.75
  Q 174.44 281.18 174.05 280.69
  Q 172.09 278.24 174.30 276.08
  C 175.24 275.17 176.40 275.16 177.64 274.75
  Q 178.11 274.59 178.21 274.11
  Q 178.51 272.74 177.61 271.78
  Q 177.16 271.31 177.78 271.11
  L 178.12 271.00
  Q 178.55 270.87 178.86 271.20
  Q 180.43 272.83 182.50 273.19
  Q 184.21 273.49 186.22 272.28
  C 189.90 270.07 192.40 268.82 192.16 263.87
  Q 192.11 262.97 192.79 263.56
  Q 194.00 264.63 193.73 266.23
  Q 193.55 267.27 193.98 266.23
  Q 194.51 264.94 194.80 263.56
  A 0.55 0.55 0.0 0 0 194.30 262.89
  Q 192.75 262.79 192.42 261.19
  Q 192.35 260.85 192.66 261.01
  L 196.24 262.95
  Q 196.70 263.19 196.94 263.65
  Q 197.47 264.64 198.65 264.52
  A 0.32 0.32 0.0 0 0 198.85 263.98
  L 194.81 259.86
  Q 194.33 259.36 194.89 258.95
  Q 195.90 258.20 195.72 257.14
  Q 195.65 256.72 195.29 256.51
  L 192.26 254.76
  Q 191.63 254.39 192.05 253.80
  Q 193.86 251.26 192.44 248.48
  Q 192.39 248.37 192.50 248.33
  Q 192.64 248.28 192.79 248.24
  Q 193.05 248.17 193.19 248.41
  Q 193.91 249.71 195.35 249.99
  Q 195.91 250.10 195.96 250.66
  Q 195.98 250.86 196.02 251.04
  Q 196.27 252.02 196.30 251.14
  Q 196.43 248.16 193.83 247.47
  Q 193.51 247.38 193.51 247.05
  Q 193.50 246.90 193.49 246.69
  Q 193.47 246.50 193.65 246.42
  Q 194.80 245.97 194.99 246.75
  Q 195.26 247.83 195.44 246.74
  L 195.74 244.89
  Q 195.84 244.23 195.19 244.37
  L 193.78 244.65
  Q 193.07 244.79 193.20 244.09
  L 193.47 242.65
  Q 193.63 241.77 194.41 242.20
  L 194.98 242.50
  Q 195.79 242.93 195.76 242.02
  L 195.73 240.71
  Q 195.70 239.86 194.95 240.26
  L 194.40 240.55
  Q 193.94 240.80 193.59 240.41
  Q 191.36 237.91 193.27 235.48
  Q 193.62 235.02 193.21 234.62
  Q 191.63 233.12 192.01 230.90
  Q 192.10 230.42 191.78 230.04
  L 190.34 228.37
  Q 189.61 227.51 190.71 227.73
  Q 192.25 228.04 192.30 226.33
  A 0.86 0.86 0.0 0 0 191.18 225.49
  L 190.31 225.76
  Q 189.71 225.95 189.72 225.32
  C 189.72 223.34 191.27 223.35 191.50 221.93
  Q 191.58 221.49 191.28 221.16
  Q 190.85 220.68 190.40 220.70
  Q 189.86 220.73 189.62 220.24
  Z
  M 64.0812 143.3229
  A 0.26 0.26 0.0 0 0 63.9817 142.9690
  L 63.7027 142.8124
  A 0.26 0.26 0.0 0 0 63.3487 142.9119
  L 50.4388 165.9171
  A 0.26 0.26 0.0 0 0 50.5383 166.2710
  L 50.8173 166.4276
  A 0.26 0.26 0.0 0 0 51.1713 166.3281
  L 64.0812 143.3229
  Z
  M 193.78 267.83
  Q 193.73 267.70 193.69 267.57
  Q 193.64 267.39 193.58 267.56
  Q 193.14 268.92 194.03 269.58
  Q 194.66 270.05 195.24 269.53
  L 197.72 267.31
  Q 197.84 267.21 197.73 267.10
  L 197.47 266.85
  Q 197.30 266.67 197.17 266.88
  Q 196.02 268.74 194.00 268.05
  Q 193.84 267.99 193.78 267.83
  Z
  M 194.08 272.01
  L 193.52 272.66
  Q 193.00 273.26 193.79 273.25
  Q 194.10 273.25 194.45 273.25
  Q 194.90 273.25 194.77 272.82
  L 194.54 272.11
  A 0.27 0.27 0.0 0 0 194.08 272.01
  Z
  M 175.7096 278.8900
  A 1.49 0.75 90.4 0 0 176.4700 277.4052
  A 1.49 0.75 90.4 0 0 175.7304 275.9100
  A 1.49 0.75 90.4 0 0 174.9700 277.3948
  A 1.49 0.75 90.4 0 0 175.7096 278.8900
  Z
  M 210.9364 542.9150
  A 3.04 0.63 52.6 0 0 209.5905 540.1174
  A 3.04 0.63 52.6 0 0 207.2436 538.0850
  A 3.04 0.63 52.6 0 0 208.5895 540.8826
  A 3.04 0.63 52.6 0 0 210.9364 542.9150
  Z
  M 252.5513 559.1217
  A 0.74 0.44 63.4 0 0 252.6134 558.2630
  A 0.74 0.44 63.4 0 0 251.8887 557.7983
  A 0.74 0.44 63.4 0 0 251.8266 558.6570
  A 0.74 0.44 63.4 0 0 252.5513 559.1217
  Z
  M 191.06 561.96
  L 191.98 563.65
  Q 192.15 563.98 192.48 563.79
  L 193.21 563.36
  Q 193.55 563.16 193.46 562.78
  Q 193.11 561.26 191.52 561.21
  A 0.51 0.51 0.0 0 0 191.06 561.96
  Z"
/>
<path fill="#000000" d="
  M 236.53 20.45
  A 0.59 0.59 0.0 0 1 236.51 19.38
  L 236.96 19.16
  A 0.57 0.56 -11.2 0 1 237.77 19.70
  Q 237.69 20.95 236.53 20.45
  Z"
/>
<path fill="#000000" d="
  M 190.40 220.70
  Q 190.85 220.68 191.28 221.16
  Q 191.58 221.49 191.50 221.93
  C 191.27 223.35 189.72 223.34 189.72 225.32
  Q 189.71 225.95 190.31 225.76
  L 191.18 225.49
  A 0.86 0.86 0.0 0 1 192.30 226.33
  Q 192.25 228.04 190.71 227.73
  Q 189.61 227.51 190.34 228.37
  L 191.78 230.04
  Q 192.10 230.42 192.01 230.90
  Q 191.63 233.12 193.21 234.62
  Q 193.62 235.02 193.27 235.48
  Q 191.36 237.91 193.59 240.41
  Q 193.94 240.80 194.40 240.55
  L 194.95 240.26
  Q 195.70 239.86 195.73 240.71
  L 195.76 242.02
  Q 195.79 242.93 194.98 242.50
  L 194.41 242.20
  Q 193.63 241.77 193.47 242.65
  L 193.20 244.09
  Q 193.07 244.79 193.78 244.65
  L 195.19 244.37
  Q 195.84 244.23 195.74 244.89
  L 195.44 246.74
  Q 195.26 247.83 194.99 246.75
  Q 194.80 245.97 193.65 246.42
  Q 193.47 246.50 193.49 246.69
  Q 193.50 246.90 193.51 247.05
  Q 193.51 247.38 193.83 247.47
  Q 196.43 248.16 196.30 251.14
  Q 196.27 252.02 196.02 251.04
  Q 195.98 250.86 195.96 250.66
  Q 195.91 250.10 195.35 249.99
  Q 193.91 249.71 193.19 248.41
  Q 193.05 248.17 192.79 248.24
  Q 192.64 248.28 192.50 248.33
  Q 192.39 248.37 192.44 248.48
  Q 193.86 251.26 192.05 253.80
  Q 191.63 254.39 192.26 254.76
  L 195.29 256.51
  Q 195.65 256.72 195.72 257.14
  Q 195.90 258.20 194.89 258.95
  Q 194.33 259.36 194.81 259.86
  L 198.85 263.98
  A 0.32 0.32 0.0 0 1 198.65 264.52
  Q 197.47 264.64 196.94 263.65
  Q 196.70 263.19 196.24 262.95
  L 192.66 261.01
  Q 192.35 260.85 192.42 261.19
  Q 192.75 262.79 194.30 262.89
  A 0.55 0.55 0.0 0 1 194.80 263.56
  Q 194.51 264.94 193.98 266.23
  Q 193.55 267.27 193.73 266.23
  Q 194.00 264.63 192.79 263.56
  Q 192.11 262.97 192.16 263.87
  C 192.40 268.82 189.90 270.07 186.22 272.28
  Q 184.21 273.49 182.50 273.19
  Q 180.43 272.83 178.86 271.20
  Q 178.55 270.87 178.12 271.00
  L 177.78 271.11
  Q 177.16 271.31 177.61 271.78
  Q 178.51 272.74 178.21 274.11
  Q 178.11 274.59 177.64 274.75
  C 176.40 275.16 175.24 275.17 174.30 276.08
  Q 172.09 278.24 174.05 280.69
  Q 174.44 281.18 174.90 280.75
  L 178.20 277.67
  Q 178.60 277.30 178.43 276.79
  Q 178.03 275.57 178.86 274.82
  Q 179.55 274.17 179.65 275.12
  Q 179.91 277.54 182.05 276.61
  Q 182.75 276.31 182.76 277.06
  Q 182.76 277.62 183.28 277.99
  Q 183.83 278.38 184.13 277.78
  L 184.57 276.89
  Q 184.97 276.11 184.10 276.23
  L 183.51 276.31
  Q 182.88 276.39 183.38 276.00
  Q 184.42 275.18 185.71 275.54
  Q 186.15 275.67 186.59 275.56
  L 191.70 274.33
  Q 192.24 274.20 192.71 274.49
  Q 194.95 275.86 195.23 278.47
  Q 195.30 279.12 195.92 278.95
  L 197.86 278.43
  Q 198.42 278.29 198.68 278.80
  Q 202.99 287.41 203.49 290.76
  C 205.56 304.71 209.98 317.78 214.80 333.02
  C 216.75 339.21 223.75 350.12 231.82 345.51
  C 237.86 342.05 241.22 336.12 240.53 329.10
  C 239.02 313.49 238.42 297.70 237.35 281.94
  C 236.85 274.65 238.40 267.71 238.82 260.37
  Q 239.09 255.87 238.25 249.69
  Q 234.79 224.18 235.02 197.49
  Q 235.05 193.57 236.20 190.13
  C 238.37 183.67 234.74 181.87 233.89 176.26
  Q 232.91 169.77 232.07 163.27
  C 230.69 152.61 230.71 141.63 230.43 130.83
  Q 230.21 122.49 231.45 117.73
  Q 233.72 109.07 239.44 101.95
  C 243.82 96.50 252.79 97.07 258.25 100.00
  C 262.60 102.34 267.71 110.54 268.92 115.25
  C 270.01 119.47 271.43 122.82 271.70 127.34
  Q 272.05 133.35 273.48 141.25
  Q 275.46 152.12 275.17 166.73
  Q 275.13 168.89 274.14 171.63
  Q 272.27 176.84 272.45 182.49
  Q 272.49 183.87 271.49 184.33
  A 1.09 1.09 0.0 0 1 270.12 183.93
  Q 268.19 180.93 268.93 177.38
  Q 269.08 176.62 268.55 177.18
  Q 265.65 180.23 265.24 184.50
  A 0.99 0.99 0.0 0 0 266.61 185.51
  L 269.28 184.39
  Q 269.97 184.10 270.40 184.71
  L 271.32 185.99
  Q 271.54 186.30 271.75 185.99
  Q 272.40 184.99 273.68 185.00
  Q 274.28 185.01 274.44 185.59
  Q 279.29 203.75 279.28 222.54
  C 279.28 223.79 279.67 224.31 280.36 225.26
  Q 280.67 225.69 280.46 226.18
  C 277.66 232.68 280.82 237.98 278.46 243.92
  Q 278.20 244.57 278.89 244.70
  L 280.21 244.94
  Q 280.82 245.06 280.84 245.69
  L 280.85 246.74
  Q 280.87 247.42 280.19 247.33
  L 279.57 247.25
  Q 279.29 247.21 279.17 247.47
  C 276.88 252.26 274.12 243.58 273.41 243.65
  Q 272.89 243.69 272.81 244.22
  L 272.34 247.50
  Q 272.26 248.03 271.74 247.94
  Q 268.85 247.43 267.53 244.95
  Q 267.26 244.44 266.91 244.90
  L 266.02 246.06
  Q 265.64 246.56 266.18 246.87
  L 268.72 248.33
  Q 269.10 248.54 269.33 248.90
  Q 269.79 249.63 269.79 250.52
  Q 269.79 251.05 270.07 251.49
  Q 270.53 252.21 270.46 253.17
  Q 270.42 253.77 269.83 253.92
  Q 267.88 254.41 266.39 253.09
  Q 265.94 252.69 265.51 253.12
  L 264.97 253.66
  Q 264.54 254.08 264.32 253.52
  L 263.69 252.00
  Q 263.36 251.17 262.87 251.92
  Q 261.86 253.47 263.04 255.11
  Q 263.30 255.47 263.73 255.59
  Q 266.66 256.43 268.72 258.83
  Q 269.28 259.47 269.72 258.75
  L 271.31 256.12
  Q 271.51 255.79 271.81 256.01
  L 272.07 256.20
  Q 272.61 256.60 272.09 257.03
  Q 271.30 257.67 270.92 258.77
  Q 270.87 258.94 270.95 259.09
  Q 271.01 259.20 271.00 259.34
  Q 270.93 259.87 271.41 259.64
  Q 273.59 258.60 276.05 259.06
  A 1.83 1.83 0.0 0 0 278.21 257.45
  Q 278.37 255.92 279.39 254.73
  Q 279.75 254.31 279.75 253.76
  L 279.75 251.81
  Q 279.75 251.22 280.14 251.67
  Q 281.71 253.54 280.39 255.60
  Q 280.13 256.00 280.18 256.47
  C 280.65 260.87 283.00 264.45 283.35 268.42
  C 283.66 271.85 283.10 275.26 284.02 278.59
  C 285.20 282.84 284.97 287.30 286.23 291.07
  Q 286.38 291.53 286.27 292.00
  C 285.70 294.45 286.81 296.61 286.76 298.74
  C 286.60 305.73 285.52 314.59 287.69 320.75
  C 291.04 330.22 300.25 338.91 311.23 334.27
  C 317.32 331.70 320.31 328.22 320.96 321.44
  C 322.13 309.14 322.21 294.03 324.84 280.51
  C 325.49 277.15 326.84 275.03 329.06 272.64
  A 1.20 1.20 0.0 0 0 328.13 270.62
  C 325.16 270.73 325.42 268.58 325.20 266.50
  C 323.60 251.19 323.77 236.27 326.80 221.16
  Q 329.73 206.60 328.07 191.70
  Q 328.03 191.32 327.81 191.00
  Q 327.46 190.50 327.94 190.03
  Q 328.30 189.68 328.32 189.18
  Q 328.86 176.42 331.55 163.96
  C 333.38 155.52 339.43 139.59 350.02 139.17
  C 363.33 138.63 368.44 152.56 370.91 163.53
  C 372.15 169.08 370.14 176.86 369.82 182.69
  C 369.66 185.63 368.56 189.52 368.87 193.13
  Q 368.91 193.62 368.71 194.07
  C 367.17 197.50 367.55 200.86 366.49 204.25
  Q 364.75 209.77 364.90 215.63
  Q 364.91 216.05 365.19 216.36
  C 365.58 216.82 365.97 223.10 366.13 224.24
  C 366.67 228.07 365.43 231.54 364.87 235.29
  Q 364.79 235.82 365.22 236.15
  Q 366.81 237.35 367.07 239.40
  Q 367.14 239.96 366.63 240.20
  L 366.20 240.40
  Q 365.39 240.79 366.19 241.18
  C 367.03 241.61 368.80 242.91 367.24 243.87
  Q 366.86 244.10 366.48 243.88
  L 365.82 243.49
  Q 365.21 243.12 365.30 243.83
  C 366.30 251.44 367.60 270.00 354.52 267.69
  Q 353.69 267.54 354.04 268.31
  L 355.02 270.44
  Q 355.27 271.00 355.82 270.73
  L 357.94 269.68
  Q 358.52 269.39 358.89 269.93
  C 360.94 272.92 365.03 276.86 365.05 280.50
  Q 365.08 290.67 364.61 300.84
  C 364.43 304.83 365.54 309.79 365.04 313.52
  C 363.15 327.45 361.09 345.47 364.26 359.20
  C 367.34 372.56 371.48 387.26 370.10 400.70
  Q 370.05 401.18 370.39 401.54
  C 374.27 405.62 372.11 447.41 371.72 451.25
  Q 370.27 465.69 369.14 470.43
  Q 366.69 480.64 366.28 485.95
  Q 366.23 486.67 366.92 486.85
  L 368.30 487.22
  Q 368.76 487.34 368.57 487.79
  Q 368.50 487.95 368.46 488.12
  Q 368.32 488.59 367.93 488.29
  L 366.40 487.14
  Q 365.99 486.84 365.66 487.21
  C 364.37 488.67 367.90 489.65 364.94 491.23
  Q 364.43 491.50 364.60 492.05
  C 365.53 495.08 366.23 498.06 364.42 500.98
  Q 357.34 512.38 350.31 523.78
  C 349.67 524.81 348.49 526.05 347.29 526.81
  Q 341.79 530.33 337.08 534.85
  C 331.42 540.27 326.39 543.20 319.48 545.72
  C 316.84 546.68 314.40 546.70 312.05 549.10
  Q 311.72 549.44 311.29 549.25
  L 310.08 548.71
  Q 309.46 548.44 309.44 549.11
  Q 309.39 551.22 307.30 550.72
  Q 306.83 550.61 306.58 551.03
  Q 305.80 552.35 304.29 552.72
  Q 303.77 552.84 303.36 552.50
  Q 301.46 550.92 299.78 552.57
  Q 299.39 552.95 298.87 553.09
  Q 291.55 555.11 284.31 557.33
  Q 282.97 557.74 280.84 557.18
  Q 279.92 556.94 280.20 557.85
  L 280.71 559.52
  Q 280.88 560.08 280.40 559.73
  Q 279.99 559.42 279.84 558.93
  Q 279.67 558.35 279.07 558.45
  Q 276.80 558.83 275.27 560.56
  Q 274.94 560.94 274.47 560.75
  Q 271.15 559.40 267.79 560.65
  Q 267.22 560.86 266.68 560.61
  Q 264.43 559.58 262.23 560.42
  Q 261.75 560.60 261.26 560.44
  Q 259.95 560.00 258.69 560.46
  Q 258.13 560.66 257.77 560.18
  Q 257.13 559.34 257.22 558.32
  Q 257.28 557.61 256.61 557.37
  L 252.00 555.70
  Q 251.50 555.52 251.17 555.94
  L 249.31 558.33
  Q 248.89 558.88 248.36 558.42
  Q 247.67 557.82 247.70 556.85
  Q 247.71 556.33 247.24 556.10
  Q 244.87 554.95 243.07 556.72
  Q 242.51 557.28 242.16 556.57
  L 241.69 555.61
  Q 241.42 555.06 240.88 555.37
  Q 239.12 556.38 238.28 555.02
  Q 238.02 554.60 237.57 554.39
  L 228.28 550.10
  Q 227.84 549.89 227.57 550.30
  L 227.07 551.03
  Q 226.74 551.53 226.25 551.18
  Q 215.31 543.45 208.65 538.12
  Q 207.92 537.54 207.34 537.28
  Q 206.92 537.09 206.62 536.74
  C 203.83 533.47 200.50 530.56 198.98 526.52
  Q 197.05 521.40 195.89 516.04
  Q 195.77 515.49 196.33 515.46
  L 199.17 515.31
  Q 199.64 515.28 199.51 514.83
  L 198.32 510.43
  Q 198.24 510.12 197.92 510.20
  Q 197.71 510.26 197.50 510.34
  Q 197.37 510.38 197.41 510.51
  L 198.28 513.44
  Q 198.50 514.15 197.79 514.38
  Q 195.49 515.14 194.85 512.69
  C 191.76 500.99 189.55 481.73 195.30 470.84
  C 198.21 465.33 200.57 459.58 204.75 454.91
  C 213.55 445.08 221.67 437.21 234.49 432.59
  C 236.36 431.92 237.88 430.42 239.82 430.08
  Q 247.00 428.80 254.23 427.91
  Q 254.74 427.84 255.19 428.09
  L 255.74 428.38
  Q 256.17 428.61 256.65 428.57
  C 267.66 427.82 281.97 430.35 290.29 438.13
  C 301.70 448.80 304.52 454.71 305.93 470.43
  C 307.29 485.66 293.00 499.64 280.19 505.42
  Q 279.08 505.92 276.45 505.13
  Q 275.96 504.99 275.47 505.10
  C 260.56 508.67 241.62 503.93 240.55 485.72
  C 240.04 477.08 249.11 472.66 256.59 474.25
  C 260.02 474.98 263.54 477.61 266.48 478.75
  C 276.90 482.79 283.99 470.56 278.86 462.08
  Q 272.10 450.90 259.25 449.70
  C 248.24 448.67 232.63 455.77 227.76 466.00
  C 221.42 479.33 219.70 502.03 232.39 512.88
  C 246.90 525.29 267.82 531.71 286.24 525.50
  C 299.94 520.88 310.55 510.23 318.21 498.23
  C 326.46 485.30 328.90 472.82 326.45 457.74
  Q 325.71 453.12 323.48 450.32
  Q 323.16 449.93 323.11 449.42
  Q 322.57 444.50 320.79 441.46
  C 310.49 423.92 294.66 411.31 274.59 407.14
  Q 272.07 406.62 267.27 403.63
  Q 266.85 403.37 266.48 403.70
  Q 264.78 405.17 263.17 403.87
  Q 262.83 403.60 262.46 403.84
  L 256.91 407.49
  Q 256.45 407.80 255.90 407.69
  Q 251.34 406.83 246.98 407.90
  Q 246.54 408.00 246.28 407.64
  C 244.84 405.65 233.09 409.56 231.95 409.90
  C 230.03 410.46 227.21 410.46 224.93 412.13
  Q 224.48 412.46 224.04 412.10
  L 222.91 411.16
  Q 222.44 410.78 222.13 411.29
  C 221.03 413.11 218.08 412.56 216.28 412.46
  Q 215.73 412.43 215.35 412.81
  Q 210.57 417.64 204.01 419.47
  Q 203.50 419.61 203.22 420.07
  C 202.01 422.05 200.39 424.99 197.92 425.31
  Q 197.33 425.39 197.28 425.97
  Q 197.10 427.85 195.23 428.27
  Q 194.70 428.39 194.41 428.84
  C 192.43 431.85 188.37 434.68 185.48 438.40
  Q 185.16 438.82 185.07 439.33
  L 184.71 441.49
  Q 184.61 442.08 184.06 442.31
  Q 180.24 443.91 177.45 447.04
  Q 177.08 447.45 177.34 447.94
  L 177.72 448.67
  Q 177.98 449.18 177.52 449.51
  Q 172.01 453.43 174.18 460.34
  C 175.54 464.71 171.11 466.71 168.30 468.68
  Q 167.90 468.96 167.78 469.44
  L 165.51 478.49
  Q 165.38 479.02 165.63 479.51
  C 166.44 481.08 168.09 484.32 166.11 485.01
  Q 165.58 485.20 165.18 484.80
  L 164.91 484.53
  Q 164.66 484.28 164.54 484.62
  C 163.48 487.77 164.60 490.12 165.95 493.77
  Q 166.12 494.23 166.00 494.70
  L 164.53 500.74
  Q 164.40 501.28 164.72 501.74
  L 166.86 504.74
  Q 167.20 505.20 166.94 505.72
  L 166.14 507.34
  Q 165.95 507.73 166.19 508.09
  Q 167.07 509.45 166.72 511.14
  Q 166.62 511.65 166.82 512.13
  C 168.34 515.71 168.46 519.51 169.71 522.82
  Q 171.82 528.38 174.05 533.89
  C 176.09 538.91 180.16 543.15 179.86 548.88
  Q 179.82 549.63 179.39 549.01
  Q 178.84 548.22 178.74 547.29
  Q 178.66 546.63 178.01 546.51
  Q 176.85 546.28 176.28 547.49
  Q 175.99 548.12 176.55 548.53
  L 180.80 551.67
  Q 181.16 551.94 181.39 551.55
  Q 181.67 551.07 182.19 551.26
  Q 182.63 551.42 182.31 551.76
  Q 180.83 553.32 182.59 554.49
  Q 183.02 554.77 183.28 555.21
  L 185.87 559.55
  Q 186.36 560.36 186.64 559.46
  L 186.82 558.89
  Q 186.92 558.59 187.22 558.53
  Q 188.65 558.24 189.45 559.41
  Q 189.77 559.88 189.52 560.40
  C 188.22 563.15 193.16 566.67 195.04 568.12
  C 197.17 569.75 208.07 572.66 205.47 577.03
  Q 205.19 577.51 205.48 577.98
  Q 206.44 579.55 205.54 581.12
  Q 205.32 581.50 205.73 581.64
  C 207.41 582.23 207.10 578.84 206.39 577.97
  A 0.46 0.46 0.0 0 1 206.97 577.27
  Q 208.53 578.11 207.75 580.16
  A 0.65 0.65 0.0 0 0 208.56 581.01
  L 210.65 580.33
  Q 211.07 580.20 211.50 580.30
  Q 213.66 580.82 215.78 580.23
  Q 217.09 579.86 217.60 581.12
  Q 218.54 583.46 220.09 582.70
  Q 220.61 582.45 220.92 582.93
  Q 221.74 584.17 221.53 585.75
  A 0.65 0.64 -80.2 0 0 222.04 586.48
  Q 225.30 587.13 228.02 589.03
  Q 228.98 589.70 228.71 588.57
  L 228.46 587.49
  Q 228.31 586.87 227.68 586.99
  L 226.21 587.25
  Q 225.57 587.37 225.36 586.76
  Q 224.86 585.35 223.37 585.21
  Q 222.83 585.16 222.79 584.62
  L 222.75 584.13
  Q 222.69 583.35 223.39 583.68
  L 231.14 587.34
  Q 231.66 587.58 231.37 588.08
  Q 230.84 588.97 229.81 589.25
  Q 228.60 589.57 229.77 590.02
  L 234.53 591.83
  Q 235.35 592.15 235.42 591.27
  L 235.53 589.79
  Q 235.58 589.21 235.02 589.04
  L 233.98 588.71
  Q 232.85 588.36 233.92 587.84
  L 235.09 587.26
  Q 235.57 587.03 236.01 587.33
  L 243.35 592.47
  Q 243.86 592.83 244.45 592.61
  Q 247.57 591.44 250.86 592.40
  Q 251.57 592.61 251.91 591.95
  L 252.91 590.00
  Q 253.21 589.41 253.79 589.71
  Q 255.43 590.54 256.10 592.25
  Q 256.32 592.81 256.87 592.56
  Q 259.01 591.59 259.61 593.91
  Q 259.93 595.16 260.51 594.01
  Q 261.03 592.98 261.01 591.89
  Q 261.00 591.29 261.60 591.22
  Q 263.34 591.02 264.16 589.46
  Q 264.66 588.51 265.02 589.53
  Q 265.28 590.27 264.85 591.01
  Q 264.38 591.81 265.31 591.90
  L 266.42 592.01
  Q 266.93 592.06 267.17 591.61
  L 267.65 590.71
  Q 267.96 590.15 268.50 590.48
  C 269.30 590.97 270.34 592.43 271.26 591.05
  Q 271.46 590.75 271.71 591.00
  L 272.03 591.32
  Q 272.48 591.78 272.88 591.27
  L 274.18 589.59
  Q 274.51 589.18 275.03 589.24
  Q 276.79 589.47 277.80 591.02
  Q 278.16 591.57 278.74 591.27
  L 279.99 590.65
  Q 280.36 590.46 280.69 590.71
  L 281.68 591.47
  Q 282.30 591.95 282.68 591.26
  L 283.69 589.44
  Q 283.93 589.00 284.43 589.10
  L 287.08 589.64
  Q 287.53 589.73 287.96 589.55
  Q 291.26 588.16 293.00 585.12
  Q 293.32 584.56 293.92 584.81
  L 297.16 586.15
  Q 297.58 586.33 298.03 586.25
  Q 308.67 584.38 317.77 578.53
  Q 318.20 578.25 318.72 578.26
  C 320.34 578.27 324.21 576.07 326.30 575.61
  Q 326.79 575.51 327.15 575.17
  C 328.43 573.98 332.56 570.00 334.41 569.65
  Q 334.88 569.56 335.28 569.28
  Q 336.75 568.25 340.04 567.09
  C 349.07 563.89 354.58 555.20 360.74 548.39
  C 363.94 544.85 365.89 540.29 369.41 536.63
  Q 372.95 532.96 374.24 531.09
  C 383.36 517.86 392.34 501.38 394.98 485.39
  Q 396.91 473.73 398.24 462.00
  Q 398.43 460.34 401.14 456.28
  Q 401.44 455.84 401.24 455.34
  C 400.72 454.00 400.20 452.65 400.22 451.18
  Q 400.50 430.49 401.50 422.24
  C 402.15 416.90 405.06 407.02 409.94 404.28
  Q 410.45 403.99 410.18 403.48
  Q 408.97 401.20 409.25 399.51
  C 412.74 378.33 424.21 362.02 439.42 347.42
  C 447.01 340.13 459.46 332.75 470.43 333.85
  C 476.60 334.48 477.66 346.16 476.89 350.19
  C 475.98 354.95 472.00 360.45 470.23 365.49
  C 464.37 382.22 457.17 398.97 452.74 415.97
  Q 445.43 444.05 439.78 472.50
  C 438.67 478.06 438.24 483.78 436.55 489.04
  Q 433.04 499.96 429.36 510.82
  C 429.11 511.55 429.43 513.01 429.26 513.50
  C 427.14 519.49 425.50 525.89 423.51 530.64
  C 413.33 554.95 398.83 582.10 377.91 599.00
  Q 351.54 620.30 319.77 627.81
  C 302.46 631.90 282.52 632.60 264.27 632.86
  C 224.63 633.43 190.62 617.51 161.82 590.69
  Q 146.42 576.34 138.90 557.66
  Q 128.93 532.89 126.15 506.32
  Q 122.24 469.05 124.01 431.65
  C 124.35 424.44 126.47 419.31 124.15 411.53
  Q 114.31 378.59 103.47 350.30
  C 99.81 340.76 93.84 331.93 90.92 321.45
  C 88.26 311.92 84.59 302.21 87.02 295.83
  A 1.16 1.16 0.0 0 0 86.30 294.32
  C 84.57 293.76 83.12 292.53 82.48 290.70
  Q 77.62 276.73 75.45 263.26
  C 72.94 247.59 75.31 226.88 97.47 231.78
  C 101.31 232.64 104.59 236.11 107.08 239.22
  Q 110.52 243.54 110.78 249.35
  Q 110.81 249.91 110.26 250.04
  L 109.06 250.31
  Q 108.59 250.42 109.00 250.66
  L 110.49 251.51
  Q 110.97 251.79 110.84 252.33
  Q 110.07 255.42 112.58 257.66
  Q 113.08 258.10 112.68 258.63
  L 112.50 258.88
  Q 112.21 259.28 111.82 258.96
  Q 110.74 258.06 109.58 258.54
  Q 108.93 258.80 109.43 259.30
  L 110.33 260.20
  Q 110.72 260.59 110.71 261.15
  Q 110.67 262.88 112.05 263.88
  Q 113.02 264.60 112.79 263.41
  L 112.53 262.03
  Q 112.41 261.41 112.92 261.78
  C 115.15 263.35 114.55 273.82 114.19 275.95
  C 113.63 279.22 113.65 283.79 115.20 286.63
  Q 120.01 295.43 123.58 304.81
  C 125.53 309.95 130.66 316.03 128.20 321.72
  Q 126.89 324.75 125.90 327.90
  Q 125.74 328.40 125.30 328.69
  L 121.74 331.03
  A 0.93 0.92 -53.3 0 0 121.98 332.69
  Q 123.64 333.19 125.26 332.72
  Q 125.76 332.57 126.21 332.83
  Q 127.19 333.40 128.27 333.74
  Q 129.78 334.20 128.68 333.07
  Q 126.42 330.76 128.77 328.14
  Q 129.19 327.67 129.66 328.08
  L 130.24 328.59
  Q 130.84 329.11 130.48 329.81
  L 130.07 330.60
  Q 129.76 331.19 130.42 331.27
  C 132.33 331.52 134.87 334.92 136.76 336.21
  Q 137.34 336.61 137.04 335.97
  L 135.52 332.81
  Q 135.35 332.44 135.71 332.25
  C 136.55 331.82 144.69 347.67 145.30 349.19
  C 149.45 359.63 152.17 372.64 160.84 380.57
  C 165.31 384.66 177.37 376.67 177.30 371.00
  C 177.12 356.08 175.48 346.18 171.75 331.95
  C 167.69 316.42 166.20 301.61 165.71 285.77
  Q 165.55 280.90 161.75 277.97
  Q 161.34 277.66 161.21 277.17
  Q 153.20 248.31 154.43 218.34
  Q 154.45 217.81 154.79 217.40
  L 156.79 215.02
  Q 157.09 214.67 156.84 214.28
  C 154.82 211.06 152.53 208.61 151.74 204.82
  C 148.60 189.68 146.99 171.28 149.32 155.19
  C 151.13 142.69 156.26 133.32 170.24 134.77
  C 175.84 135.35 180.62 142.43 182.89 147.25
  Q 184.53 150.72 185.15 156.41
  Q 188.37 185.41 188.80 194.74
  Q 188.88 196.54 187.02 201.64
  Q 186.83 202.15 187.06 202.63
  Q 187.67 203.91 187.21 205.26
  Q 187.03 205.81 187.43 206.23
  C 188.05 206.87 189.11 207.64 188.77 208.65
  Q 188.59 209.17 188.08 208.96
  L 186.31 208.21
  Q 185.65 207.93 185.52 208.64
  C 185.20 210.30 187.87 210.12 188.76 209.94
  Q 189.26 209.85 189.52 210.27
  Q 189.87 210.84 189.21 211.39
  Q 188.75 211.77 189.06 212.28
  L 190.01 213.84
  Q 190.24 214.22 189.97 214.57
  L 189.06 215.76
  Q 188.58 216.39 189.35 216.56
  Q 189.89 216.68 190.34 216.97
  Q 190.96 217.38 190.22 217.38
  L 188.21 217.37
  Q 187.58 217.37 187.46 216.76
  L 187.26 215.80
  Q 187.09 214.99 187.92 215.01
  Q 188.99 215.04 188.71 213.86
  Q 188.59 213.32 188.11 213.61
  Q 186.81 214.41 185.88 215.68
  A 1.62 1.62 0.0 0 0 186.91 218.24
  Q 188.79 218.55 189.62 220.24
  Q 189.86 220.73 190.40 220.70
  Z
  M 355.7764 193.2979
  A 0.64 0.51 -15.6 0 0 355.0229 192.9788
  A 0.64 0.51 -15.6 0 0 354.5436 193.6421
  A 0.64 0.51 -15.6 0 0 355.2971 193.9612
  A 0.64 0.51 -15.6 0 0 355.7764 193.2979
  Z
  M 353.00 207.74
  Q 352.86 207.32 352.36 207.56
  A 0.28 0.27 68.9 0 0 352.22 207.89
  Q 353.21 210.85 356.22 209.86
  Q 356.63 209.72 356.76 210.13
  L 357.19 211.43
  Q 358.01 213.89 357.74 211.31
  Q 357.35 207.52 356.71 203.75
  Q 356.52 202.61 356.21 203.73
  Q 355.70 205.57 353.73 205.24
  Q 353.10 205.13 353.22 205.76
  Q 353.41 206.76 353.32 207.76
  Q 353.24 208.53 353.00 207.74
  Z
  M 349.25 205.88
  Q 348.08 208.11 346.19 206.62
  Q 345.92 206.41 345.60 206.30
  Q 344.93 206.07 344.81 206.78
  Q 344.73 207.22 345.10 207.48
  C 346.06 208.16 349.41 207.31 350.69 207.20
  Q 351.57 207.13 350.92 206.53
  L 350.06 205.74
  A 0.52 0.52 0.0 0 0 349.25 205.88
  Z
  M 342.80 209.30
  C 343.63 209.21 343.86 207.69 343.78 207.03
  Q 343.72 206.52 343.21 206.42
  L 342.01 206.19
  Q 340.77 205.95 341.76 206.87
  Q 342.51 207.56 342.24 208.66
  Q 342.06 209.38 342.80 209.30
  Z
  M 160.29 209.63
  Q 159.87 211.21 160.04 212.86
  Q 160.10 213.50 160.74 213.50
  L 161.32 213.50
  Q 162.11 213.50 161.90 212.75
  L 161.02 209.63
  Q 160.65 208.31 160.29 209.63
  Z
  M 185.8092 213.2881
  A 1.28 1.03 86.9 0 0 186.7685 211.9543
  A 1.28 1.03 86.9 0 0 185.6708 210.7319
  A 1.28 1.03 86.9 0 0 184.7115 212.0657
  A 1.28 1.03 86.9 0 0 185.8092 213.2881
  Z
  M 164.95 211.52
  Q 164.12 211.50 164.70 212.08
  L 166.30 213.68
  A 0.45 0.45 0.0 0 0 167.06 213.28
  Q 166.74 211.56 164.95 211.52
  Z
  M 172.6799 212.4962
  A 1.58 0.48 -0.5 0 0 171.0958 212.0300
  A 1.58 0.48 -0.5 0 0 169.5201 212.5238
  A 1.58 0.48 -0.5 0 0 171.1042 212.9900
  A 1.58 0.48 -0.5 0 0 172.6799 212.4962
  Z
  M 251.18 249.80
  L 250.68 249.30
  Q 250.20 248.83 250.12 249.49
  C 249.98 250.53 252.51 250.82 253.22 251.04
  Q 254.00 251.27 254.00 250.46
  L 254.00 249.49
  Q 254.00 248.79 253.39 249.12
  L 251.91 249.91
  Q 251.50 250.13 251.18 249.80
  Z
  M 259.46 251.53
  L 259.92 253.54
  Q 260.04 254.07 260.58 253.99
  L 261.19 253.91
  Q 263.24 253.63 261.87 252.08
  L 259.81 249.74
  Q 259.41 249.29 259.11 249.80
  L 258.65 250.57
  Q 258.59 250.66 258.65 250.76
  Q 258.76 250.95 259.00 251.02
  Q 259.37 251.14 259.46 251.53
  Z
  M 257.31 252.53
  L 256.95 253.80
  Q 256.75 254.52 257.47 254.70
  Q 258.52 254.97 258.97 254.09
  Q 259.22 253.59 258.83 253.20
  L 257.98 252.35
  Q 257.49 251.87 257.31 252.53
  Z
  M 176.3832 255.7441
  A 0.78 0.50 101.6 0 0 177.0298 255.0805
  A 0.78 0.50 101.6 0 0 176.6968 254.2159
  A 0.78 0.50 101.6 0 0 176.0502 254.8795
  A 0.78 0.50 101.6 0 0 176.3832 255.7441
  Z
  M 347.99 258.71
  Q 349.21 259.14 350.43 258.74
  Q 350.74 258.64 350.75 258.31
  Q 350.75 258.11 350.75 257.89
  Q 350.73 257.37 350.22 257.50
  L 348.03 258.05
  Q 346.91 258.33 347.99 258.71
  Z
  M 105.5924 262.5051
  A 1.29 0.53 85.0 0 0 106.0080 261.1738
  A 1.29 0.53 85.0 0 0 105.3676 259.9349
  A 1.29 0.53 85.0 0 0 104.9520 261.2662
  A 1.29 0.53 85.0 0 0 105.5924 262.5051
  Z
  M 350.05 262.17
  Q 349.98 262.07 349.91 261.97
  Q 349.75 261.75 349.53 261.89
  Q 347.40 263.28 350.05 262.20
  Q 350.06 262.19 350.05 262.17
  Z
  M 340.54 269.93
  Q 341.09 271.14 342.30 271.53
  Q 343.00 271.76 343.00 271.02
  L 343.00 269.79
  Q 343.00 269.07 342.29 269.21
  L 340.92 269.49
  Q 339.96 269.68 340.45 268.83
  Q 341.89 266.33 339.85 264.51
  Q 339.45 264.16 339.23 264.64
  Q 338.06 267.25 339.95 269.09
  Q 340.32 269.46 340.54 269.93
  Z
  M 349.18 268.67
  Q 349.47 269.39 350.09 269.85
  Q 350.71 270.30 351.14 269.67
  Q 351.81 268.72 351.46 267.46
  Q 351.20 266.50 350.20 266.51
  Q 348.52 266.55 347.62 265.18
  Q 346.70 263.80 347.02 265.43
  Q 347.33 267.02 348.65 267.98
  Q 349.02 268.25 349.18 268.67
  Z
  M 343.83 267.98
  L 343.76 266.00
  Q 343.71 264.91 342.94 265.68
  L 342.70 265.93
  Q 342.53 266.10 342.50 266.34
  Q 342.34 267.54 343.14 268.29
  A 0.41 0.41 0.0 0 0 343.83 267.98
  Z
  M 110.40 267.23
  L 112.03 275.98
  A 0.30 0.30 0.0 0 0 112.63 275.89
  C 112.42 273.98 112.51 267.66 111.52 266.64
  A 0.66 0.66 0.0 0 0 110.40 267.23
  Z
  M 179.69 270.81
  Q 180.58 271.85 181.73 271.95
  Q 182.15 271.99 182.35 271.61
  L 183.67 269.05
  A 0.66 0.65 -67.8 0 0 183.29 268.13
  C 180.92 267.35 181.35 269.75 179.48 270.42
  Q 179.20 270.52 179.42 270.73
  Q 179.52 270.84 179.69 270.81
  Z
  M 170.80 283.01
  Q 171.90 281.60 172.10 279.74
  Q 172.25 278.36 171.19 279.25
  Q 169.60 280.59 169.96 282.80
  A 0.47 0.47 0.0 0 0 170.80 283.01
  Z
  M 167.38 283.26
  Q 167.98 284.04 168.73 283.65
  Q 169.17 283.43 168.91 283.01
  Q 168.22 281.90 168.72 280.75
  Q 169.69 278.54 168.20 280.21
  Q 167.40 281.11 167.15 282.26
  Q 167.03 282.81 167.38 283.26
  Z
  M 110.68 285.05
  Q 110.91 285.86 111.61 286.00
  Q 112.19 286.12 112.04 285.55
  L 111.17 282.13
  Q 110.98 281.36 110.36 281.85
  Q 108.59 283.24 107.40 285.16
  Q 106.74 286.22 107.86 285.68
  L 109.92 284.70
  Q 110.51 284.41 110.68 285.05
  Z
  M 101.6106 288.1044
  A 2.46 0.62 5.0 0 0 99.2140 287.2724
  A 2.46 0.62 5.0 0 0 96.7094 287.6756
  A 2.46 0.62 5.0 0 0 99.1060 288.5076
  A 2.46 0.62 5.0 0 0 101.6106 288.1044
  Z
  M 118.86 333.56
  Q 122.26 333.64 118.84 332.35
  Q 117.99 332.02 118.26 332.89
  L 118.35 333.17
  Q 118.46 333.55 118.86 333.56
  Z
  M 238.99 387.83
  L 238.81 387.45
  A 0.46 0.45 22.3 0 0 237.97 387.80
  L 238.31 388.71
  Q 238.39 388.90 238.53 388.76
  L 238.89 388.41
  Q 239.14 388.15 238.99 387.83
  Z
  M 235.1046 394.7068
  A 1.00 0.60 104.8 0 0 235.9401 393.8933
  A 1.00 0.60 104.8 0 0 235.6154 392.7732
  A 1.00 0.60 104.8 0 0 234.7799 393.5867
  A 1.00 0.60 104.8 0 0 235.1046 394.7068
  Z
  M 242.8529 395.9489
  A 1.07 0.64 47.5 0 0 242.6019 394.7276
  A 1.07 0.64 47.5 0 0 241.4071 394.3711
  A 1.07 0.64 47.5 0 0 241.6581 395.5924
  A 1.07 0.64 47.5 0 0 242.8529 395.9489
  Z
  M 260.55 396.97
  L 256.54 397.93
  A 0.15 0.15 0.0 0 0 256.43 398.11
  L 256.44 398.16
  A 2.08 1.30 -13.5 0 0 258.77 398.94
  L 259.02 398.88
  A 2.08 1.30 -13.5 0 0 260.74 397.13
  L 260.73 397.08
  A 0.15 0.15 0.0 0 0 260.55 396.97
  Z
  M 222.45 402.24
  Q 221.38 403.05 222.20 403.57
  Q 222.75 403.92 222.75 403.27
  L 222.75 402.39
  Q 222.75 402.02 222.45 402.24
  Z
  M 159.52 462.24
  Q 158.68 461.65 158.56 462.61
  Q 158.45 463.57 159.20 462.97
  L 159.54 462.70
  Q 159.84 462.46 159.52 462.24
  Z
  M 195.75 498.04
  Q 195.81 497.47 195.70 496.92
  Q 195.22 494.31 195.24 497.00
  L 195.27 500.15
  A 0.27 0.27 0.0 0 0 195.74 500.34
  Q 196.23 499.82 195.91 499.05
  Q 195.71 498.56 195.75 498.04
  Z
  M 195.69 503.94
  Q 195.63 504.00 195.56 504.06
  Q 193.03 506.27 195.92 504.43
  Q 196.58 504.01 196.77 503.29
  Q 196.84 503.00 196.54 503.00
  Q 196.37 503.00 196.20 503.00
  Q 196.00 503.00 196.00 503.20
  Q 196.00 503.35 196.00 503.50
  Q 196.00 503.60 195.69 503.94
  Z
  M 167.52 529.71
  Q 166.55 527.50 164.64 526.37
  Q 164.27 526.15 164.50 526.51
  L 166.43 529.57
  Q 169.82 534.94 167.52 529.71
  Z
  M 174.30 540.02
  C 173.64 537.23 172.75 537.40 171.10 536.00
  Q 170.74 535.70 170.29 535.81
  Q 167.82 536.39 167.98 539.00
  Q 168.01 539.53 168.37 539.92
  L 171.20 542.91
  Q 171.75 543.50 171.75 542.69
  L 171.75 541.40
  Q 171.75 540.80 172.34 540.70
  L 174.03 540.43
  Q 174.38 540.37 174.30 540.02
  Z
  M 262.4188 559.4219
  A 1.16 0.71 18.7 0 0 261.5476 558.3775
  A 1.16 0.71 18.7 0 0 260.2212 558.6781
  A 1.16 0.71 18.7 0 0 261.0924 559.7225
  A 1.16 0.71 18.7 0 0 262.4188 559.4219
  Z
  M 329.77 575.72
  L 328.53 575.12
  A 0.44 0.44 0.0 0 0 327.94 575.33
  L 327.89 575.43
  A 4.08 1.05 -64.2 0 0 327.06 579.56
  L 327.20 579.63
  A 4.08 1.05 -64.2 0 0 329.92 576.42
  L 329.98 576.31
  A 0.44 0.44 0.0 0 0 329.77 575.72
  Z
  M 296.19 591.78
  L 296.44 592.90
  Q 296.64 593.80 297.06 592.97
  Q 297.61 591.88 296.71 591.38
  Q 296.01 591.00 296.19 591.78
  Z
  M 294.77 594.00
  L 294.29 593.04
  A 0.33 0.33 0.0 0 0 293.67 593.25
  L 293.99 594.94
  Q 294.04 595.25 294.26 595.03
  L 294.67 594.62
  Q 294.95 594.35 294.77 594.00
  Z
  M 281.63 599.28
  C 283.30 598.71 283.04 597.49 281.78 596.76
  Q 281.25 596.46 281.25 597.07
  L 281.25 599.01
  A 0.29 0.29 0.0 0 0 281.63 599.28
  Z"
/>
<rect fill="#000000" x="-0.42" y="-13.45" transform="translate(57.26,154.62) rotate(29.3)" width="0.84" height="26.90" rx="0.26"/>
<ellipse fill="#ffffff" cx="0.00" cy="0.00" transform="translate(355.16,193.47) rotate(-15.6)" rx="0.64" ry="0.51"/>
<path fill="#ffffff" d="
  M 353.32 207.76
  Q 353.41 206.76 353.22 205.76
  Q 353.10 205.13 353.73 205.24
  Q 355.70 205.57 356.21 203.73
  Q 356.52 202.61 356.71 203.75
  Q 357.35 207.52 357.74 211.31
  Q 358.01 213.89 357.19 211.43
  L 356.76 210.13
  Q 356.63 209.72 356.22 209.86
  Q 353.21 210.85 352.22 207.89
  A 0.28 0.27 68.9 0 1 352.36 207.56
  Q 352.86 207.32 353.00 207.74
  Q 353.24 208.53 353.32 207.76
  Z"
/>
<path fill="#ffffff" d="
  M 349.25 205.88
  A 0.52 0.52 0.0 0 1 350.06 205.74
  L 350.92 206.53
  Q 351.57 207.13 350.69 207.20
  C 349.41 207.31 346.06 208.16 345.10 207.48
  Q 344.73 207.22 344.81 206.78
  Q 344.93 206.07 345.60 206.30
  Q 345.92 206.41 346.19 206.62
  Q 348.08 208.11 349.25 205.88
  Z"
/>
<path fill="#ffffff" d="
  M 343.78 207.03
  C 343.86 207.69 343.63 209.21 342.80 209.30
  Q 342.06 209.38 342.24 208.66
  Q 342.51 207.56 341.76 206.87
  Q 340.77 205.95 342.01 206.19
  L 343.21 206.42
  Q 343.72 206.52 343.78 207.03
  Z"
/>
<path fill="#ffffff" d="
  M 160.29 209.63
  Q 160.65 208.31 161.02 209.63
  L 161.90 212.75
  Q 162.11 213.50 161.32 213.50
  L 160.74 213.50
  Q 160.10 213.50 160.04 212.86
  Q 159.87 211.21 160.29 209.63
  Z"
/>
<ellipse fill="#ffffff" cx="0.00" cy="0.00" transform="translate(185.74,212.01) rotate(86.9)" rx="1.28" ry="1.03"/>
<path fill="#ffffff" d="
  M 164.95 211.52
  Q 166.74 211.56 167.06 213.28
  A 0.45 0.45 0.0 0 1 166.30 213.68
  L 164.70 212.08
  Q 164.12 211.50 164.95 211.52
  Z"
/>
<ellipse fill="#ffffff" cx="0.00" cy="0.00" transform="translate(171.10,212.51) rotate(-0.5)" rx="1.58" ry="0.48"/>
<path fill="#ffffff" d="
  M 251.91 249.91
  L 253.39 249.12
  Q 254.00 248.79 254.00 249.49
  L 254.00 250.46
  Q 254.00 251.27 253.22 251.04
  C 252.51 250.82 249.98 250.53 250.12 249.49
  Q 250.20 248.83 250.68 249.30
  L 251.18 249.80
  Q 251.50 250.13 251.91 249.91
  Z"
/>
<path fill="#ffffff" d="
  M 259.00 251.02
  Q 258.76 250.95 258.65 250.76
  Q 258.59 250.66 258.65 250.57
  L 259.11 249.80
  Q 259.41 249.29 259.81 249.74
  L 261.87 252.08
  Q 263.24 253.63 261.19 253.91
  L 260.58 253.99
  Q 260.04 254.07 259.92 253.54
  L 259.46 251.53
  Q 259.37 251.14 259.00 251.02
  Z"
/>
<path fill="#ffffff" d="
  M 257.31 252.53
  Q 257.49 251.87 257.98 252.35
  L 258.83 253.20
  Q 259.22 253.59 258.97 254.09
  Q 258.52 254.97 257.47 254.70
  Q 256.75 254.52 256.95 253.80
  L 257.31 252.53
  Z"
/>
<ellipse fill="#ffffff" cx="0.00" cy="0.00" transform="translate(176.54,254.98) rotate(101.6)" rx="0.78" ry="0.50"/>
<path fill="#ffffff" d="
  M 347.99 258.71
  Q 346.91 258.33 348.03 258.05
  L 350.22 257.50
  Q 350.73 257.37 350.75 257.89
  Q 350.75 258.11 350.75 258.31
  Q 350.74 258.64 350.43 258.74
  Q 349.21 259.14 347.99 258.71
  Z"
/>
<ellipse fill="#ffffff" cx="0.00" cy="0.00" transform="translate(105.48,261.22) rotate(85.0)" rx="1.29" ry="0.53"/>
<path fill="#ffffff" d="
  M 350.05 262.20
  Q 347.40 263.28 349.53 261.89
  Q 349.75 261.75 349.91 261.97
  Q 349.98 262.07 350.05 262.17
  Q 350.06 262.19 350.05 262.20
  Z"
/>
<path fill="#ffffff" d="
  M 339.95 269.09
  Q 338.06 267.25 339.23 264.64
  Q 339.45 264.16 339.85 264.51
  Q 341.89 266.33 340.45 268.83
  Q 339.96 269.68 340.92 269.49
  L 342.29 269.21
  Q 343.00 269.07 343.00 269.79
  L 343.00 271.02
  Q 343.00 271.76 342.30 271.53
  Q 341.09 271.14 340.54 269.93
  Q 340.32 269.46 339.95 269.09
  Z"
/>
<path fill="#ffffff" d="
  M 348.65 267.98
  Q 347.33 267.02 347.02 265.43
  Q 346.70 263.80 347.62 265.18
  Q 348.52 266.55 350.20 266.51
  Q 351.20 266.50 351.46 267.46
  Q 351.81 268.72 351.14 269.67
  Q 350.71 270.30 350.09 269.85
  Q 349.47 269.39 349.18 268.67
  Q 349.02 268.25 348.65 267.98
  Z"
/>
<path fill="#ffffff" d="
  M 343.83 267.98
  A 0.41 0.41 0.0 0 1 343.14 268.29
  Q 342.34 267.54 342.50 266.34
  Q 342.53 266.10 342.70 265.93
  L 342.94 265.68
  Q 343.71 264.91 343.76 266.00
  L 343.83 267.98
  Z"
/>
<path fill="#ffffff" d="
  M 110.40 267.23
  A 0.66 0.66 0.0 0 1 111.52 266.64
  C 112.51 267.66 112.42 273.98 112.63 275.89
  A 0.30 0.30 0.0 0 1 112.03 275.98
  L 110.40 267.23
  Z"
/>
<path fill="#000000" d="
  M 194.00 268.05
  Q 196.02 268.74 197.17 266.88
  Q 197.30 266.67 197.47 266.85
  L 197.73 267.10
  Q 197.84 267.21 197.72 267.31
  L 195.24 269.53
  Q 194.66 270.05 194.03 269.58
  Q 193.14 268.92 193.58 267.56
  Q 193.64 267.39 193.69 267.57
  Q 193.73 267.70 193.78 267.83
  Q 193.84 267.99 194.00 268.05
  Z"
/>
<path fill="#ffffff" d="
  M 179.69 270.81
  Q 179.52 270.84 179.42 270.73
  Q 179.20 270.52 179.48 270.42
  C 181.35 269.75 180.92 267.35 183.29 268.13
  A 0.66 0.65 -67.8 0 1 183.67 269.05
  L 182.35 271.61
  Q 182.15 271.99 181.73 271.95
  Q 180.58 271.85 179.69 270.81
  Z"
/>
<path fill="#000000" d="
  M 194.08 272.01
  A 0.27 0.27 0.0 0 1 194.54 272.11
  L 194.77 272.82
  Q 194.90 273.25 194.45 273.25
  Q 194.10 273.25 193.79 273.25
  Q 193.00 273.26 193.52 272.66
  L 194.08 272.01
  Z"
/>
<ellipse fill="#000000" cx="0.00" cy="0.00" transform="translate(175.72,277.40) rotate(90.4)" rx="1.49" ry="0.75"/>
<path fill="#ffffff" d="
  M 170.80 283.01
  A 0.47 0.47 0.0 0 1 169.96 282.80
  Q 169.60 280.59 171.19 279.25
  Q 172.25 278.36 172.10 279.74
  Q 171.90 281.60 170.80 283.01
  Z"
/>
<path fill="#ffffff" d="
  M 167.38 283.26
  Q 167.03 282.81 167.15 282.26
  Q 167.40 281.11 168.20 280.21
  Q 169.69 278.54 168.72 280.75
  Q 168.22 281.90 168.91 283.01
  Q 169.17 283.43 168.73 283.65
  Q 167.98 284.04 167.38 283.26
  Z"
/>
<path fill="#ffffff" d="
  M 109.92 284.70
  L 107.86 285.68
  Q 106.74 286.22 107.40 285.16
  Q 108.59 283.24 110.36 281.85
  Q 110.98 281.36 111.17 282.13
  L 112.04 285.55
  Q 112.19 286.12 111.61 286.00
  Q 110.91 285.86 110.68 285.05
  Q 110.51 284.41 109.92 284.70
  Z"
/>
<ellipse fill="#ffffff" cx="0.00" cy="0.00" transform="translate(99.16,287.89) rotate(5.0)" rx="2.46" ry="0.62"/>
<path fill="#ffffff" d="
  M 118.35 333.17
  L 118.26 332.89
  Q 117.99 332.02 118.84 332.35
  Q 122.26 333.64 118.86 333.56
  Q 118.46 333.55 118.35 333.17
  Z"
/>
<path fill="#ffffff" d="
  M 238.89 388.41
  L 238.53 388.76
  Q 238.39 388.90 238.31 388.71
  L 237.97 387.80
  A 0.46 0.45 22.3 0 1 238.81 387.45
  L 238.99 387.83
  Q 239.14 388.15 238.89 388.41
  Z"
/>
<ellipse fill="#ffffff" cx="0.00" cy="0.00" transform="translate(235.36,393.74) rotate(104.8)" rx="1.00" ry="0.60"/>
<ellipse fill="#ffffff" cx="0.00" cy="0.00" transform="translate(242.13,395.16) rotate(47.5)" rx="1.07" ry="0.64"/>
<path fill="#ffffff" d="
  M 260.55 396.97
  A 0.15 0.15 0.0 0 1 260.73 397.08
  L 260.74 397.13
  A 2.08 1.30 -13.5 0 1 259.02 398.88
  L 258.77 398.94
  A 2.08 1.30 -13.5 0 1 256.44 398.16
  L 256.43 398.11
  A 0.15 0.15 0.0 0 1 256.54 397.93
  L 260.55 396.97
  Z"
/>
<path fill="#ffffff" d="
  M 222.75 402.39
  L 222.75 403.27
  Q 222.75 403.92 222.20 403.57
  Q 221.38 403.05 222.45 402.24
  Q 222.75 402.02 222.75 402.39
  Z"
/>
<path fill="#ffffff" d="
  M 159.54 462.70
  L 159.20 462.97
  Q 158.45 463.57 158.56 462.61
  Q 158.68 461.65 159.52 462.24
  Q 159.84 462.46 159.54 462.70
  Z"
/>
<path fill="#ffffff" d="
  M 195.91 499.05
  Q 196.23 499.82 195.74 500.34
  A 0.27 0.27 0.0 0 1 195.27 500.15
  L 195.24 497.00
  Q 195.22 494.31 195.70 496.92
  Q 195.81 497.47 195.75 498.04
  Q 195.71 498.56 195.91 499.05
  Z"
/>
<path fill="#ffffff" d="
  M 196.00 503.50
  Q 196.00 503.35 196.00 503.20
  Q 196.00 503.00 196.20 503.00
  Q 196.37 503.00 196.54 503.00
  Q 196.84 503.00 196.77 503.29
  Q 196.58 504.01 195.92 504.43
  Q 193.03 506.27 195.56 504.06
  Q 195.63 504.00 195.69 503.94
  Q 196.00 503.60 196.00 503.50
  Z"
/>
<path fill="#ffffff" d="
  M 166.43 529.57
  L 164.50 526.51
  Q 164.27 526.15 164.64 526.37
  Q 166.55 527.50 167.52 529.71
  Q 169.82 534.94 166.43 529.57
  Z"
/>
<path fill="#ffffff" d="
  M 171.10 536.00
  C 172.75 537.40 173.64 537.23 174.30 540.02
  Q 174.38 540.37 174.03 540.43
  L 172.34 540.70
  Q 171.75 540.80 171.75 541.40
  L 171.75 542.69
  Q 171.75 543.50 171.20 542.91
  L 168.37 539.92
  Q 168.01 539.53 167.98 539.00
  Q 167.82 536.39 170.29 535.81
  Q 170.74 535.70 171.10 536.00
  Z"
/>
<ellipse fill="#000000" cx="0.00" cy="0.00" transform="translate(209.09,540.50) rotate(52.6)" rx="3.04" ry="0.63"/>
<ellipse fill="#000000" cx="0.00" cy="0.00" transform="translate(252.22,558.46) rotate(63.4)" rx="0.74" ry="0.44"/>
<ellipse fill="#ffffff" cx="0.00" cy="0.00" transform="translate(261.32,559.05) rotate(18.7)" rx="1.16" ry="0.71"/>
<path fill="#000000" d="
  M 191.06 561.96
  A 0.51 0.51 0.0 0 1 191.52 561.21
  Q 193.11 561.26 193.46 562.78
  Q 193.55 563.16 193.21 563.36
  L 192.48 563.79
  Q 192.15 563.98 191.98 563.65
  L 191.06 561.96
  Z"
/>
<path fill="#ffffff" d="
  M 329.77 575.72
  A 0.44 0.44 0.0 0 1 329.98 576.31
  L 329.92 576.42
  A 4.08 1.05 -64.2 0 1 327.20 579.63
  L 327.06 579.56
  A 4.08 1.05 -64.2 0 1 327.89 575.43
  L 327.94 575.33
  A 0.44 0.44 0.0 0 1 328.53 575.12
  L 329.77 575.72
  Z"
/>
<path fill="#ffffff" d="
  M 296.19 591.78
  Q 296.01 591.00 296.71 591.38
  Q 297.61 591.88 297.06 592.97
  Q 296.64 593.80 296.44 592.90
  L 296.19 591.78
  Z"
/>
<path fill="#ffffff" d="
  M 294.67 594.62
  L 294.26 595.03
  Q 294.04 595.25 293.99 594.94
  L 293.67 593.25
  A 0.33 0.33 0.0 0 1 294.29 593.04
  L 294.77 594.00
  Q 294.95 594.35 294.67 594.62
  Z"
/>
<path fill="#ffffff" d="
  M 281.63 599.28
  A 0.29 0.29 0.0 0 1 281.25 599.01
  L 281.25 597.07
  Q 281.25 596.46 281.78 596.76
  C 283.04 597.49 283.30 598.71 281.63 599.28
  Z"
/>
</svg>
