<?xml version="1.0" encoding="UTF-8" standalone="no"?>
<!DOCTYPE svg PUBLIC "-//W3C//DTD SVG 1.1//EN" "http://www.w3.org/Graphics/SVG/1.1/DTD/svg11.dtd">
<svg xmlns="http://www.w3.org/2000/svg" version="1.1" viewBox="0.00 0.00 1419.00 1476.00">
<g stroke-width="2.00" fill="none" stroke-linecap="butt">
<path stroke="#808080" vector-effect="non-scaling-stroke" d="
  M 513.19 1065.00
  A 0.62 0.62 0.0 0 1 513.72 1065.30
  L 704.93 1396.54
  Q 705.20 1397.00 705.73 1397.00
  L 714.73 1397.00
  Q 715.36 1397.00 715.68 1396.45
  L 906.65 1065.63
  A 1.26 1.25 14.8 0 1 907.74 1065.00
  L 1289.69 1065.00
  Q 1290.20 1065.00 1290.30 1064.51
  C 1290.91 1061.68 1292.45 1059.20 1292.63 1056.64
  Q 1292.92 1052.46 1290.76 1048.72
  Q 1197.32 886.68 1103.80 724.72
  A 0.69 0.67 -45.8 0 1 1103.80 724.05
  Q 1197.21 562.28 1290.56 400.51
  C 1293.02 396.23 1294.01 387.45 1289.94 384.07
  Q 1289.55 383.75 1289.05 383.75
  L 907.53 383.75
  Q 907.00 383.75 906.74 383.29
  L 715.79 52.50
  A 1.19 1.18 -26.8 0 0 714.28 52.01
  Q 710.01 53.86 705.78 51.83
  Q 705.30 51.59 705.03 52.06
  L 513.82 383.29
  Q 513.56 383.75 513.02 383.75
  L 130.97 383.75
  Q 130.44 383.75 130.16 384.20
  C 128.72 386.61 124.96 391.77 126.53 394.48
  Q 221.61 559.26 316.73 724.03
  A 0.71 0.71 0.0 0 1 316.73 724.75
  Q 222.07 888.71 127.44 1052.71
  C 125.71 1055.71 125.91 1057.93 128.81 1059.82
  Q 129.23 1060.10 129.35 1060.60
  L 130.22 1064.44
  Q 130.35 1065.00 130.93 1065.00
  L 513.19 1065.00"
/>
<path stroke="#808080" vector-effect="non-scaling-stroke" d="
  M 716.24 77.75
  L 716.25 383.25
  Q 716.25 383.75 716.75 383.75
  L 892.52 383.75
  Q 893.35 383.75 892.94 383.03
  L 716.67 77.63
  A 0.23 0.23 0.0 0 0 716.24 77.75"
/>
<path stroke="#808080" vector-effect="non-scaling-stroke" d="
  M 704.50 77.79
  A 0.33 0.33 0.0 0 0 703.88 77.63
  L 527.51 383.26
  A 0.33 0.33 0.0 0 0 527.79 383.75
  L 704.17 383.75
  A 0.33 0.33 0.0 0 0 704.50 383.42
  L 704.50 77.79"
/>
<path stroke="#808080" vector-effect="non-scaling-stroke" d="
  M 420.28 879.80
  A 0.34 0.34 0.0 0 0 420.87 879.80
  L 698.01 396.01
  A 0.34 0.34 0.0 0 0 697.71 395.50
  L 141.32 395.50
  A 0.34 0.34 0.0 0 0 141.02 396.01
  L 420.28 879.80"
/>
<path stroke="#808080" vector-effect="non-scaling-stroke" d="
  M 1279.46 396.50
  A 0.34 0.34 0.0 0 0 1279.17 395.99
  L 722.78 395.02
  A 0.34 0.34 0.0 0 0 722.48 395.53
  L 999.83 879.81
  A 0.34 0.34 0.0 0 0 1000.42 879.81
  L 1279.46 396.50"
/>
<path stroke="#808080" vector-effect="non-scaling-stroke" d="
  M 704.30 410.05
  A 0.35 0.35 0.0 0 0 703.65 409.87
  L 436.97 875.51
  A 0.35 0.35 0.0 0 0 437.45 875.99
  L 704.69 719.86
  A 0.35 0.35 0.0 0 0 704.86 719.55
  L 704.30 410.05"
/>
<path stroke="#808080" vector-effect="non-scaling-stroke" d="
  M 716.25 720.27
  A 0.34 0.34 0.0 0 0 716.42 720.57
  L 982.99 875.68
  A 0.34 0.34 0.0 0 0 983.46 875.22
  L 716.89 409.87
  A 0.34 0.34 0.0 0 0 716.25 410.04
  L 716.25 720.27"
/>
<path stroke="#808080" vector-effect="non-scaling-stroke" d="
  M 443.04 886.18
  A 0.31 0.31 0.0 0 0 443.20 886.75
  L 977.36 886.75
  A 0.31 0.31 0.0 0 0 977.52 886.18
  L 710.44 730.77
  A 0.31 0.31 0.0 0 0 710.12 730.77
  L 443.04 886.18"
/>
<path stroke="#808080" vector-effect="non-scaling-stroke" d="
  M 324.02 736.68
  A 0.31 0.31 0.0 0 0 323.48 736.68
  L 147.20 1042.07
  A 0.31 0.31 0.0 0 0 147.62 1042.49
  L 412.06 889.78
  A 0.31 0.31 0.0 0 0 412.18 889.35
  L 324.02 736.68"
/>
<path stroke="#808080" vector-effect="non-scaling-stroke" d="
  M 1009.44 890.31
  Q 1141.12 966.36 1273.01 1042.52
  A 0.28 0.28 0.0 0 0 1273.40 1042.14
  L 1097.07 736.67
  A 0.31 0.31 0.0 0 0 1096.53 736.67
  Q 1053.30 811.56 1010.05 886.50
  C 1009.44 887.56 1007.61 889.26 1009.44 890.31"
/>
<path stroke="#808080" vector-effect="non-scaling-stroke" d="
  M 989.20 898.99
  A 0.33 0.33 0.0 0 0 988.91 898.50
  L 431.65 898.50
  A 0.33 0.33 0.0 0 0 431.36 898.99
  L 709.99 1381.70
  A 0.33 0.33 0.0 0 0 710.57 1381.70
  L 989.20 898.99"
/>
<path stroke="#808080" vector-effect="non-scaling-stroke" d="
  M 506.32 1052.49
  L 418.55 900.42
  Q 418.22 899.87 417.67 900.19
  L 153.23 1052.88
  Q 152.59 1053.25 153.33 1053.25
  L 505.89 1053.25
  Q 506.76 1053.25 506.32 1052.49"
/>
<path stroke="#808080" vector-effect="non-scaling-stroke" d="
  M 1266.80 1053.25
  A 0.31 0.31 0.0 0 0 1266.96 1052.67
  L 1002.62 900.03
  A 0.31 0.31 0.0 0 0 1002.19 900.14
  L 914.05 1052.78
  A 0.31 0.31 0.0 0 0 914.32 1053.25
  L 1266.80 1053.25"
/>
</g>
<path fill="#ffffff" d="
  M 0.00 0.00
  L 1419.00 0.00
  L 1419.00 1476.00
  L 0.00 1476.00
  L 0.00 0.00
  Z
  M 513.19 1065.00
  A 0.62 0.62 0.0 0 1 513.72 1065.30
  L 704.93 1396.54
  Q 705.20 1397.00 705.73 1397.00
  L 714.73 1397.00
  Q 715.36 1397.00 715.68 1396.45
  L 906.65 1065.63
  A 1.26 1.25 14.8 0 1 907.74 1065.00
  L 1289.69 1065.00
  Q 1290.20 1065.00 1290.30 1064.51
  C 1290.91 1061.68 1292.45 1059.20 1292.63 1056.64
  Q 1292.92 1052.46 1290.76 1048.72
  Q 1197.32 886.68 1103.80 724.72
  A 0.69 0.67 -45.8 0 1 1103.80 724.05
  Q 1197.21 562.28 1290.56 400.51
  C 1293.02 396.23 1294.01 387.45 1289.94 384.07
  Q 1289.55 383.75 1289.05 383.75
  L 907.53 383.75
  Q 907.00 383.75 906.74 383.29
  L 715.79 52.50
  A 1.19 1.18 -26.8 0 0 714.28 52.01
  Q 710.01 53.86 705.78 51.83
  Q 705.30 51.59 705.03 52.06
  L 513.82 383.29
  Q 513.56 383.75 513.02 383.75
  L 130.97 383.75
  Q 130.44 383.75 130.16 384.20
  C 128.72 386.61 124.96 391.77 126.53 394.48
  Q 221.61 559.26 316.73 724.03
  A 0.71 0.71 0.0 0 1 316.73 724.75
  Q 222.07 888.71 127.44 1052.71
  C 125.71 1055.71 125.91 1057.93 128.81 1059.82
  Q 129.23 1060.10 129.35 1060.60
  L 130.22 1064.44
  Q 130.35 1065.00 130.93 1065.00
  L 513.19 1065.00
  Z"
/>
<path fill="#000000" d="
  M 513.19 1065.00
  L 130.93 1065.00
  Q 130.35 1065.00 130.22 1064.44
  L 129.35 1060.60
  Q 129.23 1060.10 128.81 1059.82
  C 125.91 1057.93 125.71 1055.71 127.44 1052.71
  Q 222.07 888.71 316.73 724.75
  A 0.71 0.71 0.0 0 0 316.73 724.03
  Q 221.61 559.26 126.53 394.48
  C 124.96 391.77 128.72 386.61 130.16 384.20
  Q 130.44 383.75 130.97 383.75
  L 513.02 383.75
  Q 513.56 383.75 513.82 383.29
  L 705.03 52.06
  Q 705.30 51.59 705.78 51.83
  Q 710.01 53.86 714.28 52.01
  A 1.19 1.18 -26.8 0 1 715.79 52.50
  L 906.74 383.29
  Q 907.00 383.75 907.53 383.75
  L 1289.05 383.75
  Q 1289.55 383.75 1289.94 384.07
  C 1294.01 387.45 1293.02 396.23 1290.56 400.51
  Q 1197.21 562.28 1103.80 724.05
  A 0.69 0.67 -45.8 0 0 1103.80 724.72
  Q 1197.32 886.68 1290.76 1048.72
  Q 1292.92 1052.46 1292.63 1056.64
  C 1292.45 1059.20 1290.91 1061.68 1290.30 1064.51
  Q 1290.20 1065.00 1289.69 1065.00
  L 907.74 1065.00
  A 1.26 1.25 14.8 0 0 906.65 1065.63
  L 715.68 1396.45
  Q 715.36 1397.00 714.73 1397.00
  L 705.73 1397.00
  Q 705.20 1397.00 704.93 1396.54
  L 513.72 1065.30
  A 0.62 0.62 0.0 0 0 513.19 1065.00
  Z
  M 716.24 77.75
  L 716.25 383.25
  Q 716.25 383.75 716.75 383.75
  L 892.52 383.75
  Q 893.35 383.75 892.94 383.03
  L 716.67 77.63
  A 0.23 0.23 0.0 0 0 716.24 77.75
  Z
  M 704.50 77.79
  A 0.33 0.33 0.0 0 0 703.88 77.63
  L 527.51 383.26
  A 0.33 0.33 0.0 0 0 527.79 383.75
  L 704.17 383.75
  A 0.33 0.33 0.0 0 0 704.50 383.42
  L 704.50 77.79
  Z
  M 420.28 879.80
  A 0.34 0.34 0.0 0 0 420.87 879.80
  L 698.01 396.01
  A 0.34 0.34 0.0 0 0 697.71 395.50
  L 141.32 395.50
  A 0.34 0.34 0.0 0 0 141.02 396.01
  L 420.28 879.80
  Z
  M 1279.46 396.50
  A 0.34 0.34 0.0 0 0 1279.17 395.99
  L 722.78 395.02
  A 0.34 0.34 0.0 0 0 722.48 395.53
  L 999.83 879.81
  A 0.34 0.34 0.0 0 0 1000.42 879.81
  L 1279.46 396.50
  Z
  M 704.30 410.05
  A 0.35 0.35 0.0 0 0 703.65 409.87
  L 436.97 875.51
  A 0.35 0.35 0.0 0 0 437.45 875.99
  L 704.69 719.86
  A 0.35 0.35 0.0 0 0 704.86 719.55
  L 704.30 410.05
  Z
  M 716.25 720.27
  A 0.34 0.34 0.0 0 0 716.42 720.57
  L 982.99 875.68
  A 0.34 0.34 0.0 0 0 983.46 875.22
  L 716.89 409.87
  A 0.34 0.34 0.0 0 0 716.25 410.04
  L 716.25 720.27
  Z
  M 443.04 886.18
  A 0.31 0.31 0.0 0 0 443.20 886.75
  L 977.36 886.75
  A 0.31 0.31 0.0 0 0 977.52 886.18
  L 710.44 730.77
  A 0.31 0.31 0.0 0 0 710.12 730.77
  L 443.04 886.18
  Z
  M 324.02 736.68
  A 0.31 0.31 0.0 0 0 323.48 736.68
  L 147.20 1042.07
  A 0.31 0.31 0.0 0 0 147.62 1042.49
  L 412.06 889.78
  A 0.31 0.31 0.0 0 0 412.18 889.35
  L 324.02 736.68
  Z
  M 1009.44 890.31
  Q 1141.12 966.36 1273.01 1042.52
  A 0.28 0.28 0.0 0 0 1273.40 1042.14
  L 1097.07 736.67
  A 0.31 0.31 0.0 0 0 1096.53 736.67
  Q 1053.30 811.56 1010.05 886.50
  C 1009.44 887.56 1007.61 889.26 1009.44 890.31
  Z
  M 989.20 898.99
  A 0.33 0.33 0.0 0 0 988.91 898.50
  L 431.65 898.50
  A 0.33 0.33 0.0 0 0 431.36 898.99
  L 709.99 1381.70
  A 0.33 0.33 0.0 0 0 710.57 1381.70
  L 989.20 898.99
  Z
  M 506.32 1052.49
  L 418.55 900.42
  Q 418.22 899.87 417.67 900.19
  L 153.23 1052.88
  Q 152.59 1053.25 153.33 1053.25
  L 505.89 1053.25
  Q 506.76 1053.25 506.32 1052.49
  Z
  M 1266.80 1053.25
  A 0.31 0.31 0.0 0 0 1266.96 1052.67
  L 1002.62 900.03
  A 0.31 0.31 0.0 0 0 1002.19 900.14
  L 914.05 1052.78
  A 0.31 0.31 0.0 0 0 914.32 1053.25
  L 1266.80 1053.25
  Z"
/>
<path fill="#ffffff" d="
  M 716.24 77.75
  A 0.23 0.23 0.0 0 1 716.67 77.63
  L 892.94 383.03
  Q 893.35 383.75 892.52 383.75
  L 716.75 383.75
  Q 716.25 383.75 716.25 383.25
  L 716.24 77.75
  Z"
/>
<path fill="#ffffff" d="
  M 704.50 77.79
  L 704.50 383.42
  A 0.33 0.33 0.0 0 1 704.17 383.75
  L 527.79 383.75
  A 0.33 0.33 0.0 0 1 527.51 383.26
  L 703.88 77.63
  A 0.33 0.33 0.0 0 1 704.50 77.79
  Z"
/>
<path fill="#ffffff" d="
  M 420.28 879.80
  L 141.02 396.01
  A 0.34 0.34 0.0 0 1 141.32 395.50
  L 697.71 395.50
  A 0.34 0.34 0.0 0 1 698.01 396.01
  L 420.87 879.80
  A 0.34 0.34 0.0 0 1 420.28 879.80
  Z"
/>
<path fill="#ffffff" d="
  M 1279.46 396.50
  L 1000.42 879.81
  A 0.34 0.34 0.0 0 1 999.83 879.81
  L 722.48 395.53
  A 0.34 0.34 0.0 0 1 722.78 395.02
  L 1279.17 395.99
  A 0.34 0.34 0.0 0 1 1279.46 396.50
  Z"
/>
<path fill="#ffffff" d="
  M 704.30 410.05
  L 704.86 719.55
  A 0.35 0.35 0.0 0 1 704.69 719.86
  L 437.45 875.99
  A 0.35 0.35 0.0 0 1 436.97 875.51
  L 703.65 409.87
  A 0.35 0.35 0.0 0 1 704.30 410.05
  Z"
/>
<path fill="#ffffff" d="
  M 716.25 720.27
  L 716.25 410.04
  A 0.34 0.34 0.0 0 1 716.89 409.87
  L 983.46 875.22
  A 0.34 0.34 0.0 0 1 982.99 875.68
  L 716.42 720.57
  A 0.34 0.34 0.0 0 1 716.25 720.27
  Z"
/>
<path fill="#ffffff" d="
  M 443.04 886.18
  L 710.12 730.77
  A 0.31 0.31 0.0 0 1 710.44 730.77
  L 977.52 886.18
  A 0.31 0.31 0.0 0 1 977.36 886.75
  L 443.20 886.75
  A 0.31 0.31 0.0 0 1 443.04 886.18
  Z"
/>
<path fill="#ffffff" d="
  M 324.02 736.68
  L 412.18 889.35
  A 0.31 0.31 0.0 0 1 412.06 889.78
  L 147.62 1042.49
  A 0.31 0.31 0.0 0 1 147.20 1042.07
  L 323.48 736.68
  A 0.31 0.31 0.0 0 1 324.02 736.68
  Z"
/>
<path fill="#ffffff" d="
  M 1009.44 890.31
  C 1007.61 889.26 1009.44 887.56 1010.05 886.50
  Q 1053.30 811.56 1096.53 736.67
  A 0.31 0.31 0.0 0 1 1097.07 736.67
  L 1273.40 1042.14
  A 0.28 0.28 0.0 0 1 1273.01 1042.52
  Q 1141.12 966.36 1009.44 890.31
  Z"
/>
<path fill="#ffffff" d="
  M 989.20 898.99
  L 710.57 1381.70
  A 0.33 0.33 0.0 0 1 709.99 1381.70
  L 431.36 898.99
  A 0.33 0.33 0.0 0 1 431.65 898.50
  L 988.91 898.50
  A 0.33 0.33 0.0 0 1 989.20 898.99
  Z"
/>
<path fill="#ffffff" d="
  M 505.89 1053.25
  L 153.33 1053.25
  Q 152.59 1053.25 153.23 1052.88
  L 417.67 900.19
  Q 418.22 899.87 418.55 900.42
  L 506.32 1052.49
  Q 506.76 1053.25 505.89 1053.25
  Z"
/>
<path fill="#ffffff" d="
  M 1266.80 1053.25
  L 914.32 1053.25
  A 0.31 0.31 0.0 0 1 914.05 1052.78
  L 1002.19 900.14
  A 0.31 0.31 0.0 0 1 1002.62 900.03
  L 1266.96 1052.67
  A 0.31 0.31 0.0 0 1 1266.80 1053.25
  Z"
/>
</svg>
