<?xml version="1.0" encoding="UTF-8" standalone="no"?>
<!DOCTYPE svg PUBLIC "-//W3C//DTD SVG 1.1//EN" "http://www.w3.org/Graphics/SVG/1.1/DTD/svg11.dtd">
<svg xmlns="http://www.w3.org/2000/svg" version="1.1" viewBox="0.00 0.00 454.00 448.00">
<g stroke-width="2.00" fill="none" stroke-linecap="butt">
<path stroke="#808080" vector-effect="non-scaling-stroke" d="
  M 386.81 192.60
  A 0.14 0.13 88.0 0 1 386.68 192.75
  L 255.25 192.75
  A 0.50 0.50 0.0 0 1 254.75 192.25
  L 254.75 144.25
  Q 254.75 143.75 255.25 143.75
  L 259.66 143.75
  Q 260.32 143.75 260.31 143.09
  L 260.10 125.87
  Q 260.10 125.23 259.49 125.04
  Q 257.73 124.46 255.93 125.06
  A 0.90 0.89 -9.2 0 1 254.75 124.22
  L 254.75 65.98
  Q 254.75 65.38 255.35 65.42
  C 292.02 67.94 327.15 83.93 338.36 121.90
  C 342.09 134.53 340.92 148.44 330.69 157.74
  Q 330.26 158.14 330.26 158.72
  L 330.24 178.94
  Q 330.24 179.48 330.77 179.34
  C 363.83 170.76 359.70 133.28 353.55 108.56
  Q 350.90 97.94 348.51 92.05
  C 331.71 50.67 272.77 40.28 233.92 41.73
  Q 233.40 41.74 233.39 42.27
  Q 232.66 80.76 233.11 119.25
  Q 233.14 121.85 232.99 124.57
  Q 232.96 125.09 232.44 125.08
  L 222.26 124.75
  Q 221.75 124.73 221.75 125.24
  L 221.75 143.25
  A 0.50 0.50 0.0 0 0 222.25 143.75
  L 232.45 143.75
  Q 233.16 143.75 233.16 144.45
  L 233.24 213.21
  A 0.54 0.53 -90.0 0 0 233.77 213.75
  L 405.76 213.75
  Q 406.32 213.75 406.34 213.19
  Q 406.93 198.91 406.17 192.06
  C 403.25 165.78 387.35 143.28 362.50 132.75
  Q 361.77 132.44 361.78 133.23
  L 362.06 153.26
  Q 362.07 153.81 362.57 154.04
  C 377.90 161.14 385.00 176.57 386.81 192.60"
/>
<path stroke="#808080" vector-effect="non-scaling-stroke" d="
  M 66.62 191.79
  C 68.44 172.45 73.81 151.39 85.07 135.32
  C 92.84 124.22 103.75 117.43 116.50 113.29
  C 131.34 108.47 146.25 110.76 158.19 121.59
  Q 158.62 121.99 159.21 121.99
  L 179.50 122.01
  Q 180.97 122.01 180.60 120.58
  C 172.48 88.99 133.72 89.45 109.28 97.74
  C 78.24 108.28 56.59 130.12 48.01 161.33
  C 43.44 177.98 43.12 195.46 43.57 212.35
  A 0.42 0.41 -0.7 0 0 43.99 212.75
  L 125.66 212.75
  Q 126.06 212.75 126.06 213.15
  L 125.97 224.20
  Q 125.97 224.94 126.71 224.95
  L 144.98 225.27
  Q 146.50 225.29 146.50 223.77
  L 146.50 213.38
  Q 146.50 212.75 147.12 212.75
  L 214.25 212.75
  A 0.50 0.50 0.0 0 0 214.75 212.25
  L 214.75 43.19
  Q 214.75 42.50 214.06 42.50
  C 206.60 42.52 198.48 42.01 191.45 43.29
  Q 152.65 50.33 133.96 85.98
  Q 133.69 86.50 134.28 86.50
  L 156.29 86.50
  Q 156.82 86.50 157.09 86.04
  Q 169.47 65.40 193.88 64.94
  Q 194.24 64.94 194.24 65.29
  L 194.24 191.75
  Q 194.24 192.25 193.75 192.25
  L 147.16 192.25
  Q 146.50 192.25 146.50 191.59
  L 146.50 186.14
  Q 146.50 185.52 145.88 185.52
  L 126.72 185.55
  Q 126.00 185.55 126.00 186.28
  L 126.00 191.75
  Q 126.00 192.25 125.50 192.25
  L 67.04 192.25
  Q 66.57 192.25 66.62 191.79"
/>
<path stroke="#808080" vector-effect="non-scaling-stroke" d="
  M 296.50 117.25
  Q 297.75 117.34 300.24 119.41
  Q 300.65 119.75 301.19 119.75
  L 318.22 119.75
  A 0.62 0.62 0.0 0 0 318.79 118.89
  C 314.34 108.23 305.54 93.43 291.44 95.93
  C 269.02 99.91 265.46 124.45 266.33 143.19
  C 267.24 162.52 280.52 176.18 298.52 181.39
  A 0.35 0.35 0.0 0 0 298.96 181.06
  L 299.10 165.55
  Q 299.10 165.01 298.72 164.62
  C 291.57 157.43 286.41 150.95 284.45 140.77
  C 282.96 133.02 285.26 116.46 296.50 117.25"
/>
<path stroke="#808080" vector-effect="non-scaling-stroke" d="
  M 146.5431 116.3678
  A 0.75 0.75 0.0 0 0 145.7944 115.6165
  L 126.8944 115.5835
  A 0.75 0.75 0.0 0 0 126.1431 116.3322
  L 126.0769 154.2322
  A 0.75 0.75 0.0 0 0 126.8256 154.9835
  L 145.7256 155.0165
  A 0.75 0.75 0.0 0 0 146.4769 154.2678
  L 146.5431 116.3678"
/>
<path stroke="#808080" vector-effect="non-scaling-stroke" d="
  M 191.24 125.70
  A 0.74 0.74 0.0 0 0 190.50 124.96
  L 153.50 124.96
  A 0.74 0.74 0.0 0 0 152.76 125.70
  L 152.76 143.00
  A 0.74 0.74 0.0 0 0 153.50 143.74
  L 190.50 143.74
  A 0.74 0.74 0.0 0 0 191.24 143.00
  L 191.24 125.70"
/>
<path stroke="#808080" vector-effect="non-scaling-stroke" d="
  M 332.1947 125.5765
  A 0.64 0.64 0.0 0 0 331.5536 124.9376
  L 294.3736 125.0025
  A 0.64 0.64 0.0 0 0 293.7348 125.6436
  L 293.7653 143.1435
  A 0.64 0.64 0.0 0 0 294.4064 143.7824
  L 331.5864 143.7175
  A 0.64 0.64 0.0 0 0 332.2252 143.0764
  L 332.1947 125.5765"
/>
<path stroke="#808080" vector-effect="non-scaling-stroke" d="
  M 121.22 160.39
  C 120.42 158.15 121.06 155.99 121.47 153.68
  C 122.75 146.50 122.03 137.86 121.98 130.46
  Q 121.98 129.91 121.44 130.03
  C 109.80 132.60 100.52 141.39 100.43 153.66
  C 100.26 176.76 127.35 182.26 144.93 181.23
  C 164.50 180.08 179.06 170.15 183.71 150.09
  A 0.36 0.36 0.0 0 0 183.37 149.66
  L 164.60 149.43
  Q 164.05 149.43 163.89 149.95
  Q 160.30 161.61 148.53 164.76
  C 141.08 166.76 124.35 169.19 121.22 160.39"
/>
<path stroke="#808080" vector-effect="non-scaling-stroke" d="
  M 324.7833 148.4481
  A 0.68 0.68 0.0 0 0 324.1045 147.7669
  L 304.7845 147.7332
  A 0.68 0.68 0.0 0 0 304.1033 148.4120
  L 304.0367 186.5719
  A 0.68 0.68 0.0 0 0 304.7155 187.2531
  L 324.0355 187.2868
  A 0.68 0.68 0.0 0 0 324.7167 186.6080
  L 324.7833 148.4481"
/>
<path stroke="#808080" vector-effect="non-scaling-stroke" d="
  M 302.74 232.00
  L 236.00 232.00
  A 0.75 0.75 0.0 0 0 235.25 232.75
  L 235.25 401.75
  Q 235.25 402.24 235.74 402.24
  C 243.52 402.28 251.87 402.66 259.12 401.39
  C 285.23 396.82 303.83 381.53 316.46 358.31
  Q 316.65 357.97 316.26 357.97
  L 293.91 358.02
  Q 293.38 358.02 293.11 358.48
  Q 280.88 379.37 256.33 379.80
  A 0.57 0.56 89.0 0 1 255.75 379.23
  L 255.75 253.00
  Q 255.75 252.50 256.25 252.50
  L 302.79 252.50
  Q 303.33 252.50 303.32 253.04
  L 303.23 258.58
  Q 303.22 259.25 303.89 259.25
  L 323.18 259.25
  Q 323.86 259.25 323.88 258.58
  L 324.06 252.97
  Q 324.07 252.50 324.54 252.50
  L 383.17 252.50
  A 0.20 0.20 0.0 0 1 383.37 252.72
  Q 381.48 275.12 372.76 295.75
  Q 360.60 324.50 330.35 332.31
  Q 308.52 337.95 291.99 323.34
  Q 291.61 323.01 291.11 323.01
  L 270.05 323.02
  Q 269.32 323.02 269.47 323.73
  C 272.19 336.91 283.21 347.10 296.00 350.02
  C 319.35 355.36 344.28 348.95 364.83 335.29
  C 401.90 310.66 407.45 272.97 406.44 232.41
  A 0.43 0.42 -0.7 0 0 406.01 232.00
  L 324.50 232.00
  Q 324.00 232.00 324.00 231.50
  L 324.00 220.37
  Q 324.00 219.75 323.37 219.75
  L 303.99 219.75
  Q 303.23 219.75 303.23 220.51
  L 303.29 231.45
  Q 303.29 232.00 302.74 232.00"
/>
<path stroke="#808080" vector-effect="non-scaling-stroke" d="
  M 195.52 320.21
  L 195.48 378.97
  Q 195.48 379.40 195.05 379.37
  C 158.83 376.87 121.17 360.51 111.47 321.82
  C 108.08 308.27 109.32 296.69 119.28 286.98
  Q 119.65 286.62 119.65 286.10
  L 119.76 266.98
  Q 119.77 265.53 118.36 265.88
  C 81.39 275.01 92.08 324.80 100.45 349.40
  C 115.47 393.60 175.66 404.31 215.39 403.15
  Q 217.01 403.10 217.01 401.49
  L 216.99 320.04
  Q 216.99 319.57 217.46 319.57
  L 227.63 319.68
  Q 228.25 319.69 228.25 319.06
  L 228.25 302.33
  Q 228.25 300.92 226.83 300.96
  L 217.86 301.25
  Q 217.00 301.28 217.00 300.42
  L 217.00 231.79
  Q 217.00 231.32 216.53 231.32
  L 44.06 231.28
  Q 43.57 231.28 43.56 231.81
  Q 43.34 245.60 43.55 249.19
  C 45.23 277.97 61.51 299.71 87.50 312.12
  A 0.34 0.34 0.0 0 0 87.99 311.81
  L 88.01 291.78
  Q 88.01 291.18 87.47 290.92
  C 72.41 283.51 65.32 269.02 63.32 252.71
  Q 63.24 252.00 63.95 252.00
  L 195.00 252.00
  A 0.50 0.50 0.0 0 1 195.50 252.50
  L 195.50 300.75
  Q 195.50 301.25 195.00 301.25
  L 190.51 301.25
  Q 190.01 301.25 190.01 301.74
  L 189.97 318.84
  Q 189.97 319.45 190.59 319.48
  L 194.96 319.64
  Q 195.52 319.66 195.52 320.21"
/>
<path stroke="#808080" vector-effect="non-scaling-stroke" d="
  M 145.86 258.16
  A 0.41 0.41 0.0 0 0 145.45 257.75
  L 125.67 257.75
  A 0.41 0.41 0.0 0 0 125.26 258.16
  L 125.26 296.66
  A 0.41 0.41 0.0 0 0 125.67 297.07
  L 145.45 297.07
  A 0.41 0.41 0.0 0 0 145.86 296.66
  L 145.86 258.16"
/>
<path stroke="#808080" vector-effect="non-scaling-stroke" d="
  M 165.51 314.74
  C 164.45 321.45 157.62 332.85 149.52 325.08
  Q 149.17 324.75 148.68 324.75
  L 131.80 324.75
  A 0.58 0.58 0.0 0 0 131.26 325.53
  Q 134.63 334.87 141.35 342.16
  C 156.35 358.43 176.74 344.18 181.26 326.73
  C 188.45 299.02 181.91 272.30 151.85 263.39
  A 0.65 0.65 0.0 0 0 151.02 264.01
  L 150.91 279.41
  Q 150.91 279.88 151.26 280.18
  C 161.42 288.68 167.64 301.29 165.51 314.74"
/>
<path stroke="#808080" vector-effect="non-scaling-stroke" d="
  M 328.31 283.19
  C 330.37 287.90 327.91 290.89 327.96 295.50
  Q 328.04 304.86 327.99 314.26
  Q 327.98 314.83 328.56 314.79
  C 334.53 314.33 341.40 309.04 344.97 304.73
  C 351.26 297.14 350.79 285.83 345.62 278.04
  C 336.67 264.52 317.64 262.33 302.82 263.64
  C 284.56 265.25 270.32 276.13 266.42 294.44
  A 0.51 0.50 6.0 0 0 266.92 295.05
  L 285.59 295.13
  Q 286.09 295.13 286.24 294.65
  Q 289.90 283.21 301.50 280.02
  C 307.60 278.33 324.98 275.56 328.31 283.19"
/>
<path stroke="#808080" vector-effect="non-scaling-stroke" d="
  M 324.0567 290.3960
  A 0.61 0.61 0.0 0 0 323.4489 289.7839
  L 304.0890 289.7163
  A 0.61 0.61 0.0 0 0 303.4769 290.3242
  L 303.3433 328.6040
  A 0.61 0.61 0.0 0 0 303.9511 329.2161
  L 323.3110 329.2837
  A 0.61 0.61 0.0 0 0 323.9231 328.6758
  L 324.0567 290.3960"
/>
<path stroke="#808080" vector-effect="non-scaling-stroke" d="
  M 156.24 302.02
  A 0.77 0.77 0.0 0 0 155.47 301.25
  L 118.53 301.25
  A 0.77 0.77 0.0 0 0 117.76 302.02
  L 117.76 318.78
  A 0.77 0.77 0.0 0 0 118.53 319.55
  L 155.47 319.55
  A 0.77 0.77 0.0 0 0 156.24 318.78
  L 156.24 302.02"
/>
<path stroke="#808080" vector-effect="non-scaling-stroke" d="
  M 297.4850 301.7962
  A 0.58 0.58 0.0 0 0 296.9040 301.2172
  L 259.3041 301.2828
  A 0.58 0.58 0.0 0 0 258.7251 301.8638
  L 258.7550 319.0038
  A 0.58 0.58 0.0 0 0 259.3360 319.5828
  L 296.9359 319.5172
  A 0.58 0.58 0.0 0 0 297.5149 318.9362
  L 297.4850 301.7962"
/>
</g>
<path fill="#ffffff" d="
  M 0.00 0.00
  L 454.00 0.00
  L 454.00 448.00
  L 0.00 448.00
  L 0.00 0.00
  Z
  M 386.81 192.60
  A 0.14 0.13 88.0 0 1 386.68 192.75
  L 255.25 192.75
  A 0.50 0.50 0.0 0 1 254.75 192.25
  L 254.75 144.25
  Q 254.75 143.75 255.25 143.75
  L 259.66 143.75
  Q 260.32 143.75 260.31 143.09
  L 260.10 125.87
  Q 260.10 125.23 259.49 125.04
  Q 257.73 124.46 255.93 125.06
  A 0.90 0.89 -9.2 0 1 254.75 124.22
  L 254.75 65.98
  Q 254.75 65.38 255.35 65.42
  C 292.02 67.94 327.15 83.93 338.36 121.90
  C 342.09 134.53 340.92 148.44 330.69 157.74
  Q 330.26 158.14 330.26 158.72
  L 330.24 178.94
  Q 330.24 179.48 330.77 179.34
  C 363.83 170.76 359.70 133.28 353.55 108.56
  Q 350.90 97.94 348.51 92.05
  C 331.71 50.67 272.77 40.28 233.92 41.73
  Q 233.40 41.74 233.39 42.27
  Q 232.66 80.76 233.11 119.25
  Q 233.14 121.85 232.99 124.57
  Q 232.96 125.09 232.44 125.08
  L 222.26 124.75
  Q 221.75 124.73 221.75 125.24
  L 221.75 143.25
  A 0.50 0.50 0.0 0 0 222.25 143.75
  L 232.45 143.75
  Q 233.16 143.75 233.16 144.45
  L 233.24 213.21
  A 0.54 0.53 -90.0 0 0 233.77 213.75
  L 405.76 213.75
  Q 406.32 213.75 406.34 213.19
  Q 406.93 198.91 406.17 192.06
  C 403.25 165.78 387.35 143.28 362.50 132.75
  Q 361.77 132.44 361.78 133.23
  L 362.06 153.26
  Q 362.07 153.81 362.57 154.04
  C 377.90 161.14 385.00 176.57 386.81 192.60
  Z
  M 66.62 191.79
  C 68.44 172.45 73.81 151.39 85.07 135.32
  C 92.84 124.22 103.75 117.43 116.50 113.29
  C 131.34 108.47 146.25 110.76 158.19 121.59
  Q 158.62 121.99 159.21 121.99
  L 179.50 122.01
  Q 180.97 122.01 180.60 120.58
  C 172.48 88.99 133.72 89.45 109.28 97.74
  C 78.24 108.28 56.59 130.12 48.01 161.33
  C 43.44 177.98 43.12 195.46 43.57 212.35
  A 0.42 0.41 -0.7 0 0 43.99 212.75
  L 125.66 212.75
  Q 126.06 212.75 126.06 213.15
  L 125.97 224.20
  Q 125.97 224.94 126.71 224.95
  L 144.98 225.27
  Q 146.50 225.29 146.50 223.77
  L 146.50 213.38
  Q 146.50 212.75 147.12 212.75
  L 214.25 212.75
  A 0.50 0.50 0.0 0 0 214.75 212.25
  L 214.75 43.19
  Q 214.75 42.50 214.06 42.50
  C 206.60 42.52 198.48 42.01 191.45 43.29
  Q 152.65 50.33 133.96 85.98
  Q 133.69 86.50 134.28 86.50
  L 156.29 86.50
  Q 156.82 86.50 157.09 86.04
  Q 169.47 65.40 193.88 64.94
  Q 194.24 64.94 194.24 65.29
  L 194.24 191.75
  Q 194.24 192.25 193.75 192.25
  L 147.16 192.25
  Q 146.50 192.25 146.50 191.59
  L 146.50 186.14
  Q 146.50 185.52 145.88 185.52
  L 126.72 185.55
  Q 126.00 185.55 126.00 186.28
  L 126.00 191.75
  Q 126.00 192.25 125.50 192.25
  L 67.04 192.25
  Q 66.57 192.25 66.62 191.79
  Z
  M 296.50 117.25
  Q 297.75 117.34 300.24 119.41
  Q 300.65 119.75 301.19 119.75
  L 318.22 119.75
  A 0.62 0.62 0.0 0 0 318.79 118.89
  C 314.34 108.23 305.54 93.43 291.44 95.93
  C 269.02 99.91 265.46 124.45 266.33 143.19
  C 267.24 162.52 280.52 176.18 298.52 181.39
  A 0.35 0.35 0.0 0 0 298.96 181.06
  L 299.10 165.55
  Q 299.10 165.01 298.72 164.62
  C 291.57 157.43 286.41 150.95 284.45 140.77
  C 282.96 133.02 285.26 116.46 296.50 117.25
  Z
  M 146.5431 116.3678
  A 0.75 0.75 0.0 0 0 145.7944 115.6165
  L 126.8944 115.5835
  A 0.75 0.75 0.0 0 0 126.1431 116.3322
  L 126.0769 154.2322
  A 0.75 0.75 0.0 0 0 126.8256 154.9835
  L 145.7256 155.0165
  A 0.75 0.75 0.0 0 0 146.4769 154.2678
  L 146.5431 116.3678
  Z
  M 191.24 125.70
  A 0.74 0.74 0.0 0 0 190.50 124.96
  L 153.50 124.96
  A 0.74 0.74 0.0 0 0 152.76 125.70
  L 152.76 143.00
  A 0.74 0.74 0.0 0 0 153.50 143.74
  L 190.50 143.74
  A 0.74 0.74 0.0 0 0 191.24 143.00
  L 191.24 125.70
  Z
  M 332.1947 125.5765
  A 0.64 0.64 0.0 0 0 331.5536 124.9376
  L 294.3736 125.0025
  A 0.64 0.64 0.0 0 0 293.7348 125.6436
  L 293.7653 143.1435
  A 0.64 0.64 0.0 0 0 294.4064 143.7824
  L 331.5864 143.7175
  A 0.64 0.64 0.0 0 0 332.2252 143.0764
  L 332.1947 125.5765
  Z
  M 121.22 160.39
  C 120.42 158.15 121.06 155.99 121.47 153.68
  C 122.75 146.50 122.03 137.86 121.98 130.46
  Q 121.98 129.91 121.44 130.03
  C 109.80 132.60 100.52 141.39 100.43 153.66
  C 100.26 176.76 127.35 182.26 144.93 181.23
  C 164.50 180.08 179.06 170.15 183.71 150.09
  A 0.36 0.36 0.0 0 0 183.37 149.66
  L 164.60 149.43
  Q 164.05 149.43 163.89 149.95
  Q 160.30 161.61 148.53 164.76
  C 141.08 166.76 124.35 169.19 121.22 160.39
  Z
  M 324.7833 148.4481
  A 0.68 0.68 0.0 0 0 324.1045 147.7669
  L 304.7845 147.7332
  A 0.68 0.68 0.0 0 0 304.1033 148.4120
  L 304.0367 186.5719
  A 0.68 0.68 0.0 0 0 304.7155 187.2531
  L 324.0355 187.2868
  A 0.68 0.68 0.0 0 0 324.7167 186.6080
  L 324.7833 148.4481
  Z
  M 302.74 232.00
  L 236.00 232.00
  A 0.75 0.75 0.0 0 0 235.25 232.75
  L 235.25 401.75
  Q 235.25 402.24 235.74 402.24
  C 243.52 402.28 251.87 402.66 259.12 401.39
  C 285.23 396.82 303.83 381.53 316.46 358.31
  Q 316.65 357.97 316.26 357.97
  L 293.91 358.02
  Q 293.38 358.02 293.11 358.48
  Q 280.88 379.37 256.33 379.80
  A 0.57 0.56 89.0 0 1 255.75 379.23
  L 255.75 253.00
  Q 255.75 252.50 256.25 252.50
  L 302.79 252.50
  Q 303.33 252.50 303.32 253.04
  L 303.23 258.58
  Q 303.22 259.25 303.89 259.25
  L 323.18 259.25
  Q 323.86 259.25 323.88 258.58
  L 324.06 252.97
  Q 324.07 252.50 324.54 252.50
  L 383.17 252.50
  A 0.20 0.20 0.0 0 1 383.37 252.72
  Q 381.48 275.12 372.76 295.75
  Q 360.60 324.50 330.35 332.31
  Q 308.52 337.95 291.99 323.34
  Q 291.61 323.01 291.11 323.01
  L 270.05 323.02
  Q 269.32 323.02 269.47 323.73
  C 272.19 336.91 283.21 347.10 296.00 350.02
  C 319.35 355.36 344.28 348.95 364.83 335.29
  C 401.90 310.66 407.45 272.97 406.44 232.41
  A 0.43 0.42 -0.7 0 0 406.01 232.00
  L 324.50 232.00
  Q 324.00 232.00 324.00 231.50
  L 324.00 220.37
  Q 324.00 219.75 323.37 219.75
  L 303.99 219.75
  Q 303.23 219.75 303.23 220.51
  L 303.29 231.45
  Q 303.29 232.00 302.74 232.00
  Z
  M 195.52 320.21
  L 195.48 378.97
  Q 195.48 379.40 195.05 379.37
  C 158.83 376.87 121.17 360.51 111.47 321.82
  C 108.08 308.27 109.32 296.69 119.28 286.98
  Q 119.65 286.62 119.65 286.10
  L 119.76 266.98
  Q 119.77 265.53 118.36 265.88
  C 81.39 275.01 92.08 324.80 100.45 349.40
  C 115.47 393.60 175.66 404.31 215.39 403.15
  Q 217.01 403.10 217.01 401.49
  L 216.99 320.04
  Q 216.99 319.57 217.46 319.57
  L 227.63 319.68
  Q 228.25 319.69 228.25 319.06
  L 228.25 302.33
  Q 228.25 300.92 226.83 300.96
  L 217.86 301.25
  Q 217.00 301.28 217.00 300.42
  L 217.00 231.79
  Q 217.00 231.32 216.53 231.32
  L 44.06 231.28
  Q 43.57 231.28 43.56 231.81
  Q 43.34 245.60 43.55 249.19
  C 45.23 277.97 61.51 299.71 87.50 312.12
  A 0.34 0.34 0.0 0 0 87.99 311.81
  L 88.01 291.78
  Q 88.01 291.18 87.47 290.92
  C 72.41 283.51 65.32 269.02 63.32 252.71
  Q 63.24 252.00 63.95 252.00
  L 195.00 252.00
  A 0.50 0.50 0.0 0 1 195.50 252.50
  L 195.50 300.75
  Q 195.50 301.25 195.00 301.25
  L 190.51 301.25
  Q 190.01 301.25 190.01 301.74
  L 189.97 318.84
  Q 189.97 319.45 190.59 319.48
  L 194.96 319.64
  Q 195.52 319.66 195.52 320.21
  Z
  M 145.86 258.16
  A 0.41 0.41 0.0 0 0 145.45 257.75
  L 125.67 257.75
  A 0.41 0.41 0.0 0 0 125.26 258.16
  L 125.26 296.66
  A 0.41 0.41 0.0 0 0 125.67 297.07
  L 145.45 297.07
  A 0.41 0.41 0.0 0 0 145.86 296.66
  L 145.86 258.16
  Z
  M 165.51 314.74
  C 164.45 321.45 157.62 332.85 149.52 325.08
  Q 149.17 324.75 148.68 324.75
  L 131.80 324.75
  A 0.58 0.58 0.0 0 0 131.26 325.53
  Q 134.63 334.87 141.35 342.16
  C 156.35 358.43 176.74 344.18 181.26 326.73
  C 188.45 299.02 181.91 272.30 151.85 263.39
  A 0.65 0.65 0.0 0 0 151.02 264.01
  L 150.91 279.41
  Q 150.91 279.88 151.26 280.18
  C 161.42 288.68 167.64 301.29 165.51 314.74
  Z
  M 328.31 283.19
  C 330.37 287.90 327.91 290.89 327.96 295.50
  Q 328.04 304.86 327.99 314.26
  Q 327.98 314.83 328.56 314.79
  C 334.53 314.33 341.40 309.04 344.97 304.73
  C 351.26 297.14 350.79 285.83 345.62 278.04
  C 336.67 264.52 317.64 262.33 302.82 263.64
  C 284.56 265.25 270.32 276.13 266.42 294.44
  A 0.51 0.50 6.0 0 0 266.92 295.05
  L 285.59 295.13
  Q 286.09 295.13 286.24 294.65
  Q 289.90 283.21 301.50 280.02
  C 307.60 278.33 324.98 275.56 328.31 283.19
  Z
  M 324.0567 290.3960
  A 0.61 0.61 0.0 0 0 323.4489 289.7839
  L 304.0890 289.7163
  A 0.61 0.61 0.0 0 0 303.4769 290.3242
  L 303.3433 328.6040
  A 0.61 0.61 0.0 0 0 303.9511 329.2161
  L 323.3110 329.2837
  A 0.61 0.61 0.0 0 0 323.9231 328.6758
  L 324.0567 290.3960
  Z
  M 156.24 302.02
  A 0.77 0.77 0.0 0 0 155.47 301.25
  L 118.53 301.25
  A 0.77 0.77 0.0 0 0 117.76 302.02
  L 117.76 318.78
  A 0.77 0.77 0.0 0 0 118.53 319.55
  L 155.47 319.55
  A 0.77 0.77 0.0 0 0 156.24 318.78
  L 156.24 302.02
  Z
  M 297.4850 301.7962
  A 0.58 0.58 0.0 0 0 296.9040 301.2172
  L 259.3041 301.2828
  A 0.58 0.58 0.0 0 0 258.7251 301.8638
  L 258.7550 319.0038
  A 0.58 0.58 0.0 0 0 259.3360 319.5828
  L 296.9359 319.5172
  A 0.58 0.58 0.0 0 0 297.5149 318.9362
  L 297.4850 301.7962
  Z"
/>
<path fill="#000000" d="
  M 386.81 192.60
  C 385.00 176.57 377.90 161.14 362.57 154.04
  Q 362.07 153.81 362.06 153.26
  L 361.78 133.23
  Q 361.77 132.44 362.50 132.75
  C 387.35 143.28 403.25 165.78 406.17 192.06
  Q 406.93 198.91 406.34 213.19
  Q 406.32 213.75 405.76 213.75
  L 233.77 213.75
  A 0.54 0.53 -90.0 0 1 233.24 213.21
  L 233.16 144.45
  Q 233.16 143.75 232.45 143.75
  L 222.25 143.75
  A 0.50 0.50 0.0 0 1 221.75 143.25
  L 221.75 125.24
  Q 221.75 124.73 222.26 124.75
  L 232.44 125.08
  Q 232.96 125.09 232.99 124.57
  Q 233.14 121.85 233.11 119.25
  Q 232.66 80.76 233.39 42.27
  Q 233.40 41.74 233.92 41.73
  C 272.77 40.28 331.71 50.67 348.51 92.05
  Q 350.90 97.94 353.55 108.56
  C 359.70 133.28 363.83 170.76 330.77 179.34
  Q 330.24 179.48 330.24 178.94
  L 330.26 158.72
  Q 330.26 158.14 330.69 157.74
  C 340.92 148.44 342.09 134.53 338.36 121.90
  C 327.15 83.93 292.02 67.94 255.35 65.42
  Q 254.75 65.38 254.75 65.98
  L 254.75 124.22
  A 0.90 0.89 -9.2 0 0 255.93 125.06
  Q 257.73 124.46 259.49 125.04
  Q 260.10 125.23 260.10 125.87
  L 260.31 143.09
  Q 260.32 143.75 259.66 143.75
  L 255.25 143.75
  Q 254.75 143.75 254.75 144.25
  L 254.75 192.25
  A 0.50 0.50 0.0 0 0 255.25 192.75
  L 386.68 192.75
  A 0.14 0.13 88.0 0 0 386.81 192.60
  Z"
/>
<path fill="#000000" d="
  M 67.04 192.25
  L 125.50 192.25
  Q 126.00 192.25 126.00 191.75
  L 126.00 186.28
  Q 126.00 185.55 126.72 185.55
  L 145.88 185.52
  Q 146.50 185.52 146.50 186.14
  L 146.50 191.59
  Q 146.50 192.25 147.16 192.25
  L 193.75 192.25
  Q 194.24 192.25 194.24 191.75
  L 194.24 65.29
  Q 194.24 64.94 193.88 64.94
  Q 169.47 65.40 157.09 86.04
  Q 156.82 86.50 156.29 86.50
  L 134.28 86.50
  Q 133.69 86.50 133.96 85.98
  Q 152.65 50.33 191.45 43.29
  C 198.48 42.01 206.60 42.52 214.06 42.50
  Q 214.75 42.50 214.75 43.19
  L 214.75 212.25
  A 0.50 0.50 0.0 0 1 214.25 212.75
  L 147.12 212.75
  Q 146.50 212.75 146.50 213.38
  L 146.50 223.77
  Q 146.50 225.29 144.98 225.27
  L 126.71 224.95
  Q 125.97 224.94 125.97 224.20
  L 126.06 213.15
  Q 126.06 212.75 125.66 212.75
  L 43.99 212.75
  A 0.42 0.41 -0.7 0 1 43.57 212.35
  C 43.12 195.46 43.44 177.98 48.01 161.33
  C 56.59 130.12 78.24 108.28 109.28 97.74
  C 133.72 89.45 172.48 88.99 180.60 120.58
  Q 180.97 122.01 179.50 122.01
  L 159.21 121.99
  Q 158.62 121.99 158.19 121.59
  C 146.25 110.76 131.34 108.47 116.50 113.29
  C 103.75 117.43 92.84 124.22 85.07 135.32
  C 73.81 151.39 68.44 172.45 66.62 191.79
  Q 66.57 192.25 67.04 192.25
  Z"
/>
<path fill="#000000" d="
  M 296.50 117.25
  C 285.26 116.46 282.96 133.02 284.45 140.77
  C 286.41 150.95 291.57 157.43 298.72 164.62
  Q 299.10 165.01 299.10 165.55
  L 298.96 181.06
  A 0.35 0.35 0.0 0 1 298.52 181.39
  C 280.52 176.18 267.24 162.52 266.33 143.19
  C 265.46 124.45 269.02 99.91 291.44 95.93
  C 305.54 93.43 314.34 108.23 318.79 118.89
  A 0.62 0.62 0.0 0 1 318.22 119.75
  L 301.19 119.75
  Q 300.65 119.75 300.24 119.41
  Q 297.75 117.34 296.50 117.25
  Z"
/>
<rect fill="#000000" x="-10.20" y="-19.70" transform="translate(136.31,135.30) rotate(0.1)" width="20.40" height="39.40" rx="0.75"/>
<rect fill="#000000" x="152.76" y="124.96" width="38.48" height="18.78" rx="0.74"/>
<rect fill="#000000" x="-19.23" y="-9.39" transform="translate(312.98,134.36) rotate(-0.1)" width="38.46" height="18.78" rx="0.64"/>
<path fill="#000000" d="
  M 121.22 160.39
  C 124.35 169.19 141.08 166.76 148.53 164.76
  Q 160.30 161.61 163.89 149.95
  Q 164.05 149.43 164.60 149.43
  L 183.37 149.66
  A 0.36 0.36 0.0 0 1 183.71 150.09
  C 179.06 170.15 164.50 180.08 144.93 181.23
  C 127.35 182.26 100.26 176.76 100.43 153.66
  C 100.52 141.39 109.80 132.60 121.44 130.03
  Q 121.98 129.91 121.98 130.46
  C 122.03 137.86 122.75 146.50 121.47 153.68
  C 121.06 155.99 120.42 158.15 121.22 160.39
  Z"
/>
<rect fill="#000000" x="-10.34" y="-19.76" transform="translate(314.41,167.51) rotate(0.1)" width="20.68" height="39.52" rx="0.68"/>
<path fill="#000000" d="
  M 303.29 231.45
  L 303.23 220.51
  Q 303.23 219.75 303.99 219.75
  L 323.37 219.75
  Q 324.00 219.75 324.00 220.37
  L 324.00 231.50
  Q 324.00 232.00 324.50 232.00
  L 406.01 232.00
  A 0.43 0.42 -0.7 0 1 406.44 232.41
  C 407.45 272.97 401.90 310.66 364.83 335.29
  C 344.28 348.95 319.35 355.36 296.00 350.02
  C 283.21 347.10 272.19 336.91 269.47 323.73
  Q 269.32 323.02 270.05 323.02
  L 291.11 323.01
  Q 291.61 323.01 291.99 323.34
  Q 308.52 337.95 330.35 332.31
  Q 360.60 324.50 372.76 295.75
  Q 381.48 275.12 383.37 252.72
  A 0.20 0.20 0.0 0 0 383.17 252.50
  L 324.54 252.50
  Q 324.07 252.50 324.06 252.97
  L 323.88 258.58
  Q 323.86 259.25 323.18 259.25
  L 303.89 259.25
  Q 303.22 259.25 303.23 258.58
  L 303.32 253.04
  Q 303.33 252.50 302.79 252.50
  L 256.25 252.50
  Q 255.75 252.50 255.75 253.00
  L 255.75 379.23
  A 0.57 0.56 89.0 0 0 256.33 379.80
  Q 280.88 379.37 293.11 358.48
  Q 293.38 358.02 293.91 358.02
  L 316.26 357.97
  Q 316.65 357.97 316.46 358.31
  C 303.83 381.53 285.23 396.82 259.12 401.39
  C 251.87 402.66 243.52 402.28 235.74 402.24
  Q 235.25 402.24 235.25 401.75
  L 235.25 232.75
  A 0.75 0.75 0.0 0 1 236.00 232.00
  L 302.74 232.00
  Q 303.29 232.00 303.29 231.45
  Z"
/>
<path fill="#000000" d="
  M 194.96 319.64
  L 190.59 319.48
  Q 189.97 319.45 189.97 318.84
  L 190.01 301.74
  Q 190.01 301.25 190.51 301.25
  L 195.00 301.25
  Q 195.50 301.25 195.50 300.75
  L 195.50 252.50
  A 0.50 0.50 0.0 0 0 195.00 252.00
  L 63.95 252.00
  Q 63.24 252.00 63.32 252.71
  C 65.32 269.02 72.41 283.51 87.47 290.92
  Q 88.01 291.18 88.01 291.78
  L 87.99 311.81
  A 0.34 0.34 0.0 0 1 87.50 312.12
  C 61.51 299.71 45.23 277.97 43.55 249.19
  Q 43.34 245.60 43.56 231.81
  Q 43.57 231.28 44.06 231.28
  L 216.53 231.32
  Q 217.00 231.32 217.00 231.79
  L 217.00 300.42
  Q 217.00 301.28 217.86 301.25
  L 226.83 300.96
  Q 228.25 300.92 228.25 302.33
  L 228.25 319.06
  Q 228.25 319.69 227.63 319.68
  L 217.46 319.57
  Q 216.99 319.57 216.99 320.04
  L 217.01 401.49
  Q 217.01 403.10 215.39 403.15
  C 175.66 404.31 115.47 393.60 100.45 349.40
  C 92.08 324.80 81.39 275.01 118.36 265.88
  Q 119.77 265.53 119.76 266.98
  L 119.65 286.10
  Q 119.65 286.62 119.28 286.98
  C 109.32 296.69 108.08 308.27 111.47 321.82
  C 121.17 360.51 158.83 376.87 195.05 379.37
  Q 195.48 379.40 195.48 378.97
  L 195.52 320.21
  Q 195.52 319.66 194.96 319.64
  Z"
/>
<rect fill="#000000" x="125.26" y="257.75" width="20.60" height="39.32" rx="0.41"/>
<path fill="#000000" d="
  M 149.52 325.08
  C 157.62 332.85 164.45 321.45 165.51 314.74
  C 167.64 301.29 161.42 288.68 151.26 280.18
  Q 150.91 279.88 150.91 279.41
  L 151.02 264.01
  A 0.65 0.65 0.0 0 1 151.85 263.39
  C 181.91 272.30 188.45 299.02 181.26 326.73
  C 176.74 344.18 156.35 358.43 141.35 342.16
  Q 134.63 334.87 131.26 325.53
  A 0.58 0.58 0.0 0 1 131.80 324.75
  L 148.68 324.75
  Q 149.17 324.75 149.52 325.08
  Z"
/>
<path fill="#000000" d="
  M 328.31 283.19
  C 324.98 275.56 307.60 278.33 301.50 280.02
  Q 289.90 283.21 286.24 294.65
  Q 286.09 295.13 285.59 295.13
  L 266.92 295.05
  A 0.51 0.50 6.0 0 1 266.42 294.44
  C 270.32 276.13 284.56 265.25 302.82 263.64
  C 317.64 262.33 336.67 264.52 345.62 278.04
  C 350.79 285.83 351.26 297.14 344.97 304.73
  C 341.40 309.04 334.53 314.33 328.56 314.79
  Q 327.98 314.83 327.99 314.26
  Q 328.04 304.86 327.96 295.50
  C 327.91 290.89 330.37 287.90 328.31 283.19
  Z"
/>
<rect fill="#000000" x="-10.29" y="-19.75" transform="translate(313.70,309.50) rotate(0.2)" width="20.58" height="39.50" rx="0.61"/>
<rect fill="#000000" x="117.76" y="301.25" width="38.48" height="18.30" rx="0.77"/>
<rect fill="#000000" x="-19.38" y="-9.15" transform="translate(278.12,310.40) rotate(-0.1)" width="38.76" height="18.30" rx="0.58"/>
</svg>
