<?xml version="1.0" encoding="UTF-8" standalone="no"?>
<!DOCTYPE svg PUBLIC "-//W3C//DTD SVG 1.1//EN" "http://www.w3.org/Graphics/SVG/1.1/DTD/svg11.dtd">
<svg xmlns="http://www.w3.org/2000/svg" version="1.1" viewBox="0.00 0.00 600.00 600.00">
<g stroke-width="2.00" fill="none" stroke-linecap="butt">
<path stroke="#8f8f90" vector-effect="non-scaling-stroke" d="
  M 574.03 299.95
  A 274.89 274.89 0.0 0 0 299.14 25.06
  A 274.89 274.89 0.0 0 0 24.25 299.95
  A 274.89 274.89 0.0 0 0 299.14 574.84
  A 274.89 274.89 0.0 0 0 574.03 299.95"
/>
<path stroke="#8f8f90" vector-effect="non-scaling-stroke" d="
  M 563.43 300.54
  A 264.11 264.11 0.0 0 0 299.32 36.43
  A 264.11 264.11 0.0 0 0 35.21 300.54
  A 264.11 264.11 0.0 0 0 299.32 564.65
  A 264.11 264.11 0.0 0 0 563.43 300.54"
/>
<path stroke="#8f8f90" vector-effect="non-scaling-stroke" d="
  M 529.74 300.55
  A 230.42 230.42 0.0 0 0 299.32 70.13
  A 230.42 230.42 0.0 0 0 68.90 300.55
  A 230.42 230.42 0.0 0 0 299.32 530.97
  A 230.42 230.42 0.0 0 0 529.74 300.55"
/>
<path stroke="#8f8f90" vector-effect="non-scaling-stroke" d="
  M 512.45 300.54
  A 213.13 213.13 0.0 0 0 299.32 87.41
  A 213.13 213.13 0.0 0 0 86.19 300.54
  A 213.13 213.13 0.0 0 0 299.32 513.67
  A 213.13 213.13 0.0 0 0 512.45 300.54"
/>
<path stroke="#8f8f90" vector-effect="non-scaling-stroke" d="
  M 274.75 187.51
  C 293.45 184.41 309.16 184.36 327.75 187.77
  C 379.99 197.36 427.25 225.52 482.14 212.24
  Q 482.77 212.09 482.60 211.47
  L 477.41 192.03
  Q 477.25 191.44 476.66 191.58
  Q 454.08 196.63 431.22 192.57
  C 383.13 184.03 338.09 160.03 288.05 164.04
  C 253.25 166.83 220.02 179.78 181.57 192.58
  Q 153.00 202.09 125.21 205.54
  Q 124.79 205.59 124.82 206.02
  L 126.53 226.29
  Q 126.58 226.87 127.17 226.81
  C 162.83 222.98 196.01 210.61 229.81 199.45
  C 245.30 194.33 260.61 189.85 274.75 187.51"
/>
<path stroke="#8f8f90" vector-effect="non-scaling-stroke" d="
  M 343.90 302.04
  Q 318.28 326.71 284.09 353.59
  C 252.04 378.78 202.61 410.35 161.25 399.19
  C 145.24 394.87 133.77 387.99 130.41 371.10
  C 127.36 355.81 130.66 334.11 149.97 332.09
  Q 150.53 332.03 150.36 332.57
  C 147.21 342.31 149.76 353.58 157.86 360.00
  C 170.47 370.00 186.25 362.28 188.21 346.99
  Q 189.32 338.33 184.24 329.98
  Q 169.42 305.62 141.29 311.92
  C 119.35 316.83 108.53 337.33 107.97 358.51
  C 107.29 384.06 117.18 403.72 140.63 414.65
  C 199.23 441.97 265.31 397.03 308.82 361.54
  Q 350.28 327.71 387.54 289.21
  A 0.39 0.39 0.0 0 1 388.16 289.66
  C 370.90 322.99 359.88 362.19 361.63 400.06
  Q 362.30 414.69 367.70 427.59
  Q 368.09 428.52 368.75 427.75
  L 446.45 336.68
  A 0.34 0.34 0.0 0 0 446.23 336.12
  C 430.65 334.26 413.37 324.41 412.24 307.00
  C 411.31 292.73 421.07 278.97 432.33 270.77
  C 442.36 263.47 457.56 260.02 470.03 257.88
  A 0.58 0.57 81.7 0 0 470.50 257.24
  L 467.82 236.98
  Q 467.74 236.43 467.19 236.47
  C 418.64 239.88 375.21 213.21 328.74 204.50
  C 261.04 191.81 197.56 233.67 134.49 245.12
  Q 133.97 245.21 134.01 245.74
  L 135.60 266.17
  A 0.32 0.32 0.0 0 0 135.91 266.46
  C 164.48 267.70 186.99 280.61 215.75 290.29
  Q 277.97 311.21 343.72 301.66
  Q 344.40 301.56 343.90 302.04"
/>
<path stroke="#8f8f90" vector-effect="non-scaling-stroke" d="
  M 319.15 261.67
  C 308.55 265.69 296.03 264.83 286.85 258.44
  C 275.36 250.43 272.34 237.58 280.96 225.88
  A 0.37 0.37 0.0 0 0 280.59 225.29
  C 247.39 231.30 215.75 243.42 183.99 254.65
  Q 183.44 254.84 183.98 255.06
  Q 202.63 262.71 218.57 268.41
  Q 273.33 287.99 331.10 281.53
  C 361.92 278.08 387.70 266.36 414.82 253.18
  Q 415.64 252.78 414.76 252.55
  C 390.34 245.93 363.94 236.27 338.25 228.76
  Q 335.58 227.98 332.78 227.52
  Q 332.03 227.39 332.45 228.03
  C 341.28 241.50 333.00 256.42 319.15 261.67"
/>
</g>
<path fill="#ffffff" d="
  M 0.00 0.00
  L 600.00 0.00
  L 600.00 600.00
  L 0.00 600.00
  L 0.00 0.00
  Z
  M 574.03 299.95
  A 274.89 274.89 0.0 0 0 299.14 25.06
  A 274.89 274.89 0.0 0 0 24.25 299.95
  A 274.89 274.89 0.0 0 0 299.14 574.84
  A 274.89 274.89 0.0 0 0 574.03 299.95
  Z"
/>
<path fill="#1f1f21" d="
  M 574.03 299.95
  A 274.89 274.89 0.0 0 1 299.14 574.84
  A 274.89 274.89 0.0 0 1 24.25 299.95
  A 274.89 274.89 0.0 0 1 299.14 25.06
  A 274.89 274.89 0.0 0 1 574.03 299.95
  Z
  M 563.43 300.54
  A 264.11 264.11 0.0 0 0 299.32 36.43
  A 264.11 264.11 0.0 0 0 35.21 300.54
  A 264.11 264.11 0.0 0 0 299.32 564.65
  A 264.11 264.11 0.0 0 0 563.43 300.54
  Z"
/>
<path fill="#ffffff" d="
  M 563.43 300.54
  A 264.11 264.11 0.0 0 1 299.32 564.65
  A 264.11 264.11 0.0 0 1 35.21 300.54
  A 264.11 264.11 0.0 0 1 299.32 36.43
  A 264.11 264.11 0.0 0 1 563.43 300.54
  Z
  M 529.74 300.55
  A 230.42 230.42 0.0 0 0 299.32 70.13
  A 230.42 230.42 0.0 0 0 68.90 300.55
  A 230.42 230.42 0.0 0 0 299.32 530.97
  A 230.42 230.42 0.0 0 0 529.74 300.55
  Z"
/>
<path fill="#1f1f21" d="
  M 529.74 300.55
  A 230.42 230.42 0.0 0 1 299.32 530.97
  A 230.42 230.42 0.0 0 1 68.90 300.55
  A 230.42 230.42 0.0 0 1 299.32 70.13
  A 230.42 230.42 0.0 0 1 529.74 300.55
  Z
  M 512.45 300.54
  A 213.13 213.13 0.0 0 0 299.32 87.41
  A 213.13 213.13 0.0 0 0 86.19 300.54
  A 213.13 213.13 0.0 0 0 299.32 513.67
  A 213.13 213.13 0.0 0 0 512.45 300.54
  Z"
/>
<path fill="#ffffff" d="
  M 512.45 300.54
  A 213.13 213.13 0.0 0 1 299.32 513.67
  A 213.13 213.13 0.0 0 1 86.19 300.54
  A 213.13 213.13 0.0 0 1 299.32 87.41
  A 213.13 213.13 0.0 0 1 512.45 300.54
  Z
  M 274.75 187.51
  C 293.45 184.41 309.16 184.36 327.75 187.77
  C 379.99 197.36 427.25 225.52 482.14 212.24
  Q 482.77 212.09 482.60 211.47
  L 477.41 192.03
  Q 477.25 191.44 476.66 191.58
  Q 454.08 196.63 431.22 192.57
  C 383.13 184.03 338.09 160.03 288.05 164.04
  C 253.25 166.83 220.02 179.78 181.57 192.58
  Q 153.00 202.09 125.21 205.54
  Q 124.79 205.59 124.82 206.02
  L 126.53 226.29
  Q 126.58 226.87 127.17 226.81
  C 162.83 222.98 196.01 210.61 229.81 199.45
  C 245.30 194.33 260.61 189.85 274.75 187.51
  Z
  M 343.90 302.04
  Q 318.28 326.71 284.09 353.59
  C 252.04 378.78 202.61 410.35 161.25 399.19
  C 145.24 394.87 133.77 387.99 130.41 371.10
  C 127.36 355.81 130.66 334.11 149.97 332.09
  Q 150.53 332.03 150.36 332.57
  C 147.21 342.31 149.76 353.58 157.86 360.00
  C 170.47 370.00 186.25 362.28 188.21 346.99
  Q 189.32 338.33 184.24 329.98
  Q 169.42 305.62 141.29 311.92
  C 119.35 316.83 108.53 337.33 107.97 358.51
  C 107.29 384.06 117.18 403.72 140.63 414.65
  C 199.23 441.97 265.31 397.03 308.82 361.54
  Q 350.28 327.71 387.54 289.21
  A 0.39 0.39 0.0 0 1 388.16 289.66
  C 370.90 322.99 359.88 362.19 361.63 400.06
  Q 362.30 414.69 367.70 427.59
  Q 368.09 428.52 368.75 427.75
  L 446.45 336.68
  A 0.34 0.34 0.0 0 0 446.23 336.12
  C 430.65 334.26 413.37 324.41 412.24 307.00
  C 411.31 292.73 421.07 278.97 432.33 270.77
  C 442.36 263.47 457.56 260.02 470.03 257.88
  A 0.58 0.57 81.7 0 0 470.50 257.24
  L 467.82 236.98
  Q 467.74 236.43 467.19 236.47
  C 418.64 239.88 375.21 213.21 328.74 204.50
  C 261.04 191.81 197.56 233.67 134.49 245.12
  Q 133.97 245.21 134.01 245.74
  L 135.60 266.17
  A 0.32 0.32 0.0 0 0 135.91 266.46
  C 164.48 267.70 186.99 280.61 215.75 290.29
  Q 277.97 311.21 343.72 301.66
  Q 344.40 301.56 343.90 302.04
  Z"
/>
<path fill="#1f1f21" d="
  M 327.75 187.77
  C 309.16 184.36 293.45 184.41 274.75 187.51
  C 260.61 189.85 245.30 194.33 229.81 199.45
  C 196.01 210.61 162.83 222.98 127.17 226.81
  Q 126.58 226.87 126.53 226.29
  L 124.82 206.02
  Q 124.79 205.59 125.21 205.54
  Q 153.00 202.09 181.57 192.58
  C 220.02 179.78 253.25 166.83 288.05 164.04
  C 338.09 160.03 383.13 184.03 431.22 192.57
  Q 454.08 196.63 476.66 191.58
  Q 477.25 191.44 477.41 192.03
  L 482.60 211.47
  Q 482.77 212.09 482.14 212.24
  C 427.25 225.52 379.99 197.36 327.75 187.77
  Z"
/>
<path fill="#1f1f21" d="
  M 343.72 301.66
  Q 277.97 311.21 215.75 290.29
  C 186.99 280.61 164.48 267.70 135.91 266.46
  A 0.32 0.32 0.0 0 1 135.60 266.17
  L 134.01 245.74
  Q 133.97 245.21 134.49 245.12
  C 197.56 233.67 261.04 191.81 328.74 204.50
  C 375.21 213.21 418.64 239.88 467.19 236.47
  Q 467.74 236.43 467.82 236.98
  L 470.50 257.24
  A 0.58 0.57 81.7 0 1 470.03 257.88
  C 457.56 260.02 442.36 263.47 432.33 270.77
  C 421.07 278.97 411.31 292.73 412.24 307.00
  C 413.37 324.41 430.65 334.26 446.23 336.12
  A 0.34 0.34 0.0 0 1 446.45 336.68
  L 368.75 427.75
  Q 368.09 428.52 367.70 427.59
  Q 362.30 414.69 361.63 400.06
  C 359.88 362.19 370.90 322.99 388.16 289.66
  A 0.39 0.39 0.0 0 0 387.54 289.21
  Q 350.28 327.71 308.82 361.54
  C 265.31 397.03 199.23 441.97 140.63 414.65
  C 117.18 403.72 107.29 384.06 107.97 358.51
  C 108.53 337.33 119.35 316.83 141.29 311.92
  Q 169.42 305.62 184.24 329.98
  Q 189.32 338.33 188.21 346.99
  C 186.25 362.28 170.47 370.00 157.86 360.00
  C 149.76 353.58 147.21 342.31 150.36 332.57
  Q 150.53 332.03 149.97 332.09
  C 130.66 334.11 127.36 355.81 130.41 371.10
  C 133.77 387.99 145.24 394.87 161.25 399.19
  C 202.61 410.35 252.04 378.78 284.09 353.59
  Q 318.28 326.71 343.90 302.04
  Q 344.40 301.56 343.72 301.66
  Z
  M 319.15 261.67
  C 308.55 265.69 296.03 264.83 286.85 258.44
  C 275.36 250.43 272.34 237.58 280.96 225.88
  A 0.37 0.37 0.0 0 0 280.59 225.29
  C 247.39 231.30 215.75 243.42 183.99 254.65
  Q 183.44 254.84 183.98 255.06
  Q 202.63 262.71 218.57 268.41
  Q 273.33 287.99 331.10 281.53
  C 361.92 278.08 387.70 266.36 414.82 253.18
  Q 415.64 252.78 414.76 252.55
  C 390.34 245.93 363.94 236.27 338.25 228.76
  Q 335.58 227.98 332.78 227.52
  Q 332.03 227.39 332.45 228.03
  C 341.28 241.50 333.00 256.42 319.15 261.67
  Z"
/>
<path fill="#ffffff" d="
  M 286.85 258.44
  C 296.03 264.83 308.55 265.69 319.15 261.67
  C 333.00 256.42 341.28 241.50 332.45 228.03
  Q 332.03 227.39 332.78 227.52
  Q 335.58 227.98 338.25 228.76
  C 363.94 236.27 390.34 245.93 414.76 252.55
  Q 415.64 252.78 414.82 253.18
  C 387.70 266.36 361.92 278.08 331.10 281.53
  Q 273.33 287.99 218.57 268.41
  Q 202.63 262.71 183.98 255.06
  Q 183.44 254.84 183.99 254.65
  C 215.75 243.42 247.39 231.30 280.59 225.29
  A 0.37 0.37 0.0 0 1 280.96 225.88
  C 272.34 237.58 275.36 250.43 286.85 258.44
  Z"
/>
</svg>
