<?xml version="1.0" encoding="UTF-8" standalone="no"?>
<!DOCTYPE svg PUBLIC "-//W3C//DTD SVG 1.1//EN" "http://www.w3.org/Graphics/SVG/1.1/DTD/svg11.dtd">
<svg xmlns="http://www.w3.org/2000/svg" version="1.1" viewBox="0.00 0.00 269.00 252.00">
<g stroke-width="2.00" fill="none" stroke-linecap="butt">
<path stroke="#000000" stroke-opacity="0.949" vector-effect="non-scaling-stroke" d="
  M 154.29 32.75
  C 159.57 32.12 165.01 32.61 167.63 26.90
  C 168.17 25.71 168.98 24.84 169.70 23.84
  Q 169.99 23.44 170.00 22.95
  C 170.01 20.13 170.50 17.39 169.00 14.92
  C 166.26 10.41 161.58 7.45 156.19 8.80
  C 154.42 9.23 152.74 10.43 151.13 11.43
  Q 150.71 11.69 150.41 12.07
  L 147.75 15.54"
/>
<path stroke="#000000" stroke-opacity="0.949" vector-effect="non-scaling-stroke" d="
  M 143.54 58.75
  Q 142.30 59.59 140.80 59.42
  Q 140.18 59.35 140.25 59.98
  C 140.88 65.34 146.07 70.13 151.07 71.14
  Q 151.34 71.20 151.45 71.46
  Q 151.53 71.65 151.78 71.61
  Q 157.76 74.02 164.17 74.17
  Q 164.50 74.17 164.50 74.51
  C 164.50 75.60 178.80 74.75 180.76 74.54
  Q 183.05 74.29 184.71 73.35
  Q 185.13 73.11 185.62 73.12
  Q 187.46 73.17 189.12 72.21
  Q 189.54 71.97 190.01 72.02
  C 192.00 72.21 196.41 68.44 198.76 66.74
  Q 204.92 62.29 201.72 56.06
  C 201.35 55.33 200.70 55.15 200.57 54.13
  Q 200.51 53.65 200.20 53.28
  Q 198.92 51.71 197.24 50.69
  C 195.38 49.57 193.61 47.64 190.71 47.75"
/>
<path stroke="#000000" stroke-opacity="0.914" vector-effect="non-scaling-stroke" d="
  M 63.54 111.75
  Q 63.34 110.89 62.53 110.98
  Q 61.98 111.05 61.80 110.52
  Q 61.28 109.05 59.82 109.30
  Q 59.23 109.40 58.93 109.93
  Q 57.43 112.59 54.63 113.64
  Q 54.07 113.86 54.33 114.40
  L 54.51 114.75
  Q 54.70 115.14 54.27 115.20
  Q 51.95 115.54 52.21 117.75"
/>
<path stroke="#000000" stroke-opacity="0.949" vector-effect="non-scaling-stroke" d="
  M 124.00 140.71
  Q 123.42 138.29 125.25 137.08
  Q 125.74 136.76 125.49 136.23
  L 124.32 133.77
  Q 124.05 133.21 123.95 132.59
  Q 123.57 130.26 122.01 128.40
  Q 121.70 128.03 121.64 127.55
  Q 121.46 126.22 120.31 125.34
  Q 120.00 125.10 120.00 124.71
  L 120.00 124.16
  Q 120.00 123.05 119.16 123.78
  L 118.56 124.30
  Q 117.93 124.84 118.07 124.02
  C 118.48 121.71 116.37 120.20 115.86 117.91
  Q 115.77 117.49 115.35 117.36
  Q 114.08 116.95 113.73 115.67
  Q 113.65 115.34 113.32 115.26
  Q 112.19 114.96 111.75 113.82
  Q 111.60 113.45 111.23 113.30
  Q 110.36 112.95 109.88 111.96
  Q 109.80 111.80 109.97 111.82
  Q 110.12 111.83 110.22 111.77
  Q 111.39 111.04 110.05 111.29
  Q 108.78 111.52 108.40 110.84
  Q 108.15 110.41 107.65 110.37
  Q 106.18 110.28 105.82 108.89
  Q 105.69 108.40 105.21 108.27
  Q 103.87 107.91 103.05 108.88
  Q 102.78 109.20 102.37 109.19
  Q 101.27 109.16 100.21 109.75"
/>
<path stroke="#000000" stroke-opacity="0.949" vector-effect="non-scaling-stroke" d="
  M 64.75 198.96
  Q 64.50 199.75 63.79 199.54
  Q 63.00 199.31 63.30 200.03
  Q 63.71 201.01 62.79 202.00
  Q 62.56 202.26 62.25 202.09
  Q 61.77 201.83 61.65 201.33
  Q 61.57 200.96 61.19 200.94
  C 59.35 200.86 56.02 197.66 55.20 196.97
  Q 54.87 196.69 54.45 196.76
  C 54.07 196.82 51.67 193.90 51.35 193.44
  Q 51.11 193.08 50.67 193.00
  Q 49.55 192.80 49.44 191.62
  Q 49.39 191.11 48.92 190.89
  Q 47.77 190.36 47.45 189.16
  Q 47.31 188.64 47.04 188.18
  L 45.56 185.62
  Q 45.31 185.19 44.88 184.96
  C 42.88 183.92 42.68 180.22 41.37 180.46"
/>
<path stroke="#000000" stroke-opacity="0.980" vector-effect="non-scaling-stroke" d="
  M 40.82 152.70
  Q 39.05 153.08 37.70 154.19
  Q 37.34 154.48 37.43 154.94
  Q 38.59 161.13 38.54 167.43
  Q 38.54 168.00 38.82 168.49
  Q 39.61 169.84 38.45 171.04
  Q 38.12 171.39 38.14 171.86
  L 38.21 173.25"
/>
<path stroke="#000000" stroke-opacity="0.980" vector-effect="non-scaling-stroke" d="
  M 229.96 115.75
  C 231.23 113.67 229.66 112.59 228.51 111.30
  C 227.43 110.10 225.64 109.97 224.31 108.81
  Q 223.93 108.49 223.44 108.42
  C 220.62 108.06 217.68 108.36 214.95 108.21
  C 208.39 107.85 202.76 109.97 197.42 113.72
  Q 195.27 115.23 193.03 117.79
  Q 191.11 119.97 189.20 122.15
  Q 188.88 122.52 188.83 122.99
  C 188.62 124.88 187.33 126.31 187.01 127.91
  C 186.67 129.60 186.75 130.48 185.85 132.14
  C 183.60 136.28 186.02 143.87 187.79 147.62
  Q 188.01 148.08 188.03 148.58
  Q 188.08 149.88 188.91 150.68
  Q 189.21 150.97 189.45 151.31
  L 192.69 155.86
  Q 193.86 157.51 194.93 155.78
  Q 195.44 154.95 196.50 155.46"
/>
</g>
<path fill="#000000" fill-opacity="0.827" d="
  M 177.96 19.25
  L 177.71 20.23
  Q 177.30 21.89 177.31 20.17
  Q 177.32 18.98 176.71 17.98
  Q 176.32 17.35 176.30 18.08
  Q 176.09 24.54 175.32 26.65
  Q 173.49 31.72 167.33 36.44
  Q 166.98 36.71 166.53 36.76
  Q 165.77 36.84 165.42 37.53
  Q 165.22 37.95 164.77 38.06
  L 162.79 38.59
  Q 162.41 38.69 162.72 38.94
  C 163.09 39.24 163.47 39.80 162.75 40.04
  Q 158.78 38.61 156.25 35.29
  L 156.77 35.43
  Q 157.09 35.51 157.05 35.18
  L 157.00 34.85
  Q 156.92 34.23 157.55 34.24
  Q 162.44 34.38 164.99 32.93
  Q 166.28 32.20 168.69 29.71
  Q 170.53 27.81 171.14 25.60
  Q 173.17 18.24 169.09 12.31
  C 164.93 6.27 154.33 4.62 149.34 10.36
  Q 149.03 10.72 148.70 11.06
  Q 148.24 11.54 147.57 12.06
  Q 147.21 12.33 147.46 12.71
  Q 148.00 13.56 147.46 14.50
  Q 146.08 7.11 139.90 3.39
  Q 139.24 2.99 140.01 2.89
  Q 143.19 2.47 146.31 3.08
  Q 147.67 3.34 146.76 2.30
  Q 145.99 1.43 144.87 0.95
  A 0.25 0.25 0.0 0 1 144.98 0.47
  C 156.15 1.17 175.33 5.89 177.96 19.25
  Z"
/>
<path fill="#000000" fill-opacity="0.894" d="
  M 156.25 35.29
  L 154.29 32.75
  C 159.57 32.12 165.01 32.61 167.63 26.90
  C 168.17 25.71 168.98 24.84 169.70 23.84
  Q 169.99 23.44 170.00 22.95
  C 170.01 20.13 170.50 17.39 169.00 14.92
  C 166.26 10.41 161.58 7.45 156.19 8.80
  C 154.42 9.23 152.74 10.43 151.13 11.43
  Q 150.71 11.69 150.41 12.07
  L 147.75 15.54
  L 147.46 14.50
  Q 148.00 13.56 147.46 12.71
  Q 147.21 12.33 147.57 12.06
  Q 148.24 11.54 148.70 11.06
  Q 149.03 10.72 149.34 10.36
  C 154.33 4.62 164.93 6.27 169.09 12.31
  Q 173.17 18.24 171.14 25.60
  Q 170.53 27.81 168.69 29.71
  Q 166.28 32.20 164.99 32.93
  Q 162.44 34.38 157.55 34.24
  Q 156.92 34.23 157.00 34.85
  L 157.05 35.18
  Q 157.09 35.51 156.77 35.43
  L 156.25 35.29
  Z"
/>
<path fill="#000000" d="
  M 154.29 32.75
  Q 149.52 24.72 147.75 15.54
  L 150.41 12.07
  Q 150.71 11.69 151.13 11.43
  C 152.74 10.43 154.42 9.23 156.19 8.80
  C 161.58 7.45 166.26 10.41 169.00 14.92
  C 170.50 17.39 170.01 20.13 170.00 22.95
  Q 169.99 23.44 169.70 23.84
  C 168.98 24.84 168.17 25.71 167.63 26.90
  C 165.01 32.61 159.57 32.12 154.29 32.75
  Z"
/>
<path fill="#000000" fill-opacity="0.624" d="
  M 177.96 19.25
  Q 180.94 31.38 172.25 38.75
  Q 168.33 42.08 162.75 40.04
  C 163.47 39.80 163.09 39.24 162.72 38.94
  Q 162.41 38.69 162.79 38.59
  L 164.77 38.06
  Q 165.22 37.95 165.42 37.53
  Q 165.77 36.84 166.53 36.76
  Q 166.98 36.71 167.33 36.44
  Q 173.49 31.72 175.32 26.65
  Q 176.09 24.54 176.30 18.08
  Q 176.32 17.35 176.71 17.98
  Q 177.32 18.98 177.31 20.17
  Q 177.30 21.89 177.71 20.23
  L 177.96 19.25
  Z"
/>
<path fill="#000000" fill-opacity="0.624" d="
  M 219.65 52.62
  Q 215.64 46.62 209.28 43.21
  Q 203.90 40.34 198.14 38.07
  C 203.40 32.03 212.27 32.97 219.50 34.55
  C 228.23 36.45 222.48 48.21 219.65 52.62
  Z"
/>
<path fill="#000000" fill-opacity="0.710" d="
  M 198.14 38.07
  Q 203.90 40.34 209.28 43.21
  Q 215.64 46.62 219.65 52.62
  L 215.50 59.79
  Q 214.76 59.89 214.15 60.44
  Q 213.66 60.90 213.53 60.24
  L 212.47 54.87
  Q 212.37 54.36 212.01 53.99
  C 210.63 52.56 209.72 50.57 208.41 49.35
  C 205.33 46.50 200.09 42.96 195.72 43.00
  Q 194.93 43.01 195.31 42.32
  Q 195.76 41.52 195.79 40.75
  Q 196.57 38.88 198.14 38.07
  Z"
/>
<path fill="#000000" fill-opacity="0.624" d="
  M 124.25 46.46
  L 121.79 44.50
  Q 119.42 42.61 121.50 44.81
  Q 122.89 46.29 124.54 47.59
  Q 125.57 48.41 124.27 48.24
  Q 122.83 48.06 122.84 49.50
  Q 122.84 50.48 121.98 50.00
  Q 121.31 49.63 121.46 48.81
  Q 121.65 47.81 121.02 48.75
  Q 120.86 48.99 120.96 49.25
  Q 118.70 44.99 117.73 40.27
  Q 117.59 39.57 118.09 40.08
  L 124.25 46.46
  Z"
/>
<path fill="#000000" fill-opacity="0.827" d="
  M 195.79 40.75
  Q 195.76 41.52 195.31 42.32
  Q 194.93 43.01 195.72 43.00
  C 200.09 42.96 205.33 46.50 208.41 49.35
  C 209.72 50.57 210.63 52.56 212.01 53.99
  Q 212.37 54.36 212.47 54.87
  L 213.53 60.24
  Q 213.66 60.90 214.15 60.44
  Q 214.76 59.89 215.50 59.79
  Q 209.35 69.62 199.54 75.75
  Q 199.23 75.15 198.93 75.05
  C 197.71 74.65 190.29 77.96 188.84 78.28
  Q 173.44 81.60 157.79 79.31
  Q 151.14 78.34 143.57 75.71
  A 0.35 0.35 0.0 0 0 143.24 76.31
  Q 143.77 76.73 144.25 77.71
  C 133.44 71.24 125.91 60.56 120.96 49.25
  Q 120.86 48.99 121.02 48.75
  Q 121.65 47.81 121.46 48.81
  Q 121.31 49.63 121.98 50.00
  Q 122.84 50.48 122.84 49.50
  Q 122.83 48.06 124.27 48.24
  Q 125.57 48.41 124.54 47.59
  Q 122.89 46.29 121.50 44.81
  Q 119.42 42.61 121.79 44.50
  L 124.25 46.46
  Q 130.55 51.60 137.54 55.75
  Q 136.36 57.42 134.92 56.40
  Q 134.62 56.19 134.56 56.55
  Q 133.99 60.08 135.62 63.25
  Q 135.82 63.65 136.20 63.89
  Q 139.56 66.11 142.00 69.36
  Q 142.30 69.76 142.78 69.91
  C 147.50 71.41 152.30 73.78 156.81 74.69
  Q 173.63 78.08 190.43 73.52
  Q 190.92 73.39 191.25 73.01
  C 192.24 71.88 196.91 70.38 198.29 69.67
  C 200.31 68.61 203.82 64.65 204.44 62.58
  Q 206.37 56.23 201.02 51.49
  Q 197.27 48.17 192.86 46.86
  Q 192.22 46.67 192.62 46.14
  Q 193.45 45.02 193.76 43.76
  L 195.79 40.75
  Z"
/>
<path fill="#000000" fill-opacity="0.894" d="
  M 193.76 43.76
  Q 193.45 45.02 192.62 46.14
  Q 192.22 46.67 192.86 46.86
  Q 197.27 48.17 201.02 51.49
  Q 206.37 56.23 204.44 62.58
  C 203.82 64.65 200.31 68.61 198.29 69.67
  C 196.91 70.38 192.24 71.88 191.25 73.01
  Q 190.92 73.39 190.43 73.52
  Q 173.63 78.08 156.81 74.69
  C 152.30 73.78 147.50 71.41 142.78 69.91
  Q 142.30 69.76 142.00 69.36
  Q 139.56 66.11 136.20 63.89
  Q 135.82 63.65 135.62 63.25
  Q 133.99 60.08 134.56 56.55
  Q 134.62 56.19 134.92 56.40
  Q 136.36 57.42 137.54 55.75
  L 143.54 58.75
  Q 142.30 59.59 140.80 59.42
  Q 140.18 59.35 140.25 59.98
  C 140.88 65.34 146.07 70.13 151.07 71.14
  Q 151.34 71.20 151.45 71.46
  Q 151.53 71.65 151.78 71.61
  Q 157.76 74.02 164.17 74.17
  Q 164.50 74.17 164.50 74.51
  C 164.50 75.60 178.80 74.75 180.76 74.54
  Q 183.05 74.29 184.71 73.35
  Q 185.13 73.11 185.62 73.12
  Q 187.46 73.17 189.12 72.21
  Q 189.54 71.97 190.01 72.02
  C 192.00 72.21 196.41 68.44 198.76 66.74
  Q 204.92 62.29 201.72 56.06
  C 201.35 55.33 200.70 55.15 200.57 54.13
  Q 200.51 53.65 200.20 53.28
  Q 198.92 51.71 197.24 50.69
  C 195.38 49.57 193.61 47.64 190.71 47.75
  L 193.76 43.76
  Z"
/>
<path fill="#000000" d="
  M 143.54 58.75
  Q 171.67 70.55 190.71 47.75
  C 193.61 47.64 195.38 49.57 197.24 50.69
  Q 198.92 51.71 200.20 53.28
  Q 200.51 53.65 200.57 54.13
  C 200.70 55.15 201.35 55.33 201.72 56.06
  Q 204.92 62.29 198.76 66.74
  C 196.41 68.44 192.00 72.21 190.01 72.02
  Q 189.54 71.97 189.12 72.21
  Q 187.46 73.17 185.62 73.12
  Q 185.13 73.11 184.71 73.35
  Q 183.05 74.29 180.76 74.54
  C 178.80 74.75 164.50 75.60 164.50 74.51
  Q 164.50 74.17 164.17 74.17
  Q 157.76 74.02 151.78 71.61
  Q 151.53 71.65 151.45 71.46
  Q 151.34 71.20 151.07 71.14
  C 146.07 70.13 140.88 65.34 140.25 59.98
  Q 140.18 59.35 140.80 59.42
  Q 142.30 59.59 143.54 58.75
  Z"
/>
<path fill="#000000" fill-opacity="0.624" d="
  M 128.79 83.25
  Q 128.84 83.55 128.73 83.77
  Q 128.20 84.86 128.49 83.75
  Q 128.59 83.36 128.42 83.07
  Q 127.75 81.87 127.96 83.26
  Q 128.36 85.99 128.24 88.75
  Q 128.13 91.43 127.56 89.19
  Q 127.45 88.77 127.52 88.33
  Q 127.63 87.71 127.16 87.28
  L 125.75 85.99
  Q 125.35 85.62 125.75 85.74
  Q 125.97 85.81 126.19 85.75
  Q 126.51 85.67 126.20 85.55
  L 125.12 85.15
  Q 124.75 85.02 124.53 84.70
  Q 123.06 82.57 120.52 82.13
  Q 120.46 82.12 120.48 82.07
  Q 120.53 81.92 120.56 81.80
  Q 120.65 81.53 120.41 81.37
  Q 118.26 79.98 115.89 78.98
  Q 115.52 78.83 115.77 78.57
  Q 116.38 77.95 115.59 78.19
  Q 114.54 78.52 114.33 77.87
  Q 113.69 75.89 113.97 77.75
  Q 114.02 78.02 113.72 78.00
  Q 113.48 77.98 113.60 77.78
  L 113.77 77.49
  Q 113.89 77.29 113.66 77.28
  L 112.68 77.24
  Q 112.35 77.22 112.52 76.94
  L 112.67 76.69
  Q 112.80 76.46 112.55 76.38
  L 111.65 76.10
  Q 111.37 76.01 111.58 75.80
  L 111.80 75.57
  Q 111.91 75.47 111.76 75.43
  Q 108.89 74.74 107.98 74.24
  Q 104.53 72.36 101.93 72.05
  Q 101.57 72.01 101.56 71.93
  Q 101.56 71.88 101.56 71.83
  Q 101.52 71.36 101.48 71.35
  L 95.71 69.98
  Q 95.58 69.95 95.53 69.83
  Q 95.47 69.66 95.41 69.47
  Q 95.17 68.67 95.06 69.50
  L 94.98 70.04
  Q 94.96 70.24 94.78 70.13
  Q 94.37 69.86 94.69 69.69
  Q 95.49 69.25 94.25 69.25
  L 90.00 69.25
  Q 89.78 69.25 89.67 69.06
  L 89.49 68.76
  Q 89.26 68.37 89.02 68.75
  Q 88.90 68.94 88.72 69.02
  Q 88.39 69.17 88.56 68.85
  L 88.72 68.54
  Q 88.77 68.46 88.68 68.45
  Q 84.63 67.74 80.69 68.73
  Q 80.66 68.73 80.67 68.71
  Q 80.77 68.55 80.48 68.39
  Q 80.25 68.25 80.13 68.50
  L 79.92 68.94
  Q 79.80 69.20 79.69 68.93
  Q 79.61 68.73 79.64 68.49
  Q 79.70 68.01 79.32 68.30
  Q 79.01 68.53 78.95 68.92
  Q 78.88 69.32 78.70 68.95
  Q 78.62 68.79 78.63 68.60
  Q 78.65 68.25 78.30 68.25
  C 77.89 68.25 74.76 68.74 74.75 68.72
  Q 74.55 68.50 74.28 68.63
  L 70.81 70.36
  Q 69.84 70.84 70.43 69.93
  Q 70.68 69.54 70.50 69.21
  C 78.60 64.32 89.30 59.52 98.91 60.07
  C 114.30 60.94 126.33 66.70 128.79 83.25
  Z"
/>
<path fill="#000000" fill-opacity="0.710" d="
  M 128.79 83.25
  Q 130.11 96.67 125.21 109.25
  L 124.60 109.03
  Q 124.20 108.89 124.13 109.31
  Q 124.03 109.99 123.45 110.31
  Q 122.38 110.89 123.19 109.98
  C 125.11 107.80 119.02 103.32 117.51 101.99
  Q 117.45 101.93 117.51 101.87
  Q 117.59 101.78 117.69 101.69
  Q 117.78 101.62 117.68 101.55
  Q 115.50 100.10 113.85 98.10
  C 113.40 97.56 113.97 96.88 112.51 97.26
  Q 111.82 97.44 111.76 96.73
  L 111.69 95.85
  Q 111.65 95.25 111.04 95.25
  L 109.83 95.25
  Q 109.15 95.25 109.06 95.93
  L 108.85 97.77
  Q 108.75 98.55 108.51 97.80
  Q 108.47 97.64 108.41 97.49
  Q 108.28 97.10 108.41 96.70
  Q 109.89 92.09 109.00 87.24
  Q 108.81 86.25 108.78 87.26
  L 108.71 89.00
  C 108.48 84.71 105.49 75.98 100.02 76.89
  Q 92.17 78.19 86.50 83.79
  Q 85.93 82.66 86.67 81.70
  Q 87.00 81.27 86.45 81.27
  L 76.19 81.30
  Q 76.00 81.30 76.00 81.49
  Q 76.00 81.62 76.01 81.78
  Q 76.04 82.14 75.66 81.56
  Q 75.30 81.00 74.33 81.29
  Q 74.00 81.39 74.00 81.74
  Q 74.01 82.00 73.75 82.00
  Q 73.50 82.00 73.54 81.93
  L 73.67 81.68
  Q 73.73 81.58 73.62 81.62
  Q 69.33 83.21 67.75 83.28
  Q 65.37 83.40 64.42 83.66
  Q 64.21 83.71 64.42 83.77
  Q 64.54 83.81 64.64 83.93
  Q 64.89 84.25 64.48 84.25
  L 61.82 84.25
  Q 61.32 84.25 61.08 84.68
  Q 60.38 85.89 59.03 85.20
  Q 58.39 84.87 58.09 85.52
  Q 57.29 87.27 55.67 87.37
  Q 55.20 87.40 54.98 87.83
  Q 53.92 89.93 51.70 89.32
  Q 51.27 89.20 51.04 89.60
  Q 50.19 91.14 48.52 91.54
  Q 47.51 91.78 48.50 91.75
  Q 48.62 91.75 48.76 91.75
  Q 50.08 91.77 48.60 92.14
  Q 46.97 92.55 45.86 93.82
  Q 45.60 94.12 45.25 94.29
  L 42.54 95.59
  Q 42.43 95.65 42.55 95.66
  Q 42.72 95.67 42.87 95.85
  Q 43.27 96.33 42.64 96.34
  L 41.44 96.37
  Q 40.54 96.39 40.79 97.26
  C 41.32 99.11 43.42 100.99 42.75 103.29
  C 38.53 96.67 34.95 91.38 28.45 87.83
  Q 27.86 87.51 28.52 87.38
  C 44.17 84.39 54.80 78.24 70.50 69.21
  Q 70.68 69.54 70.43 69.93
  Q 69.84 70.84 70.81 70.36
  L 74.28 68.63
  Q 74.55 68.50 74.75 68.72
  C 74.76 68.74 77.89 68.25 78.30 68.25
  Q 78.65 68.25 78.63 68.60
  Q 78.62 68.79 78.70 68.95
  Q 78.88 69.32 78.95 68.92
  Q 79.01 68.53 79.32 68.30
  Q 79.70 68.01 79.64 68.49
  Q 79.61 68.73 79.69 68.93
  Q 79.80 69.20 79.92 68.94
  L 80.13 68.50
  Q 80.25 68.25 80.48 68.39
  Q 80.77 68.55 80.67 68.71
  Q 80.66 68.73 80.69 68.73
  Q 84.63 67.74 88.68 68.45
  Q 88.77 68.46 88.72 68.54
  L 88.56 68.85
  Q 88.39 69.17 88.72 69.02
  Q 88.90 68.94 89.02 68.75
  Q 89.26 68.37 89.49 68.76
  L 89.67 69.06
  Q 89.78 69.25 90.00 69.25
  L 94.25 69.25
  Q 95.49 69.25 94.69 69.69
  Q 94.37 69.86 94.78 70.13
  Q 94.96 70.24 94.98 70.04
  L 95.06 69.50
  Q 95.17 68.67 95.41 69.47
  Q 95.47 69.66 95.53 69.83
  Q 95.58 69.95 95.71 69.98
  L 101.48 71.35
  Q 101.52 71.36 101.56 71.83
  Q 101.56 71.88 101.56 71.93
  Q 101.57 72.01 101.93 72.05
  Q 104.53 72.36 107.98 74.24
  Q 108.89 74.74 111.76 75.43
  Q 111.91 75.47 111.80 75.57
  L 111.58 75.80
  Q 111.37 76.01 111.65 76.10
  L 112.55 76.38
  Q 112.80 76.46 112.67 76.69
  L 112.52 76.94
  Q 112.35 77.22 112.68 77.24
  L 113.66 77.28
  Q 113.89 77.29 113.77 77.49
  L 113.60 77.78
  Q 113.48 77.98 113.72 78.00
  Q 114.02 78.02 113.97 77.75
  Q 113.69 75.89 114.33 77.87
  Q 114.54 78.52 115.59 78.19
  Q 116.38 77.95 115.77 78.57
  Q 115.52 78.83 115.89 78.98
  Q 118.26 79.98 120.41 81.37
  Q 120.65 81.53 120.56 81.80
  Q 120.53 81.92 120.48 82.07
  Q 120.46 82.12 120.52 82.13
  Q 123.06 82.57 124.53 84.70
  Q 124.75 85.02 125.12 85.15
  L 126.20 85.55
  Q 126.51 85.67 126.19 85.75
  Q 125.97 85.81 125.75 85.74
  Q 125.35 85.62 125.75 85.99
  L 127.16 87.28
  Q 127.63 87.71 127.52 88.33
  Q 127.45 88.77 127.56 89.19
  Q 128.13 91.43 128.24 88.75
  Q 128.36 85.99 127.96 83.26
  Q 127.75 81.87 128.42 83.07
  Q 128.59 83.36 128.49 83.75
  Q 128.20 84.86 128.73 83.77
  Q 128.84 83.55 128.79 83.25
  Z"
/>
<path fill="#000000" fill-opacity="0.710" d="
  M 199.54 75.75
  C 183.07 87.44 161.48 88.29 144.25 77.71
  Q 143.77 76.73 143.24 76.31
  A 0.35 0.35 0.0 0 1 143.57 75.71
  Q 151.14 78.34 157.79 79.31
  Q 173.44 81.60 188.84 78.28
  C 190.29 77.96 197.71 74.65 198.93 75.05
  Q 199.23 75.15 199.54 75.75
  Z"
/>
<path fill="#000000" fill-opacity="0.827" d="
  M 86.50 83.79
  C 77.66 91.95 70.87 102.27 63.54 111.75
  Q 63.34 110.89 62.53 110.98
  Q 61.98 111.05 61.80 110.52
  Q 61.28 109.05 59.82 109.30
  Q 59.23 109.40 58.93 109.93
  Q 57.43 112.59 54.63 113.64
  Q 54.07 113.86 54.33 114.40
  L 54.51 114.75
  Q 54.70 115.14 54.27 115.20
  Q 51.95 115.54 52.21 117.75
  Q 46.96 110.87 42.75 103.29
  C 43.42 100.99 41.32 99.11 40.79 97.26
  Q 40.54 96.39 41.44 96.37
  L 42.64 96.34
  Q 43.27 96.33 42.87 95.85
  Q 42.72 95.67 42.55 95.66
  Q 42.43 95.65 42.54 95.59
  L 45.25 94.29
  Q 45.60 94.12 45.86 93.82
  Q 46.97 92.55 48.60 92.14
  Q 50.08 91.77 48.76 91.75
  Q 48.62 91.75 48.50 91.75
  Q 47.51 91.78 48.52 91.54
  Q 50.19 91.14 51.04 89.60
  Q 51.27 89.20 51.70 89.32
  Q 53.92 89.93 54.98 87.83
  Q 55.20 87.40 55.67 87.37
  Q 57.29 87.27 58.09 85.52
  Q 58.39 84.87 59.03 85.20
  Q 60.38 85.89 61.08 84.68
  Q 61.32 84.25 61.82 84.25
  L 64.48 84.25
  Q 64.89 84.25 64.64 83.93
  Q 64.54 83.81 64.42 83.77
  Q 64.21 83.71 64.42 83.66
  Q 65.37 83.40 67.75 83.28
  Q 69.33 83.21 73.62 81.62
  Q 73.73 81.58 73.67 81.68
  L 73.54 81.93
  Q 73.50 82.00 73.75 82.00
  Q 74.01 82.00 74.00 81.74
  Q 74.00 81.39 74.33 81.29
  Q 75.30 81.00 75.66 81.56
  Q 76.04 82.14 76.01 81.78
  Q 76.00 81.62 76.00 81.49
  Q 76.00 81.30 76.19 81.30
  L 86.45 81.27
  Q 87.00 81.27 86.67 81.70
  Q 85.93 82.66 86.50 83.79
  Z"
/>
<path fill="#000000" fill-opacity="0.624" d="
  M 268.71 128.75
  L 268.51 121.49
  Q 268.49 120.74 268.42 121.48
  L 267.18 135.15
  Q 267.17 135.25 267.07 135.25
  Q 266.90 135.25 266.71 135.25
  Q 266.56 135.26 266.57 135.11
  Q 266.73 130.51 264.70 124.77
  Q 264.53 124.29 264.77 122.82
  Q 264.85 122.31 264.60 121.86
  Q 263.50 119.92 262.86 117.82
  Q 262.10 115.35 261.22 113.85
  Q 259.94 111.67 258.68 109.50
  Q 257.31 107.15 255.76 105.42
  Q 250.54 99.57 244.31 94.81
  Q 243.92 94.50 243.41 94.51
  C 241.89 94.55 241.43 93.51 240.49 92.96
  Q 237.60 91.30 234.52 90.02
  Q 234.40 89.97 234.50 89.87
  Q 234.60 89.77 234.72 89.67
  Q 235.20 89.26 234.57 89.28
  C 230.23 89.46 227.13 87.57 223.22 87.11
  Q 220.34 86.77 217.43 86.25
  Q 216.62 86.11 217.28 85.62
  C 218.50 84.72 220.51 85.85 221.35 84.87
  Q 221.60 84.58 221.22 84.52
  Q 220.93 84.47 220.75 84.29
  C 249.97 80.31 271.84 98.38 268.71 128.75
  Z"
/>
<path fill="#000000" fill-opacity="0.710" d="
  M 220.75 84.29
  Q 220.93 84.47 221.22 84.52
  Q 221.60 84.58 221.35 84.87
  C 220.51 85.85 218.50 84.72 217.28 85.62
  Q 216.62 86.11 217.43 86.25
  Q 220.34 86.77 223.22 87.11
  C 227.13 87.57 230.23 89.46 234.57 89.28
  Q 235.20 89.26 234.72 89.67
  Q 234.60 89.77 234.50 89.87
  Q 234.40 89.97 234.52 90.02
  Q 237.60 91.30 240.49 92.96
  C 241.43 93.51 241.89 94.55 243.41 94.51
  Q 243.92 94.50 244.31 94.81
  Q 250.54 99.57 255.76 105.42
  Q 257.31 107.15 258.68 109.50
  Q 259.94 111.67 261.22 113.85
  Q 262.10 115.35 262.86 117.82
  Q 263.50 119.92 264.60 121.86
  Q 264.85 122.31 264.77 122.82
  Q 264.53 124.29 264.70 124.77
  Q 266.73 130.51 266.57 135.11
  Q 266.56 135.26 266.71 135.25
  Q 266.90 135.25 267.07 135.25
  Q 267.17 135.25 267.18 135.15
  L 268.42 121.48
  Q 268.49 120.74 268.51 121.49
  L 268.71 128.75
  C 266.66 153.04 252.09 175.53 230.04 186.28
  Q 222.15 190.12 214.07 190.58
  Q 212.91 190.64 214.01 190.29
  Q 222.07 187.73 229.22 183.21
  A 0.27 0.27 0.0 0 0 229.04 182.71
  L 226.54 183.00
  Q 230.08 182.09 233.27 180.20
  Q 233.65 179.97 234.10 180.06
  Q 235.03 180.23 235.40 179.34
  Q 235.60 178.85 236.08 178.62
  Q 238.72 177.41 240.88 175.58
  C 242.91 173.86 250.00 168.36 250.21 166.69
  Q 250.25 166.38 250.52 166.22
  Q 252.33 165.15 253.71 163.53
  Q 254.05 163.13 254.11 162.61
  Q 254.21 161.79 255.07 161.66
  Q 256.14 161.50 256.14 160.41
  Q 256.15 157.96 257.93 156.25
  Q 258.29 155.90 258.42 155.40
  L 261.70 142.12
  Q 261.82 141.64 261.63 141.18
  C 261.04 139.77 262.12 137.72 261.54 135.77
  Q 261.40 135.29 261.50 134.81
  C 262.07 131.92 261.01 129.80 260.49 127.01
  Q 260.39 126.51 260.05 126.13
  Q 259.31 125.29 259.72 123.73
  Q 259.81 123.38 259.71 123.04
  L 258.49 118.75
  Q 258.35 118.30 257.88 118.26
  C 257.23 118.21 257.61 117.75 257.52 117.51
  Q 256.20 113.66 253.36 110.78
  Q 252.38 109.79 250.57 106.76
  Q 250.36 106.40 249.95 106.30
  L 249.07 106.07
  Q 248.57 105.93 248.23 105.54
  C 247.27 104.38 243.00 99.28 241.44 99.07
  Q 240.95 99.01 240.50 98.79
  L 235.66 96.41
  Q 235.23 96.20 234.75 96.27
  C 232.98 96.55 234.08 94.96 232.57 95.24
  Q 232.10 95.33 231.90 94.90
  C 231.04 93.11 227.94 92.91 225.59 92.02
  C 220.57 90.12 210.37 91.25 204.74 91.32
  Q 204.26 91.33 203.96 91.69
  C 203.14 92.67 201.37 91.63 200.90 92.93
  Q 200.75 93.34 200.32 93.24
  Q 199.22 92.97 198.74 93.87
  Q 198.50 94.33 197.98 94.26
  L 197.59 94.20
  Q 197.16 94.15 197.41 93.79
  L 197.96 93.00
  Q 208.10 85.50 220.75 84.29
  Z"
/>
<path fill="#000000" fill-opacity="0.894" d="
  M 125.21 109.25
  L 119.95 121.70
  Q 119.71 122.28 120.30 122.07
  L 124.71 120.50
  Q 124.93 120.93 124.58 121.40
  Q 124.05 122.10 124.92 121.98
  L 126.26 121.79
  Q 126.46 121.76 126.42 121.96
  Q 126.22 122.94 127.01 123.54
  Q 127.38 123.82 127.48 124.28
  Q 127.73 125.38 128.63 125.40
  Q 129.45 125.42 128.78 125.88
  Q 128.59 126.01 128.38 126.01
  Q 127.94 126.01 128.13 126.40
  L 130.68 131.57
  Q 131.00 132.23 130.80 132.93
  Q 130.36 134.41 131.63 134.38
  Q 131.81 134.37 131.73 134.54
  L 131.54 134.89
  Q 131.42 135.10 131.64 135.21
  L 132.31 135.53
  Q 132.43 135.59 132.30 135.64
  Q 132.15 135.69 132.05 135.74
  Q 131.64 135.92 131.95 136.23
  Q 132.61 136.90 132.64 137.82
  Q 132.66 138.21 132.79 138.58
  L 134.47 143.36
  Q 134.63 143.81 134.16 143.75
  L 133.69 143.69
  Q 133.19 143.62 133.26 144.12
  L 133.31 144.48
  Q 133.34 144.73 133.09 144.75
  L 132.75 144.79
  Q 129.55 140.31 124.00 140.71
  Q 123.42 138.29 125.25 137.08
  Q 125.74 136.76 125.49 136.23
  L 124.32 133.77
  Q 124.05 133.21 123.95 132.59
  Q 123.57 130.26 122.01 128.40
  Q 121.70 128.03 121.64 127.55
  Q 121.46 126.22 120.31 125.34
  Q 120.00 125.10 120.00 124.71
  L 120.00 124.16
  Q 120.00 123.05 119.16 123.78
  L 118.56 124.30
  Q 117.93 124.84 118.07 124.02
  C 118.48 121.71 116.37 120.20 115.86 117.91
  Q 115.77 117.49 115.35 117.36
  Q 114.08 116.95 113.73 115.67
  Q 113.65 115.34 113.32 115.26
  Q 112.19 114.96 111.75 113.82
  Q 111.60 113.45 111.23 113.30
  Q 110.36 112.95 109.88 111.96
  Q 109.80 111.80 109.97 111.82
  Q 110.12 111.83 110.22 111.77
  Q 111.39 111.04 110.05 111.29
  Q 108.78 111.52 108.40 110.84
  Q 108.15 110.41 107.65 110.37
  Q 106.18 110.28 105.82 108.89
  Q 105.69 108.40 105.21 108.27
  Q 103.87 107.91 103.05 108.88
  Q 102.78 109.20 102.37 109.19
  Q 101.27 109.16 100.21 109.75
  C 105.29 103.26 108.83 97.61 108.71 89.00
  L 108.78 87.26
  Q 108.81 86.25 109.00 87.24
  Q 109.89 92.09 108.41 96.70
  Q 108.28 97.10 108.41 97.49
  Q 108.47 97.64 108.51 97.80
  Q 108.75 98.55 108.85 97.77
  L 109.06 95.93
  Q 109.15 95.25 109.83 95.25
  L 111.04 95.25
  Q 111.65 95.25 111.69 95.85
  L 111.76 96.73
  Q 111.82 97.44 112.51 97.26
  C 113.97 96.88 113.40 97.56 113.85 98.10
  Q 115.50 100.10 117.68 101.55
  Q 117.78 101.62 117.69 101.69
  Q 117.59 101.78 117.51 101.87
  Q 117.45 101.93 117.51 101.99
  C 119.02 103.32 125.11 107.80 123.19 109.98
  Q 122.38 110.89 123.45 110.31
  Q 124.03 109.99 124.13 109.31
  Q 124.20 108.89 124.60 109.03
  L 125.21 109.25
  Z"
/>
<path fill="#000000" fill-opacity="0.761" d="
  M 226.54 183.00
  Q 218.52 184.83 210.29 185.00
  L 206.27 184.73
  Q 204.82 184.63 206.25 184.34
  Q 207.95 184.00 209.72 184.37
  Q 209.86 184.41 209.91 184.26
  Q 209.96 184.12 210.01 183.97
  Q 210.11 183.60 209.73 183.55
  L 201.26 182.52
  Q 200.71 182.45 200.86 181.91
  L 201.25 180.54
  L 202.71 179.00
  C 204.17 178.23 206.34 175.11 207.87 176.27
  Q 208.27 176.57 208.76 176.63
  C 213.24 177.14 220.04 177.19 225.49 175.30
  C 229.63 173.87 232.91 173.09 236.25 169.99
  Q 236.70 169.58 237.72 169.78
  Q 238.22 169.88 238.61 169.55
  Q 241.62 166.98 244.06 163.86
  Q 244.13 163.77 247.18 160.31
  Q 249.24 157.97 250.77 154.27
  Q 255.16 143.65 254.80 133.97
  Q 254.73 132.05 254.16 131.22
  Q 253.88 130.81 253.86 130.32
  Q 253.79 128.41 253.11 126.66
  Q 252.95 126.24 252.86 125.80
  Q 252.72 125.00 252.75 124.25
  Q 252.77 123.74 252.47 123.32
  Q 250.47 120.43 249.26 117.16
  C 248.40 114.84 246.79 113.46 245.27 111.66
  Q 243.96 110.12 241.65 108.49
  C 239.62 107.05 237.86 104.50 235.62 103.60
  C 232.07 102.19 229.02 100.40 225.28 99.40
  C 224.86 99.29 224.09 99.34 223.80 99.04
  Q 223.43 98.67 222.92 98.57
  Q 210.49 96.15 198.84 101.20
  Q 198.40 101.39 198.23 101.84
  C 198.03 102.38 196.19 102.25 195.51 102.73
  C 193.01 104.49 190.72 105.69 188.57 107.93
  Q 188.24 108.27 187.78 108.38
  Q 186.65 108.66 186.26 109.62
  Q 186.10 110.01 185.71 110.20
  C 184.08 110.98 183.64 113.65 181.32 115.16
  Q 180.82 115.48 180.99 116.04
  Q 181.22 116.82 180.56 117.11
  Q 179.90 117.39 180.11 116.70
  L 181.43 112.23
  Q 187.17 100.43 197.96 93.00
  L 197.41 93.79
  Q 197.16 94.15 197.59 94.20
  L 197.98 94.26
  Q 198.50 94.33 198.74 93.87
  Q 199.22 92.97 200.32 93.24
  Q 200.75 93.34 200.90 92.93
  C 201.37 91.63 203.14 92.67 203.96 91.69
  Q 204.26 91.33 204.74 91.32
  C 210.37 91.25 220.57 90.12 225.59 92.02
  C 227.94 92.91 231.04 93.11 231.90 94.90
  Q 232.10 95.33 232.57 95.24
  C 234.08 94.96 232.98 96.55 234.75 96.27
  Q 235.23 96.20 235.66 96.41
  L 240.50 98.79
  Q 240.95 99.01 241.44 99.07
  C 243.00 99.28 247.27 104.38 248.23 105.54
  Q 248.57 105.93 249.07 106.07
  L 249.95 106.30
  Q 250.36 106.40 250.57 106.76
  Q 252.38 109.79 253.36 110.78
  Q 256.20 113.66 257.52 117.51
  C 257.61 117.75 257.23 118.21 257.88 118.26
  Q 258.35 118.30 258.49 118.75
  L 259.71 123.04
  Q 259.81 123.38 259.72 123.73
  Q 259.31 125.29 260.05 126.13
  Q 260.39 126.51 260.49 127.01
  C 261.01 129.80 262.07 131.92 261.50 134.81
  Q 261.40 135.29 261.54 135.77
  C 262.12 137.72 261.04 139.77 261.63 141.18
  Q 261.82 141.64 261.70 142.12
  L 258.42 155.40
  Q 258.29 155.90 257.93 156.25
  Q 256.15 157.96 256.14 160.41
  Q 256.14 161.50 255.07 161.66
  Q 254.21 161.79 254.11 162.61
  Q 254.05 163.13 253.71 163.53
  Q 252.33 165.15 250.52 166.22
  Q 250.25 166.38 250.21 166.69
  C 250.00 168.36 242.91 173.86 240.88 175.58
  Q 238.72 177.41 236.08 178.62
  Q 235.60 178.85 235.40 179.34
  Q 235.03 180.23 234.10 180.06
  Q 233.65 179.97 233.27 180.20
  Q 230.08 182.09 226.54 183.00
  Z"
/>
<path fill="#000000" fill-opacity="0.827" d="
  M 202.71 179.00
  L 207.75 174.04
  Q 208.40 174.43 208.93 173.65
  Q 209.27 173.15 209.77 173.51
  Q 210.49 174.03 210.97 173.43
  Q 211.24 173.08 211.56 173.39
  C 212.38 174.19 222.89 173.95 223.96 173.28
  Q 224.37 173.02 224.86 173.00
  C 227.77 172.85 229.92 171.25 232.34 170.13
  Q 233.92 169.41 235.26 168.27
  Q 235.51 167.48 236.13 167.64
  Q 236.59 167.75 236.91 167.41
  C 237.48 166.80 241.71 162.74 241.44 162.32
  Q 241.31 162.12 241.53 162.02
  Q 244.27 160.77 245.49 157.94
  Q 245.64 157.57 246.03 157.52
  C 246.45 157.46 248.68 151.87 249.16 150.94
  C 250.39 148.55 251.67 142.22 251.39 138.27
  Q 251.28 136.74 251.29 135.22
  Q 251.30 132.49 250.97 130.69
  Q 250.54 128.43 250.04 126.20
  C 249.34 123.14 247.63 120.71 246.14 117.97
  Q 242.43 111.15 235.73 107.22
  Q 235.44 107.05 235.12 106.39
  Q 234.92 105.97 234.49 105.80
  Q 230.90 104.39 227.44 102.69
  Q 227.06 102.51 226.64 102.52
  Q 225.87 102.55 225.47 101.75
  Q 225.29 101.38 224.88 101.38
  C 221.30 101.35 217.73 99.99 214.31 100.53
  Q 210.20 101.17 207.10 101.36
  C 205.85 101.44 198.98 103.37 198.20 104.67
  Q 197.94 105.11 197.44 105.26
  Q 194.16 106.29 191.80 108.82
  Q 191.40 109.25 190.81 109.25
  Q 190.64 109.25 190.47 109.25
  Q 190.10 109.25 189.93 109.56
  C 188.55 112.01 186.34 112.87 184.93 114.86
  Q 183.25 117.22 182.04 119.85
  Q 180.31 123.60 179.57 125.03
  C 174.63 134.68 178.26 148.19 183.63 156.85
  Q 183.88 157.26 183.91 157.74
  Q 183.95 158.33 184.51 158.72
  Q 184.83 158.94 184.82 159.33
  Q 184.78 160.29 185.60 160.79
  Q 186.00 161.03 186.28 161.39
  Q 187.29 162.67 188.63 163.70
  Q 189.04 164.02 189.04 164.54
  L 189.04 164.90
  Q 189.05 165.31 189.42 165.46
  Q 193.15 166.96 195.87 169.90
  Q 196.20 170.26 196.67 170.32
  Q 197.79 170.47 198.34 171.72
  Q 198.83 172.84 199.18 171.67
  L 199.52 170.50
  Q 200.00 168.92 200.10 170.57
  Q 200.22 172.40 201.10 173.83
  Q 201.27 176.69 200.21 179.50
  L 199.96 180.00
  Q 199.91 180.42 199.59 180.56
  Q 199.03 180.79 199.22 180.22
  L 199.71 178.74
  Q 199.88 178.23 199.41 177.95
  L 192.82 174.01
  Q 192.48 173.81 192.09 173.74
  Q 191.94 173.72 191.77 173.67
  Q 191.31 173.56 190.96 173.24
  Q 190.21 172.56 189.50 171.83
  C 188.01 170.31 186.20 169.76 184.90 167.83
  C 183.51 165.76 181.50 164.96 180.51 162.59
  Q 180.32 162.14 179.93 161.84
  C 176.29 159.09 174.90 155.21 173.17 150.64
  Q 173.00 150.21 173.27 149.83
  Q 174.13 148.65 173.70 147.00
  Q 173.45 128.66 181.43 112.23
  L 180.11 116.70
  Q 179.90 117.39 180.56 117.11
  Q 181.22 116.82 180.99 116.04
  Q 180.82 115.48 181.32 115.16
  C 183.64 113.65 184.08 110.98 185.71 110.20
  Q 186.10 110.01 186.26 109.62
  Q 186.65 108.66 187.78 108.38
  Q 188.24 108.27 188.57 107.93
  C 190.72 105.69 193.01 104.49 195.51 102.73
  C 196.19 102.25 198.03 102.38 198.23 101.84
  Q 198.40 101.39 198.84 101.20
  Q 210.49 96.15 222.92 98.57
  Q 223.43 98.67 223.80 99.04
  C 224.09 99.34 224.86 99.29 225.28 99.40
  C 229.02 100.40 232.07 102.19 235.62 103.60
  C 237.86 104.50 239.62 107.05 241.65 108.49
  Q 243.96 110.12 245.27 111.66
  C 246.79 113.46 248.40 114.84 249.26 117.16
  Q 250.47 120.43 252.47 123.32
  Q 252.77 123.74 252.75 124.25
  Q 252.72 125.00 252.86 125.80
  Q 252.95 126.24 253.11 126.66
  Q 253.79 128.41 253.86 130.32
  Q 253.88 130.81 254.16 131.22
  Q 254.73 132.05 254.80 133.97
  Q 255.16 143.65 250.77 154.27
  Q 249.24 157.97 247.18 160.31
  Q 244.13 163.77 244.06 163.86
  Q 241.62 166.98 238.61 169.55
  Q 238.22 169.88 237.72 169.78
  Q 236.70 169.58 236.25 169.99
  C 232.91 173.09 229.63 173.87 225.49 175.30
  C 220.04 177.19 213.24 177.14 208.76 176.63
  Q 208.27 176.57 207.87 176.27
  C 206.34 175.11 204.17 178.23 202.71 179.00
  Z"
/>
<path fill="#000000" fill-opacity="0.894" d="
  M 207.75 174.04
  L 216.25 166.79
  Q 215.41 167.60 215.48 168.27
  Q 215.53 168.85 216.11 168.88
  C 221.31 169.20 225.15 166.69 229.61 165.67
  Q 230.05 165.57 230.41 165.29
  C 231.62 164.35 233.19 163.85 234.19 163.01
  Q 235.59 161.83 236.84 160.50
  Q 237.17 160.15 237.62 159.98
  Q 239.56 159.22 240.41 157.28
  Q 240.97 155.99 242.09 155.08
  Q 242.47 154.76 242.39 154.28
  Q 242.22 153.22 242.91 152.76
  Q 243.37 152.45 243.41 151.90
  Q 243.54 149.81 245.09 147.93
  Q 245.40 147.56 245.41 147.08
  C 245.46 144.83 246.57 143.28 246.54 141.17
  Q 246.49 136.92 246.42 132.68
  Q 246.42 132.55 246.31 132.52
  Q 246.20 132.48 246.06 132.48
  Q 245.97 132.49 245.96 132.40
  Q 245.64 127.87 243.00 122.22
  Q 241.75 119.54 239.98 118.33
  Q 239.61 118.08 239.54 117.64
  Q 239.05 114.99 236.52 114.13
  Q 236.02 113.95 235.65 113.56
  Q 233.26 111.03 230.26 109.38
  C 229.90 109.18 229.48 109.44 229.49 108.78
  Q 229.49 108.27 228.98 108.28
  Q 227.44 108.31 226.58 106.82
  Q 226.34 106.40 225.85 106.38
  L 222.15 106.19
  Q 221.72 106.17 221.51 105.80
  C 220.97 104.88 212.15 105.25 210.66 105.26
  Q 208.40 105.27 206.14 106.28
  Q 203.22 107.58 200.17 108.64
  Q 199.67 108.81 199.42 109.29
  Q 198.68 110.71 197.08 110.50
  Q 196.59 110.44 196.21 110.76
  C 193.60 112.96 191.57 115.76 188.95 117.89
  Q 187.57 119.01 186.94 120.16
  Q 185.01 123.70 183.65 127.48
  C 183.17 128.81 183.48 130.31 183.00 131.75
  Q 181.72 135.62 181.73 139.70
  Q 181.73 139.75 181.79 139.75
  L 182.19 139.75
  Q 182.43 139.75 182.38 139.99
  Q 181.87 142.43 183.28 144.45
  Q 183.55 144.82 183.39 145.25
  C 182.72 147.02 184.29 148.33 184.47 149.98
  Q 184.53 150.45 184.88 150.76
  C 186.38 152.06 186.59 154.34 188.49 156.04
  Q 188.54 156.09 188.50 156.13
  Q 188.38 156.25 188.24 156.37
  Q 187.92 156.68 188.36 156.71
  L 189.04 156.76
  Q 189.50 156.80 189.84 157.11
  L 192.01 159.06
  Q 192.25 159.28 191.92 159.26
  Q 191.80 159.25 191.67 159.26
  Q 191.28 159.28 191.29 159.67
  Q 191.34 161.09 192.86 161.01
  Q 193.18 160.99 192.89 161.11
  Q 192.77 161.16 192.63 161.20
  Q 192.25 161.33 192.62 161.49
  Q 193.72 161.99 194.52 161.03
  Q 195.02 160.43 195.37 161.13
  L 197.23 164.81
  Q 197.54 165.42 197.93 164.86
  Q 198.84 163.54 198.79 162.00
  Q 201.33 167.57 201.10 173.83
  Q 200.22 172.40 200.10 170.57
  Q 200.00 168.92 199.52 170.50
  L 199.18 171.67
  Q 198.83 172.84 198.34 171.72
  Q 197.79 170.47 196.67 170.32
  Q 196.20 170.26 195.87 169.90
  Q 193.15 166.96 189.42 165.46
  Q 189.05 165.31 189.04 164.90
  L 189.04 164.54
  Q 189.04 164.02 188.63 163.70
  Q 187.29 162.67 186.28 161.39
  Q 186.00 161.03 185.60 160.79
  Q 184.78 160.29 184.82 159.33
  Q 184.83 158.94 184.51 158.72
  Q 183.95 158.33 183.91 157.74
  Q 183.88 157.26 183.63 156.85
  C 178.26 148.19 174.63 134.68 179.57 125.03
  Q 180.31 123.60 182.04 119.85
  Q 183.25 117.22 184.93 114.86
  C 186.34 112.87 188.55 112.01 189.93 109.56
  Q 190.10 109.25 190.47 109.25
  Q 190.64 109.25 190.81 109.25
  Q 191.40 109.25 191.80 108.82
  Q 194.16 106.29 197.44 105.26
  Q 197.94 105.11 198.20 104.67
  C 198.98 103.37 205.85 101.44 207.10 101.36
  Q 210.20 101.17 214.31 100.53
  C 217.73 99.99 221.30 101.35 224.88 101.38
  Q 225.29 101.38 225.47 101.75
  Q 225.87 102.55 226.64 102.52
  Q 227.06 102.51 227.44 102.69
  Q 230.90 104.39 234.49 105.80
  Q 234.92 105.97 235.12 106.39
  Q 235.44 107.05 235.73 107.22
  Q 242.43 111.15 246.14 117.97
  C 247.63 120.71 249.34 123.14 250.04 126.20
  Q 250.54 128.43 250.97 130.69
  Q 251.30 132.49 251.29 135.22
  Q 251.28 136.74 251.39 138.27
  C 251.67 142.22 250.39 148.55 249.16 150.94
  C 248.68 151.87 246.45 157.46 246.03 157.52
  Q 245.64 157.57 245.49 157.94
  Q 244.27 160.77 241.53 162.02
  Q 241.31 162.12 241.44 162.32
  C 241.71 162.74 237.48 166.80 236.91 167.41
  Q 236.59 167.75 236.13 167.64
  Q 235.51 167.48 235.26 168.27
  Q 233.92 169.41 232.34 170.13
  C 229.92 171.25 227.77 172.85 224.86 173.00
  Q 224.37 173.02 223.96 173.28
  C 222.89 173.95 212.38 174.19 211.56 173.39
  Q 211.24 173.08 210.97 173.43
  Q 210.49 174.03 209.77 173.51
  Q 209.27 173.15 208.93 173.65
  Q 208.40 174.43 207.75 174.04
  Z"
/>
<path fill="#000000" fill-opacity="0.957" d="
  M 216.25 166.79
  C 225.08 159.34 238.51 148.89 241.01 136.99
  Q 243.92 123.16 229.96 115.75
  C 231.23 113.67 229.66 112.59 228.51 111.30
  C 227.43 110.10 225.64 109.97 224.31 108.81
  Q 223.93 108.49 223.44 108.42
  C 220.62 108.06 217.68 108.36 214.95 108.21
  C 208.39 107.85 202.76 109.97 197.42 113.72
  Q 195.27 115.23 193.03 117.79
  Q 191.11 119.97 189.20 122.15
  Q 188.88 122.52 188.83 122.99
  C 188.62 124.88 187.33 126.31 187.01 127.91
  C 186.67 129.60 186.75 130.48 185.85 132.14
  C 183.60 136.28 186.02 143.87 187.79 147.62
  Q 188.01 148.08 188.03 148.58
  Q 188.08 149.88 188.91 150.68
  Q 189.21 150.97 189.45 151.31
  L 192.69 155.86
  Q 193.86 157.51 194.93 155.78
  Q 195.44 154.95 196.50 155.46
  L 198.79 162.00
  Q 198.84 163.54 197.93 164.86
  Q 197.54 165.42 197.23 164.81
  L 195.37 161.13
  Q 195.02 160.43 194.52 161.03
  Q 193.72 161.99 192.62 161.49
  Q 192.25 161.33 192.63 161.20
  Q 192.77 161.16 192.89 161.11
  Q 193.18 160.99 192.86 161.01
  Q 191.34 161.09 191.29 159.67
  Q 191.28 159.28 191.67 159.26
  Q 191.80 159.25 191.92 159.26
  Q 192.25 159.28 192.01 159.06
  L 189.84 157.11
  Q 189.50 156.80 189.04 156.76
  L 188.36 156.71
  Q 187.92 156.68 188.24 156.37
  Q 188.38 156.25 188.50 156.13
  Q 188.54 156.09 188.49 156.04
  C 186.59 154.34 186.38 152.06 184.88 150.76
  Q 184.53 150.45 184.47 149.98
  C 184.29 148.33 182.72 147.02 183.39 145.25
  Q 183.55 144.82 183.28 144.45
  Q 181.87 142.43 182.38 139.99
  Q 182.43 139.75 182.19 139.75
  L 181.79 139.75
  Q 181.73 139.75 181.73 139.70
  Q 181.72 135.62 183.00 131.75
  C 183.48 130.31 183.17 128.81 183.65 127.48
  Q 185.01 123.70 186.94 120.16
  Q 187.57 119.01 188.95 117.89
  C 191.57 115.76 193.60 112.96 196.21 110.76
  Q 196.59 110.44 197.08 110.50
  Q 198.68 110.71 199.42 109.29
  Q 199.67 108.81 200.17 108.64
  Q 203.22 107.58 206.14 106.28
  Q 208.40 105.27 210.66 105.26
  C 212.15 105.25 220.97 104.88 221.51 105.80
  Q 221.72 106.17 222.15 106.19
  L 225.85 106.38
  Q 226.34 106.40 226.58 106.82
  Q 227.44 108.31 228.98 108.28
  Q 229.49 108.27 229.49 108.78
  C 229.48 109.44 229.90 109.18 230.26 109.38
  Q 233.26 111.03 235.65 113.56
  Q 236.02 113.95 236.52 114.13
  Q 239.05 114.99 239.54 117.64
  Q 239.61 118.08 239.98 118.33
  Q 241.75 119.54 243.00 122.22
  Q 245.64 127.87 245.96 132.40
  Q 245.97 132.49 246.06 132.48
  Q 246.20 132.48 246.31 132.52
  Q 246.42 132.55 246.42 132.68
  Q 246.49 136.92 246.54 141.17
  C 246.57 143.28 245.46 144.83 245.41 147.08
  Q 245.40 147.56 245.09 147.93
  Q 243.54 149.81 243.41 151.90
  Q 243.37 152.45 242.91 152.76
  Q 242.22 153.22 242.39 154.28
  Q 242.47 154.76 242.09 155.08
  Q 240.97 155.99 240.41 157.28
  Q 239.56 159.22 237.62 159.98
  Q 237.17 160.15 236.84 160.50
  Q 235.59 161.83 234.19 163.01
  C 233.19 163.85 231.62 164.35 230.41 165.29
  Q 230.05 165.57 229.61 165.67
  C 225.15 166.69 221.31 169.20 216.11 168.88
  Q 215.53 168.85 215.48 168.27
  Q 215.41 167.60 216.25 166.79
  Z"
/>
<path fill="#000000" d="
  M 229.96 115.75
  C 212.59 109.83 201.58 126.43 196.68 140.37
  C 194.78 145.78 195.05 150.14 196.50 155.46
  Q 195.44 154.95 194.93 155.78
  Q 193.86 157.51 192.69 155.86
  L 189.45 151.31
  Q 189.21 150.97 188.91 150.68
  Q 188.08 149.88 188.03 148.58
  Q 188.01 148.08 187.79 147.62
  C 186.02 143.87 183.60 136.28 185.85 132.14
  C 186.75 130.48 186.67 129.60 187.01 127.91
  C 187.33 126.31 188.62 124.88 188.83 122.99
  Q 188.88 122.52 189.20 122.15
  Q 191.11 119.97 193.03 117.79
  Q 195.27 115.23 197.42 113.72
  C 202.76 109.97 208.39 107.85 214.95 108.21
  C 217.68 108.36 220.62 108.06 223.44 108.42
  Q 223.93 108.49 224.31 108.81
  C 225.64 109.97 227.43 110.10 228.51 111.30
  C 229.66 112.59 231.23 113.67 229.96 115.75
  Z"
/>
<path fill="#000000" d="
  M 124.00 140.71
  C 113.63 142.11 103.58 152.36 98.43 160.62
  C 95.46 165.38 92.46 166.40 87.93 162.96
  Q 71.14 150.21 77.49 128.51
  C 78.53 124.93 79.84 123.55 83.34 121.75
  Q 92.63 116.99 100.21 109.75
  Q 101.27 109.16 102.37 109.19
  Q 102.78 109.20 103.05 108.88
  Q 103.87 107.91 105.21 108.27
  Q 105.69 108.40 105.82 108.89
  Q 106.18 110.28 107.65 110.37
  Q 108.15 110.41 108.40 110.84
  Q 108.78 111.52 110.05 111.29
  Q 111.39 111.04 110.22 111.77
  Q 110.12 111.83 109.97 111.82
  Q 109.80 111.80 109.88 111.96
  Q 110.36 112.95 111.23 113.30
  Q 111.60 113.45 111.75 113.82
  Q 112.19 114.96 113.32 115.26
  Q 113.65 115.34 113.73 115.67
  Q 114.08 116.95 115.35 117.36
  Q 115.77 117.49 115.86 117.91
  C 116.37 120.20 118.48 121.71 118.07 124.02
  Q 117.93 124.84 118.56 124.30
  L 119.16 123.78
  Q 120.00 123.05 120.00 124.16
  L 120.00 124.71
  Q 120.00 125.10 120.31 125.34
  Q 121.46 126.22 121.64 127.55
  Q 121.70 128.03 122.01 128.40
  Q 123.57 130.26 123.95 132.59
  Q 124.05 133.21 124.32 133.77
  L 125.49 136.23
  Q 125.74 136.76 125.25 137.08
  Q 123.42 138.29 124.00 140.71
  Z"
/>
<path fill="#000000" d="
  M 63.54 111.75
  C 60.80 115.53 55.90 124.33 52.21 117.75
  Q 51.95 115.54 54.27 115.20
  Q 54.70 115.14 54.51 114.75
  L 54.33 114.40
  Q 54.07 113.86 54.63 113.64
  Q 57.43 112.59 58.93 109.93
  Q 59.23 109.40 59.82 109.30
  Q 61.28 109.05 61.80 110.52
  Q 61.98 111.05 62.53 110.98
  Q 63.34 110.89 63.54 111.75
  Z"
/>
<path fill="#000000" fill-opacity="0.827" d="
  M 142.50 118.96
  L 136.93 119.27
  Q 136.14 119.32 136.40 120.07
  L 137.26 122.53
  Q 137.32 122.72 137.22 122.90
  Q 137.12 123.05 137.25 123.24
  Q 137.96 124.28 137.70 125.56
  Q 137.63 125.91 137.98 125.96
  L 138.94 126.09
  Q 139.56 126.17 139.45 126.79
  Q 139.00 129.27 140.56 131.15
  C 140.78 131.42 140.87 131.54 140.53 131.75
  Q 140.24 131.93 140.34 132.26
  Q 140.57 133.07 141.27 133.52
  Q 141.41 133.61 141.25 133.67
  Q 141.16 133.70 140.97 133.76
  Q 140.53 133.90 140.95 134.10
  L 141.43 134.33
  Q 141.59 134.40 141.53 134.56
  Q 140.88 136.41 142.37 137.59
  Q 142.48 137.68 142.35 137.72
  Q 142.22 137.77 142.07 137.77
  Q 141.98 137.77 142.00 137.85
  Q 142.94 141.15 143.30 144.54
  Q 143.36 145.10 143.01 145.54
  Q 142.65 145.99 142.96 146.42
  Q 143.26 146.84 143.26 147.35
  Q 143.25 148.48 143.48 149.58
  Q 143.50 149.69 143.39 149.71
  L 142.94 149.77
  Q 142.21 149.87 142.85 150.25
  L 143.40 150.58
  Q 143.43 150.60 143.41 150.62
  Q 143.30 150.72 143.15 150.78
  Q 142.86 150.87 142.99 151.15
  C 143.54 152.32 143.05 153.56 143.15 154.65
  Q 143.41 157.64 143.22 160.66
  Q 143.21 160.74 143.11 160.74
  Q 143.05 160.74 143.01 160.75
  Q 142.93 160.77 142.91 161.01
  L 142.64 165.83
  Q 142.61 166.18 142.68 166.54
  Q 142.89 167.60 141.86 168.10
  Q 141.77 168.14 141.84 168.21
  L 142.07 168.44
  Q 142.29 168.67 141.99 168.76
  Q 141.87 168.79 141.75 168.84
  Q 141.51 168.92 141.71 169.07
  L 142.44 169.65
  Q 142.70 169.85 142.39 169.95
  L 142.10 170.05
  Q 141.97 170.09 142.07 170.19
  Q 142.27 170.40 142.50 170.62
  Q 142.53 170.65 142.49 170.67
  Q 142.37 170.71 142.25 170.74
  Q 141.17 171.02 142.25 171.26
  Q 142.37 171.29 142.50 171.33
  Q 142.60 171.37 142.51 171.44
  Q 141.22 172.49 141.84 174.21
  Q 142.04 174.75 141.46 174.75
  L 141.00 174.75
  Q 140.45 174.75 140.65 175.26
  Q 141.11 176.44 140.30 177.48
  Q 140.01 177.86 140.00 178.33
  Q 139.95 180.86 138.55 183.01
  Q 136.64 185.95 135.73 189.28
  Q 135.03 191.89 134.45 193.12
  Q 133.57 194.99 132.66 196.86
  Q 132.44 197.30 132.53 197.78
  Q 132.66 198.54 132.15 198.83
  Q 131.69 199.08 131.69 199.61
  Q 131.68 200.92 130.46 200.87
  Q 128.95 200.80 130.50 201.25
  Q 130.59 201.28 130.69 201.31
  Q 143.40 204.87 130.30 201.76
  C 128.73 201.38 130.72 203.54 128.15 202.64
  Q 127.50 202.42 128.02 202.86
  L 128.54 203.31
  Q 129.06 203.75 128.38 203.73
  Q 127.43 203.69 127.81 204.63
  Q 128.02 205.15 127.48 205.00
  L 126.83 204.83
  Q 126.68 204.79 126.73 204.94
  Q 126.77 205.06 126.83 205.19
  Q 126.88 205.30 126.56 205.81
  Q 126.42 206.04 126.10 205.99
  Q 125.99 205.97 126.04 206.07
  L 126.17 206.31
  Q 126.39 206.72 125.92 206.70
  Q 125.04 206.66 124.72 207.20
  Q 124.65 207.32 124.56 207.43
  Q 122.84 209.42 121.07 211.34
  Q 120.74 211.71 120.31 211.94
  C 119.26 212.51 118.57 213.95 117.41 214.57
  Q 117.02 214.78 116.80 215.15
  Q 115.26 217.80 112.23 218.00
  Q 111.72 218.03 112.15 218.12
  Q 112.43 218.18 112.52 218.28
  Q 112.77 218.56 112.41 218.65
  L 111.07 219.00
  Q 110.74 219.08 111.07 219.19
  Q 111.20 219.23 111.34 219.24
  Q 111.56 219.26 111.40 219.40
  Q 109.98 220.65 108.28 221.00
  Q 107.98 221.07 108.29 221.13
  Q 108.48 221.17 108.59 221.42
  Q 108.85 222.02 108.23 221.83
  Q 106.61 221.33 106.23 222.43
  Q 106.10 222.80 105.71 222.81
  Q 105.02 222.85 104.35 222.90
  Q 102.36 223.05 104.20 223.10
  Q 104.60 223.11 104.74 223.28
  Q 105.31 223.93 104.25 223.73
  Q 102.21 223.34 101.34 225.13
  Q 101.16 225.51 100.75 225.55
  L 97.15 225.94
  Q 96.65 226.00 97.12 226.16
  L 97.45 226.26
  Q 97.53 226.29 97.45 226.34
  Q 96.97 226.64 96.47 226.77
  Q 95.95 226.90 95.42 226.78
  Q 92.73 226.15 90.47 227.59
  Q 90.07 227.84 89.60 227.80
  Q 87.83 227.63 86.56 228.47
  Q 82.81 230.93 86.30 228.31
  Q 86.37 228.25 86.45 228.18
  Q 87.06 227.58 85.99 227.99
  Q 85.78 228.07 85.82 228.22
  Q 85.96 228.67 85.49 228.69
  C 82.98 228.80 75.92 228.15 74.09 229.31
  Q 71.90 230.70 69.74 229.15
  Q 69.35 228.87 68.88 228.84
  L 64.49 228.57
  Q 64.11 228.55 64.37 228.27
  Q 64.59 228.02 64.27 228.00
  Q 63.14 227.93 64.04 227.51
  L 64.74 227.19
  Q 64.98 227.08 64.72 227.04
  L 61.44 226.56
  Q 61.16 226.52 61.41 226.38
  L 61.71 226.23
  Q 61.82 226.17 61.71 226.12
  Q 60.54 225.47 59.25 225.81
  Q 58.86 225.92 58.90 225.51
  C 58.97 224.75 58.74 224.90 58.14 224.80
  Q 54.05 224.09 51.85 220.72
  Q 51.70 220.50 51.44 220.50
  L 51.02 220.50
  Q 50.34 220.50 50.77 221.03
  Q 51.66 222.11 51.21 223.25
  Q 44.62 211.76 42.04 198.75
  Q 42.88 198.64 42.78 197.82
  Q 42.70 197.12 43.28 197.52
  Q 44.32 198.24 44.04 199.64
  Q 43.92 200.26 44.44 200.62
  L 46.68 202.20
  Q 46.77 202.25 46.67 202.24
  Q 46.40 202.22 46.15 202.42
  Q 45.65 202.82 46.29 202.79
  Q 48.12 202.69 48.42 204.29
  Q 48.49 204.62 48.79 204.77
  L 49.41 205.07
  Q 49.47 205.10 49.44 205.16
  L 49.27 205.44
  Q 49.07 205.78 49.46 205.71
  C 50.38 205.56 51.36 205.91 51.26 206.97
  Q 51.25 207.06 51.68 207.65
  Q 52.56 208.88 54.12 208.96
  Q 54.41 208.98 54.33 209.26
  Q 54.29 209.39 54.24 209.53
  Q 54.14 209.79 54.42 209.80
  L 57.76 209.91
  Q 58.27 209.93 57.80 210.14
  Q 57.62 210.22 57.50 210.26
  Q 57.19 210.37 57.45 210.58
  C 60.22 212.81 63.59 213.97 66.69 215.64
  Q 67.13 215.88 67.63 215.81
  Q 69.89 215.53 72.15 215.96
  Q 72.60 216.04 72.92 216.36
  C 73.75 217.19 74.34 217.79 75.64 217.76
  C 80.08 217.68 86.31 218.52 88.80 217.19
  Q 89.23 216.97 89.71 217.00
  C 91.05 217.11 95.66 216.91 96.53 215.22
  Q 96.74 214.83 97.18 214.88
  Q 98.33 215.00 98.61 214.41
  Q 98.82 213.98 99.30 213.94
  Q 102.36 213.66 104.49 211.50
  Q 104.82 211.16 105.28 211.04
  Q 106.83 210.63 107.93 209.29
  Q 108.15 209.02 108.47 208.90
  L 109.02 208.69
  Q 109.42 208.55 109.52 208.14
  L 109.60 207.84
  Q 109.69 207.47 109.97 207.22
  L 112.27 205.07
  Q 112.59 204.77 113.02 204.88
  Q 113.17 204.92 113.32 204.99
  Q 113.56 205.12 113.52 204.85
  L 113.46 204.39
  Q 113.39 203.85 113.93 203.77
  L 114.44 203.70
  Q 114.56 203.68 114.52 203.57
  Q 114.46 203.39 114.39 203.21
  Q 114.31 203.00 114.53 203.00
  L 114.94 203.00
  Q 115.23 203.00 115.44 202.79
  L 121.02 197.09
  Q 121.28 196.82 121.32 196.45
  Q 121.45 195.24 122.68 194.76
  Q 122.94 194.65 122.74 194.45
  L 122.53 194.24
  Q 122.34 194.04 122.61 194.02
  L 123.65 193.94
  Q 124.43 193.88 123.69 193.64
  Q 123.49 193.57 123.31 193.52
  Q 123.16 193.48 123.22 193.33
  Q 123.59 192.41 124.26 191.80
  Q 124.55 191.52 124.52 191.12
  L 124.47 190.47
  Q 124.42 189.87 125.03 189.87
  L 125.51 189.88
  Q 125.87 189.88 125.76 189.54
  Q 125.71 189.36 125.63 189.23
  Q 125.51 189.00 125.77 189.00
  L 126.06 189.00
  Q 126.34 189.00 126.39 188.73
  L 126.94 185.96
  Q 127.00 185.62 126.76 185.87
  L 126.48 186.15
  Q 125.69 186.94 126.17 185.93
  Q 126.48 185.28 127.01 184.77
  Q 127.38 184.40 126.86 184.36
  Q 126.53 184.34 126.29 184.50
  C 134.81 172.14 139.93 159.39 132.75 144.79
  L 133.09 144.75
  Q 133.34 144.73 133.31 144.48
  L 133.26 144.12
  Q 133.19 143.62 133.69 143.69
  L 134.16 143.75
  Q 134.63 143.81 134.47 143.36
  L 132.79 138.58
  Q 132.66 138.21 132.64 137.82
  Q 132.61 136.90 131.95 136.23
  Q 131.64 135.92 132.05 135.74
  Q 132.15 135.69 132.30 135.64
  Q 132.43 135.59 132.31 135.53
  L 131.64 135.21
  Q 131.42 135.10 131.54 134.89
  L 131.73 134.54
  Q 131.81 134.37 131.63 134.38
  Q 130.36 134.41 130.80 132.93
  Q 131.00 132.23 130.68 131.57
  L 128.13 126.40
  Q 127.94 126.01 128.38 126.01
  Q 128.59 126.01 128.78 125.88
  Q 129.45 125.42 128.63 125.40
  Q 127.73 125.38 127.48 124.28
  Q 127.38 123.82 127.01 123.54
  Q 126.22 122.94 126.42 121.96
  Q 126.46 121.76 126.26 121.79
  L 124.92 121.98
  Q 124.05 122.10 124.58 121.40
  Q 124.93 120.93 124.71 120.50
  Q 133.35 116.92 142.50 118.96
  Z"
/>
<path fill="#000000" fill-opacity="0.761" d="
  M 142.50 118.96
  Q 144.73 119.17 146.50 120.46
  L 142.01 119.67
  Q 141.26 119.54 141.82 120.06
  C 143.51 121.62 143.66 123.17 144.87 125.22
  Q 145.07 125.55 144.80 125.83
  C 143.71 126.96 146.21 127.12 145.00 128.68
  Q 144.80 128.94 145.09 129.09
  C 145.65 129.37 145.21 130.82 146.55 131.50
  Q 146.71 131.58 146.54 131.65
  Q 146.40 131.71 146.25 131.73
  Q 146.24 131.73 146.29 132.17
  Q 146.45 133.68 146.93 135.13
  Q 146.96 135.21 147.03 135.25
  L 147.31 135.42
  Q 147.53 135.55 147.32 135.69
  Q 147.21 135.77 147.07 135.79
  Q 147.00 135.81 147.03 135.87
  Q 147.91 137.94 146.97 139.94
  Q 146.85 140.20 147.12 140.28
  Q 147.28 140.33 147.36 140.53
  Q 147.41 140.64 147.31 140.70
  Q 147.21 140.77 147.07 140.79
  Q 146.99 140.81 147.02 140.88
  Q 147.55 142.36 148.00 143.96
  Q 148.14 144.47 147.89 144.94
  Q 147.07 146.45 148.13 147.57
  Q 148.16 147.60 148.13 147.62
  Q 147.98 147.73 147.84 147.87
  Q 147.57 148.16 147.96 148.25
  Q 148.10 148.28 148.24 148.33
  Q 148.73 148.50 148.24 148.67
  L 147.93 148.77
  Q 147.43 148.94 147.91 149.16
  L 148.54 149.44
  Q 148.81 149.56 148.54 149.66
  Q 148.35 149.72 148.15 149.76
  Q 147.51 149.86 148.03 150.24
  L 148.39 150.50
  Q 148.72 150.75 148.31 150.75
  Q 148.16 150.76 148.00 150.73
  Q 130.00 147.54 148.06 151.22
  Q 148.47 151.30 148.24 151.68
  Q 149.35 156.86 147.92 161.98
  Q 147.78 162.49 147.97 162.97
  Q 148.22 163.59 148.11 164.22
  C 147.74 166.19 146.79 170.78 147.25 172.43
  Q 147.43 173.07 147.04 173.63
  L 146.43 174.49
  Q 146.15 174.88 146.32 175.32
  Q 146.84 176.71 145.71 177.10
  Q 145.63 177.13 145.70 177.16
  Q 145.84 177.21 145.98 177.23
  Q 146.02 177.23 146.00 177.27
  L 144.18 182.56
  Q 144.13 182.69 144.01 182.74
  Q 143.88 182.79 143.74 182.84
  Q 143.29 182.98 143.73 183.16
  Q 143.86 183.21 144.00 183.24
  Q 144.61 183.34 143.95 183.70
  Q 143.81 183.78 143.69 183.85
  Q 143.48 183.97 143.58 184.19
  Q 144.31 185.76 143.20 186.96
  Q 143.10 187.06 143.20 187.16
  L 143.62 187.58
  Q 143.80 187.76 143.55 187.75
  Q 143.25 187.75 142.97 187.75
  Q 142.68 187.76 142.62 188.04
  Q 142.30 189.41 142.50 190.79
  Q 142.57 191.27 142.32 191.68
  Q 141.01 193.81 139.29 195.34
  Q 138.38 196.16 138.60 197.36
  C 139.08 199.98 137.06 200.72 136.10 202.19
  Q 134.74 204.28 133.58 206.50
  Q 133.47 206.71 133.24 206.74
  L 132.79 206.80
  Q 132.03 206.91 132.75 207.17
  Q 132.88 207.21 133.02 207.25
  Q 133.21 207.30 133.06 207.43
  C 131.86 208.50 131.81 210.48 130.62 210.80
  Q 130.17 210.93 129.85 211.27
  Q 128.09 213.20 126.43 215.20
  Q 126.41 215.23 126.42 215.25
  Q 126.46 215.38 126.50 215.50
  Q 126.62 215.85 126.25 215.85
  L 125.50 215.85
  Q 124.43 215.85 124.32 216.92
  Q 124.28 217.31 124.44 217.31
  Q 125.17 217.33 124.21 217.68
  Q 123.10 218.08 122.79 219.30
  Q 122.65 219.84 122.10 219.73
  Q 121.62 219.63 121.41 220.16
  Q 121.27 220.49 120.91 220.47
  C 119.52 220.39 119.29 221.57 118.51 222.24
  Q 116.46 224.01 113.98 225.13
  Q 113.68 225.26 114.01 225.25
  Q 114.29 225.25 114.62 225.20
  Q 115.10 225.13 114.64 225.27
  Q 112.75 225.84 111.38 227.15
  Q 111.01 227.51 110.51 227.66
  Q 109.09 228.11 107.96 229.19
  Q 107.90 229.25 107.98 229.25
  Q 108.17 229.25 108.39 229.23
  Q 108.76 229.19 108.42 229.33
  L 104.39 231.03
  Q 104.15 231.13 104.39 231.21
  L 104.72 231.32
  Q 105.95 231.73 104.65 231.74
  L 101.25 231.76
  Q 100.73 231.76 100.76 232.28
  C 100.81 232.86 97.14 232.83 96.77 232.89
  Q 96.40 232.95 96.73 233.14
  Q 96.88 233.23 97.04 233.30
  Q 97.49 233.51 97.00 233.55
  L 92.30 233.92
  Q 92.01 233.94 91.90 234.21
  Q 91.84 234.36 91.77 234.54
  Q 91.65 234.86 91.30 234.86
  C 84.43 234.82 76.16 235.64 69.51 234.47
  Q 69.26 234.42 69.51 234.37
  Q 69.74 234.31 69.85 234.18
  Q 70.08 233.89 69.71 233.88
  Q 65.69 233.79 61.68 233.53
  Q 61.59 233.53 61.67 233.50
  Q 62.54 233.15 63.57 233.24
  Q 65.09 233.38 63.61 232.99
  Q 62.51 232.70 61.36 232.75
  Q 61.17 232.76 61.23 232.57
  Q 61.27 232.43 61.33 232.29
  Q 61.39 232.13 61.22 232.09
  L 58.64 231.56
  Q 58.17 231.47 58.06 231.93
  Q 57.95 232.36 58.32 232.69
  Q 60.79 234.91 61.79 237.54
  Q 55.36 231.21 51.21 223.25
  Q 51.66 222.11 50.77 221.03
  Q 50.34 220.50 51.02 220.50
  L 51.44 220.50
  Q 51.70 220.50 51.85 220.72
  Q 54.05 224.09 58.14 224.80
  C 58.74 224.90 58.97 224.75 58.90 225.51
  Q 58.86 225.92 59.25 225.81
  Q 60.54 225.47 61.71 226.12
  Q 61.82 226.17 61.71 226.23
  L 61.41 226.38
  Q 61.16 226.52 61.44 226.56
  L 64.72 227.04
  Q 64.98 227.08 64.74 227.19
  L 64.04 227.51
  Q 63.14 227.93 64.27 228.00
  Q 64.59 228.02 64.37 228.27
  Q 64.11 228.55 64.49 228.57
  L 68.88 228.84
  Q 69.35 228.87 69.74 229.15
  Q 71.90 230.70 74.09 229.31
  C 75.92 228.15 82.98 228.80 85.49 228.69
  Q 85.96 228.67 85.82 228.22
  Q 85.78 228.07 85.99 227.99
  Q 87.06 227.58 86.45 228.18
  Q 86.37 228.25 86.30 228.31
  Q 82.81 230.93 86.56 228.47
  Q 87.83 227.63 89.60 227.80
  Q 90.07 227.84 90.47 227.59
  Q 92.73 226.15 95.42 226.78
  Q 95.95 226.90 96.47 226.77
  Q 96.97 226.64 97.45 226.34
  Q 97.53 226.29 97.45 226.26
  L 97.12 226.16
  Q 96.65 226.00 97.15 225.94
  L 100.75 225.55
  Q 101.16 225.51 101.34 225.13
  Q 102.21 223.34 104.25 223.73
  Q 105.31 223.93 104.74 223.28
  Q 104.60 223.11 104.20 223.10
  Q 102.36 223.05 104.35 222.90
  Q 105.02 222.85 105.71 222.81
  Q 106.10 222.80 106.23 222.43
  Q 106.61 221.33 108.23 221.83
  Q 108.85 222.02 108.59 221.42
  Q 108.48 221.17 108.29 221.13
  Q 107.98 221.07 108.28 221.00
  Q 109.98 220.65 111.40 219.40
  Q 111.56 219.26 111.34 219.24
  Q 111.20 219.23 111.07 219.19
  Q 110.74 219.08 111.07 219.00
  L 112.41 218.65
  Q 112.77 218.56 112.52 218.28
  Q 112.43 218.18 112.15 218.12
  Q 111.72 218.03 112.23 218.00
  Q 115.26 217.80 116.80 215.15
  Q 117.02 214.78 117.41 214.57
  C 118.57 213.95 119.26 212.51 120.31 211.94
  Q 120.74 211.71 121.07 211.34
  Q 122.84 209.42 124.56 207.43
  Q 124.65 207.32 124.72 207.20
  Q 125.04 206.66 125.92 206.70
  Q 126.39 206.72 126.17 206.31
  L 126.04 206.07
  Q 125.99 205.97 126.10 205.99
  Q 126.42 206.04 126.56 205.81
  Q 126.88 205.30 126.83 205.19
  Q 126.77 205.06 126.73 204.94
  Q 126.68 204.79 126.83 204.83
  L 127.48 205.00
  Q 128.02 205.15 127.81 204.63
  Q 127.43 203.69 128.38 203.73
  Q 129.06 203.75 128.54 203.31
  L 128.02 202.86
  Q 127.50 202.42 128.15 202.64
  C 130.72 203.54 128.73 201.38 130.30 201.76
  Q 143.40 204.87 130.69 201.31
  Q 130.59 201.28 130.50 201.25
  Q 128.95 200.80 130.46 200.87
  Q 131.68 200.92 131.69 199.61
  Q 131.69 199.08 132.15 198.83
  Q 132.66 198.54 132.53 197.78
  Q 132.44 197.30 132.66 196.86
  Q 133.57 194.99 134.45 193.12
  Q 135.03 191.89 135.73 189.28
  Q 136.64 185.95 138.55 183.01
  Q 139.95 180.86 140.00 178.33
  Q 140.01 177.86 140.30 177.48
  Q 141.11 176.44 140.65 175.26
  Q 140.45 174.75 141.00 174.75
  L 141.46 174.75
  Q 142.04 174.75 141.84 174.21
  Q 141.22 172.49 142.51 171.44
  Q 142.60 171.37 142.50 171.33
  Q 142.37 171.29 142.25 171.26
  Q 141.17 171.02 142.25 170.74
  Q 142.37 170.71 142.49 170.67
  Q 142.53 170.65 142.50 170.62
  Q 142.27 170.40 142.07 170.19
  Q 141.97 170.09 142.10 170.05
  L 142.39 169.95
  Q 142.70 169.85 142.44 169.65
  L 141.71 169.07
  Q 141.51 168.92 141.75 168.84
  Q 141.87 168.79 141.99 168.76
  Q 142.29 168.67 142.07 168.44
  L 141.84 168.21
  Q 141.77 168.14 141.86 168.10
  Q 142.89 167.60 142.68 166.54
  Q 142.61 166.18 142.64 165.83
  L 142.91 161.01
  Q 142.93 160.77 143.01 160.75
  Q 143.05 160.74 143.11 160.74
  Q 143.21 160.74 143.22 160.66
  Q 143.41 157.64 143.15 154.65
  C 143.05 153.56 143.54 152.32 142.99 151.15
  Q 142.86 150.87 143.15 150.78
  Q 143.30 150.72 143.41 150.62
  Q 143.43 150.60 143.40 150.58
  L 142.85 150.25
  Q 142.21 149.87 142.94 149.77
  L 143.39 149.71
  Q 143.50 149.69 143.48 149.58
  Q 143.25 148.48 143.26 147.35
  Q 143.26 146.84 142.96 146.42
  Q 142.65 145.99 143.01 145.54
  Q 143.36 145.10 143.30 144.54
  Q 142.94 141.15 142.00 137.85
  Q 141.98 137.77 142.07 137.77
  Q 142.22 137.77 142.35 137.72
  Q 142.48 137.68 142.37 137.59
  Q 140.88 136.41 141.53 134.56
  Q 141.59 134.40 141.43 134.33
  L 140.95 134.10
  Q 140.53 133.90 140.97 133.76
  Q 141.16 133.70 141.25 133.67
  Q 141.41 133.61 141.27 133.52
  Q 140.57 133.07 140.34 132.26
  Q 140.24 131.93 140.53 131.75
  C 140.87 131.54 140.78 131.42 140.56 131.15
  Q 139.00 129.27 139.45 126.79
  Q 139.56 126.17 138.94 126.09
  L 137.98 125.96
  Q 137.63 125.91 137.70 125.56
  Q 137.96 124.28 137.25 123.24
  Q 137.12 123.05 137.22 122.90
  Q 137.32 122.72 137.26 122.53
  L 136.40 120.07
  Q 136.14 119.32 136.93 119.27
  L 142.50 118.96
  Z"
/>
<path fill="#000000" fill-opacity="0.710" d="
  M 14.50 128.79
  Q 14.05 129.01 13.60 128.55
  Q 11.56 126.46 13.37 128.56
  C 14.39 129.75 17.95 132.24 18.21 132.92
  Q 18.40 133.44 17.86 133.36
  L 16.87 133.23
  Q 16.34 133.16 16.28 133.70
  L 15.96 136.92
  Q 15.86 137.86 15.37 137.06
  Q 13.29 133.71 10.25 131.29
  L 1.32 119.78
  A 0.29 0.29 0.0 0 1 1.71 119.36
  Q 8.36 123.51 14.50 128.79
  Z"
/>
<path fill="#000000" fill-opacity="0.710" d="
  M 146.50 120.46
  Q 151.20 122.37 154.08 126.86
  Q 152.35 126.03 151.11 124.65
  Q 150.37 123.82 150.71 125.07
  Q 150.97 126.03 150.39 126.96
  Q 150.12 127.39 150.62 127.46
  L 151.16 127.53
  Q 151.53 127.58 151.28 127.86
  Q 151.17 127.98 151.00 128.00
  Q 150.43 128.06 150.81 128.19
  Q 150.94 128.23 151.06 128.27
  Q 151.29 128.35 151.37 128.59
  Q 154.55 138.00 154.43 147.90
  Q 154.43 148.16 154.67 148.23
  Q 154.85 148.28 155.03 148.24
  Q 155.39 148.17 155.39 148.53
  L 155.38 151.66
  Q 155.38 151.75 155.29 151.75
  Q 155.15 151.75 155.00 151.74
  Q 154.01 151.64 155.01 152.24
  L 155.29 152.41
  Q 155.56 152.57 155.34 152.79
  L 155.09 153.03
  Q 154.97 153.16 155.13 153.21
  Q 155.33 153.28 155.52 153.34
  Q 156.26 153.59 155.49 153.69
  L 154.96 153.77
  Q 154.32 153.86 154.87 154.18
  L 155.46 154.54
  Q 155.68 154.67 155.43 154.70
  L 155.05 154.75
  Q 154.48 154.83 154.95 155.16
  C 155.57 155.59 156.21 157.27 155.25 157.65
  Q 154.83 157.81 155.09 158.18
  Q 156.21 159.81 155.36 161.74
  Q 155.19 162.14 155.30 162.56
  Q 155.43 163.04 155.21 163.46
  Q 155.02 163.83 155.00 164.25
  Q 154.90 166.45 154.37 168.61
  Q 154.29 168.94 154.41 169.26
  Q 154.95 170.68 154.23 171.84
  Q 154.02 172.18 153.99 172.58
  Q 153.89 173.74 153.25 174.78
  Q 153.09 175.05 153.32 175.26
  C 153.52 175.44 153.75 176.94 153.06 176.95
  Q 151.99 176.96 152.81 177.19
  Q 152.96 177.23 153.08 177.26
  Q 153.20 177.29 153.14 177.39
  Q 152.20 179.11 152.38 181.09
  Q 152.43 181.57 152.61 182.02
  Q 153.12 183.30 152.04 184.07
  Q 151.94 184.14 152.06 184.16
  Q 152.23 184.20 152.33 184.26
  Q 152.50 184.36 152.35 184.50
  Q 151.42 185.36 151.48 186.60
  Q 151.51 187.11 151.22 187.54
  Q 150.46 188.69 150.26 190.08
  Q 150.21 190.46 149.90 190.69
  C 148.76 191.51 149.16 192.57 148.59 193.52
  Q 148.41 193.82 148.46 194.17
  L 148.66 195.45
  Q 148.75 196.02 148.29 196.37
  Q 146.63 197.65 146.48 199.83
  Q 146.45 200.34 146.04 200.65
  Q 144.41 201.92 144.38 203.97
  Q 144.37 204.41 144.09 204.74
  C 142.80 206.24 141.06 207.54 140.26 209.31
  Q 139.76 210.41 139.29 211.47
  Q 139.09 211.93 138.73 212.26
  Q 137.21 213.67 136.17 215.37
  Q 135.94 215.75 135.49 215.75
  L 134.25 215.75
  Q 133.63 215.75 133.50 216.35
  Q 133.37 216.99 132.58 216.76
  Q 132.04 216.61 131.78 217.11
  Q 130.26 219.95 128.30 221.52
  Q 127.05 222.52 126.40 223.41
  Q 126.14 223.77 125.70 223.77
  Q 124.94 223.78 124.86 224.38
  Q 123.34 225.51 122.04 226.82
  Q 121.70 227.16 121.65 227.63
  Q 121.46 229.35 119.74 229.80
  Q 119.42 229.89 119.58 230.18
  L 119.76 230.52
  Q 120.01 230.98 119.52 230.78
  Q 118.12 230.20 117.45 231.17
  Q 117.17 231.57 116.69 231.62
  L 114.54 231.82
  Q 114.46 231.83 114.47 231.91
  Q 114.50 232.05 114.58 232.17
  Q 114.95 232.75 114.26 232.75
  L 113.48 232.75
  Q 113.09 232.75 112.90 233.09
  Q 112.42 233.98 111.44 233.78
  Q 110.99 233.69 110.73 234.07
  Q 109.61 235.76 107.66 235.79
  Q 107.36 235.80 107.51 236.05
  L 107.70 236.36
  Q 107.93 236.75 107.47 236.75
  L 104.74 236.75
  Q 104.28 236.75 103.96 237.08
  Q 102.98 238.06 101.57 237.86
  Q 101.16 237.80 100.90 238.13
  Q 100.13 239.10 98.97 238.86
  Q 98.83 238.83 98.72 238.91
  Q 98.39 239.15 98.70 239.32
  Q 99.57 239.79 98.00 239.81
  L 95.30 239.85
  Q 94.76 239.86 94.70 240.40
  Q 94.68 240.63 93.84 240.76
  Q 93.40 240.84 92.96 240.81
  Q 91.05 240.73 89.18 241.23
  Q 88.77 241.05 88.62 241.45
  Q 88.49 241.81 88.09 241.82
  L 82.19 241.90
  Q 81.97 241.90 81.86 242.09
  L 81.58 242.57
  Q 81.37 242.91 81.17 242.57
  L 81.04 242.34
  Q 80.79 241.92 80.30 241.87
  C 79.88 241.82 72.02 241.59 72.00 241.53
  Q 71.92 241.29 71.71 241.44
  L 71.26 241.77
  Q 70.89 242.05 71.11 241.62
  Q 71.17 241.51 71.19 241.37
  Q 71.23 241.21 71.08 241.29
  Q 70.08 241.78 69.36 240.98
  Q 69.07 240.66 68.67 240.53
  L 67.75 240.23
  Q 67.37 240.10 67.06 239.84
  Q 66.06 239.01 64.72 238.65
  Q 63.51 238.33 64.47 239.13
  Q 66.25 240.59 67.21 242.50
  L 61.79 237.54
  Q 60.79 234.91 58.32 232.69
  Q 57.95 232.36 58.06 231.93
  Q 58.17 231.47 58.64 231.56
  L 61.22 232.09
  Q 61.39 232.13 61.33 232.29
  Q 61.27 232.43 61.23 232.57
  Q 61.17 232.76 61.36 232.75
  Q 62.51 232.70 63.61 232.99
  Q 65.09 233.38 63.57 233.24
  Q 62.54 233.15 61.67 233.50
  Q 61.59 233.53 61.68 233.53
  Q 65.69 233.79 69.71 233.88
  Q 70.08 233.89 69.85 234.18
  Q 69.74 234.31 69.51 234.37
  Q 69.26 234.42 69.51 234.47
  C 76.16 235.64 84.43 234.82 91.30 234.86
  Q 91.65 234.86 91.77 234.54
  Q 91.84 234.36 91.90 234.21
  Q 92.01 233.94 92.30 233.92
  L 97.00 233.55
  Q 97.49 233.51 97.04 233.30
  Q 96.88 233.23 96.73 233.14
  Q 96.40 232.95 96.77 232.89
  C 97.14 232.83 100.81 232.86 100.76 232.28
  Q 100.73 231.76 101.25 231.76
  L 104.65 231.74
  Q 105.95 231.73 104.72 231.32
  L 104.39 231.21
  Q 104.15 231.13 104.39 231.03
  L 108.42 229.33
  Q 108.76 229.19 108.39 229.23
  Q 108.17 229.25 107.98 229.25
  Q 107.90 229.25 107.96 229.19
  Q 109.09 228.11 110.51 227.66
  Q 111.01 227.51 111.38 227.15
  Q 112.75 225.84 114.64 225.27
  Q 115.10 225.13 114.62 225.20
  Q 114.29 225.25 114.01 225.25
  Q 113.68 225.26 113.98 225.13
  Q 116.46 224.01 118.51 222.24
  C 119.29 221.57 119.52 220.39 120.91 220.47
  Q 121.27 220.49 121.41 220.16
  Q 121.62 219.63 122.10 219.73
  Q 122.65 219.84 122.79 219.30
  Q 123.10 218.08 124.21 217.68
  Q 125.17 217.33 124.44 217.31
  Q 124.28 217.31 124.32 216.92
  Q 124.43 215.85 125.50 215.85
  L 126.25 215.85
  Q 126.62 215.85 126.50 215.50
  Q 126.46 215.38 126.42 215.25
  Q 126.41 215.23 126.43 215.20
  Q 128.09 213.20 129.85 211.27
  Q 130.17 210.93 130.62 210.80
  C 131.81 210.48 131.86 208.50 133.06 207.43
  Q 133.21 207.30 133.02 207.25
  Q 132.88 207.21 132.75 207.17
  Q 132.03 206.91 132.79 206.80
  L 133.24 206.74
  Q 133.47 206.71 133.58 206.50
  Q 134.74 204.28 136.10 202.19
  C 137.06 200.72 139.08 199.98 138.60 197.36
  Q 138.38 196.16 139.29 195.34
  Q 141.01 193.81 142.32 191.68
  Q 142.57 191.27 142.50 190.79
  Q 142.30 189.41 142.62 188.04
  Q 142.68 187.76 142.97 187.75
  Q 143.25 187.75 143.55 187.75
  Q 143.80 187.76 143.62 187.58
  L 143.20 187.16
  Q 143.10 187.06 143.20 186.96
  Q 144.31 185.76 143.58 184.19
  Q 143.48 183.97 143.69 183.85
  Q 143.81 183.78 143.95 183.70
  Q 144.61 183.34 144.00 183.24
  Q 143.86 183.21 143.73 183.16
  Q 143.29 182.98 143.74 182.84
  Q 143.88 182.79 144.01 182.74
  Q 144.13 182.69 144.18 182.56
  L 146.00 177.27
  Q 146.02 177.23 145.98 177.23
  Q 145.84 177.21 145.70 177.16
  Q 145.63 177.13 145.71 177.10
  Q 146.84 176.71 146.32 175.32
  Q 146.15 174.88 146.43 174.49
  L 147.04 173.63
  Q 147.43 173.07 147.25 172.43
  C 146.79 170.78 147.74 166.19 148.11 164.22
  Q 148.22 163.59 147.97 162.97
  Q 147.78 162.49 147.92 161.98
  Q 149.35 156.86 148.24 151.68
  Q 148.47 151.30 148.06 151.22
  Q 130.00 147.54 148.00 150.73
  Q 148.16 150.76 148.31 150.75
  Q 148.72 150.75 148.39 150.50
  L 148.03 150.24
  Q 147.51 149.86 148.15 149.76
  Q 148.35 149.72 148.54 149.66
  Q 148.81 149.56 148.54 149.44
  L 147.91 149.16
  Q 147.43 148.94 147.93 148.77
  L 148.24 148.67
  Q 148.73 148.50 148.24 148.33
  Q 148.10 148.28 147.96 148.25
  Q 147.57 148.16 147.84 147.87
  Q 147.98 147.73 148.13 147.62
  Q 148.16 147.60 148.13 147.57
  Q 147.07 146.45 147.89 144.94
  Q 148.14 144.47 148.00 143.96
  Q 147.55 142.36 147.02 140.88
  Q 146.99 140.81 147.07 140.79
  Q 147.21 140.77 147.31 140.70
  Q 147.41 140.64 147.36 140.53
  Q 147.28 140.33 147.12 140.28
  Q 146.85 140.20 146.97 139.94
  Q 147.91 137.94 147.03 135.87
  Q 147.00 135.81 147.07 135.79
  Q 147.21 135.77 147.32 135.69
  Q 147.53 135.55 147.31 135.42
  L 147.03 135.25
  Q 146.96 135.21 146.93 135.13
  Q 146.45 133.68 146.29 132.17
  Q 146.24 131.73 146.25 131.73
  Q 146.40 131.71 146.54 131.65
  Q 146.71 131.58 146.55 131.50
  C 145.21 130.82 145.65 129.37 145.09 129.09
  Q 144.80 128.94 145.00 128.68
  C 146.21 127.12 143.71 126.96 144.80 125.83
  Q 145.07 125.55 144.87 125.22
  C 143.66 123.17 143.51 121.62 141.82 120.06
  Q 141.26 119.54 142.01 119.67
  L 146.50 120.46
  Z"
/>
<path fill="#000000" fill-opacity="0.624" d="
  M 154.08 126.86
  Q 158.26 132.63 160.13 139.87
  Q 160.27 140.41 160.77 140.65
  L 166.54 143.50
  L 166.26 143.77
  Q 166.00 144.02 166.32 144.17
  L 167.42 144.70
  Q 167.90 144.93 167.93 145.47
  L 168.14 150.23
  Q 168.16 150.77 168.51 151.19
  Q 169.30 152.14 168.93 153.14
  Q 168.76 153.61 169.25 153.70
  Q 170.34 153.89 170.04 155.00
  Q 169.91 155.49 170.05 155.97
  Q 171.00 159.30 173.55 161.69
  Q 173.90 162.02 173.99 162.50
  Q 174.25 164.00 175.52 164.80
  Q 175.92 165.05 176.04 165.51
  Q 176.49 167.15 177.98 167.94
  Q 178.01 167.95 178.00 167.97
  Q 177.94 168.11 177.89 168.23
  Q 177.80 168.44 178.01 168.51
  Q 179.64 169.10 180.04 170.75
  Q 180.17 171.29 180.60 171.67
  Q 186.38 176.68 193.26 180.13
  Q 193.66 180.34 193.90 180.73
  Q 194.62 181.94 196.10 181.75
  Q 196.64 181.68 197.09 181.99
  Q 198.29 182.80 198.76 181.44
  Q 198.83 181.25 199.03 181.25
  L 199.51 181.25
  Q 200.02 181.25 200.00 180.75
  L 199.96 180.00
  L 200.21 179.50
  L 200.26 180.27
  Q 200.29 180.89 200.88 180.68
  L 201.25 180.54
  L 200.86 181.91
  Q 200.71 182.45 201.26 182.52
  L 209.73 183.55
  Q 210.11 183.60 210.01 183.97
  Q 209.96 184.12 209.91 184.26
  Q 209.86 184.41 209.72 184.37
  Q 207.95 184.00 206.25 184.34
  Q 204.82 184.63 206.27 184.73
  L 210.29 185.00
  Q 205.65 185.66 201.07 184.76
  Q 200.59 184.67 200.26 184.31
  Q 199.90 183.91 199.42 183.98
  Q 198.92 184.06 198.72 184.52
  C 195.15 192.78 187.17 190.18 181.77 185.23
  Q 175.86 179.82 172.30 172.75
  C 167.76 163.72 171.04 154.04 162.47 146.95
  A 0.55 0.55 0.0 0 0 161.57 147.46
  C 168.18 189.63 146.03 246.31 96.97 251.67
  Q 80.77 253.44 67.21 242.50
  Q 66.25 240.59 64.47 239.13
  Q 63.51 238.33 64.72 238.65
  Q 66.06 239.01 67.06 239.84
  Q 67.37 240.10 67.75 240.23
  L 68.67 240.53
  Q 69.07 240.66 69.36 240.98
  Q 70.08 241.78 71.08 241.29
  Q 71.23 241.21 71.19 241.37
  Q 71.17 241.51 71.11 241.62
  Q 70.89 242.05 71.26 241.77
  L 71.71 241.44
  Q 71.92 241.29 72.00 241.53
  C 72.02 241.59 79.88 241.82 80.30 241.87
  Q 80.79 241.92 81.04 242.34
  L 81.17 242.57
  Q 81.37 242.91 81.58 242.57
  L 81.86 242.09
  Q 81.97 241.90 82.19 241.90
  L 88.09 241.82
  Q 88.49 241.81 88.62 241.45
  Q 88.77 241.05 89.18 241.23
  Q 91.05 240.73 92.96 240.81
  Q 93.40 240.84 93.84 240.76
  Q 94.68 240.63 94.70 240.40
  Q 94.76 239.86 95.30 239.85
  L 98.00 239.81
  Q 99.57 239.79 98.70 239.32
  Q 98.39 239.15 98.72 238.91
  Q 98.83 238.83 98.97 238.86
  Q 100.13 239.10 100.90 238.13
  Q 101.16 237.80 101.57 237.86
  Q 102.98 238.06 103.96 237.08
  Q 104.28 236.75 104.74 236.75
  L 107.47 236.75
  Q 107.93 236.75 107.70 236.36
  L 107.51 236.05
  Q 107.36 235.80 107.66 235.79
  Q 109.61 235.76 110.73 234.07
  Q 110.99 233.69 111.44 233.78
  Q 112.42 233.98 112.90 233.09
  Q 113.09 232.75 113.48 232.75
  L 114.26 232.75
  Q 114.95 232.75 114.58 232.17
  Q 114.50 232.05 114.47 231.91
  Q 114.46 231.83 114.54 231.82
  L 116.69 231.62
  Q 117.17 231.57 117.45 231.17
  Q 118.12 230.20 119.52 230.78
  Q 120.01 230.98 119.76 230.52
  L 119.58 230.18
  Q 119.42 229.89 119.74 229.80
  Q 121.46 229.35 121.65 227.63
  Q 121.70 227.16 122.04 226.82
  Q 123.34 225.51 124.86 224.38
  Q 124.94 223.78 125.70 223.77
  Q 126.14 223.77 126.40 223.41
  Q 127.05 222.52 128.30 221.52
  Q 130.26 219.95 131.78 217.11
  Q 132.04 216.61 132.58 216.76
  Q 133.37 216.99 133.50 216.35
  Q 133.63 215.75 134.25 215.75
  L 135.49 215.75
  Q 135.94 215.75 136.17 215.37
  Q 137.21 213.67 138.73 212.26
  Q 139.09 211.93 139.29 211.47
  Q 139.76 210.41 140.26 209.31
  C 141.06 207.54 142.80 206.24 144.09 204.74
  Q 144.37 204.41 144.38 203.97
  Q 144.41 201.92 146.04 200.65
  Q 146.45 200.34 146.48 199.83
  Q 146.63 197.65 148.29 196.37
  Q 148.75 196.02 148.66 195.45
  L 148.46 194.17
  Q 148.41 193.82 148.59 193.52
  C 149.16 192.57 148.76 191.51 149.90 190.69
  Q 150.21 190.46 150.26 190.08
  Q 150.46 188.69 151.22 187.54
  Q 151.51 187.11 151.48 186.60
  Q 151.42 185.36 152.35 184.50
  Q 152.50 184.36 152.33 184.26
  Q 152.23 184.20 152.06 184.16
  Q 151.94 184.14 152.04 184.07
  Q 153.12 183.30 152.61 182.02
  Q 152.43 181.57 152.38 181.09
  Q 152.20 179.11 153.14 177.39
  Q 153.20 177.29 153.08 177.26
  Q 152.96 177.23 152.81 177.19
  Q 151.99 176.96 153.06 176.95
  C 153.75 176.94 153.52 175.44 153.32 175.26
  Q 153.09 175.05 153.25 174.78
  Q 153.89 173.74 153.99 172.58
  Q 154.02 172.18 154.23 171.84
  Q 154.95 170.68 154.41 169.26
  Q 154.29 168.94 154.37 168.61
  Q 154.90 166.45 155.00 164.25
  Q 155.02 163.83 155.21 163.46
  Q 155.43 163.04 155.30 162.56
  Q 155.19 162.14 155.36 161.74
  Q 156.21 159.81 155.09 158.18
  Q 154.83 157.81 155.25 157.65
  C 156.21 157.27 155.57 155.59 154.95 155.16
  Q 154.48 154.83 155.05 154.75
  L 155.43 154.70
  Q 155.68 154.67 155.46 154.54
  L 154.87 154.18
  Q 154.32 153.86 154.96 153.77
  L 155.49 153.69
  Q 156.26 153.59 155.52 153.34
  Q 155.33 153.28 155.13 153.21
  Q 154.97 153.16 155.09 153.03
  L 155.34 152.79
  Q 155.56 152.57 155.29 152.41
  L 155.01 152.24
  Q 154.01 151.64 155.00 151.74
  Q 155.15 151.75 155.29 151.75
  Q 155.38 151.75 155.38 151.66
  L 155.39 148.53
  Q 155.39 148.17 155.03 148.24
  Q 154.85 148.28 154.67 148.23
  Q 154.43 148.16 154.43 147.90
  Q 154.55 138.00 151.37 128.59
  Q 151.29 128.35 151.06 128.27
  Q 150.94 128.23 150.81 128.19
  Q 150.43 128.06 151.00 128.00
  Q 151.17 127.98 151.28 127.86
  Q 151.53 127.58 151.16 127.53
  L 150.62 127.46
  Q 150.12 127.39 150.39 126.96
  Q 150.97 126.03 150.71 125.07
  Q 150.37 123.82 151.11 124.65
  Q 152.35 126.03 154.08 126.86
  Z"
/>
<path fill="#000000" fill-opacity="0.827" d="
  M 14.50 128.79
  L 28.54 140.50
  Q 28.59 142.39 30.37 143.36
  Q 30.94 143.67 30.75 144.30
  Q 30.56 144.94 31.23 145.06
  Q 31.96 145.20 31.30 145.54
  Q 31.01 145.69 30.63 145.57
  Q 30.08 145.40 30.33 145.92
  L 30.53 146.33
  Q 30.73 146.76 30.51 147.17
  C 29.66 148.71 30.14 152.14 30.07 153.98
  Q 30.05 154.70 29.68 154.08
  L 29.53 153.83
  Q 29.25 153.36 29.00 153.85
  C 28.52 154.81 30.52 156.13 30.82 157.41
  Q 31.04 158.38 30.45 157.58
  L 29.02 155.68
  Q 28.84 155.44 28.76 155.73
  Q 28.62 156.26 28.71 156.75
  L 10.25 131.29
  Q 13.29 133.71 15.37 137.06
  Q 15.86 137.86 15.96 136.92
  L 16.28 133.70
  Q 16.34 133.16 16.87 133.23
  L 17.86 133.36
  Q 18.40 133.44 18.21 132.92
  C 17.95 132.24 14.39 129.75 13.37 128.56
  Q 11.56 126.46 13.60 128.55
  Q 14.05 129.01 14.50 128.79
  Z"
/>
<path fill="#000000" fill-opacity="0.957" d="
  M 28.54 140.50
  Q 35.06 146.25 40.82 152.70
  Q 39.05 153.08 37.70 154.19
  Q 37.34 154.48 37.43 154.94
  Q 38.59 161.13 38.54 167.43
  Q 38.54 168.00 38.82 168.49
  Q 39.61 169.84 38.45 171.04
  Q 38.12 171.39 38.14 171.86
  L 38.21 173.25
  L 28.71 156.75
  Q 28.62 156.26 28.76 155.73
  Q 28.84 155.44 29.02 155.68
  L 30.45 157.58
  Q 31.04 158.38 30.82 157.41
  C 30.52 156.13 28.52 154.81 29.00 153.85
  Q 29.25 153.36 29.53 153.83
  L 29.68 154.08
  Q 30.05 154.70 30.07 153.98
  C 30.14 152.14 29.66 148.71 30.51 147.17
  Q 30.73 146.76 30.53 146.33
  L 30.33 145.92
  Q 30.08 145.40 30.63 145.57
  Q 31.01 145.69 31.30 145.54
  Q 31.96 145.20 31.23 145.06
  Q 30.56 144.94 30.75 144.30
  Q 30.94 143.67 30.37 143.36
  Q 28.59 142.39 28.54 140.50
  Z"
/>
<path fill="#000000" fill-opacity="0.710" d="
  M 166.54 143.50
  Q 170.24 144.63 172.08 146.93
  Q 173.08 148.19 173.70 147.00
  Q 174.13 148.65 173.27 149.83
  Q 173.00 150.21 173.17 150.64
  C 174.90 155.21 176.29 159.09 179.93 161.84
  Q 180.32 162.14 180.51 162.59
  C 181.50 164.96 183.51 165.76 184.90 167.83
  C 186.20 169.76 188.01 170.31 189.50 171.83
  Q 190.21 172.56 190.96 173.24
  Q 191.31 173.56 191.77 173.67
  Q 191.94 173.72 192.09 173.74
  Q 192.48 173.81 192.82 174.01
  L 199.41 177.95
  Q 199.88 178.23 199.71 178.74
  L 199.22 180.22
  Q 199.03 180.79 199.59 180.56
  Q 199.91 180.42 199.96 180.00
  L 200.00 180.75
  Q 200.02 181.25 199.51 181.25
  L 199.03 181.25
  Q 198.83 181.25 198.76 181.44
  Q 198.29 182.80 197.09 181.99
  Q 196.64 181.68 196.10 181.75
  Q 194.62 181.94 193.90 180.73
  Q 193.66 180.34 193.26 180.13
  Q 186.38 176.68 180.60 171.67
  Q 180.17 171.29 180.04 170.75
  Q 179.64 169.10 178.01 168.51
  Q 177.80 168.44 177.89 168.23
  Q 177.94 168.11 178.00 167.97
  Q 178.01 167.95 177.98 167.94
  Q 176.49 167.15 176.04 165.51
  Q 175.92 165.05 175.52 164.80
  Q 174.25 164.00 173.99 162.50
  Q 173.90 162.02 173.55 161.69
  Q 171.00 159.30 170.05 155.97
  Q 169.91 155.49 170.04 155.00
  Q 170.34 153.89 169.25 153.70
  Q 168.76 153.61 168.93 153.14
  Q 169.30 152.14 168.51 151.19
  Q 168.16 150.77 168.14 150.23
  L 167.93 145.47
  Q 167.90 144.93 167.42 144.70
  L 166.32 144.17
  Q 166.00 144.02 166.26 143.77
  L 166.54 143.50
  Z"
/>
<path fill="#000000" d="
  M 40.82 152.70
  Q 51.90 163.91 57.69 178.30
  C 59.89 183.75 61.40 192.18 64.75 198.96
  Q 64.50 199.75 63.79 199.54
  Q 63.00 199.31 63.30 200.03
  Q 63.71 201.01 62.79 202.00
  Q 62.56 202.26 62.25 202.09
  Q 61.77 201.83 61.65 201.33
  Q 61.57 200.96 61.19 200.94
  C 59.35 200.86 56.02 197.66 55.20 196.97
  Q 54.87 196.69 54.45 196.76
  C 54.07 196.82 51.67 193.90 51.35 193.44
  Q 51.11 193.08 50.67 193.00
  Q 49.55 192.80 49.44 191.62
  Q 49.39 191.11 48.92 190.89
  Q 47.77 190.36 47.45 189.16
  Q 47.31 188.64 47.04 188.18
  L 45.56 185.62
  Q 45.31 185.19 44.88 184.96
  C 42.88 183.92 42.68 180.22 41.37 180.46
  L 38.21 173.25
  L 38.14 171.86
  Q 38.12 171.39 38.45 171.04
  Q 39.61 169.84 38.82 168.49
  Q 38.54 168.00 38.54 167.43
  Q 38.59 161.13 37.43 154.94
  Q 37.34 154.48 37.70 154.19
  Q 39.05 153.08 40.82 152.70
  Z"
/>
<path fill="#000000" fill-opacity="0.894" d="
  M 41.37 180.46
  C 42.68 180.22 42.88 183.92 44.88 184.96
  Q 45.31 185.19 45.56 185.62
  L 47.04 188.18
  Q 47.31 188.64 47.45 189.16
  Q 47.77 190.36 48.92 190.89
  Q 49.39 191.11 49.44 191.62
  Q 49.55 192.80 50.67 193.00
  Q 51.11 193.08 51.35 193.44
  C 51.67 193.90 54.07 196.82 54.45 196.76
  Q 54.87 196.69 55.20 196.97
  C 56.02 197.66 59.35 200.86 61.19 200.94
  Q 61.57 200.96 61.65 201.33
  Q 61.77 201.83 62.25 202.09
  Q 62.56 202.26 62.79 202.00
  Q 63.71 201.01 63.30 200.03
  Q 63.00 199.31 63.79 199.54
  Q 64.50 199.75 64.75 198.96
  C 81.82 226.71 113.24 201.96 126.29 184.50
  Q 126.53 184.34 126.86 184.36
  Q 127.38 184.40 127.01 184.77
  Q 126.48 185.28 126.17 185.93
  Q 125.69 186.94 126.48 186.15
  L 126.76 185.87
  Q 127.00 185.62 126.94 185.96
  L 126.39 188.73
  Q 126.34 189.00 126.06 189.00
  L 125.77 189.00
  Q 125.51 189.00 125.63 189.23
  Q 125.71 189.36 125.76 189.54
  Q 125.87 189.88 125.51 189.88
  L 125.03 189.87
  Q 124.42 189.87 124.47 190.47
  L 124.52 191.12
  Q 124.55 191.52 124.26 191.80
  Q 123.59 192.41 123.22 193.33
  Q 123.16 193.48 123.31 193.52
  Q 123.49 193.57 123.69 193.64
  Q 124.43 193.88 123.65 193.94
  L 122.61 194.02
  Q 122.34 194.04 122.53 194.24
  L 122.74 194.45
  Q 122.94 194.65 122.68 194.76
  Q 121.45 195.24 121.32 196.45
  Q 121.28 196.82 121.02 197.09
  L 115.44 202.79
  Q 115.23 203.00 114.94 203.00
  L 114.53 203.00
  Q 114.31 203.00 114.39 203.21
  Q 114.46 203.39 114.52 203.57
  Q 114.56 203.68 114.44 203.70
  L 113.93 203.77
  Q 113.39 203.85 113.46 204.39
  L 113.52 204.85
  Q 113.56 205.12 113.32 204.99
  Q 113.17 204.92 113.02 204.88
  Q 112.59 204.77 112.27 205.07
  L 109.97 207.22
  Q 109.69 207.47 109.60 207.84
  L 109.52 208.14
  Q 109.42 208.55 109.02 208.69
  L 108.47 208.90
  Q 108.15 209.02 107.93 209.29
  Q 106.83 210.63 105.28 211.04
  Q 104.82 211.16 104.49 211.50
  Q 102.36 213.66 99.30 213.94
  Q 98.82 213.98 98.61 214.41
  Q 98.33 215.00 97.18 214.88
  Q 96.74 214.83 96.53 215.22
  C 95.66 216.91 91.05 217.11 89.71 217.00
  Q 89.23 216.97 88.80 217.19
  C 86.31 218.52 80.08 217.68 75.64 217.76
  C 74.34 217.79 73.75 217.19 72.92 216.36
  Q 72.60 216.04 72.15 215.96
  Q 69.89 215.53 67.63 215.81
  Q 67.13 215.88 66.69 215.64
  C 63.59 213.97 60.22 212.81 57.45 210.58
  Q 57.19 210.37 57.50 210.26
  Q 57.62 210.22 57.80 210.14
  Q 58.27 209.93 57.76 209.91
  L 54.42 209.80
  Q 54.14 209.79 54.24 209.53
  Q 54.29 209.39 54.33 209.26
  Q 54.41 208.98 54.12 208.96
  Q 52.56 208.88 51.68 207.65
  Q 51.25 207.06 51.26 206.97
  C 51.36 205.91 50.38 205.56 49.46 205.71
  Q 49.07 205.78 49.27 205.44
  L 49.44 205.16
  Q 49.47 205.10 49.41 205.07
  L 48.79 204.77
  Q 48.49 204.62 48.42 204.29
  Q 48.12 202.69 46.29 202.79
  Q 45.65 202.82 46.15 202.42
  Q 46.40 202.22 46.67 202.24
  Q 46.77 202.25 46.68 202.20
  L 44.44 200.62
  Q 43.92 200.26 44.04 199.64
  Q 44.32 198.24 43.28 197.52
  Q 42.70 197.12 42.78 197.82
  Q 42.88 198.64 42.04 198.75
  C 39.62 182.83 36.24 172.56 25.87 160.62
  Q 25.75 160.48 25.71 160.31
  Q 25.63 159.97 25.66 159.96
  A 1.01 0.80 52.8 0 1 26.76 160.24
  Q 35.38 169.56 40.53 181.15
  Q 40.76 181.68 41.31 181.88
  L 41.68 182.02
  Q 42.42 182.30 42.03 181.61
  L 41.37 180.46
  Z"
/>
</svg>
