<?xml version="1.0" encoding="UTF-8" standalone="no"?>
<!DOCTYPE svg PUBLIC "-//W3C//DTD SVG 1.1//EN" "http://www.w3.org/Graphics/SVG/1.1/DTD/svg11.dtd">
<svg xmlns="http://www.w3.org/2000/svg" version="1.1" viewBox="0.00 0.00 400.00 400.00">
<g stroke-width="2.00" fill="none" stroke-linecap="butt">
<path stroke="#808080" vector-effect="non-scaling-stroke" d="
  M 281.60 127.60
  C 259.54 112.53 235.84 100.70 209.83 94.16
  C 148.87 78.83 81.51 101.15 60.88 165.43
  C 42.26 223.45 76.15 278.51 121.06 313.02
  A 2.35 2.28 -25.4 0 0 122.48 313.50
  L 189.51 313.50
  Q 190.12 313.50 189.90 312.93
  Q 183.99 297.77 177.91 282.70
  C 171.08 265.78 180.46 248.02 200.52 257.46
  C 210.78 262.29 216.21 269.50 219.25 280.09
  C 222.30 290.68 223.59 301.97 225.00 312.86
  Q 225.08 313.50 225.73 313.50
  L 316.22 313.50
  A 0.39 0.39 0.0 0 0 316.54 312.89
  Q 305.94 297.65 295.52 282.35
  C 291.57 276.54 289.48 272.50 289.40 266.00
  C 289.30 258.37 290.46 246.08 296.27 240.50
  C 303.96 233.13 316.50 237.19 323.74 235.03
  Q 338.01 230.77 341.47 216.84
  Q 342.01 214.70 343.22 212.97
  Q 351.93 200.51 346.60 188.20
  Q 344.25 182.77 335.29 173.50
  Q 325.57 163.44 315.24 154.06
  Q 314.90 153.76 314.80 153.32
  Q 308.85 128.06 282.46 127.87
  Q 281.99 127.86 281.60 127.60"
/>
<path stroke="#808080" vector-effect="non-scaling-stroke" d="
  M 266.03 199.41
  C 247.02 193.33 238.06 173.88 222.50 162.76
  C 209.13 153.21 190.21 158.56 184.91 174.36
  C 181.10 185.70 187.00 197.67 199.26 199.29
  Q 207.89 200.43 213.22 191.47
  Q 217.37 184.48 212.98 191.27
  C 204.36 204.61 185.65 193.71 189.36 179.59
  C 194.51 160.07 221.50 164.88 224.10 182.98
  C 226.74 201.30 207.78 214.00 191.24 206.99
  C 168.50 197.35 169.71 167.36 188.23 154.61
  Q 196.78 148.71 206.92 148.57
  C 241.35 148.10 246.84 191.67 279.03 191.95
  C 294.46 192.09 308.09 194.54 322.72 200.30
  Q 324.46 200.98 325.78 199.94
  C 328.05 198.16 326.53 195.87 324.99 194.25
  Q 307.27 175.57 292.29 162.79
  Q 291.92 162.47 292.12 162.02
  C 296.17 153.14 286.38 145.33 279.67 151.98
  A 0.92 0.92 0.0 0 1 278.47 152.07
  C 255.91 135.11 230.73 121.55 203.36 114.84
  C 155.10 103.00 98.38 119.16 81.69 171.08
  C 66.56 218.16 93.14 261.69 128.14 290.86
  C 130.89 293.15 152.72 292.01 157.60 291.93
  Q 158.23 291.92 157.99 291.33
  C 150.85 273.76 152.85 251.53 169.03 239.99
  C 189.69 225.25 217.16 236.82 230.98 254.78
  C 238.73 264.85 241.85 279.06 243.79 291.39
  Q 243.88 292.00 244.49 292.00
  L 275.23 292.00
  Q 275.85 292.00 275.51 291.48
  C 266.09 277.06 266.64 262.20 270.25 245.72
  C 275.56 221.46 294.27 213.22 317.25 214.19
  Q 319.88 214.30 320.40 211.69
  A 2.17 2.17 0.0 0 0 319.10 209.26
  C 305.21 203.53 292.11 202.05 277.13 201.12
  Q 270.00 200.67 266.03 199.41"
/>
</g>
<path fill="#ffffff" d="
  M 0.00 0.00
  L 400.00 0.00
  L 400.00 400.00
  L 0.00 400.00
  L 0.00 0.00
  Z
  M 281.60 127.60
  C 259.54 112.53 235.84 100.70 209.83 94.16
  C 148.87 78.83 81.51 101.15 60.88 165.43
  C 42.26 223.45 76.15 278.51 121.06 313.02
  A 2.35 2.28 -25.4 0 0 122.48 313.50
  L 189.51 313.50
  Q 190.12 313.50 189.90 312.93
  Q 183.99 297.77 177.91 282.70
  C 171.08 265.78 180.46 248.02 200.52 257.46
  C 210.78 262.29 216.21 269.50 219.25 280.09
  C 222.30 290.68 223.59 301.97 225.00 312.86
  Q 225.08 313.50 225.73 313.50
  L 316.22 313.50
  A 0.39 0.39 0.0 0 0 316.54 312.89
  Q 305.94 297.65 295.52 282.35
  C 291.57 276.54 289.48 272.50 289.40 266.00
  C 289.30 258.37 290.46 246.08 296.27 240.50
  C 303.96 233.13 316.50 237.19 323.74 235.03
  Q 338.01 230.77 341.47 216.84
  Q 342.01 214.70 343.22 212.97
  Q 351.93 200.51 346.60 188.20
  Q 344.25 182.77 335.29 173.50
  Q 325.57 163.44 315.24 154.06
  Q 314.90 153.76 314.80 153.32
  Q 308.85 128.06 282.46 127.87
  Q 281.99 127.86 281.60 127.60
  Z"
/>
<path fill="#000000" d="
  M 209.83 94.16
  C 235.84 100.70 259.54 112.53 281.60 127.60
  Q 281.99 127.86 282.46 127.87
  Q 308.85 128.06 314.80 153.32
  Q 314.90 153.76 315.24 154.06
  Q 325.57 163.44 335.29 173.50
  Q 344.25 182.77 346.60 188.20
  Q 351.93 200.51 343.22 212.97
  Q 342.01 214.70 341.47 216.84
  Q 338.01 230.77 323.74 235.03
  C 316.50 237.19 303.96 233.13 296.27 240.50
  C 290.46 246.08 289.30 258.37 289.40 266.00
  C 289.48 272.50 291.57 276.54 295.52 282.35
  Q 305.94 297.65 316.54 312.89
  A 0.39 0.39 0.0 0 1 316.22 313.50
  L 225.73 313.50
  Q 225.08 313.50 225.00 312.86
  C 223.59 301.97 222.30 290.68 219.25 280.09
  C 216.21 269.50 210.78 262.29 200.52 257.46
  C 180.46 248.02 171.08 265.78 177.91 282.70
  Q 183.99 297.77 189.90 312.93
  Q 190.12 313.50 189.51 313.50
  L 122.48 313.50
  A 2.35 2.28 -25.4 0 1 121.06 313.02
  C 76.15 278.51 42.26 223.45 60.88 165.43
  C 81.51 101.15 148.87 78.83 209.83 94.16
  Z
  M 266.03 199.41
  C 247.02 193.33 238.06 173.88 222.50 162.76
  C 209.13 153.21 190.21 158.56 184.91 174.36
  C 181.10 185.70 187.00 197.67 199.26 199.29
  Q 207.89 200.43 213.22 191.47
  Q 217.37 184.48 212.98 191.27
  C 204.36 204.61 185.65 193.71 189.36 179.59
  C 194.51 160.07 221.50 164.88 224.10 182.98
  C 226.74 201.30 207.78 214.00 191.24 206.99
  C 168.50 197.35 169.71 167.36 188.23 154.61
  Q 196.78 148.71 206.92 148.57
  C 241.35 148.10 246.84 191.67 279.03 191.95
  C 294.46 192.09 308.09 194.54 322.72 200.30
  Q 324.46 200.98 325.78 199.94
  C 328.05 198.16 326.53 195.87 324.99 194.25
  Q 307.27 175.57 292.29 162.79
  Q 291.92 162.47 292.12 162.02
  C 296.17 153.14 286.38 145.33 279.67 151.98
  A 0.92 0.92 0.0 0 1 278.47 152.07
  C 255.91 135.11 230.73 121.55 203.36 114.84
  C 155.10 103.00 98.38 119.16 81.69 171.08
  C 66.56 218.16 93.14 261.69 128.14 290.86
  C 130.89 293.15 152.72 292.01 157.60 291.93
  Q 158.23 291.92 157.99 291.33
  C 150.85 273.76 152.85 251.53 169.03 239.99
  C 189.69 225.25 217.16 236.82 230.98 254.78
  C 238.73 264.85 241.85 279.06 243.79 291.39
  Q 243.88 292.00 244.49 292.00
  L 275.23 292.00
  Q 275.85 292.00 275.51 291.48
  C 266.09 277.06 266.64 262.20 270.25 245.72
  C 275.56 221.46 294.27 213.22 317.25 214.19
  Q 319.88 214.30 320.40 211.69
  A 2.17 2.17 0.0 0 0 319.10 209.26
  C 305.21 203.53 292.11 202.05 277.13 201.12
  Q 270.00 200.67 266.03 199.41
  Z"
/>
<path fill="#ffffff" d="
  M 222.50 162.76
  C 238.06 173.88 247.02 193.33 266.03 199.41
  Q 270.00 200.67 277.13 201.12
  C 292.11 202.05 305.21 203.53 319.10 209.26
  A 2.17 2.17 0.0 0 1 320.40 211.69
  Q 319.88 214.30 317.25 214.19
  C 294.27 213.22 275.56 221.46 270.25 245.72
  C 266.64 262.20 266.09 277.06 275.51 291.48
  Q 275.85 292.00 275.23 292.00
  L 244.49 292.00
  Q 243.88 292.00 243.79 291.39
  C 241.85 279.06 238.73 264.85 230.98 254.78
  C 217.16 236.82 189.69 225.25 169.03 239.99
  C 152.85 251.53 150.85 273.76 157.99 291.33
  Q 158.23 291.92 157.60 291.93
  C 152.72 292.01 130.89 293.15 128.14 290.86
  C 93.14 261.69 66.56 218.16 81.69 171.08
  C 98.38 119.16 155.10 103.00 203.36 114.84
  C 230.73 121.55 255.91 135.11 278.47 152.07
  A 0.92 0.92 0.0 0 0 279.67 151.98
  C 286.38 145.33 296.17 153.14 292.12 162.02
  Q 291.92 162.47 292.29 162.79
  Q 307.27 175.57 324.99 194.25
  C 326.53 195.87 328.05 198.16 325.78 199.94
  Q 324.46 200.98 322.72 200.30
  C 308.09 194.54 294.46 192.09 279.03 191.95
  C 246.84 191.67 241.35 148.10 206.92 148.57
  Q 196.78 148.71 188.23 154.61
  C 169.71 167.36 168.50 197.35 191.24 206.99
  C 207.78 214.00 226.74 201.30 224.10 182.98
  C 221.50 164.88 194.51 160.07 189.36 179.59
  C 185.65 193.71 204.36 204.61 212.98 191.27
  Q 217.37 184.48 213.22 191.47
  Q 207.89 200.43 199.26 199.29
  C 187.00 197.67 181.10 185.70 184.91 174.36
  C 190.21 158.56 209.13 153.21 222.50 162.76
  Z"
/>
</svg>
