<?xml version="1.0" encoding="UTF-8" standalone="no"?>
<!DOCTYPE svg PUBLIC "-//W3C//DTD SVG 1.1//EN" "http://www.w3.org/Graphics/SVG/1.1/DTD/svg11.dtd">
<svg xmlns="http://www.w3.org/2000/svg" version="1.1" viewBox="0.00 0.00 225.00 225.00">
<g stroke-width="2.00" fill="none" stroke-linecap="butt">
<path stroke="#808080" vector-effect="non-scaling-stroke" d="
  M 71.28 185.62
  L 77.55 189.02
  Q 77.98 189.25 78.16 189.69
  Q 82.76 200.54 92.86 206.53
  Q 93.51 206.91 93.37 206.17
  L 91.15 194.43
  Q 91.06 193.94 91.55 194.02
  C 106.31 196.54 118.58 197.50 133.37 193.88
  Q 133.87 193.76 133.78 194.27
  L 131.63 206.14
  Q 131.49 206.89 132.15 206.49
  Q 142.09 200.52 146.66 189.86
  Q 146.90 189.30 147.43 189.02
  L 153.75 185.63
  Q 154.25 185.37 154.25 185.93
  L 154.25 198.72
  Q 154.25 199.58 154.89 199.00
  Q 164.42 190.37 166.23 177.51
  Q 166.30 176.97 166.71 176.61
  C 214.68 135.14 202.59 58.28 143.66 34.53
  Q 119.56 24.81 94.24 30.49
  C 26.84 45.59 5.52 131.16 58.15 176.38
  Q 58.55 176.73 58.63 177.26
  Q 60.50 190.17 69.92 199.06
  Q 70.66 199.76 70.67 198.74
  L 70.79 185.91
  Q 70.79 185.36 71.28 185.62"
/>
<path stroke="#808080" vector-effect="non-scaling-stroke" d="
  M 105.51 40.85
  C 71.10 44.99 44.80 70.70 40.91 105.32
  Q 40.78 106.50 41.97 106.50
  L 70.96 106.50
  Q 71.31 106.50 71.39 106.16
  Q 78.01 78.79 105.95 74.90
  Q 106.50 74.82 106.50 74.26
  L 106.50 41.73
  A 0.89 0.89 0.0 0 0 105.51 40.85"
/>
<path stroke="#808080" vector-effect="non-scaling-stroke" d="
  M 184.10 105.83
  C 180.70 72.22 153.61 43.40 119.07 40.96
  Q 118.50 40.92 118.50 41.49
  L 118.50 74.51
  Q 118.50 75.03 119.02 75.05
  C 137.17 76.00 151.57 88.00 154.77 105.90
  Q 154.88 106.50 155.49 106.50
  L 183.49 106.50
  Q 184.16 106.50 184.10 105.83"
/>
<path stroke="#808080" vector-effect="non-scaling-stroke" d="
  M 145.02 105.89
  C 142.60 92.37 132.40 80.63 119.13 76.76
  Q 118.50 76.58 118.50 77.23
  L 118.50 106.00
  Q 118.50 106.50 119.00 106.50
  L 144.51 106.50
  Q 145.13 106.50 145.02 105.89"
/>
<path stroke="#808080" vector-effect="non-scaling-stroke" d="
  M 105.81 77.25
  C 93.22 81.67 83.91 92.78 81.43 105.83
  Q 81.30 106.50 81.99 106.50
  L 106.00 106.50
  Q 106.50 106.50 106.50 106.00
  L 106.50 77.74
  Q 106.50 77.01 105.81 77.25"
/>
<path stroke="#808080" vector-effect="non-scaling-stroke" d="
  M 74.41 161.23
  Q 74.58 159.69 75.55 160.89
  Q 82.21 169.12 86.17 178.96
  Q 86.39 179.50 86.93 179.71
  Q 96.12 183.26 105.93 184.05
  Q 106.50 184.09 106.50 183.52
  L 106.50 150.49
  A 0.41 0.40 4.1 0 0 106.15 150.09
  Q 78.20 146.39 71.43 119.05
  Q 71.30 118.50 70.73 118.50
  L 41.71 118.50
  A 0.81 0.80 87.1 0 0 40.91 119.39
  Q 43.34 142.37 58.37 159.75
  A 0.28 0.28 0.0 0 0 58.86 159.63
  L 61.15 150.42
  A 0.33 0.32 -53.0 0 1 61.75 150.33
  Q 66.80 159.08 68.62 169.04
  Q 68.72 169.58 69.17 169.89
  L 73.56 172.92
  Q 74.33 173.45 74.26 172.52
  Q 73.78 166.89 74.41 161.23"
/>
<path stroke="#808080" vector-effect="non-scaling-stroke" d="
  M 81.44 119.17
  C 83.95 132.13 93.17 143.44 105.83 147.74
  Q 106.50 147.97 106.50 147.26
  L 106.50 119.00
  Q 106.50 118.50 106.00 118.50
  L 81.99 118.50
  Q 81.30 118.50 81.44 119.17"
/>
<path stroke="#808080" vector-effect="non-scaling-stroke" d="
  M 118.94 148.30
  C 132.34 144.25 142.49 132.94 145.04 119.14
  Q 145.16 118.50 144.51 118.50
  L 119.00 118.50
  Q 118.50 118.50 118.50 119.00
  L 118.50 147.98
  Q 118.50 148.43 118.94 148.30"
/>
<path stroke="#808080" vector-effect="non-scaling-stroke" d="
  M 150.64 161.29
  L 150.80 172.79
  Q 150.81 173.49 151.37 173.08
  L 155.80 169.90
  Q 156.22 169.60 156.31 169.09
  Q 158.11 159.14 163.18 150.40
  A 0.36 0.35 53.5 0 1 163.83 150.50
  L 166.02 159.51
  Q 166.20 160.24 166.70 159.67
  Q 181.55 142.45 184.08 119.73
  Q 184.22 118.50 182.98 118.50
  L 155.69 118.50
  Q 155.15 118.50 155.02 119.03
  Q 148.08 147.22 119.05 150.14
  Q 118.50 150.19 118.50 150.75
  L 118.50 183.47
  A 0.62 0.62 0.0 0 0 119.17 184.09
  Q 128.90 183.25 138.00 179.73
  Q 138.54 179.52 138.75 178.99
  Q 142.72 169.11 149.47 160.88
  Q 150.62 159.48 150.64 161.29"
/>
</g>
<path fill="#ffffff" d="
  M 0.00 0.00
  L 225.00 0.00
  L 225.00 225.00
  L 0.00 225.00
  L 0.00 0.00
  Z
  M 71.28 185.62
  L 77.55 189.02
  Q 77.98 189.25 78.16 189.69
  Q 82.76 200.54 92.86 206.53
  Q 93.51 206.91 93.37 206.17
  L 91.15 194.43
  Q 91.06 193.94 91.55 194.02
  C 106.31 196.54 118.58 197.50 133.37 193.88
  Q 133.87 193.76 133.78 194.27
  L 131.63 206.14
  Q 131.49 206.89 132.15 206.49
  Q 142.09 200.52 146.66 189.86
  Q 146.90 189.30 147.43 189.02
  L 153.75 185.63
  Q 154.25 185.37 154.25 185.93
  L 154.25 198.72
  Q 154.25 199.58 154.89 199.00
  Q 164.42 190.37 166.23 177.51
  Q 166.30 176.97 166.71 176.61
  C 214.68 135.14 202.59 58.28 143.66 34.53
  Q 119.56 24.81 94.24 30.49
  C 26.84 45.59 5.52 131.16 58.15 176.38
  Q 58.55 176.73 58.63 177.26
  Q 60.50 190.17 69.92 199.06
  Q 70.66 199.76 70.67 198.74
  L 70.79 185.91
  Q 70.79 185.36 71.28 185.62
  Z"
/>
<path fill="#000000" d="
  M 70.79 185.91
  L 70.67 198.74
  Q 70.66 199.76 69.92 199.06
  Q 60.50 190.17 58.63 177.26
  Q 58.55 176.73 58.15 176.38
  C 5.52 131.16 26.84 45.59 94.24 30.49
  Q 119.56 24.81 143.66 34.53
  C 202.59 58.28 214.68 135.14 166.71 176.61
  Q 166.30 176.97 166.23 177.51
  Q 164.42 190.37 154.89 199.00
  Q 154.25 199.58 154.25 198.72
  L 154.25 185.93
  Q 154.25 185.37 153.75 185.63
  L 147.43 189.02
  Q 146.90 189.30 146.66 189.86
  Q 142.09 200.52 132.15 206.49
  Q 131.49 206.89 131.63 206.14
  L 133.78 194.27
  Q 133.87 193.76 133.37 193.88
  C 118.58 197.50 106.31 196.54 91.55 194.02
  Q 91.06 193.94 91.15 194.43
  L 93.37 206.17
  Q 93.51 206.91 92.86 206.53
  Q 82.76 200.54 78.16 189.69
  Q 77.98 189.25 77.55 189.02
  L 71.28 185.62
  Q 70.79 185.36 70.79 185.91
  Z
  M 105.51 40.85
  C 71.10 44.99 44.80 70.70 40.91 105.32
  Q 40.78 106.50 41.97 106.50
  L 70.96 106.50
  Q 71.31 106.50 71.39 106.16
  Q 78.01 78.79 105.95 74.90
  Q 106.50 74.82 106.50 74.26
  L 106.50 41.73
  A 0.89 0.89 0.0 0 0 105.51 40.85
  Z
  M 184.10 105.83
  C 180.70 72.22 153.61 43.40 119.07 40.96
  Q 118.50 40.92 118.50 41.49
  L 118.50 74.51
  Q 118.50 75.03 119.02 75.05
  C 137.17 76.00 151.57 88.00 154.77 105.90
  Q 154.88 106.50 155.49 106.50
  L 183.49 106.50
  Q 184.16 106.50 184.10 105.83
  Z
  M 145.02 105.89
  C 142.60 92.37 132.40 80.63 119.13 76.76
  Q 118.50 76.58 118.50 77.23
  L 118.50 106.00
  Q 118.50 106.50 119.00 106.50
  L 144.51 106.50
  Q 145.13 106.50 145.02 105.89
  Z
  M 105.81 77.25
  C 93.22 81.67 83.91 92.78 81.43 105.83
  Q 81.30 106.50 81.99 106.50
  L 106.00 106.50
  Q 106.50 106.50 106.50 106.00
  L 106.50 77.74
  Q 106.50 77.01 105.81 77.25
  Z
  M 74.41 161.23
  Q 74.58 159.69 75.55 160.89
  Q 82.21 169.12 86.17 178.96
  Q 86.39 179.50 86.93 179.71
  Q 96.12 183.26 105.93 184.05
  Q 106.50 184.09 106.50 183.52
  L 106.50 150.49
  A 0.41 0.40 4.1 0 0 106.15 150.09
  Q 78.20 146.39 71.43 119.05
  Q 71.30 118.50 70.73 118.50
  L 41.71 118.50
  A 0.81 0.80 87.1 0 0 40.91 119.39
  Q 43.34 142.37 58.37 159.75
  A 0.28 0.28 0.0 0 0 58.86 159.63
  L 61.15 150.42
  A 0.33 0.32 -53.0 0 1 61.75 150.33
  Q 66.80 159.08 68.62 169.04
  Q 68.72 169.58 69.17 169.89
  L 73.56 172.92
  Q 74.33 173.45 74.26 172.52
  Q 73.78 166.89 74.41 161.23
  Z
  M 81.44 119.17
  C 83.95 132.13 93.17 143.44 105.83 147.74
  Q 106.50 147.97 106.50 147.26
  L 106.50 119.00
  Q 106.50 118.50 106.00 118.50
  L 81.99 118.50
  Q 81.30 118.50 81.44 119.17
  Z
  M 118.94 148.30
  C 132.34 144.25 142.49 132.94 145.04 119.14
  Q 145.16 118.50 144.51 118.50
  L 119.00 118.50
  Q 118.50 118.50 118.50 119.00
  L 118.50 147.98
  Q 118.50 148.43 118.94 148.30
  Z
  M 150.64 161.29
  L 150.80 172.79
  Q 150.81 173.49 151.37 173.08
  L 155.80 169.90
  Q 156.22 169.60 156.31 169.09
  Q 158.11 159.14 163.18 150.40
  A 0.36 0.35 53.5 0 1 163.83 150.50
  L 166.02 159.51
  Q 166.20 160.24 166.70 159.67
  Q 181.55 142.45 184.08 119.73
  Q 184.22 118.50 182.98 118.50
  L 155.69 118.50
  Q 155.15 118.50 155.02 119.03
  Q 148.08 147.22 119.05 150.14
  Q 118.50 150.19 118.50 150.75
  L 118.50 183.47
  A 0.62 0.62 0.0 0 0 119.17 184.09
  Q 128.90 183.25 138.00 179.73
  Q 138.54 179.52 138.75 178.99
  Q 142.72 169.11 149.47 160.88
  Q 150.62 159.48 150.64 161.29
  Z"
/>
<path fill="#ffffff" d="
  M 40.91 105.32
  C 44.80 70.70 71.10 44.99 105.51 40.85
  A 0.89 0.89 0.0 0 1 106.50 41.73
  L 106.50 74.26
  Q 106.50 74.82 105.95 74.90
  Q 78.01 78.79 71.39 106.16
  Q 71.31 106.50 70.96 106.50
  L 41.97 106.50
  Q 40.78 106.50 40.91 105.32
  Z"
/>
<path fill="#ffffff" d="
  M 119.07 40.96
  C 153.61 43.40 180.70 72.22 184.10 105.83
  Q 184.16 106.50 183.49 106.50
  L 155.49 106.50
  Q 154.88 106.50 154.77 105.90
  C 151.57 88.00 137.17 76.00 119.02 75.05
  Q 118.50 75.03 118.50 74.51
  L 118.50 41.49
  Q 118.50 40.92 119.07 40.96
  Z"
/>
<path fill="#ffffff" d="
  M 119.13 76.76
  C 132.40 80.63 142.60 92.37 145.02 105.89
  Q 145.13 106.50 144.51 106.50
  L 119.00 106.50
  Q 118.50 106.50 118.50 106.00
  L 118.50 77.23
  Q 118.50 76.58 119.13 76.76
  Z"
/>
<path fill="#ffffff" d="
  M 81.43 105.83
  C 83.91 92.78 93.22 81.67 105.81 77.25
  Q 106.50 77.01 106.50 77.74
  L 106.50 106.00
  Q 106.50 106.50 106.00 106.50
  L 81.99 106.50
  Q 81.30 106.50 81.43 105.83
  Z"
/>
<path fill="#ffffff" d="
  M 74.41 161.23
  Q 73.78 166.89 74.26 172.52
  Q 74.33 173.45 73.56 172.92
  L 69.17 169.89
  Q 68.72 169.58 68.62 169.04
  Q 66.80 159.08 61.75 150.33
  A 0.33 0.32 -53.0 0 0 61.15 150.42
  L 58.86 159.63
  A 0.28 0.28 0.0 0 1 58.37 159.75
  Q 43.34 142.37 40.91 119.39
  A 0.81 0.80 87.1 0 1 41.71 118.50
  L 70.73 118.50
  Q 71.30 118.50 71.43 119.05
  Q 78.20 146.39 106.15 150.09
  A 0.41 0.40 4.1 0 1 106.50 150.49
  L 106.50 183.52
  Q 106.50 184.09 105.93 184.05
  Q 96.12 183.26 86.93 179.71
  Q 86.39 179.50 86.17 178.96
  Q 82.21 169.12 75.55 160.89
  Q 74.58 159.69 74.41 161.23
  Z"
/>
<path fill="#ffffff" d="
  M 105.83 147.74
  C 93.17 143.44 83.95 132.13 81.44 119.17
  Q 81.30 118.50 81.99 118.50
  L 106.00 118.50
  Q 106.50 118.50 106.50 119.00
  L 106.50 147.26
  Q 106.50 147.97 105.83 147.74
  Z"
/>
<path fill="#ffffff" d="
  M 145.04 119.14
  C 142.49 132.94 132.34 144.25 118.94 148.30
  Q 118.50 148.43 118.50 147.98
  L 118.50 119.00
  Q 118.50 118.50 119.00 118.50
  L 144.51 118.50
  Q 145.16 118.50 145.04 119.14
  Z"
/>
<path fill="#ffffff" d="
  M 150.64 161.29
  Q 150.62 159.48 149.47 160.88
  Q 142.72 169.11 138.75 178.99
  Q 138.54 179.52 138.00 179.73
  Q 128.90 183.25 119.17 184.09
  A 0.62 0.62 0.0 0 1 118.50 183.47
  L 118.50 150.75
  Q 118.50 150.19 119.05 150.14
  Q 148.08 147.22 155.02 119.03
  Q 155.15 118.50 155.69 118.50
  L 182.98 118.50
  Q 184.22 118.50 184.08 119.73
  Q 181.55 142.45 166.70 159.67
  Q 166.20 160.24 166.02 159.51
  L 163.83 150.50
  A 0.36 0.35 53.5 0 0 163.18 150.40
  Q 158.11 159.14 156.31 169.09
  Q 156.22 169.60 155.80 169.90
  L 151.37 173.08
  Q 150.81 173.49 150.80 172.79
  L 150.64 161.29
  Z"
/>
</svg>
