<?xml version="1.0" encoding="UTF-8" standalone="no"?>
<!DOCTYPE svg PUBLIC "-//W3C//DTD SVG 1.1//EN" "http://www.w3.org/Graphics/SVG/1.1/DTD/svg11.dtd">
<svg xmlns="http://www.w3.org/2000/svg" version="1.1" viewBox="0.00 0.00 284.00 177.00">
<path stroke="#808080" stroke-width="2.00" fill="none" stroke-linecap="butt" vector-effect="non-scaling-stroke" d="
  M 0.00 14.69
  C 0.95 26.84 19.43 11.51 22.83 8.73
  A 0.42 0.42 0.0 0 1 23.47 9.25
  C 13.15 30.08 26.74 40.27 40.36 54.18
  Q 40.75 54.58 40.44 55.03
  C 31.89 67.62 31.07 79.02 35.06 93.49
  C 37.26 101.44 36.70 107.94 31.78 114.58
  C 29.45 117.72 23.28 120.77 23.44 125.00
  C 23.65 130.93 24.10 136.80 22.96 142.50
  Q 20.67 154.02 15.31 164.53
  Q 15.07 164.99 15.57 165.08
  L 16.91 165.34
  Q 17.40 165.44 17.36 165.94
  L 16.79 172.81
  Q 16.75 173.35 17.04 173.79
  C 19.36 177.37 27.08 176.76 31.00 176.68
  A 1.37 1.37 0.0 0 0 32.07 174.48
  L 28.60 169.88
  Q 28.24 169.41 28.27 168.81
  C 28.95 152.24 32.75 137.94 45.39 127.64
  Q 51.50 122.65 55.17 119.86
  Q 56.61 118.77 55.63 120.29
  C 53.60 123.46 53.30 125.58 54.44 129.39
  C 57.91 140.99 58.64 152.92 59.17 164.95
  Q 59.20 165.50 59.73 165.38
  C 64.36 164.35 63.02 171.98 68.47 172.92
  Q 73.64 173.82 78.48 172.05
  A 0.40 0.40 0.0 0 0 78.55 171.34
  C 68.97 165.54 68.59 158.81 68.49 148.45
  Q 68.49 147.96 68.24 147.54
  C 64.90 141.98 72.14 131.16 76.35 127.66
  C 83.29 121.89 87.80 115.68 96.98 113.75
  C 99.43 113.23 100.38 112.16 101.23 109.99
  Q 101.43 109.49 101.96 109.49
  Q 116.81 109.57 131.50 111.75
  Q 134.98 112.26 137.80 114.34
  Q 138.19 114.64 138.67 114.72
  Q 142.23 115.37 143.32 118.47
  Q 148.39 132.88 151.65 141.18
  C 154.52 148.50 155.16 155.00 155.47 162.52
  Q 155.49 163.01 155.89 163.28
  C 158.50 165.05 159.39 168.87 160.37 171.70
  Q 160.52 172.15 160.98 172.31
  C 165.53 173.89 171.83 176.34 174.66 173.14
  Q 175.44 172.25 174.52 171.51
  C 171.04 168.71 168.16 166.46 166.40 162.16
  C 163.29 154.59 160.99 149.51 162.32 142.30
  Q 162.77 139.85 162.43 137.68
  Q 161.19 129.89 161.55 121.94
  Q 161.57 121.42 162.05 121.19
  L 164.42 120.05
  Q 164.85 119.85 165.21 120.17
  C 167.78 122.45 180.31 133.40 180.17 136.30
  Q 179.86 143.11 176.89 149.15
  C 175.79 151.39 173.63 153.10 172.10 155.32
  Q 171.81 155.76 171.87 156.28
  L 172.85 164.24
  Q 172.88 164.50 173.07 164.32
  Q 178.92 158.53 185.17 153.19
  Q 187.97 150.80 187.50 147.51
  Q 186.20 138.44 188.73 130.45
  C 189.00 129.61 189.10 127.81 188.78 127.26
  Q 185.04 120.75 182.54 113.59
  A 0.51 0.51 0.0 0 1 183.12 112.92
  C 192.57 114.99 198.19 111.04 204.52 104.82
  Q 204.95 104.40 205.55 104.45
  L 210.18 104.82
  Q 210.99 104.88 210.86 105.68
  Q 209.66 113.08 215.40 117.76
  Q 215.80 118.08 215.82 118.59
  C 215.99 122.22 219.17 124.38 222.23 121.97
  Q 222.63 121.65 223.13 121.80
  C 226.95 122.91 233.21 124.01 234.84 120.07
  C 237.61 113.35 250.05 89.81 257.97 90.20
  A 1.48 1.47 6.7 0 0 259.49 89.01
  Q 260.88 81.71 256.39 76.14
  Q 255.92 75.56 256.65 75.39
  Q 266.52 73.02 276.49 71.23
  Q 278.75 70.83 280.91 67.38
  Q 281.18 66.94 280.68 67.09
  C 273.37 69.31 266.26 68.08 259.10 66.59
  A 0.45 0.45 0.0 0 1 258.92 65.79
  C 266.68 60.00 278.56 59.79 283.50 51.82
  Q 283.78 51.37 283.25 51.47
  Q 269.78 54.07 256.23 56.48
  Q 250.73 57.45 245.15 62.82
  Q 244.73 63.23 244.35 62.78
  C 236.69 53.41 226.36 40.32 217.22 34.50
  Q 204.26 26.26 183.54 19.48
  C 171.30 15.47 159.60 14.97 147.78 19.80
  Q 136.56 24.39 125.00 28.00
  C 118.82 29.93 113.19 33.85 107.01 35.26
  Q 86.00 40.08 61.60 40.51
  C 56.11 40.61 52.49 42.56 48.45 45.82
  Q 48.05 46.15 47.57 45.96
  C 38.94 42.57 24.99 34.84 26.25 23.76
  Q 27.18 15.60 30.66 6.68
  C 32.30 2.50 28.78 -1.94 25.02 1.27
  Q 16.48 8.54 7.76 15.60
  C 6.78 16.39 5.42 16.92 4.28 17.38
  Q 3.82 17.57 3.39 17.32
  C 0.70 15.74 1.30 10.93 1.18 8.28
  Q 1.11 6.56 0.83 8.26
  L 0.00 13.44"
/>
<path fill="#ffffff" d="
  M 0.00 0.00
  L 284.00 0.00
  L 284.00 177.00
  L 0.00 177.00
  L 0.00 14.69
  C 0.95 26.84 19.43 11.51 22.83 8.73
  A 0.42 0.42 0.0 0 1 23.47 9.25
  C 13.15 30.08 26.74 40.27 40.36 54.18
  Q 40.75 54.58 40.44 55.03
  C 31.89 67.62 31.07 79.02 35.06 93.49
  C 37.26 101.44 36.70 107.94 31.78 114.58
  C 29.45 117.72 23.28 120.77 23.44 125.00
  C 23.65 130.93 24.10 136.80 22.96 142.50
  Q 20.67 154.02 15.31 164.53
  Q 15.07 164.99 15.57 165.08
  L 16.91 165.34
  Q 17.40 165.44 17.36 165.94
  L 16.79 172.81
  Q 16.75 173.35 17.04 173.79
  C 19.36 177.37 27.08 176.76 31.00 176.68
  A 1.37 1.37 0.0 0 0 32.07 174.48
  L 28.60 169.88
  Q 28.24 169.41 28.27 168.81
  C 28.95 152.24 32.75 137.94 45.39 127.64
  Q 51.50 122.65 55.17 119.86
  Q 56.61 118.77 55.63 120.29
  C 53.60 123.46 53.30 125.58 54.44 129.39
  C 57.91 140.99 58.64 152.92 59.17 164.95
  Q 59.20 165.50 59.73 165.38
  C 64.36 164.35 63.02 171.98 68.47 172.92
  Q 73.64 173.82 78.48 172.05
  A 0.40 0.40 0.0 0 0 78.55 171.34
  C 68.97 165.54 68.59 158.81 68.49 148.45
  Q 68.49 147.96 68.24 147.54
  C 64.90 141.98 72.14 131.16 76.35 127.66
  C 83.29 121.89 87.80 115.68 96.98 113.75
  C 99.43 113.23 100.38 112.16 101.23 109.99
  Q 101.43 109.49 101.96 109.49
  Q 116.81 109.57 131.50 111.75
  Q 134.98 112.26 137.80 114.34
  Q 138.19 114.64 138.67 114.72
  Q 142.23 115.37 143.32 118.47
  Q 148.39 132.88 151.65 141.18
  C 154.52 148.50 155.16 155.00 155.47 162.52
  Q 155.49 163.01 155.89 163.28
  C 158.50 165.05 159.39 168.87 160.37 171.70
  Q 160.52 172.15 160.98 172.31
  C 165.53 173.89 171.83 176.34 174.66 173.14
  Q 175.44 172.25 174.52 171.51
  C 171.04 168.71 168.16 166.46 166.40 162.16
  C 163.29 154.59 160.99 149.51 162.32 142.30
  Q 162.77 139.85 162.43 137.68
  Q 161.19 129.89 161.55 121.94
  Q 161.57 121.42 162.05 121.19
  L 164.42 120.05
  Q 164.85 119.85 165.21 120.17
  C 167.78 122.45 180.31 133.40 180.17 136.30
  Q 179.86 143.11 176.89 149.15
  C 175.79 151.39 173.63 153.10 172.10 155.32
  Q 171.81 155.76 171.87 156.28
  L 172.85 164.24
  Q 172.88 164.50 173.07 164.32
  Q 178.92 158.53 185.17 153.19
  Q 187.97 150.80 187.50 147.51
  Q 186.20 138.44 188.73 130.45
  C 189.00 129.61 189.10 127.81 188.78 127.26
  Q 185.04 120.75 182.54 113.59
  A 0.51 0.51 0.0 0 1 183.12 112.92
  C 192.57 114.99 198.19 111.04 204.52 104.82
  Q 204.95 104.40 205.55 104.45
  L 210.18 104.82
  Q 210.99 104.88 210.86 105.68
  Q 209.66 113.08 215.40 117.76
  Q 215.80 118.08 215.82 118.59
  C 215.99 122.22 219.17 124.38 222.23 121.97
  Q 222.63 121.65 223.13 121.80
  C 226.95 122.91 233.21 124.01 234.84 120.07
  C 237.61 113.35 250.05 89.81 257.97 90.20
  A 1.48 1.47 6.7 0 0 259.49 89.01
  Q 260.88 81.71 256.39 76.14
  Q 255.92 75.56 256.65 75.39
  Q 266.52 73.02 276.49 71.23
  Q 278.75 70.83 280.91 67.38
  Q 281.18 66.94 280.68 67.09
  C 273.37 69.31 266.26 68.08 259.10 66.59
  A 0.45 0.45 0.0 0 1 258.92 65.79
  C 266.68 60.00 278.56 59.79 283.50 51.82
  Q 283.78 51.37 283.25 51.47
  Q 269.78 54.07 256.23 56.48
  Q 250.73 57.45 245.15 62.82
  Q 244.73 63.23 244.35 62.78
  C 236.69 53.41 226.36 40.32 217.22 34.50
  Q 204.26 26.26 183.54 19.48
  C 171.30 15.47 159.60 14.97 147.78 19.80
  Q 136.56 24.39 125.00 28.00
  C 118.82 29.93 113.19 33.85 107.01 35.26
  Q 86.00 40.08 61.60 40.51
  C 56.11 40.61 52.49 42.56 48.45 45.82
  Q 48.05 46.15 47.57 45.96
  C 38.94 42.57 24.99 34.84 26.25 23.76
  Q 27.18 15.60 30.66 6.68
  C 32.30 2.50 28.78 -1.94 25.02 1.27
  Q 16.48 8.54 7.76 15.60
  C 6.78 16.39 5.42 16.92 4.28 17.38
  Q 3.82 17.57 3.39 17.32
  C 0.70 15.74 1.30 10.93 1.18 8.28
  Q 1.11 6.56 0.83 8.26
  L 0.00 13.44
  L 0.00 0.00
  Z"
/>
<path fill="#000000" d="
  M 0.00 14.69
  L 0.00 13.44
  L 0.83 8.26
  Q 1.11 6.56 1.18 8.28
  C 1.30 10.93 0.70 15.74 3.39 17.32
  Q 3.82 17.57 4.28 17.38
  C 5.42 16.92 6.78 16.39 7.76 15.60
  Q 16.48 8.54 25.02 1.27
  C 28.78 -1.94 32.30 2.50 30.66 6.68
  Q 27.18 15.60 26.25 23.76
  C 24.99 34.84 38.94 42.57 47.57 45.96
  Q 48.05 46.15 48.45 45.82
  C 52.49 42.56 56.11 40.61 61.60 40.51
  Q 86.00 40.08 107.01 35.26
  C 113.19 33.85 118.82 29.93 125.00 28.00
  Q 136.56 24.39 147.78 19.80
  C 159.60 14.97 171.30 15.47 183.54 19.48
  Q 204.26 26.26 217.22 34.50
  C 226.36 40.32 236.69 53.41 244.35 62.78
  Q 244.73 63.23 245.15 62.82
  Q 250.73 57.45 256.23 56.48
  Q 269.78 54.07 283.25 51.47
  Q 283.78 51.37 283.50 51.82
  C 278.56 59.79 266.68 60.00 258.92 65.79
  A 0.45 0.45 0.0 0 0 259.10 66.59
  C 266.26 68.08 273.37 69.31 280.68 67.09
  Q 281.18 66.94 280.91 67.38
  Q 278.75 70.83 276.49 71.23
  Q 266.52 73.02 256.65 75.39
  Q 255.92 75.56 256.39 76.14
  Q 260.88 81.71 259.49 89.01
  A 1.48 1.47 6.7 0 1 257.97 90.20
  C 250.05 89.81 237.61 113.35 234.84 120.07
  C 233.21 124.01 226.95 122.91 223.13 121.80
  Q 222.63 121.65 222.23 121.97
  C 219.17 124.38 215.99 122.22 215.82 118.59
  Q 215.80 118.08 215.40 117.76
  Q 209.66 113.08 210.86 105.68
  Q 210.99 104.88 210.18 104.82
  L 205.55 104.45
  Q 204.95 104.40 204.52 104.82
  C 198.19 111.04 192.57 114.99 183.12 112.92
  A 0.51 0.51 0.0 0 0 182.54 113.59
  Q 185.04 120.75 188.78 127.26
  C 189.10 127.81 189.00 129.61 188.73 130.45
  Q 186.20 138.44 187.50 147.51
  Q 187.97 150.80 185.17 153.19
  Q 178.92 158.53 173.07 164.32
  Q 172.88 164.50 172.85 164.24
  L 171.87 156.28
  Q 171.81 155.76 172.10 155.32
  C 173.63 153.10 175.79 151.39 176.89 149.15
  Q 179.86 143.11 180.17 136.30
  C 180.31 133.40 167.78 122.45 165.21 120.17
  Q 164.85 119.85 164.42 120.05
  L 162.05 121.19
  Q 161.57 121.42 161.55 121.94
  Q 161.19 129.89 162.43 137.68
  Q 162.77 139.85 162.32 142.30
  C 160.99 149.51 163.29 154.59 166.40 162.16
  C 168.16 166.46 171.04 168.71 174.52 171.51
  Q 175.44 172.25 174.66 173.14
  C 171.83 176.34 165.53 173.89 160.98 172.31
  Q 160.52 172.15 160.37 171.70
  C 159.39 168.87 158.50 165.05 155.89 163.28
  Q 155.49 163.01 155.47 162.52
  C 155.16 155.00 154.52 148.50 151.65 141.18
  Q 148.39 132.88 143.32 118.47
  Q 142.23 115.37 138.67 114.72
  Q 138.19 114.64 137.80 114.34
  Q 134.98 112.26 131.50 111.75
  Q 116.81 109.57 101.96 109.49
  Q 101.43 109.49 101.23 109.99
  C 100.38 112.16 99.43 113.23 96.98 113.75
  C 87.80 115.68 83.29 121.89 76.35 127.66
  C 72.14 131.16 64.90 141.98 68.24 147.54
  Q 68.49 147.96 68.49 148.45
  C 68.59 158.81 68.97 165.54 78.55 171.34
  A 0.40 0.40 0.0 0 1 78.48 172.05
  Q 73.64 173.82 68.47 172.92
  C 63.02 171.98 64.36 164.35 59.73 165.38
  Q 59.20 165.50 59.17 164.95
  C 58.64 152.92 57.91 140.99 54.44 129.39
  C 53.30 125.58 53.60 123.46 55.63 120.29
  Q 56.61 118.77 55.17 119.86
  Q 51.50 122.65 45.39 127.64
  C 32.75 137.94 28.95 152.24 28.27 168.81
  Q 28.24 169.41 28.60 169.88
  L 32.07 174.48
  A 1.37 1.37 0.0 0 1 31.00 176.68
  C 27.08 176.76 19.36 177.37 17.04 173.79
  Q 16.75 173.35 16.79 172.81
  L 17.36 165.94
  Q 17.40 165.44 16.91 165.34
  L 15.57 165.08
  Q 15.07 164.99 15.31 164.53
  Q 20.67 154.02 22.96 142.50
  C 24.10 136.80 23.65 130.93 23.44 125.00
  C 23.28 120.77 29.45 117.72 31.78 114.58
  C 36.70 107.94 37.26 101.44 35.06 93.49
  C 31.07 79.02 31.89 67.62 40.44 55.03
  Q 40.75 54.58 40.36 54.18
  C 26.74 40.27 13.15 30.08 23.47 9.25
  A 0.42 0.42 0.0 0 0 22.83 8.73
  C 19.43 11.51 0.95 26.84 0.00 14.69
  Z"
/>
</svg>
