<?xml version="1.0" encoding="UTF-8" standalone="no"?>
<!DOCTYPE svg PUBLIC "-//W3C//DTD SVG 1.1//EN" "http://www.w3.org/Graphics/SVG/1.1/DTD/svg11.dtd">
<svg xmlns="http://www.w3.org/2000/svg" version="1.1" viewBox="0.00 0.00 430.00 222.00">
<g stroke-width="2.00" fill="none" stroke-linecap="butt">
<path stroke="#808080" vector-effect="non-scaling-stroke" d="
  M 314.27 131.55
  C 324.42 181.36 368.55 213.85 419.31 212.10
  Q 420.54 212.06 419.46 211.47
  C 384.85 192.44 362.00 160.12 358.42 120.85
  C 354.72 80.21 373.45 41.75 406.29 18.30
  C 410.15 15.54 415.33 12.76 419.83 9.96
  Q 420.45 9.57 419.72 9.54
  C 369.22 7.62 325.72 39.26 314.49 88.67
  A 0.32 0.32 0.0 0 1 313.87 88.68
  Q 302.72 45.18 265.75 23.27
  C 206.14 -12.05 131.80 22.86 116.30 88.71
  A 0.36 0.36 0.0 0 1 115.60 88.72
  C 103.49 39.55 61.01 6.92 10.29 9.60
  Q 9.73 9.63 10.20 9.93
  C 14.70 12.82 19.98 15.54 23.88 18.38
  C 88.44 65.41 87.67 156.83 23.41 203.54
  C 19.63 206.29 14.53 208.95 10.16 211.68
  Q 9.64 212.01 10.25 212.04
  C 60.31 214.61 105.28 181.69 115.70 131.89
  A 0.15 0.15 0.0 0 1 115.99 131.89
  C 122.80 161.36 140.71 185.79 167.15 200.08
  C 195.38 215.34 230.18 216.40 259.14 201.92
  Q 302.26 180.35 314.14 131.54
  A 0.07 0.07 0.0 0 1 314.27 131.55"
/>
<path stroke="#808080" vector-effect="non-scaling-stroke" d="
  M 39.67 26.05
  C 93.97 78.41 86.21 164.00 25.38 207.25
  A 0.18 0.18 0.0 0 0 25.50 207.58
  C 107.30 200.17 142.48 101.39 86.30 42.94
  Q 62.07 17.73 25.45 14.05
  Q 24.83 13.99 25.33 14.36
  C 30.32 18.02 35.46 21.99 39.67 26.05"
/>
<path stroke="#808080" vector-effect="non-scaling-stroke" d="
  M 312.06 110.82
  A 97.06 97.06 0.0 0 0 215.00 13.76
  A 97.06 97.06 0.0 0 0 117.94 110.82
  A 97.06 97.06 0.0 0 0 215.00 207.88
  A 97.06 97.06 0.0 0 0 312.06 110.82"
/>
<path stroke="#808080" vector-effect="non-scaling-stroke" d="
  M 404.64 207.31
  C 337.60 159.48 336.40 61.64 404.95 14.21
  A 0.16 0.16 0.0 0 0 404.84 13.92
  C 346.46 19.47 304.88 75.03 318.76 132.99
  C 328.54 173.85 362.54 203.65 404.52 207.65
  A 0.19 0.19 0.0 0 0 404.64 207.31"
/>
</g>
<path fill="#ffffff" d="
  M 0.00 0.00
  L 430.00 0.00
  L 430.00 222.00
  L 0.00 222.00
  L 0.00 0.00
  Z
  M 314.27 131.55
  C 324.42 181.36 368.55 213.85 419.31 212.10
  Q 420.54 212.06 419.46 211.47
  C 384.85 192.44 362.00 160.12 358.42 120.85
  C 354.72 80.21 373.45 41.75 406.29 18.30
  C 410.15 15.54 415.33 12.76 419.83 9.96
  Q 420.45 9.57 419.72 9.54
  C 369.22 7.62 325.72 39.26 314.49 88.67
  A 0.32 0.32 0.0 0 1 313.87 88.68
  Q 302.72 45.18 265.75 23.27
  C 206.14 -12.05 131.80 22.86 116.30 88.71
  A 0.36 0.36 0.0 0 1 115.60 88.72
  C 103.49 39.55 61.01 6.92 10.29 9.60
  Q 9.73 9.63 10.20 9.93
  C 14.70 12.82 19.98 15.54 23.88 18.38
  C 88.44 65.41 87.67 156.83 23.41 203.54
  C 19.63 206.29 14.53 208.95 10.16 211.68
  Q 9.64 212.01 10.25 212.04
  C 60.31 214.61 105.28 181.69 115.70 131.89
  A 0.15 0.15 0.0 0 1 115.99 131.89
  C 122.80 161.36 140.71 185.79 167.15 200.08
  C 195.38 215.34 230.18 216.40 259.14 201.92
  Q 302.26 180.35 314.14 131.54
  A 0.07 0.07 0.0 0 1 314.27 131.55
  Z"
/>
<path fill="#000000" d="
  M 314.27 131.55
  A 0.07 0.07 0.0 0 0 314.14 131.54
  Q 302.26 180.35 259.14 201.92
  C 230.18 216.40 195.38 215.34 167.15 200.08
  C 140.71 185.79 122.80 161.36 115.99 131.89
  A 0.15 0.15 0.0 0 0 115.70 131.89
  C 105.28 181.69 60.31 214.61 10.25 212.04
  Q 9.64 212.01 10.16 211.68
  C 14.53 208.95 19.63 206.29 23.41 203.54
  C 87.67 156.83 88.44 65.41 23.88 18.38
  C 19.98 15.54 14.70 12.82 10.20 9.93
  Q 9.73 9.63 10.29 9.60
  C 61.01 6.92 103.49 39.55 115.60 88.72
  A 0.36 0.36 0.0 0 0 116.30 88.71
  C 131.80 22.86 206.14 -12.05 265.75 23.27
  Q 302.72 45.18 313.87 88.68
  A 0.32 0.32 0.0 0 0 314.49 88.67
  C 325.72 39.26 369.22 7.62 419.72 9.54
  Q 420.45 9.57 419.83 9.96
  C 415.33 12.76 410.15 15.54 406.29 18.30
  C 373.45 41.75 354.72 80.21 358.42 120.85
  C 362.00 160.12 384.85 192.44 419.46 211.47
  Q 420.54 212.06 419.31 212.10
  C 368.55 213.85 324.42 181.36 314.27 131.55
  Z
  M 39.67 26.05
  C 93.97 78.41 86.21 164.00 25.38 207.25
  A 0.18 0.18 0.0 0 0 25.50 207.58
  C 107.30 200.17 142.48 101.39 86.30 42.94
  Q 62.07 17.73 25.45 14.05
  Q 24.83 13.99 25.33 14.36
  C 30.32 18.02 35.46 21.99 39.67 26.05
  Z
  M 312.06 110.82
  A 97.06 97.06 0.0 0 0 215.00 13.76
  A 97.06 97.06 0.0 0 0 117.94 110.82
  A 97.06 97.06 0.0 0 0 215.00 207.88
  A 97.06 97.06 0.0 0 0 312.06 110.82
  Z
  M 404.64 207.31
  C 337.60 159.48 336.40 61.64 404.95 14.21
  A 0.16 0.16 0.0 0 0 404.84 13.92
  C 346.46 19.47 304.88 75.03 318.76 132.99
  C 328.54 173.85 362.54 203.65 404.52 207.65
  A 0.19 0.19 0.0 0 0 404.64 207.31
  Z"
/>
<path fill="#ffffff" d="
  M 39.67 26.05
  C 35.46 21.99 30.32 18.02 25.33 14.36
  Q 24.83 13.99 25.45 14.05
  Q 62.07 17.73 86.30 42.94
  C 142.48 101.39 107.30 200.17 25.50 207.58
  A 0.18 0.18 0.0 0 1 25.38 207.25
  C 86.21 164.00 93.97 78.41 39.67 26.05
  Z"
/>
<circle fill="#ffffff" cx="215.00" cy="110.82" r="97.06"/>
<path fill="#ffffff" d="
  M 404.95 14.21
  C 336.40 61.64 337.60 159.48 404.64 207.31
  A 0.19 0.19 0.0 0 1 404.52 207.65
  C 362.54 203.65 328.54 173.85 318.76 132.99
  C 304.88 75.03 346.46 19.47 404.84 13.92
  A 0.16 0.16 0.0 0 1 404.95 14.21
  Z"
/>
</svg>
