<?xml version="1.0" encoding="UTF-8" standalone="no"?>
<!DOCTYPE svg PUBLIC "-//W3C//DTD SVG 1.1//EN" "http://www.w3.org/Graphics/SVG/1.1/DTD/svg11.dtd">
<svg xmlns="http://www.w3.org/2000/svg" version="1.1" viewBox="0.00 0.00 800.00 600.00">
<g stroke-width="2.00" fill="none" stroke-linecap="butt">
<path stroke="#808080" vector-effect="non-scaling-stroke" d="
  M 399.35 61.80
  Q 426.94 86.26 446.76 117.34
  C 447.19 118.01 448.65 118.78 449.41 118.95
  Q 469.28 123.35 488.10 130.79
  A 0.34 0.33 -3.2 0 0 488.52 130.33
  Q 484.96 123.77 481.41 117.25
  Q 450.82 61.13 399.38 23.07
  Q 398.98 22.78 398.58 23.07
  C 320.20 80.79 277.11 172.31 281.30 269.18
  A 0.28 0.28 0.0 0 0 281.68 269.43
  L 310.44 259.06
  Q 310.92 258.89 310.98 258.38
  Q 311.16 256.81 311.17 255.24
  C 311.41 181.32 342.83 110.47 398.55 61.80
  Q 398.95 61.45 399.35 61.80"
/>
<path stroke="#808080" vector-effect="non-scaling-stroke" d="
  M 590.44 314.31
  Q 605.73 327.03 622.36 344.43
  Q 622.79 344.88 622.76 344.26
  C 617.47 207.58 494.38 110.19 360.77 132.03
  C 357.36 132.59 344.88 161.81 343.17 166.14
  A 0.49 0.49 0.0 0 0 343.76 166.79
  C 452.88 135.53 563.18 200.96 588.26 311.09
  Q 588.66 312.84 590.44 314.31"
/>
<path stroke="#808080" vector-effect="non-scaling-stroke" d="
  M 264.63 493.25
  Q 253.16 481.51 248.52 475.72
  C 183.54 394.39 192.24 281.47 267.36 210.10
  C 268.45 209.06 269.52 207.72 269.80 206.09
  Q 273.49 184.39 279.92 163.59
  A 0.33 0.33 0.0 0 0 279.42 163.22
  C 218.58 201.55 178.36 268.64 175.09 340.49
  Q 171.15 427.03 225.45 494.84
  Q 226.29 495.88 227.21 496.88
  Q 227.58 497.27 228.11 497.28
  Q 246.65 497.47 264.98 494.66
  A 0.53 0.51 8.7 0 0 265.37 494.38
  C 265.83 493.48 265.10 493.73 264.63 493.25"
/>
<path stroke="#808080" vector-effect="non-scaling-stroke" d="
  M 410.45 438.64
  Q 421.59 448.12 433.73 456.28
  Q 434.32 456.67 434.82 456.16
  C 494.18 394.80 523.14 312.99 515.53 227.78
  C 515.22 224.36 514.53 220.43 514.15 216.72
  Q 514.10 216.20 513.70 215.87
  Q 498.14 202.52 479.73 193.44
  A 0.31 0.30 -83.6 0 0 479.30 193.79
  C 497.07 268.82 481.64 347.54 435.07 409.61
  C 427.77 419.33 419.04 429.04 410.43 438.18
  Q 410.20 438.42 410.45 438.64"
/>
<path stroke="#808080" vector-effect="non-scaling-stroke" d="
  M 220.96 362.73
  C 287.26 300.31 378.62 277.22 466.81 300.44
  Q 467.46 300.61 467.55 299.94
  L 471.31 271.40
  Q 471.38 270.84 470.85 270.65
  Q 468.10 269.67 465.25 269.00
  C 383.85 249.83 298.97 266.88 231.03 315.28
  Q 226.86 318.25 223.04 321.81
  Q 222.66 322.16 222.58 322.67
  Q 219.27 342.46 220.44 362.53
  Q 220.48 363.18 220.96 362.73"
/>
<path stroke="#808080" vector-effect="non-scaling-stroke" d="
  M 650.95 498.61
  C 627.41 507.03 602.92 510.96 578.02 512.44
  Q 577.52 512.47 577.18 512.83
  C 567.48 522.90 558.04 531.51 547.02 541.20
  Q 546.40 541.75 547.22 541.80
  Q 618.80 546.87 684.21 518.21
  Q 684.68 518.00 684.63 517.49
  C 674.00 420.64 616.45 338.30 530.24 293.03
  Q 529.82 292.82 529.74 293.28
  L 524.47 323.74
  Q 524.38 324.25 524.83 324.49
  C 590.78 361.14 635.70 424.45 651.29 497.99
  Q 651.39 498.45 650.95 498.61"
/>
<path stroke="#808080" vector-effect="non-scaling-stroke" d="
  M 291.51 332.28
  C 315.84 417.89 376.90 486.77 459.02 521.03
  Q 459.51 521.24 460.00 521.06
  Q 479.30 514.01 496.53 502.84
  A 0.31 0.31 0.0 0 0 496.45 502.28
  C 413.68 477.52 349.09 414.59 322.99 331.68
  Q 321.28 326.23 319.42 320.63
  Q 319.25 320.13 318.75 320.30
  Q 304.89 325.00 291.81 331.59
  Q 291.38 331.81 291.51 332.28"
/>
<path stroke="#808080" vector-effect="non-scaling-stroke" d="
  M 385.30 496.31
  L 361.76 476.42
  A 0.78 0.77 -39.9 0 0 360.88 476.35
  C 295.89 514.28 218.25 523.34 146.76 498.63
  Q 146.45 498.53 146.52 498.20
  Q 153.93 461.82 171.12 428.95
  A 2.50 2.46 -40.4 0 0 171.29 427.03
  Q 165.02 407.40 161.96 386.99
  Q 161.86 386.28 161.43 386.86
  Q 160.01 388.76 157.27 393.01
  Q 121.16 449.02 113.16 516.79
  Q 113.01 518.08 114.21 518.60
  C 203.16 557.24 303.71 548.58 385.28 496.67
  A 0.23 0.22 49.0 0 0 385.30 496.31"
/>
<path stroke="#808080" vector-effect="non-scaling-stroke" d="
  M 294.81 551.57
  C 360.20 585.48 438.74 586.24 504.09 550.88
  Q 578.64 510.54 609.56 430.14
  A 1.35 1.32 41.2 0 0 609.47 428.99
  Q 600.06 412.66 588.39 397.87
  Q 588.01 397.39 587.86 397.99
  C 559.85 508.27 448.49 571.83 339.05 537.67
  Q 338.53 537.51 338.03 537.69
  Q 316.85 545.42 294.92 550.68
  Q 293.68 550.98 294.81 551.57"
/>
</g>
<path fill="#ffffff" d="
  M 0.00 0.00
  L 800.00 0.00
  L 800.00 600.00
  L 0.00 600.00
  L 0.00 0.00
  Z
  M 399.35 61.80
  Q 426.94 86.26 446.76 117.34
  C 447.19 118.01 448.65 118.78 449.41 118.95
  Q 469.28 123.35 488.10 130.79
  A 0.34 0.33 -3.2 0 0 488.52 130.33
  Q 484.96 123.77 481.41 117.25
  Q 450.82 61.13 399.38 23.07
  Q 398.98 22.78 398.58 23.07
  C 320.20 80.79 277.11 172.31 281.30 269.18
  A 0.28 0.28 0.0 0 0 281.68 269.43
  L 310.44 259.06
  Q 310.92 258.89 310.98 258.38
  Q 311.16 256.81 311.17 255.24
  C 311.41 181.32 342.83 110.47 398.55 61.80
  Q 398.95 61.45 399.35 61.80
  Z
  M 590.44 314.31
  Q 605.73 327.03 622.36 344.43
  Q 622.79 344.88 622.76 344.26
  C 617.47 207.58 494.38 110.19 360.77 132.03
  C 357.36 132.59 344.88 161.81 343.17 166.14
  A 0.49 0.49 0.0 0 0 343.76 166.79
  C 452.88 135.53 563.18 200.96 588.26 311.09
  Q 588.66 312.84 590.44 314.31
  Z
  M 264.63 493.25
  Q 253.16 481.51 248.52 475.72
  C 183.54 394.39 192.24 281.47 267.36 210.10
  C 268.45 209.06 269.52 207.72 269.80 206.09
  Q 273.49 184.39 279.92 163.59
  A 0.33 0.33 0.0 0 0 279.42 163.22
  C 218.58 201.55 178.36 268.64 175.09 340.49
  Q 171.15 427.03 225.45 494.84
  Q 226.29 495.88 227.21 496.88
  Q 227.58 497.27 228.11 497.28
  Q 246.65 497.47 264.98 494.66
  A 0.53 0.51 8.7 0 0 265.37 494.38
  C 265.83 493.48 265.10 493.73 264.63 493.25
  Z
  M 410.45 438.64
  Q 421.59 448.12 433.73 456.28
  Q 434.32 456.67 434.82 456.16
  C 494.18 394.80 523.14 312.99 515.53 227.78
  C 515.22 224.36 514.53 220.43 514.15 216.72
  Q 514.10 216.20 513.70 215.87
  Q 498.14 202.52 479.73 193.44
  A 0.31 0.30 -83.6 0 0 479.30 193.79
  C 497.07 268.82 481.64 347.54 435.07 409.61
  C 427.77 419.33 419.04 429.04 410.43 438.18
  Q 410.20 438.42 410.45 438.64
  Z
  M 220.96 362.73
  C 287.26 300.31 378.62 277.22 466.81 300.44
  Q 467.46 300.61 467.55 299.94
  L 471.31 271.40
  Q 471.38 270.84 470.85 270.65
  Q 468.10 269.67 465.25 269.00
  C 383.85 249.83 298.97 266.88 231.03 315.28
  Q 226.86 318.25 223.04 321.81
  Q 222.66 322.16 222.58 322.67
  Q 219.27 342.46 220.44 362.53
  Q 220.48 363.18 220.96 362.73
  Z
  M 650.95 498.61
  C 627.41 507.03 602.92 510.96 578.02 512.44
  Q 577.52 512.47 577.18 512.83
  C 567.48 522.90 558.04 531.51 547.02 541.20
  Q 546.40 541.75 547.22 541.80
  Q 618.80 546.87 684.21 518.21
  Q 684.68 518.00 684.63 517.49
  C 674.00 420.64 616.45 338.30 530.24 293.03
  Q 529.82 292.82 529.74 293.28
  L 524.47 323.74
  Q 524.38 324.25 524.83 324.49
  C 590.78 361.14 635.70 424.45 651.29 497.99
  Q 651.39 498.45 650.95 498.61
  Z
  M 291.51 332.28
  C 315.84 417.89 376.90 486.77 459.02 521.03
  Q 459.51 521.24 460.00 521.06
  Q 479.30 514.01 496.53 502.84
  A 0.31 0.31 0.0 0 0 496.45 502.28
  C 413.68 477.52 349.09 414.59 322.99 331.68
  Q 321.28 326.23 319.42 320.63
  Q 319.25 320.13 318.75 320.30
  Q 304.89 325.00 291.81 331.59
  Q 291.38 331.81 291.51 332.28
  Z
  M 385.30 496.31
  L 361.76 476.42
  A 0.78 0.77 -39.9 0 0 360.88 476.35
  C 295.89 514.28 218.25 523.34 146.76 498.63
  Q 146.45 498.53 146.52 498.20
  Q 153.93 461.82 171.12 428.95
  A 2.50 2.46 -40.4 0 0 171.29 427.03
  Q 165.02 407.40 161.96 386.99
  Q 161.86 386.28 161.43 386.86
  Q 160.01 388.76 157.27 393.01
  Q 121.16 449.02 113.16 516.79
  Q 113.01 518.08 114.21 518.60
  C 203.16 557.24 303.71 548.58 385.28 496.67
  A 0.23 0.22 49.0 0 0 385.30 496.31
  Z
  M 294.81 551.57
  C 360.20 585.48 438.74 586.24 504.09 550.88
  Q 578.64 510.54 609.56 430.14
  A 1.35 1.32 41.2 0 0 609.47 428.99
  Q 600.06 412.66 588.39 397.87
  Q 588.01 397.39 587.86 397.99
  C 559.85 508.27 448.49 571.83 339.05 537.67
  Q 338.53 537.51 338.03 537.69
  Q 316.85 545.42 294.92 550.68
  Q 293.68 550.98 294.81 551.57
  Z"
/>
<path fill="#000000" d="
  M 398.55 61.80
  C 342.83 110.47 311.41 181.32 311.17 255.24
  Q 311.16 256.81 310.98 258.38
  Q 310.92 258.89 310.44 259.06
  L 281.68 269.43
  A 0.28 0.28 0.0 0 1 281.30 269.18
  C 277.11 172.31 320.20 80.79 398.58 23.07
  Q 398.98 22.78 399.38 23.07
  Q 450.82 61.13 481.41 117.25
  Q 484.96 123.77 488.52 130.33
  A 0.34 0.33 -3.2 0 1 488.10 130.79
  Q 469.28 123.35 449.41 118.95
  C 448.65 118.78 447.19 118.01 446.76 117.34
  Q 426.94 86.26 399.35 61.80
  Q 398.95 61.45 398.55 61.80
  Z"
/>
<path fill="#000000" d="
  M 590.44 314.31
  Q 588.66 312.84 588.26 311.09
  C 563.18 200.96 452.88 135.53 343.76 166.79
  A 0.49 0.49 0.0 0 1 343.17 166.14
  C 344.88 161.81 357.36 132.59 360.77 132.03
  C 494.38 110.19 617.47 207.58 622.76 344.26
  Q 622.79 344.88 622.36 344.43
  Q 605.73 327.03 590.44 314.31
  Z"
/>
<path fill="#000000" d="
  M 264.63 493.25
  C 265.10 493.73 265.83 493.48 265.37 494.38
  A 0.53 0.51 8.7 0 1 264.98 494.66
  Q 246.65 497.47 228.11 497.28
  Q 227.58 497.27 227.21 496.88
  Q 226.29 495.88 225.45 494.84
  Q 171.15 427.03 175.09 340.49
  C 178.36 268.64 218.58 201.55 279.42 163.22
  A 0.33 0.33 0.0 0 1 279.92 163.59
  Q 273.49 184.39 269.80 206.09
  C 269.52 207.72 268.45 209.06 267.36 210.10
  C 192.24 281.47 183.54 394.39 248.52 475.72
  Q 253.16 481.51 264.63 493.25
  Z"
/>
<path fill="#000000" d="
  M 410.45 438.64
  Q 410.20 438.42 410.43 438.18
  C 419.04 429.04 427.77 419.33 435.07 409.61
  C 481.64 347.54 497.07 268.82 479.30 193.79
  A 0.31 0.30 -83.6 0 1 479.73 193.44
  Q 498.14 202.52 513.70 215.87
  Q 514.10 216.20 514.15 216.72
  C 514.53 220.43 515.22 224.36 515.53 227.78
  C 523.14 312.99 494.18 394.80 434.82 456.16
  Q 434.32 456.67 433.73 456.28
  Q 421.59 448.12 410.45 438.64
  Z"
/>
<path fill="#000000" d="
  M 466.81 300.44
  C 378.62 277.22 287.26 300.31 220.96 362.73
  Q 220.48 363.18 220.44 362.53
  Q 219.27 342.46 222.58 322.67
  Q 222.66 322.16 223.04 321.81
  Q 226.86 318.25 231.03 315.28
  C 298.97 266.88 383.85 249.83 465.25 269.00
  Q 468.10 269.67 470.85 270.65
  Q 471.38 270.84 471.31 271.40
  L 467.55 299.94
  Q 467.46 300.61 466.81 300.44
  Z"
/>
<path fill="#000000" d="
  M 651.29 497.99
  C 635.70 424.45 590.78 361.14 524.83 324.49
  Q 524.38 324.25 524.47 323.74
  L 529.74 293.28
  Q 529.82 292.82 530.24 293.03
  C 616.45 338.30 674.00 420.64 684.63 517.49
  Q 684.68 518.00 684.21 518.21
  Q 618.80 546.87 547.22 541.80
  Q 546.40 541.75 547.02 541.20
  C 558.04 531.51 567.48 522.90 577.18 512.83
  Q 577.52 512.47 578.02 512.44
  C 602.92 510.96 627.41 507.03 650.95 498.61
  Q 651.39 498.45 651.29 497.99
  Z"
/>
<path fill="#000000" d="
  M 459.02 521.03
  C 376.90 486.77 315.84 417.89 291.51 332.28
  Q 291.38 331.81 291.81 331.59
  Q 304.89 325.00 318.75 320.30
  Q 319.25 320.13 319.42 320.63
  Q 321.28 326.23 322.99 331.68
  C 349.09 414.59 413.68 477.52 496.45 502.28
  A 0.31 0.31 0.0 0 1 496.53 502.84
  Q 479.30 514.01 460.00 521.06
  Q 459.51 521.24 459.02 521.03
  Z"
/>
<path fill="#000000" d="
  M 361.76 476.42
  L 385.30 496.31
  A 0.23 0.22 49.0 0 1 385.28 496.67
  C 303.71 548.58 203.16 557.24 114.21 518.60
  Q 113.01 518.08 113.16 516.79
  Q 121.16 449.02 157.27 393.01
  Q 160.01 388.76 161.43 386.86
  Q 161.86 386.28 161.96 386.99
  Q 165.02 407.40 171.29 427.03
  A 2.50 2.46 -40.4 0 1 171.12 428.95
  Q 153.93 461.82 146.52 498.20
  Q 146.45 498.53 146.76 498.63
  C 218.25 523.34 295.89 514.28 360.88 476.35
  A 0.78 0.77 -39.9 0 1 361.76 476.42
  Z"
/>
<path fill="#000000" d="
  M 294.81 551.57
  Q 293.68 550.98 294.92 550.68
  Q 316.85 545.42 338.03 537.69
  Q 338.53 537.51 339.05 537.67
  C 448.49 571.83 559.85 508.27 587.86 397.99
  Q 588.01 397.39 588.39 397.87
  Q 600.06 412.66 609.47 428.99
  A 1.35 1.32 41.2 0 1 609.56 430.14
  Q 578.64 510.54 504.09 550.88
  C 438.74 586.24 360.20 585.48 294.81 551.57
  Z"
/>
</svg>
