<?xml version="1.0" encoding="UTF-8" standalone="no"?>
<!DOCTYPE svg PUBLIC "-//W3C//DTD SVG 1.1//EN" "http://www.w3.org/Graphics/SVG/1.1/DTD/svg11.dtd">
<svg xmlns="http://www.w3.org/2000/svg" version="1.1" viewBox="0.00 0.00 595.00 432.00">
<g stroke-width="2.00" fill="none" stroke-linecap="butt">
<path stroke="#919191" vector-effect="non-scaling-stroke" d="
  M 234.04 288.81
  C 234.83 259.72 213.53 235.27 184.48 231.52
  C 154.04 227.59 123.49 244.34 112.27 272.80
  C 94.21 318.62 120.65 369.47 167.81 382.57
  C 222.55 397.77 278.38 363.07 291.46 308.49
  C 293.05 301.84 293.81 292.52 295.44 285.90
  C 311.85 219.37 389.13 193.12 442.06 237.18
  C 474.38 264.08 486.70 311.21 460.95 347.44
  C 432.01 388.17 370.42 390.84 347.55 342.20
  C 335.44 316.45 346.92 286.47 372.78 275.26
  C 390.53 267.55 410.07 272.19 421.82 287.69
  C 429.08 297.27 431.65 310.85 426.85 321.80
  C 421.88 333.15 410.30 341.97 397.57 341.36
  C 382.74 340.66 370.48 326.85 373.76 312.01
  C 375.92 302.25 385.49 294.95 395.57 296.61
  C 403.54 297.92 409.94 305.51 409.03 313.62
  C 408.31 320.05 404.24 323.22 399.00 326.37
  A 0.56 0.55 58.4 0 0 398.82 327.14
  Q 399.78 328.64 401.48 328.17
  C 411.52 325.38 416.80 315.18 413.00 305.22
  C 405.77 286.26 382.20 287.09 371.82 302.56
  C 364.88 312.89 366.76 325.61 374.25 335.15
  C 382.35 345.46 395.89 349.53 408.46 345.70
  C 423.22 341.21 434.12 327.33 435.19 312.21
  C 436.91 287.96 417.02 267.72 393.64 265.38
  C 362.81 262.31 336.21 290.42 336.06 320.07
  C 335.96 338.33 344.67 355.84 357.96 368.03
  C 376.48 385.04 403.64 390.04 427.51 381.28
  C 466.80 366.85 488.89 327.26 480.25 285.80
  C 468.16 227.72 404.53 193.03 349.31 213.55
  C 341.34 216.51 332.78 219.97 325.35 221.59
  Q 296.62 227.85 269.75 216.71
  C 210.34 192.07 197.24 113.31 241.29 68.29
  C 267.25 41.76 308.11 37.90 338.69 59.03
  Q 354.00 69.62 361.00 85.26
  C 371.78 109.36 365.95 140.08 344.80 157.05
  C 321.38 175.84 283.50 169.96 270.58 141.95
  C 257.31 113.17 282.42 78.25 314.46 90.50
  C 329.44 96.23 336.36 114.22 328.43 128.19
  C 323.94 136.11 316.15 140.92 307.00 139.69
  C 278.83 135.90 289.73 94.59 314.63 109.70
  Q 315.02 109.94 315.45 109.76
  C 316.90 109.15 316.67 108.08 315.73 107.09
  C 307.87 98.83 295.45 100.49 289.00 109.47
  C 276.03 127.56 293.75 147.43 313.18 145.14
  C 329.52 143.22 339.48 125.94 337.09 110.60
  C 335.39 99.72 327.74 89.98 317.67 85.55
  C 299.16 77.41 280.27 83.34 269.07 99.40
  C 255.66 118.64 259.05 145.58 276.95 160.79
  C 312.95 191.35 362.08 168.60 371.72 125.11
  C 384.30 68.41 326.33 27.65 274.94 40.65
  C 239.07 49.72 214.23 81.85 208.61 117.57
  C 203.39 150.76 215.20 183.80 239.42 206.60
  C 244.27 211.17 252.52 216.91 257.67 222.02
  C 276.41 240.58 287.18 266.47 285.76 293.00
  C 283.65 332.22 254.32 365.22 217.07 375.13
  C 178.94 385.27 138.04 370.71 120.72 333.73
  C 103.57 297.10 118.69 249.65 161.01 239.42
  C 197.59 230.58 234.41 257.54 226.74 297.25
  C 223.09 316.12 206.34 329.90 187.11 329.72
  C 170.37 329.56 155.75 318.84 153.60 301.58
  C 152.28 291.03 155.60 281.19 164.22 274.74
  C 176.98 265.20 197.61 269.69 201.02 286.86
  C 205.78 310.85 170.06 317.86 169.90 291.65
  C 169.89 290.42 169.15 289.59 167.95 290.26
  Q 167.50 290.51 167.34 291.00
  C 162.59 304.84 176.13 316.18 189.16 313.25
  C 211.44 308.24 212.02 278.80 194.13 268.22
  C 183.94 262.20 170.06 263.18 160.58 270.35
  C 147.75 280.06 144.53 296.57 150.00 311.25
  C 157.62 331.70 181.90 340.60 201.93 333.69
  C 221.84 326.82 233.48 309.41 234.04 288.81"
/>
<path stroke="#919191" vector-effect="non-scaling-stroke" d="
  M 295.74 231.65
  A 0.34 0.34 0.0 0 1 295.65 231.64
  L 272.87 226.32
  A 0.34 0.34 0.0 0 0 272.50 226.83
  L 284.95 246.64
  A 0.34 0.34 0.0 0 1 284.98 246.72
  L 291.77 269.11
  A 0.34 0.34 0.0 0 0 292.39 269.17
  L 303.33 248.49
  A 0.34 0.34 0.0 0 1 303.38 248.42
  L 319.37 231.35
  A 0.34 0.34 0.0 0 0 319.11 230.77
  L 295.74 231.65"
/>
</g>
<path fill="#ffffff" d="
  M 0.00 0.00
  L 595.00 0.00
  L 595.00 432.00
  L 0.00 432.00
  L 0.00 0.00
  Z
  M 234.04 288.81
  C 234.83 259.72 213.53 235.27 184.48 231.52
  C 154.04 227.59 123.49 244.34 112.27 272.80
  C 94.21 318.62 120.65 369.47 167.81 382.57
  C 222.55 397.77 278.38 363.07 291.46 308.49
  C 293.05 301.84 293.81 292.52 295.44 285.90
  C 311.85 219.37 389.13 193.12 442.06 237.18
  C 474.38 264.08 486.70 311.21 460.95 347.44
  C 432.01 388.17 370.42 390.84 347.55 342.20
  C 335.44 316.45 346.92 286.47 372.78 275.26
  C 390.53 267.55 410.07 272.19 421.82 287.69
  C 429.08 297.27 431.65 310.85 426.85 321.80
  C 421.88 333.15 410.30 341.97 397.57 341.36
  C 382.74 340.66 370.48 326.85 373.76 312.01
  C 375.92 302.25 385.49 294.95 395.57 296.61
  C 403.54 297.92 409.94 305.51 409.03 313.62
  C 408.31 320.05 404.24 323.22 399.00 326.37
  A 0.56 0.55 58.4 0 0 398.82 327.14
  Q 399.78 328.64 401.48 328.17
  C 411.52 325.38 416.80 315.18 413.00 305.22
  C 405.77 286.26 382.20 287.09 371.82 302.56
  C 364.88 312.89 366.76 325.61 374.25 335.15
  C 382.35 345.46 395.89 349.53 408.46 345.70
  C 423.22 341.21 434.12 327.33 435.19 312.21
  C 436.91 287.96 417.02 267.72 393.64 265.38
  C 362.81 262.31 336.21 290.42 336.06 320.07
  C 335.96 338.33 344.67 355.84 357.96 368.03
  C 376.48 385.04 403.64 390.04 427.51 381.28
  C 466.80 366.85 488.89 327.26 480.25 285.80
  C 468.16 227.72 404.53 193.03 349.31 213.55
  C 341.34 216.51 332.78 219.97 325.35 221.59
  Q 296.62 227.85 269.75 216.71
  C 210.34 192.07 197.24 113.31 241.29 68.29
  C 267.25 41.76 308.11 37.90 338.69 59.03
  Q 354.00 69.62 361.00 85.26
  C 371.78 109.36 365.95 140.08 344.80 157.05
  C 321.38 175.84 283.50 169.96 270.58 141.95
  C 257.31 113.17 282.42 78.25 314.46 90.50
  C 329.44 96.23 336.36 114.22 328.43 128.19
  C 323.94 136.11 316.15 140.92 307.00 139.69
  C 278.83 135.90 289.73 94.59 314.63 109.70
  Q 315.02 109.94 315.45 109.76
  C 316.90 109.15 316.67 108.08 315.73 107.09
  C 307.87 98.83 295.45 100.49 289.00 109.47
  C 276.03 127.56 293.75 147.43 313.18 145.14
  C 329.52 143.22 339.48 125.94 337.09 110.60
  C 335.39 99.72 327.74 89.98 317.67 85.55
  C 299.16 77.41 280.27 83.34 269.07 99.40
  C 255.66 118.64 259.05 145.58 276.95 160.79
  C 312.95 191.35 362.08 168.60 371.72 125.11
  C 384.30 68.41 326.33 27.65 274.94 40.65
  C 239.07 49.72 214.23 81.85 208.61 117.57
  C 203.39 150.76 215.20 183.80 239.42 206.60
  C 244.27 211.17 252.52 216.91 257.67 222.02
  C 276.41 240.58 287.18 266.47 285.76 293.00
  C 283.65 332.22 254.32 365.22 217.07 375.13
  C 178.94 385.27 138.04 370.71 120.72 333.73
  C 103.57 297.10 118.69 249.65 161.01 239.42
  C 197.59 230.58 234.41 257.54 226.74 297.25
  C 223.09 316.12 206.34 329.90 187.11 329.72
  C 170.37 329.56 155.75 318.84 153.60 301.58
  C 152.28 291.03 155.60 281.19 164.22 274.74
  C 176.98 265.20 197.61 269.69 201.02 286.86
  C 205.78 310.85 170.06 317.86 169.90 291.65
  C 169.89 290.42 169.15 289.59 167.95 290.26
  Q 167.50 290.51 167.34 291.00
  C 162.59 304.84 176.13 316.18 189.16 313.25
  C 211.44 308.24 212.02 278.80 194.13 268.22
  C 183.94 262.20 170.06 263.18 160.58 270.35
  C 147.75 280.06 144.53 296.57 150.00 311.25
  C 157.62 331.70 181.90 340.60 201.93 333.69
  C 221.84 326.82 233.48 309.41 234.04 288.81
  Z"
/>
<path fill="#232323" d="
  M 184.48 231.52
  C 213.53 235.27 234.83 259.72 234.04 288.81
  C 233.48 309.41 221.84 326.82 201.93 333.69
  C 181.90 340.60 157.62 331.70 150.00 311.25
  C 144.53 296.57 147.75 280.06 160.58 270.35
  C 170.06 263.18 183.94 262.20 194.13 268.22
  C 212.02 278.80 211.44 308.24 189.16 313.25
  C 176.13 316.18 162.59 304.84 167.34 291.00
  Q 167.50 290.51 167.95 290.26
  C 169.15 289.59 169.89 290.42 169.90 291.65
  C 170.06 317.86 205.78 310.85 201.02 286.86
  C 197.61 269.69 176.98 265.20 164.22 274.74
  C 155.60 281.19 152.28 291.03 153.60 301.58
  C 155.75 318.84 170.37 329.56 187.11 329.72
  C 206.34 329.90 223.09 316.12 226.74 297.25
  C 234.41 257.54 197.59 230.58 161.01 239.42
  C 118.69 249.65 103.57 297.10 120.72 333.73
  C 138.04 370.71 178.94 385.27 217.07 375.13
  C 254.32 365.22 283.65 332.22 285.76 293.00
  C 287.18 266.47 276.41 240.58 257.67 222.02
  C 252.52 216.91 244.27 211.17 239.42 206.60
  C 215.20 183.80 203.39 150.76 208.61 117.57
  C 214.23 81.85 239.07 49.72 274.94 40.65
  C 326.33 27.65 384.30 68.41 371.72 125.11
  C 362.08 168.60 312.95 191.35 276.95 160.79
  C 259.05 145.58 255.66 118.64 269.07 99.40
  C 280.27 83.34 299.16 77.41 317.67 85.55
  C 327.74 89.98 335.39 99.72 337.09 110.60
  C 339.48 125.94 329.52 143.22 313.18 145.14
  C 293.75 147.43 276.03 127.56 289.00 109.47
  C 295.45 100.49 307.87 98.83 315.73 107.09
  C 316.67 108.08 316.90 109.15 315.45 109.76
  Q 315.02 109.94 314.63 109.70
  C 289.73 94.59 278.83 135.90 307.00 139.69
  C 316.15 140.92 323.94 136.11 328.43 128.19
  C 336.36 114.22 329.44 96.23 314.46 90.50
  C 282.42 78.25 257.31 113.17 270.58 141.95
  C 283.50 169.96 321.38 175.84 344.80 157.05
  C 365.95 140.08 371.78 109.36 361.00 85.26
  Q 354.00 69.62 338.69 59.03
  C 308.11 37.90 267.25 41.76 241.29 68.29
  C 197.24 113.31 210.34 192.07 269.75 216.71
  Q 296.62 227.85 325.35 221.59
  C 332.78 219.97 341.34 216.51 349.31 213.55
  C 404.53 193.03 468.16 227.72 480.25 285.80
  C 488.89 327.26 466.80 366.85 427.51 381.28
  C 403.64 390.04 376.48 385.04 357.96 368.03
  C 344.67 355.84 335.96 338.33 336.06 320.07
  C 336.21 290.42 362.81 262.31 393.64 265.38
  C 417.02 267.72 436.91 287.96 435.19 312.21
  C 434.12 327.33 423.22 341.21 408.46 345.70
  C 395.89 349.53 382.35 345.46 374.25 335.15
  C 366.76 325.61 364.88 312.89 371.82 302.56
  C 382.20 287.09 405.77 286.26 413.00 305.22
  C 416.80 315.18 411.52 325.38 401.48 328.17
  Q 399.78 328.64 398.82 327.14
  A 0.56 0.55 58.4 0 1 399.00 326.37
  C 404.24 323.22 408.31 320.05 409.03 313.62
  C 409.94 305.51 403.54 297.92 395.57 296.61
  C 385.49 294.95 375.92 302.25 373.76 312.01
  C 370.48 326.85 382.74 340.66 397.57 341.36
  C 410.30 341.97 421.88 333.15 426.85 321.80
  C 431.65 310.85 429.08 297.27 421.82 287.69
  C 410.07 272.19 390.53 267.55 372.78 275.26
  C 346.92 286.47 335.44 316.45 347.55 342.20
  C 370.42 390.84 432.01 388.17 460.95 347.44
  C 486.70 311.21 474.38 264.08 442.06 237.18
  C 389.13 193.12 311.85 219.37 295.44 285.90
  C 293.81 292.52 293.05 301.84 291.46 308.49
  C 278.38 363.07 222.55 397.77 167.81 382.57
  C 120.65 369.47 94.21 318.62 112.27 272.80
  C 123.49 244.34 154.04 227.59 184.48 231.52
  Z
  M 295.74 231.65
  A 0.34 0.34 0.0 0 1 295.65 231.64
  L 272.87 226.32
  A 0.34 0.34 0.0 0 0 272.50 226.83
  L 284.95 246.64
  A 0.34 0.34 0.0 0 1 284.98 246.72
  L 291.77 269.11
  A 0.34 0.34 0.0 0 0 292.39 269.17
  L 303.33 248.49
  A 0.34 0.34 0.0 0 1 303.38 248.42
  L 319.37 231.35
  A 0.34 0.34 0.0 0 0 319.11 230.77
  L 295.74 231.65
  Z"
/>
<path fill="#ffffff" d="
  M 295.74 231.65
  L 319.11 230.77
  A 0.34 0.34 0.0 0 1 319.37 231.35
  L 303.38 248.42
  A 0.34 0.34 0.0 0 0 303.33 248.49
  L 292.39 269.17
  A 0.34 0.34 0.0 0 1 291.77 269.11
  L 284.98 246.72
  A 0.34 0.34 0.0 0 0 284.95 246.64
  L 272.50 226.83
  A 0.34 0.34 0.0 0 1 272.87 226.32
  L 295.65 231.64
  A 0.34 0.34 0.0 0 0 295.74 231.65
  Z"
/>
</svg>
