<?xml version="1.0" encoding="UTF-8" standalone="no"?>
<!DOCTYPE svg PUBLIC "-//W3C//DTD SVG 1.1//EN" "http://www.w3.org/Graphics/SVG/1.1/DTD/svg11.dtd">
<svg xmlns="http://www.w3.org/2000/svg" version="1.1" viewBox="0.00 0.00 768.00 768.00">
<g stroke-width="2.00" fill="none" stroke-linecap="butt">
<path stroke="#bebebf" vector-effect="non-scaling-stroke" d="
  M 457.25 492.46
  Q 476.83 496.00 489.65 482.33
  C 492.17 479.64 493.71 475.72 493.80 472.25
  C 494.24 456.65 481.36 446.29 466.98 444.29"
/>
<path stroke="#808080" vector-effect="non-scaling-stroke" d="
  M 466.98 444.29
  C 447.58 440.74 429.01 446.66 410.37 452.12
  Q 409.85 452.28 409.43 451.93
  Q 394.98 439.91 379.59 429.16
  Q 379.24 428.92 379.59 428.67
  L 419.87 399.47
  A 2.21 2.19 39.0 0 1 422.07 399.25
  C 436.04 405.48 454.57 410.05 469.49 405.72
  C 479.31 402.86 488.54 392.31 483.54 381.67
  C 473.78 360.92 433.26 371.88 418.05 378.32
  A 0.76 0.76 0.0 0 1 417.33 378.25
  L 400.50 366.96"
/>
<path stroke="#bebebf" vector-effect="non-scaling-stroke" d="
  M 400.50 366.96
  L 386.27 355.56
  Q 385.51 354.95 385.87 355.85
  C 387.30 359.41 397.04 365.42 400.46 367.75"
/>
<path stroke="#808080" vector-effect="non-scaling-stroke" d="
  M 400.46 367.75
  L 415.44 378.50
  Q 415.69 378.68 415.59 378.97
  L 415.40 379.55
  Q 415.34 379.74 415.16 379.64
  Q 408.95 375.80 403.13 371.37
  Q 391.29 362.35 378.86 353.93
  Q 378.43 353.64 378.83 353.31
  L 406.59 330.34
  Q 407.08 329.93 407.62 330.27
  L 408.53 330.85
  Q 408.99 331.14 408.65 331.57
  C 406.16 334.69 402.19 337.21 400.05 339.01
  Q 394.15 343.97 387.71 348.22
  Q 384.17 350.55 382.09 353.42
  A 0.64 0.63 88.7 0 0 383.00 354.29
  L 410.95 331.83
  A 1.10 1.10 0.0 0 1 412.22 331.75
  C 424.80 339.44 443.18 344.62 456.03 334.81
  C 467.52 326.05 461.89 310.75 449.74 306.52
  C 431.84 300.28 418.18 309.74 402.90 317.16
  Q 402.44 317.38 402.00 317.11
  L 387.42 308.06
  Q 387.08 307.85 387.34 307.55
  Q 405.72 286.25 388.50 263.88
  Q 388.23 263.52 388.45 263.13
  Q 396.97 248.41 399.33 230.81
  Q 403.32 201.10 400.98 172.30
  Q 400.75 169.43 399.82 165.29
  Q 398.86 161.02 398.74 158.25
  Q 397.02 118.21 392.60 71.44
  Q 391.25 57.18 389.97 47.97
  Q 389.54 44.85 389.65 47.99
  C 391.67 106.65 392.72 149.88 391.20 200.82
  Q 390.56 222.36 387.76 234.75
  C 385.36 245.38 380.82 254.60 376.47 264.47
  Q 376.27 264.94 376.55 265.36
  C 385.64 278.69 390.10 288.24 378.08 302.30
  A 0.77 0.76 32.1 0 1 377.18 302.50
  C 370.41 299.44 358.87 294.99 351.74 298.00
  C 345.40 300.68 339.99 307.72 345.18 314.36
  C 349.00 319.25 355.00 320.06 360.82 320.28
  C 367.74 320.55 374.85 317.02 380.83 313.77
  Q 381.30 313.51 381.76 313.79
  L 395.34 322.03
  Q 395.63 322.20 395.37 322.42
  L 366.33 346.46
  Q 365.95 346.77 365.53 346.54
  C 353.43 339.94 318.51 336.48 313.85 355.09
  C 311.72 363.59 318.09 371.99 326.47 373.84
  C 338.09 376.40 353.92 369.67 364.43 364.14
  Q 364.89 363.89 365.38 364.06
  Q 367.78 364.89 369.24 365.99
  Q 384.29 377.38 399.94 387.94
  Q 400.18 388.10 399.94 388.26
  L 357.70 416.20
  Q 357.26 416.49 356.79 416.26
  C 338.67 407.30 312.76 399.29 292.78 405.53
  C 281.00 409.22 272.85 420.65 274.62 432.82
  C 277.00 449.12 293.80 457.39 309.33 455.94
  C 327.21 454.26 345.56 447.11 361.18 439.17
  Q 361.66 438.92 362.11 439.24
  L 390.75 459.74
  A 0.59 0.59 0.0 0 1 390.37 460.81
  C 388.30 460.70 387.09 462.20 385.85 462.76
  Q 351.06 478.57 324.42 505.53
  C 299.86 530.38 281.75 566.82 284.50 602.33
  C 289.10 661.64 342.71 697.91 399.75 687.00
  C 431.72 680.88 457.26 657.06 465.90 625.75
  C 479.10 577.88 447.75 517.46 389.46 536.63
  C 360.39 546.19 347.68 573.58 358.30 602.49
  C 363.88 617.68 380.27 628.68 396.33 620.78
  C 409.49 614.30 410.89 596.55 406.04 584.46
  A 0.59 0.59 0.0 0 0 404.90 584.61
  C 403.52 597.19 393.15 617.63 377.09 612.40
  C 364.68 608.35 362.75 594.57 365.50 583.52
  Q 372.04 557.29 398.31 551.96
  C 416.74 548.22 432.18 554.80 440.15 571.97
  C 454.59 603.09 442.61 643.88 410.22 658.20
  C 387.92 668.06 361.38 668.24 340.06 655.65
  C 309.72 637.75 306.84 592.98 318.01 563.25
  C 332.66 524.28 366.70 490.88 403.26 472.08
  Q 403.66 471.88 404.03 472.11
  C 419.48 481.78 439.23 489.97 457.25 492.46"
/>
<path stroke="#3f3f40" vector-effect="non-scaling-stroke" d="
  M 400.46 367.75
  L 400.50 366.96"
/>
<path stroke="#3f3f40" vector-effect="non-scaling-stroke" d="
  M 466.98 444.29
  Q 477.62 449.71 481.30 452.19
  C 489.11 457.46 495.74 471.58 488.67 480.14
  C 480.18 490.42 468.05 491.76 455.00 490.04"
/>
<path stroke="#808080" vector-effect="non-scaling-stroke" d="
  M 455.00 490.04
  C 436.96 486.57 419.74 478.26 404.15 468.72
  Q 403.72 468.46 403.28 468.69
  Q 364.32 489.21 335.67 522.67
  C 310.93 551.57 297.94 585.69 309.44 623.56
  Q 311.87 631.54 317.36 637.85
  Q 318.13 638.73 317.61 637.69
  C 307.23 616.90 305.66 594.50 311.02 572.17
  C 315.79 552.30 328.20 533.10 341.35 518.23
  C 352.25 505.91 365.68 494.17 379.52 484.61
  C 386.67 479.67 395.30 475.03 403.34 470.52
  Q 403.77 470.27 404.17 470.57
  Q 410.60 475.43 415.70 477.78
  C 424.61 481.91 439.97 489.49 452.75 490.79"
/>
<path stroke="#3f3f40" vector-effect="non-scaling-stroke" d="
  M 452.75 490.79
  Q 454.45 491.50 456.27 491.29
  Q 456.78 491.24 457.07 491.65
  Q 457.30 491.99 457.25 492.46"
/>
<path stroke="#bebebf" vector-effect="non-scaling-stroke" d="
  M 452.75 490.79
  Q 454.32 491.21 455.00 490.04"
/>
<path stroke="#808080" vector-effect="non-scaling-stroke" d="
  M 403.6799 316.0915
  A 8.79 0.57 33.5 0 0 396.6646 310.7647
  A 8.79 0.57 33.5 0 0 389.0201 306.3885
  A 8.79 0.57 33.5 0 0 396.0354 311.7153
  A 8.79 0.57 33.5 0 0 403.6799 316.0915"
/>
<path stroke="#808080" vector-effect="non-scaling-stroke" d="
  M 387.2198 460.8881
  A 0.37 0.37 0.0 0 0 387.1361 460.3715
  L 360.1601 440.9158
  A 0.37 0.37 0.0 0 0 359.6436 440.9995
  L 359.6202 441.0319
  A 0.37 0.37 0.0 0 0 359.7039 441.5485
  L 386.6799 461.0042
  A 0.37 0.37 0.0 0 0 387.1964 460.9205
  L 387.2198 460.8881"
/>
<path stroke="#808080" vector-effect="non-scaling-stroke" d="
  M 399.28 192.24
  C 398.68 205.08 398.60 218.81 396.91 230.40
  C 395.41 240.70 391.94 254.13 385.74 262.72
  Q 385.46 263.12 385.73 263.52
  L 389.64 269.42
  Q 389.72 269.54 389.84 269.46
  L 390.16 269.27
  Q 390.59 269.02 390.30 268.61
  L 387.19 264.27
  Q 386.82 263.76 387.04 263.16
  C 388.70 258.72 391.23 255.18 393.55 249.27
  C 394.47 246.93 394.55 244.42 395.29 241.91
  Q 396.46 237.94 396.71 236.45
  Q 400.42 214.49 399.98 192.18
  Q 399.97 192.00 399.79 192.00
  Q 399.66 192.00 399.54 192.00
  Q 399.29 191.99 399.28 192.24"
/>
<path stroke="#808080" vector-effect="non-scaling-stroke" d="
  M 349.72 312.50
  C 356.29 316.12 364.90 312.45 370.33 308.43
  Q 370.76 308.12 370.28 307.89
  Q 361.44 303.69 351.81 304.09
  C 346.54 304.31 345.19 310.00 349.72 312.50"
/>
<path stroke="#808080" vector-effect="non-scaling-stroke" d="
  M 450.48 317.38
  C 455.04 320.08 453.96 325.88 450.37 328.57
  C 441.26 335.41 429.97 331.21 421.13 326.22
  Q 421.00 326.15 421.00 326.00
  Q 421.00 325.85 420.99 325.69
  Q 420.97 325.36 421.27 325.52
  C 429.35 329.91 439.49 333.22 448.09 328.40
  C 453.53 325.35 454.02 319.99 447.64 317.57
  C 437.32 313.65 426.34 320.54 418.42 326.17
  Q 417.95 326.50 418.44 326.79
  C 427.91 332.35 442.90 336.78 451.98 328.28
  C 455.86 324.64 455.23 318.92 450.70 316.26
  C 439.75 309.83 424.85 317.11 415.63 324.99
  Q 415.17 325.38 415.77 325.46
  L 416.95 325.63
  Q 417.45 325.69 417.49 325.20
  Q 417.53 324.75 417.77 324.55
  C 426.94 317.14 439.22 310.71 450.48 317.38"
/>
<path stroke="#808080" vector-effect="non-scaling-stroke" d="
  M 364.4222 347.6817
  A 0.55 0.55 0.0 0 0 364.0739 346.9862
  L 354.3764 343.7603
  A 0.55 0.55 0.0 0 0 353.6809 344.1085
  L 353.6178 344.2983
  A 0.55 0.55 0.0 0 0 353.9661 344.9938
  L 363.6636 348.2197
  A 0.55 0.55 0.0 0 0 364.3591 347.8715
  L 364.4222 347.6817"
/>
<path stroke="#808080" vector-effect="non-scaling-stroke" d="
  M 321.71 354.74
  C 317.38 361.13 323.67 367.14 330.26 367.68
  C 340.09 368.49 348.55 363.83 355.46 357.38
  Q 355.88 357.00 355.38 356.72
  C 347.11 352.06 328.94 344.06 321.71 354.74"
/>
<path stroke="#808080" vector-effect="non-scaling-stroke" d="
  M 435.54 389.97
  C 445.41 395.38 462.73 403.28 473.17 395.21
  C 476.17 392.89 478.47 389.07 476.51 385.46
  C 473.24 379.45 462.69 379.65 456.98 380.96
  Q 445.47 383.59 435.53 389.74
  A 0.13 0.13 0.0 0 0 435.54 389.97"
/>
<path stroke="#808080" vector-effect="non-scaling-stroke" d="
  M 435.2151 394.7930
  A 2.54 0.38 29.3 0 0 433.1860 393.2186
  A 2.54 0.38 29.3 0 0 430.7849 392.3070
  A 2.54 0.38 29.3 0 0 432.8140 393.8814
  A 2.54 0.38 29.3 0 0 435.2151 394.7930"
/>
<path stroke="#808080" vector-effect="non-scaling-stroke" d="
  M 276.14 428.41
  C 275.46 438.35 281.03 445.07 288.95 450.22
  Q 293.64 453.28 289.26 449.70
  Q 287.32 448.11 285.43 446.59
  C 277.36 440.12 275.05 430.71 279.25 421.23
  C 291.02 394.69 333.50 410.78 351.38 419.57
  C 352.07 419.91 353.44 419.86 353.89 419.23
  A 0.65 0.64 32.1 0 0 353.67 418.28
  Q 334.19 407.91 312.54 405.18
  C 295.72 403.06 277.42 409.58 276.14 428.41"
/>
<path stroke="#808080" vector-effect="non-scaling-stroke" d="
  M 284.75 424.51
  C 279.82 438.37 294.65 446.88 306.54 444.37
  C 318.54 441.84 331.53 434.42 341.58 427.51
  Q 342.05 427.19 341.56 426.90
  C 329.73 419.84 292.40 403.03 284.75 424.51"
/>
<path stroke="#808080" vector-effect="non-scaling-stroke" d="
  M 422.63 460.61
  C 435.10 470.71 452.11 482.10 468.46 482.06
  C 475.82 482.05 485.33 477.81 484.25 469.05
  C 483.41 462.31 476.44 456.52 469.99 454.97
  C 454.98 451.35 437.42 454.70 422.69 460.20
  Q 422.30 460.34 422.63 460.61"
/>
</g>
<path fill="#ffffff" d="
  M 0.00 0.00
  L 768.00 0.00
  L 768.00 768.00
  L 0.00 768.00
  L 0.00 0.00
  Z
  M 457.25 492.46
  Q 476.83 496.00 489.65 482.33
  C 492.17 479.64 493.71 475.72 493.80 472.25
  C 494.24 456.65 481.36 446.29 466.98 444.29
  C 447.58 440.74 429.01 446.66 410.37 452.12
  Q 409.85 452.28 409.43 451.93
  Q 394.98 439.91 379.59 429.16
  Q 379.24 428.92 379.59 428.67
  L 419.87 399.47
  A 2.21 2.19 39.0 0 1 422.07 399.25
  C 436.04 405.48 454.57 410.05 469.49 405.72
  C 479.31 402.86 488.54 392.31 483.54 381.67
  C 473.78 360.92 433.26 371.88 418.05 378.32
  A 0.76 0.76 0.0 0 1 417.33 378.25
  L 400.50 366.96
  L 386.27 355.56
  Q 385.51 354.95 385.87 355.85
  C 387.30 359.41 397.04 365.42 400.46 367.75
  L 415.44 378.50
  Q 415.69 378.68 415.59 378.97
  L 415.40 379.55
  Q 415.34 379.74 415.16 379.64
  Q 408.95 375.80 403.13 371.37
  Q 391.29 362.35 378.86 353.93
  Q 378.43 353.64 378.83 353.31
  L 406.59 330.34
  Q 407.08 329.93 407.62 330.27
  L 408.53 330.85
  Q 408.99 331.14 408.65 331.57
  C 406.16 334.69 402.19 337.21 400.05 339.01
  Q 394.15 343.97 387.71 348.22
  Q 384.17 350.55 382.09 353.42
  A 0.64 0.63 88.7 0 0 383.00 354.29
  L 410.95 331.83
  A 1.10 1.10 0.0 0 1 412.22 331.75
  C 424.80 339.44 443.18 344.62 456.03 334.81
  C 467.52 326.05 461.89 310.75 449.74 306.52
  C 431.84 300.28 418.18 309.74 402.90 317.16
  Q 402.44 317.38 402.00 317.11
  L 387.42 308.06
  Q 387.08 307.85 387.34 307.55
  Q 405.72 286.25 388.50 263.88
  Q 388.23 263.52 388.45 263.13
  Q 396.97 248.41 399.33 230.81
  Q 403.32 201.10 400.98 172.30
  Q 400.75 169.43 399.82 165.29
  Q 398.86 161.02 398.74 158.25
  Q 397.02 118.21 392.60 71.44
  Q 391.25 57.18 389.97 47.97
  Q 389.54 44.85 389.65 47.99
  C 391.67 106.65 392.72 149.88 391.20 200.82
  Q 390.56 222.36 387.76 234.75
  C 385.36 245.38 380.82 254.60 376.47 264.47
  Q 376.27 264.94 376.55 265.36
  C 385.64 278.69 390.10 288.24 378.08 302.30
  A 0.77 0.76 32.1 0 1 377.18 302.50
  C 370.41 299.44 358.87 294.99 351.74 298.00
  C 345.40 300.68 339.99 307.72 345.18 314.36
  C 349.00 319.25 355.00 320.06 360.82 320.28
  C 367.74 320.55 374.85 317.02 380.83 313.77
  Q 381.30 313.51 381.76 313.79
  L 395.34 322.03
  Q 395.63 322.20 395.37 322.42
  L 366.33 346.46
  Q 365.95 346.77 365.53 346.54
  C 353.43 339.94 318.51 336.48 313.85 355.09
  C 311.72 363.59 318.09 371.99 326.47 373.84
  C 338.09 376.40 353.92 369.67 364.43 364.14
  Q 364.89 363.89 365.38 364.06
  Q 367.78 364.89 369.24 365.99
  Q 384.29 377.38 399.94 387.94
  Q 400.18 388.10 399.94 388.26
  L 357.70 416.20
  Q 357.26 416.49 356.79 416.26
  C 338.67 407.30 312.76 399.29 292.78 405.53
  C 281.00 409.22 272.85 420.65 274.62 432.82
  C 277.00 449.12 293.80 457.39 309.33 455.94
  C 327.21 454.26 345.56 447.11 361.18 439.17
  Q 361.66 438.92 362.11 439.24
  L 390.75 459.74
  A 0.59 0.59 0.0 0 1 390.37 460.81
  C 388.30 460.70 387.09 462.20 385.85 462.76
  Q 351.06 478.57 324.42 505.53
  C 299.86 530.38 281.75 566.82 284.50 602.33
  C 289.10 661.64 342.71 697.91 399.75 687.00
  C 431.72 680.88 457.26 657.06 465.90 625.75
  C 479.10 577.88 447.75 517.46 389.46 536.63
  C 360.39 546.19 347.68 573.58 358.30 602.49
  C 363.88 617.68 380.27 628.68 396.33 620.78
  C 409.49 614.30 410.89 596.55 406.04 584.46
  A 0.59 0.59 0.0 0 0 404.90 584.61
  C 403.52 597.19 393.15 617.63 377.09 612.40
  C 364.68 608.35 362.75 594.57 365.50 583.52
  Q 372.04 557.29 398.31 551.96
  C 416.74 548.22 432.18 554.80 440.15 571.97
  C 454.59 603.09 442.61 643.88 410.22 658.20
  C 387.92 668.06 361.38 668.24 340.06 655.65
  C 309.72 637.75 306.84 592.98 318.01 563.25
  C 332.66 524.28 366.70 490.88 403.26 472.08
  Q 403.66 471.88 404.03 472.11
  C 419.48 481.78 439.23 489.97 457.25 492.46
  Z
  M 403.6799 316.0915
  A 8.79 0.57 33.5 0 0 396.6646 310.7647
  A 8.79 0.57 33.5 0 0 389.0201 306.3885
  A 8.79 0.57 33.5 0 0 396.0354 311.7153
  A 8.79 0.57 33.5 0 0 403.6799 316.0915
  Z
  M 387.2198 460.8881
  A 0.37 0.37 0.0 0 0 387.1361 460.3715
  L 360.1601 440.9158
  A 0.37 0.37 0.0 0 0 359.6436 440.9995
  L 359.6202 441.0319
  A 0.37 0.37 0.0 0 0 359.7039 441.5485
  L 386.6799 461.0042
  A 0.37 0.37 0.0 0 0 387.1964 460.9205
  L 387.2198 460.8881
  Z"
/>
<path fill="#010101" d="
  M 400.46 367.75
  L 400.50 366.96
  L 417.33 378.25
  A 0.76 0.76 0.0 0 0 418.05 378.32
  C 433.26 371.88 473.78 360.92 483.54 381.67
  C 488.54 392.31 479.31 402.86 469.49 405.72
  C 454.57 410.05 436.04 405.48 422.07 399.25
  A 2.21 2.19 39.0 0 0 419.87 399.47
  L 379.59 428.67
  Q 379.24 428.92 379.59 429.16
  Q 394.98 439.91 409.43 451.93
  Q 409.85 452.28 410.37 452.12
  C 429.01 446.66 447.58 440.74 466.98 444.29
  Q 477.62 449.71 481.30 452.19
  C 489.11 457.46 495.74 471.58 488.67 480.14
  C 480.18 490.42 468.05 491.76 455.00 490.04
  C 436.96 486.57 419.74 478.26 404.15 468.72
  Q 403.72 468.46 403.28 468.69
  Q 364.32 489.21 335.67 522.67
  C 310.93 551.57 297.94 585.69 309.44 623.56
  Q 311.87 631.54 317.36 637.85
  Q 318.13 638.73 317.61 637.69
  C 307.23 616.90 305.66 594.50 311.02 572.17
  C 315.79 552.30 328.20 533.10 341.35 518.23
  C 352.25 505.91 365.68 494.17 379.52 484.61
  C 386.67 479.67 395.30 475.03 403.34 470.52
  Q 403.77 470.27 404.17 470.57
  Q 410.60 475.43 415.70 477.78
  C 424.61 481.91 439.97 489.49 452.75 490.79
  Q 454.45 491.50 456.27 491.29
  Q 456.78 491.24 457.07 491.65
  Q 457.30 491.99 457.25 492.46
  C 439.23 489.97 419.48 481.78 404.03 472.11
  Q 403.66 471.88 403.26 472.08
  C 366.70 490.88 332.66 524.28 318.01 563.25
  C 306.84 592.98 309.72 637.75 340.06 655.65
  C 361.38 668.24 387.92 668.06 410.22 658.20
  C 442.61 643.88 454.59 603.09 440.15 571.97
  C 432.18 554.80 416.74 548.22 398.31 551.96
  Q 372.04 557.29 365.50 583.52
  C 362.75 594.57 364.68 608.35 377.09 612.40
  C 393.15 617.63 403.52 597.19 404.90 584.61
  A 0.59 0.59 0.0 0 1 406.04 584.46
  C 410.89 596.55 409.49 614.30 396.33 620.78
  C 380.27 628.68 363.88 617.68 358.30 602.49
  C 347.68 573.58 360.39 546.19 389.46 536.63
  C 447.75 517.46 479.10 577.88 465.90 625.75
  C 457.26 657.06 431.72 680.88 399.75 687.00
  C 342.71 697.91 289.10 661.64 284.50 602.33
  C 281.75 566.82 299.86 530.38 324.42 505.53
  Q 351.06 478.57 385.85 462.76
  C 387.09 462.20 388.30 460.70 390.37 460.81
  A 0.59 0.59 0.0 0 0 390.75 459.74
  L 362.11 439.24
  Q 361.66 438.92 361.18 439.17
  C 345.56 447.11 327.21 454.26 309.33 455.94
  C 293.80 457.39 277.00 449.12 274.62 432.82
  C 272.85 420.65 281.00 409.22 292.78 405.53
  C 312.76 399.29 338.67 407.30 356.79 416.26
  Q 357.26 416.49 357.70 416.20
  L 399.94 388.26
  Q 400.18 388.10 399.94 387.94
  Q 384.29 377.38 369.24 365.99
  Q 367.78 364.89 365.38 364.06
  Q 364.89 363.89 364.43 364.14
  C 353.92 369.67 338.09 376.40 326.47 373.84
  C 318.09 371.99 311.72 363.59 313.85 355.09
  C 318.51 336.48 353.43 339.94 365.53 346.54
  Q 365.95 346.77 366.33 346.46
  L 395.37 322.42
  Q 395.63 322.20 395.34 322.03
  L 381.76 313.79
  Q 381.30 313.51 380.83 313.77
  C 374.85 317.02 367.74 320.55 360.82 320.28
  C 355.00 320.06 349.00 319.25 345.18 314.36
  C 339.99 307.72 345.40 300.68 351.74 298.00
  C 358.87 294.99 370.41 299.44 377.18 302.50
  A 0.77 0.76 32.1 0 0 378.08 302.30
  C 390.10 288.24 385.64 278.69 376.55 265.36
  Q 376.27 264.94 376.47 264.47
  C 380.82 254.60 385.36 245.38 387.76 234.75
  Q 390.56 222.36 391.20 200.82
  C 392.72 149.88 391.67 106.65 389.65 47.99
  Q 389.54 44.85 389.97 47.97
  Q 391.25 57.18 392.60 71.44
  Q 397.02 118.21 398.74 158.25
  Q 398.86 161.02 399.82 165.29
  Q 400.75 169.43 400.98 172.30
  Q 403.32 201.10 399.33 230.81
  Q 396.97 248.41 388.45 263.13
  Q 388.23 263.52 388.50 263.88
  Q 405.72 286.25 387.34 307.55
  Q 387.08 307.85 387.42 308.06
  L 402.00 317.11
  Q 402.44 317.38 402.90 317.16
  C 418.18 309.74 431.84 300.28 449.74 306.52
  C 461.89 310.75 467.52 326.05 456.03 334.81
  C 443.18 344.62 424.80 339.44 412.22 331.75
  A 1.10 1.10 0.0 0 0 410.95 331.83
  L 383.00 354.29
  A 0.64 0.63 88.7 0 1 382.09 353.42
  Q 384.17 350.55 387.71 348.22
  Q 394.15 343.97 400.05 339.01
  C 402.19 337.21 406.16 334.69 408.65 331.57
  Q 408.99 331.14 408.53 330.85
  L 407.62 330.27
  Q 407.08 329.93 406.59 330.34
  L 378.83 353.31
  Q 378.43 353.64 378.86 353.93
  Q 391.29 362.35 403.13 371.37
  Q 408.95 375.80 415.16 379.64
  Q 415.34 379.74 415.40 379.55
  L 415.59 378.97
  Q 415.69 378.68 415.44 378.50
  L 400.46 367.75
  Z
  M 399.28 192.24
  C 398.68 205.08 398.60 218.81 396.91 230.40
  C 395.41 240.70 391.94 254.13 385.74 262.72
  Q 385.46 263.12 385.73 263.52
  L 389.64 269.42
  Q 389.72 269.54 389.84 269.46
  L 390.16 269.27
  Q 390.59 269.02 390.30 268.61
  L 387.19 264.27
  Q 386.82 263.76 387.04 263.16
  C 388.70 258.72 391.23 255.18 393.55 249.27
  C 394.47 246.93 394.55 244.42 395.29 241.91
  Q 396.46 237.94 396.71 236.45
  Q 400.42 214.49 399.98 192.18
  Q 399.97 192.00 399.79 192.00
  Q 399.66 192.00 399.54 192.00
  Q 399.29 191.99 399.28 192.24
  Z
  M 349.72 312.50
  C 356.29 316.12 364.90 312.45 370.33 308.43
  Q 370.76 308.12 370.28 307.89
  Q 361.44 303.69 351.81 304.09
  C 346.54 304.31 345.19 310.00 349.72 312.50
  Z
  M 450.48 317.38
  C 455.04 320.08 453.96 325.88 450.37 328.57
  C 441.26 335.41 429.97 331.21 421.13 326.22
  Q 421.00 326.15 421.00 326.00
  Q 421.00 325.85 420.99 325.69
  Q 420.97 325.36 421.27 325.52
  C 429.35 329.91 439.49 333.22 448.09 328.40
  C 453.53 325.35 454.02 319.99 447.64 317.57
  C 437.32 313.65 426.34 320.54 418.42 326.17
  Q 417.95 326.50 418.44 326.79
  C 427.91 332.35 442.90 336.78 451.98 328.28
  C 455.86 324.64 455.23 318.92 450.70 316.26
  C 439.75 309.83 424.85 317.11 415.63 324.99
  Q 415.17 325.38 415.77 325.46
  L 416.95 325.63
  Q 417.45 325.69 417.49 325.20
  Q 417.53 324.75 417.77 324.55
  C 426.94 317.14 439.22 310.71 450.48 317.38
  Z
  M 364.4222 347.6817
  A 0.55 0.55 0.0 0 0 364.0739 346.9862
  L 354.3764 343.7603
  A 0.55 0.55 0.0 0 0 353.6809 344.1085
  L 353.6178 344.2983
  A 0.55 0.55 0.0 0 0 353.9661 344.9938
  L 363.6636 348.2197
  A 0.55 0.55 0.0 0 0 364.3591 347.8715
  L 364.4222 347.6817
  Z
  M 321.71 354.74
  C 317.38 361.13 323.67 367.14 330.26 367.68
  C 340.09 368.49 348.55 363.83 355.46 357.38
  Q 355.88 357.00 355.38 356.72
  C 347.11 352.06 328.94 344.06 321.71 354.74
  Z
  M 435.54 389.97
  C 445.41 395.38 462.73 403.28 473.17 395.21
  C 476.17 392.89 478.47 389.07 476.51 385.46
  C 473.24 379.45 462.69 379.65 456.98 380.96
  Q 445.47 383.59 435.53 389.74
  A 0.13 0.13 0.0 0 0 435.54 389.97
  Z
  M 435.2151 394.7930
  A 2.54 0.38 29.3 0 0 433.1860 393.2186
  A 2.54 0.38 29.3 0 0 430.7849 392.3070
  A 2.54 0.38 29.3 0 0 432.8140 393.8814
  A 2.54 0.38 29.3 0 0 435.2151 394.7930
  Z
  M 276.14 428.41
  C 275.46 438.35 281.03 445.07 288.95 450.22
  Q 293.64 453.28 289.26 449.70
  Q 287.32 448.11 285.43 446.59
  C 277.36 440.12 275.05 430.71 279.25 421.23
  C 291.02 394.69 333.50 410.78 351.38 419.57
  C 352.07 419.91 353.44 419.86 353.89 419.23
  A 0.65 0.64 32.1 0 0 353.67 418.28
  Q 334.19 407.91 312.54 405.18
  C 295.72 403.06 277.42 409.58 276.14 428.41
  Z
  M 284.75 424.51
  C 279.82 438.37 294.65 446.88 306.54 444.37
  C 318.54 441.84 331.53 434.42 341.58 427.51
  Q 342.05 427.19 341.56 426.90
  C 329.73 419.84 292.40 403.03 284.75 424.51
  Z
  M 422.63 460.61
  C 435.10 470.71 452.11 482.10 468.46 482.06
  C 475.82 482.05 485.33 477.81 484.25 469.05
  C 483.41 462.31 476.44 456.52 469.99 454.97
  C 454.98 451.35 437.42 454.70 422.69 460.20
  Q 422.30 460.34 422.63 460.61
  Z"
/>
<path fill="#ffffff" d="
  M 396.91 230.40
  C 398.60 218.81 398.68 205.08 399.28 192.24
  Q 399.29 191.99 399.54 192.00
  Q 399.66 192.00 399.79 192.00
  Q 399.97 192.00 399.98 192.18
  Q 400.42 214.49 396.71 236.45
  Q 396.46 237.94 395.29 241.91
  C 394.55 244.42 394.47 246.93 393.55 249.27
  C 391.23 255.18 388.70 258.72 387.04 263.16
  Q 386.82 263.76 387.19 264.27
  L 390.30 268.61
  Q 390.59 269.02 390.16 269.27
  L 389.84 269.46
  Q 389.72 269.54 389.64 269.42
  L 385.73 263.52
  Q 385.46 263.12 385.74 262.72
  C 391.94 254.13 395.41 240.70 396.91 230.40
  Z"
/>
<path fill="#ffffff" d="
  M 349.72 312.50
  C 345.19 310.00 346.54 304.31 351.81 304.09
  Q 361.44 303.69 370.28 307.89
  Q 370.76 308.12 370.33 308.43
  C 364.90 312.45 356.29 316.12 349.72 312.50
  Z"
/>
<ellipse fill="#010101" cx="0.00" cy="0.00" transform="translate(396.35,311.24) rotate(33.5)" rx="8.79" ry="0.57"/>
<path fill="#ffffff" d="
  M 450.48 317.38
  C 439.22 310.71 426.94 317.14 417.77 324.55
  Q 417.53 324.75 417.49 325.20
  Q 417.45 325.69 416.95 325.63
  L 415.77 325.46
  Q 415.17 325.38 415.63 324.99
  C 424.85 317.11 439.75 309.83 450.70 316.26
  C 455.23 318.92 455.86 324.64 451.98 328.28
  C 442.90 336.78 427.91 332.35 418.44 326.79
  Q 417.95 326.50 418.42 326.17
  C 426.34 320.54 437.32 313.65 447.64 317.57
  C 454.02 319.99 453.53 325.35 448.09 328.40
  C 439.49 333.22 429.35 329.91 421.27 325.52
  Q 420.97 325.36 420.99 325.69
  Q 421.00 325.85 421.00 326.00
  Q 421.00 326.15 421.13 326.22
  C 429.97 331.21 441.26 335.41 450.37 328.57
  C 453.96 325.88 455.04 320.08 450.48 317.38
  Z"
/>
<rect fill="#ffffff" x="-5.66" y="-0.65" transform="translate(359.02,345.99) rotate(18.4)" width="11.32" height="1.30" rx="0.55"/>
<path fill="#ffffff" d="
  M 330.26 367.68
  C 323.67 367.14 317.38 361.13 321.71 354.74
  C 328.94 344.06 347.11 352.06 355.38 356.72
  Q 355.88 357.00 355.46 357.38
  C 348.55 363.83 340.09 368.49 330.26 367.68
  Z"
/>
<path fill="#7d7d7e" d="
  M 400.50 366.96
  L 400.46 367.75
  C 397.04 365.42 387.30 359.41 385.87 355.85
  Q 385.51 354.95 386.27 355.56
  L 400.50 366.96
  Z"
/>
<path fill="#ffffff" d="
  M 435.54 389.97
  A 0.13 0.13 0.0 0 1 435.53 389.74
  Q 445.47 383.59 456.98 380.96
  C 462.69 379.65 473.24 379.45 476.51 385.46
  C 478.47 389.07 476.17 392.89 473.17 395.21
  C 462.73 403.28 445.41 395.38 435.54 389.97
  Z"
/>
<ellipse fill="#ffffff" cx="0.00" cy="0.00" transform="translate(433.00,393.55) rotate(29.3)" rx="2.54" ry="0.38"/>
<path fill="#ffffff" d="
  M 288.95 450.22
  C 281.03 445.07 275.46 438.35 276.14 428.41
  C 277.42 409.58 295.72 403.06 312.54 405.18
  Q 334.19 407.91 353.67 418.28
  A 0.65 0.64 32.1 0 1 353.89 419.23
  C 353.44 419.86 352.07 419.91 351.38 419.57
  C 333.50 410.78 291.02 394.69 279.25 421.23
  C 275.05 430.71 277.36 440.12 285.43 446.59
  Q 287.32 448.11 289.26 449.70
  Q 293.64 453.28 288.95 450.22
  Z"
/>
<path fill="#ffffff" d="
  M 306.54 444.37
  C 294.65 446.88 279.82 438.37 284.75 424.51
  C 292.40 403.03 329.73 419.84 341.56 426.90
  Q 342.05 427.19 341.58 427.51
  C 331.53 434.42 318.54 441.84 306.54 444.37
  Z"
/>
<rect fill="#010101" x="-17.00" y="-0.39" transform="translate(373.42,450.96) rotate(35.8)" width="34.00" height="0.78" rx="0.37"/>
<path fill="#7d7d7e" d="
  M 466.98 444.29
  C 481.36 446.29 494.24 456.65 493.80 472.25
  C 493.71 475.72 492.17 479.64 489.65 482.33
  Q 476.83 496.00 457.25 492.46
  Q 457.30 491.99 457.07 491.65
  Q 456.78 491.24 456.27 491.29
  Q 454.45 491.50 452.75 490.79
  Q 454.32 491.21 455.00 490.04
  C 468.05 491.76 480.18 490.42 488.67 480.14
  C 495.74 471.58 489.11 457.46 481.30 452.19
  Q 477.62 449.71 466.98 444.29
  Z"
/>
<path fill="#ffffff" d="
  M 422.63 460.61
  Q 422.30 460.34 422.69 460.20
  C 437.42 454.70 454.98 451.35 469.99 454.97
  C 476.44 456.52 483.41 462.31 484.25 469.05
  C 485.33 477.81 475.82 482.05 468.46 482.06
  C 452.11 482.10 435.10 470.71 422.63 460.61
  Z"
/>
<path fill="#ffffff" d="
  M 455.00 490.04
  Q 454.32 491.21 452.75 490.79
  C 439.97 489.49 424.61 481.91 415.70 477.78
  Q 410.60 475.43 404.17 470.57
  Q 403.77 470.27 403.34 470.52
  C 395.30 475.03 386.67 479.67 379.52 484.61
  C 365.68 494.17 352.25 505.91 341.35 518.23
  C 328.20 533.10 315.79 552.30 311.02 572.17
  C 305.66 594.50 307.23 616.90 317.61 637.69
  Q 318.13 638.73 317.36 637.85
  Q 311.87 631.54 309.44 623.56
  C 297.94 585.69 310.93 551.57 335.67 522.67
  Q 364.32 489.21 403.28 468.69
  Q 403.72 468.46 404.15 468.72
  C 419.74 478.26 436.96 486.57 455.00 490.04
  Z"
/>
</svg>
